  0
SECTION
  2
HEADER
  9
$ACADVER
  1
AC1024
  9
$ACADMAINTVER
 70
6
  9
$DWGCODEPAGE
  3
ANSI_1252
  9
$LASTSAVEDBY
  1
ezdxf
  9
$INSBASE
 10
0.0
 20
0.0
 30
0.0
  9
$EXTMIN
 10
1e+20
 20
1e+20
 30
1e+20
  9
$EXTMAX
 10
-1e+20
 20
-1e+20
 30
-1e+20
  9
$LIMMIN
 10
0.0
 20
0.0
  9
$LIMMAX
 10
420.0
 20
297.0
  9
$ORTHOMODE
 70
0
  9
$REGENMODE
 70
1
  9
$FILLMODE
 70
1
  9
$QTEXTMODE
 70
0
  9
$MIRRTEXT
 70
1
  9
$LTSCALE
 40
1.0
  9
$ATTMODE
 70
1
  9
$TEXTSIZE
 40
2.5
  9
$TRACEWID
 40
1.0
  9
$TEXTSTYLE
  7
Standard
  9
$CLAYER
  8
0
  9
$CELTYPE
  6
ByLayer
  9
$CECOLOR
 62
256
  9
$CELTSCALE
 40
1.0
  9
$DISPSILH
 70
0
  9
$DIMSCALE
 40
1.0
  9
$DIMASZ
 40
2.5
  9
$DIMEXO
 40
0.625
  9
$DIMDLI
 40
3.75
  9
$DIMRND
 40
0.0
  9
$DIMDLE
 40
0.0
  9
$DIMEXE
 40
1.25
  9
$DIMTP
 40
0.0
  9
$DIMTM
 40
0.0
  9
$DIMTXT
 40
2.5
  9
$DIMCEN
 40
2.5
  9
$DIMTSZ
 40
0.0
  9
$DIMTOL
 70
0
  9
$DIMLIM
 70
0
  9
$DIMTIH
 70
0
  9
$DIMTOH
 70
0
  9
$DIMSE1
 70
0
  9
$DIMSE2
 70
0
  9
$DIMTAD
 70
1
  9
$DIMZIN
 70
8
  9
$DIMBLK
  1

  9
$DIMASO
 70
1
  9
$DIMSHO
 70
1
  9
$DIMPOST
  1

  9
$DIMAPOST
  1

  9
$DIMALT
 70
0
  9
$DIMALTD
 70
3
  9
$DIMALTF
 40
0.03937007874
  9
$DIMLFAC
 40
1.0
  9
$DIMTOFL
 70
1
  9
$DIMTVP
 40
0.0
  9
$DIMTIX
 70
0
  9
$DIMSOXD
 70
0
  9
$DIMSAH
 70
0
  9
$DIMBLK1
  1

  9
$DIMBLK2
  1

  9
$DIMSTYLE
  2
ISO-25
  9
$DIMCLRD
 70
0
  9
$DIMCLRE
 70
0
  9
$DIMCLRT
 70
0
  9
$DIMTFAC
 40
1.0
  9
$DIMGAP
 40
0.625
  9
$DIMJUST
 70
0
  9
$DIMSD1
 70
0
  9
$DIMSD2
 70
0
  9
$DIMTOLJ
 70
0
  9
$DIMTZIN
 70
8
  9
$DIMALTZ
 70
0
  9
$DIMALTTZ
 70
0
  9
$DIMUPT
 70
0
  9
$DIMDEC
 70
2
  9
$DIMTDEC
 70
2
  9
$DIMALTU
 70
2
  9
$DIMALTTD
 70
3
  9
$DIMTXSTY
  7
Standard
  9
$DIMAUNIT
 70
0
  9
$DIMADEC
 70
0
  9
$DIMALTRND
 40
0.0
  9
$DIMAZIN
 70
0
  9
$DIMDSEP
 70
44
  9
$DIMATFIT
 70
3
  9
$DIMFRAC
 70
0
  9
$DIMLDRBLK
  1

  9
$DIMLUNIT
 70
2
  9
$DIMLWD
 70
-2
  9
$DIMLWE
 70
-2
  9
$DIMTMOVE
 70
0
  9
$DIMFXL
 40
1.0
  9
$DIMFXLON
 70
0
  9
$DIMJOGANG
 40
0.785398163397
  9
$DIMTFILL
 70
0
  9
$DIMTFILLCLR
 70
0
  9
$DIMARCSYM
 70
0
  9
$DIMLTYPE
  6

  9
$DIMLTEX1
  6

  9
$DIMLTEX2
  6

  9
$DIMTXTDIRECTION
 70
0
  9
$LUNITS
 70
2
  9
$LUPREC
 70
4
  9
$SKETCHINC
 40
1.0
  9
$FILLETRAD
 40
10.0
  9
$AUNITS
 70
0
  9
$AUPREC
 70
2
  9
$MENU
  1
.
  9
$ELEVATION
 40
0.0
  9
$PELEVATION
 40
0.0
  9
$THICKNESS
 40
0.0
  9
$LIMCHECK
 70
0
  9
$CHAMFERA
 40
0.0
  9
$CHAMFERB
 40
0.0
  9
$CHAMFERC
 40
0.0
  9
$CHAMFERD
 40
0.0
  9
$SKPOLY
 70
0
  9
$TDCREATE
 40
2461217.6590393516
  9
$TDUCREATE
 40
2458532.153996898
  9
$TDUPDATE
 40
2461217.6590393516
  9
$TDUUPDATE
 40
2458532.1544311
  9
$TDINDWG
 40
0.0
  9
$TDUSRTIMER
 40
0.0
  9
$USRTIMER
 70
1
  9
$ANGBASE
 50
0.0
  9
$ANGDIR
 70
0
  9
$PDMODE
 70
0
  9
$PDSIZE
 40
0.0
  9
$PLINEWID
 40
0.0
  9
$SPLFRAME
 70
0
  9
$SPLINETYPE
 70
6
  9
$SPLINESEGS
 70
8
  9
$HANDSEED
  5
149
  9
$SURFTAB1
 70
6
  9
$SURFTAB2
 70
6
  9
$SURFTYPE
 70
6
  9
$SURFU
 70
6
  9
$SURFV
 70
6
  9
$UCSBASE
  2

  9
$UCSNAME
  2

  9
$UCSORG
 10
0.0
 20
0.0
 30
0.0
  9
$UCSXDIR
 10
1.0
 20
0.0
 30
0.0
  9
$UCSYDIR
 10
0.0
 20
1.0
 30
0.0
  9
$UCSORTHOREF
  2

  9
$UCSORTHOVIEW
 70
0
  9
$UCSORGTOP
 10
0.0
 20
0.0
 30
0.0
  9
$UCSORGBOTTOM
 10
0.0
 20
0.0
 30
0.0
  9
$UCSORGLEFT
 10
0.0
 20
0.0
 30
0.0
  9
$UCSORGRIGHT
 10
0.0
 20
0.0
 30
0.0
  9
$UCSORGFRONT
 10
0.0
 20
0.0
 30
0.0
  9
$UCSORGBACK
 10
0.0
 20
0.0
 30
0.0
  9
$PUCSBASE
  2

  9
$PUCSNAME
  2

  9
$PUCSORG
 10
0.0
 20
0.0
 30
0.0
  9
$PUCSXDIR
 10
1.0
 20
0.0
 30
0.0
  9
$PUCSYDIR
 10
0.0
 20
1.0
 30
0.0
  9
$PUCSORTHOREF
  2

  9
$PUCSORTHOVIEW
 70
0
  9
$PUCSORGTOP
 10
0.0
 20
0.0
 30
0.0
  9
$PUCSORGBOTTOM
 10
0.0
 20
0.0
 30
0.0
  9
$PUCSORGLEFT
 10
0.0
 20
0.0
 30
0.0
  9
$PUCSORGRIGHT
 10
0.0
 20
0.0
 30
0.0
  9
$PUCSORGFRONT
 10
0.0
 20
0.0
 30
0.0
  9
$PUCSORGBACK
 10
0.0
 20
0.0
 30
0.0
  9
$USERI1
 70
0
  9
$USERI2
 70
0
  9
$USERI3
 70
0
  9
$USERI4
 70
0
  9
$USERI5
 70
0
  9
$USERR1
 40
0.0
  9
$USERR2
 40
0.0
  9
$USERR3
 40
0.0
  9
$USERR4
 40
0.0
  9
$USERR5
 40
0.0
  9
$WORLDVIEW
 70
1
  9
$SHADEDGE
 70
3
  9
$SHADEDIF
 70
70
  9
$TILEMODE
 70
1
  9
$MAXACTVP
 70
64
  9
$PINSBASE
 10
0.0
 20
0.0
 30
0.0
  9
$PLIMCHECK
 70
0
  9
$PEXTMIN
 10
1e+20
 20
1e+20
 30
1e+20
  9
$PEXTMAX
 10
-1e+20
 20
-1e+20
 30
-1e+20
  9
$PLIMMIN
 10
0.0
 20
0.0
  9
$PLIMMAX
 10
420.0
 20
297.0
  9
$UNITMODE
 70
0
  9
$VISRETAIN
 70
1
  9
$PLINEGEN
 70
0
  9
$PSLTSCALE
 70
1
  9
$TREEDEPTH
 70
3020
  9
$CMLSTYLE
  2
Standard
  9
$CMLJUST
 70
0
  9
$CMLSCALE
 40
20.0
  9
$PROXYGRAPHICS
 70
1
  9
$MEASUREMENT
 70
1
  9
$CELWEIGHT
370
-1
  9
$ENDCAPS
280
0
  9
$JOINSTYLE
280
0
  9
$LWDISPLAY
290
0
  9
$INSUNITS
 70
6
  9
$HYPERLINKBASE
  1

  9
$STYLESHEET
  1

  9
$XEDIT
290
1
  9
$CEPSNTYPE
380
0
  9
$PSTYLEMODE
290
1
  9
$FINGERPRINTGUID
  2
{2C8BDDD1-DA64-4A38-A191-74F1951C62ED}
  9
$VERSIONGUID
  2
{483DD4E2-6465-462E-A6B6-7C09A701B41F}
  9
$EXTNAMES
290
1
  9
$PSVPSCALE
 40
0.0
  9
$OLESTARTUP
290
0
  9
$SORTENTS
280
127
  9
$INDEXCTL
280
0
  9
$HIDETEXT
280
1
  9
$XCLIPFRAME
280
1
  9
$HALOGAP
280
0
  9
$OBSCOLOR
 70
257
  9
$OBSLTYPE
280
0
  9
$INTERSECTIONDISPLAY
280
0
  9
$INTERSECTIONCOLOR
 70
257
  9
$DIMASSOC
280
2
  9
$PROJECTNAME
  1

  9
$CAMERADISPLAY
290
0
  9
$LENSLENGTH
 40
50.0
  9
$CAMERAHEIGHT
 40
0.0
  9
$STEPSPERSEC
 40
24.0
  9
$STEPSIZE
 40
100.0
  9
$3DDWFPREC
 40
2.0
  9
$PSOLWIDTH
 40
0.005
  9
$PSOLHEIGHT
 40
0.08
  9
$LOFTANG1
 40
1.570796326795
  9
$LOFTANG2
 40
1.570796326795
  9
$LOFTMAG1
 40
0.0
  9
$LOFTMAG2
 40
0.0
  9
$LOFTPARAM
 70
7
  9
$LOFTNORMALS
280
1
  9
$LATITUDE
 40
37.795
  9
$LONGITUDE
 40
-122.394
  9
$NORTHDIRECTION
 40
0.0
  9
$TIMEZONE
 70
-8000
  9
$LIGHTGLYPHDISPLAY
280
1
  9
$TILEMODELIGHTSYNCH
280
1
  9
$CMATERIAL
347
20
  9
$SOLIDHIST
280
0
  9
$SHOWHIST
280
1
  9
$DWFFRAME
280
2
  9
$DGNFRAME
280
2
  9
$REALWORLDSCALE
290
1
  9
$INTERFERECOLOR
 62
256
  9
$CSHADOW
280
0
  9
$SHADOWPLANELOCATION
 40
0.0
  0
ENDSEC
  0
SECTION
  2
CLASSES
  0
CLASS
  1
ACDBDICTIONARYWDFLT
  2
AcDbDictionaryWithDefault
  3
ObjectDBX Classes
 90
0
 91
0
280
0
281
0
  0
CLASS
  1
SUN
  2
AcDbSun
  3
SCENEOE
 90
1153
 91
0
280
0
281
0
  0
CLASS
  1
VISUALSTYLE
  2
AcDbVisualStyle
  3
ObjectDBX Classes
 90
4095
 91
0
280
0
281
0
  0
CLASS
  1
MATERIAL
  2
AcDbMaterial
  3
ObjectDBX Classes
 90
1153
 91
0
280
0
281
0
  0
CLASS
  1
SCALE
  2
AcDbScale
  3
ObjectDBX Classes
 90
1153
 91
0
280
0
281
0
  0
CLASS
  1
TABLESTYLE
  2
AcDbTableStyle
  3
ObjectDBX Classes
 90
4095
 91
0
280
0
281
0
  0
CLASS
  1
MLEADERSTYLE
  2
AcDbMLeaderStyle
  3
ACDB_MLEADERSTYLE_CLASS
 90
4095
 91
0
280
0
281
0
  0
CLASS
  1
DICTIONARYVAR
  2
AcDbDictionaryVar
  3
ObjectDBX Classes
 90
0
 91
0
280
0
281
0
  0
CLASS
  1
CELLSTYLEMAP
  2
AcDbCellStyleMap
  3
ObjectDBX Classes
 90
1152
 91
0
280
0
281
0
  0
CLASS
  1
MENTALRAYRENDERSETTINGS
  2
AcDbMentalRayRenderSettings
  3
SCENEOE
 90
1024
 91
0
280
0
281
0
  0
CLASS
  1
ACDBDETAILVIEWSTYLE
  2
AcDbDetailViewStyle
  3
ObjectDBX Classes
 90
1025
 91
0
280
0
281
0
  0
CLASS
  1
ACDBSECTIONVIEWSTYLE
  2
AcDbSectionViewStyle
  3
ObjectDBX Classes
 90
1025
 91
0
280
0
281
0
  0
CLASS
  1
RASTERVARIABLES
  2
AcDbRasterVariables
  3
ISM
 90
0
 91
0
280
0
281
0
  0
CLASS
  1
ACDBPLACEHOLDER
  2
AcDbPlaceHolder
  3
ObjectDBX Classes
 90
0
 91
0
280
0
281
0
  0
CLASS
  1
LAYOUT
  2
AcDbLayout
  3
ObjectDBX Classes
 90
0
 91
0
280
0
281
0
  0
ENDSEC
  0
SECTION
  2
TABLES
  0
TABLE
  2
VPORT
  5
8
330
0
100
AcDbSymbolTable
 70
1
  0
VPORT
  5
23
330
8
100
AcDbSymbolTableRecord
100
AcDbViewportTableRecord
  2
*Active
 70
0
 10
0.0
 20
0.0
 11
1.0
 21
1.0
 12
0.0
 22
0.0
 13
0.0
 23
0.0
 14
0.5
 24
0.5
 15
0.5
 25
0.5
 16
0.0
 26
0.0
 36
1.0
 17
0.0
 27
0.0
 37
0.0
 40
1000.0
 41
1.34
 42
50.0
 43
0.0
 44
0.0
 50
0.0
 51
0.0
 71
0
 72
1000
 73
1
 74
3
 75
0
 76
0
 77
0
 78
0
281
0
 65
0
146
0.0
  0
ENDTAB
  0
TABLE
  2
LTYPE
  5
2
330
0
100
AcDbSymbolTable
 70
3
  0
LTYPE
  5
24
330
2
100
AcDbSymbolTableRecord
100
AcDbLinetypeTableRecord
  2
ByBlock
 70
0
  3

 72
65
 73
0
 40
0.0
  0
LTYPE
  5
25
330
2
100
AcDbSymbolTableRecord
100
AcDbLinetypeTableRecord
  2
ByLayer
 70
0
  3

 72
65
 73
0
 40
0.0
  0
LTYPE
  5
26
330
2
100
AcDbSymbolTableRecord
100
AcDbLinetypeTableRecord
  2
Continuous
 70
0
  3

 72
65
 73
0
 40
0.0
  0
ENDTAB
  0
TABLE
  2
LAYER
  5
1
330
0
100
AcDbSymbolTable
 70
3
  0
LAYER
  5
27
330
1
100
AcDbSymbolTableRecord
100
AcDbLayerTableRecord
  2
0
 70
0
 62
7
  6
Continuous
370
-3
390
13
347
21
  0
LAYER
  5
28
330
1
100
AcDbSymbolTableRecord
100
AcDbLayerTableRecord
  2
Defpoints
 70
0
 62
7
  6
Continuous
290
0
370
-3
390
13
347
21
  0
LAYER
  5
2F
330
1
100
AcDbSymbolTableRecord
100
AcDbLayerTableRecord
  2
DEBUG_BEAM_GROUPS
 70
0
 62
7
  6
Continuous
370
-3
390
13
347
21
  0
ENDTAB
  0
TABLE
  2
STYLE
  5
5
330
0
100
AcDbSymbolTable
 70
1
  0
STYLE
  5
29
330
5
100
AcDbSymbolTableRecord
100
AcDbTextStyleTableRecord
  2
Standard
 70
0
 40
0.0
 41
1.0
 50
0.0
 71
0
 42
2.5
  3
txt
  4

  0
ENDTAB
  0
TABLE
  2
VIEW
  5
7
330
0
100
AcDbSymbolTable
 70
0
  0
ENDTAB
  0
TABLE
  2
UCS
  5
6
330
0
100
AcDbSymbolTable
 70
0
  0
ENDTAB
  0
TABLE
  2
APPID
  5
3
330
0
100
AcDbSymbolTable
 70
3
  0
APPID
  5
2A
330
3
100
AcDbSymbolTableRecord
100
AcDbRegAppTableRecord
  2
ACAD
 70
0
  0
APPID
  5
146
330
3
100
AcDbSymbolTableRecord
100
AcDbRegAppTableRecord
  2
HATCHBACKGROUNDCOLOR
 70
0
  0
APPID
  5
147
330
3
100
AcDbSymbolTableRecord
100
AcDbRegAppTableRecord
  2
EZDXF
 70
0
  0
ENDTAB
  0
TABLE
  2
DIMSTYLE
  5
4
330
0
100
AcDbSymbolTable
 70
1
100
AcDbDimStyleTable
  0
DIMSTYLE
105
2B
330
4
100
AcDbSymbolTableRecord
100
AcDbDimStyleTableRecord
  2
Standard
 70
0
 40
1.0
 41
2.5
 42
0.625
 43
3.75
 44
1.25
 45
0.0
 46
0.0
 47
0.0
 48
0.0
 49
2.5
140
2.5
141
2.5
142
0.0
143
0.03937007874
144
1.0
145
0.0
146
1.0
147
0.625
148
0.0
 69
0
 70
0
 71
0
 72
0
 73
0
 74
0
 75
0
 76
0
 77
1
 78
8
 79
3
170
0
171
3
172
1
173
0
174
0
175
0
176
0
177
0
178
0
179
2
271
2
272
2
273
2
274
3
275
0
276
0
277
2
278
44
279
0
280
0
281
0
282
0
283
0
284
8
285
0
286
0
288
0
289
3
290
0
371
-2
372
-2
  0
ENDTAB
  0
TABLE
  2
BLOCK_RECORD
  5
9
330
0
100
AcDbSymbolTable
 70
2
  0
BLOCK_RECORD
  5
17
330
9
100
AcDbSymbolTableRecord
100
AcDbBlockTableRecord
  2
*Model_Space
340
1A
 70
0
280
1
281
0
  0
BLOCK_RECORD
  5
1B
330
9
100
AcDbSymbolTableRecord
100
AcDbBlockTableRecord
  2
*Paper_Space
340
1E
 70
0
280
1
281
0
  0
ENDTAB
  0
ENDSEC
  0
SECTION
  2
BLOCKS
  0
BLOCK
  5
18
330
17
100
AcDbEntity
  8
0
100
AcDbBlockBegin
  2
*Model_Space
 70
0
 10
0.0
 20
0.0
 30
0.0
  3
*Model_Space
  1

  0
ENDBLK
  5
19
330
17
100
AcDbEntity
  8
0
100
AcDbBlockEnd
  0
BLOCK
  5
1C
330
1B
100
AcDbEntity
  8
0
100
AcDbBlockBegin
  2
*Paper_Space
 70
0
 10
0.0
 20
0.0
 30
0.0
  3
*Paper_Space
  1

  0
ENDBLK
  5
1D
330
1B
100
AcDbEntity
  8
0
100
AcDbBlockEnd
  0
ENDSEC
  0
SECTION
  2
ENTITIES
  0
LWPOLYLINE
  5
30
330
17
100
AcDbEntity
  8
DEBUG_BEAM_GROUPS
 62
3
100
AcDbPolyline
 90
5
 70
1
 10
84.474
 20
17896.891
 10
11362.402
 20
17896.891
 10
11362.402
 20
24649.351
 10
84.474
 20
24649.351
 10
84.474
 20
17896.891
  0
TEXT
  5
31
330
17
100
AcDbEntity
  8
DEBUG_BEAM_GROUPS
 62
3
100
AcDbText
 10
84.474
 20
24849.351
 30
0.0
 40
220.0
  1
GROUP_001 [B1]
100
AcDbText
  0
LWPOLYLINE
  5
32
330
17
100
AcDbEntity
  8
DEBUG_BEAM_GROUPS
  6
DASHED
 62
8
100
AcDbPolyline
 90
5
 70
1
 10
5316.264
 20
17600.752
 10
8797.942
 20
17600.752
 10
8797.942
 20
21631.244
 10
5316.264
 20
21631.244
 10
5316.264
 20
17600.752
  0
TEXT
  5
33
330
17
100
AcDbEntity
  8
DEBUG_BEAM_GROUPS
 62
8
100
AcDbText
 10
5316.264
 20
21831.244
 30
0.0
 40
220.0
  1
GROUP_001 detail
100
AcDbText
  0
LWPOLYLINE
  5
34
330
17
100
AcDbEntity
  8
DEBUG_BEAM_GROUPS
 62
3
100
AcDbPolyline
 90
5
 70
1
 10
11362.402
 20
17896.891
 10
18832.972
 20
17896.891
 10
18832.972
 20
24649.351
 10
11362.402
 20
24649.351
 10
11362.402
 20
17896.891
  0
TEXT
  5
35
330
17
100
AcDbEntity
  8
DEBUG_BEAM_GROUPS
 62
3
100
AcDbText
 10
11362.402
 20
24849.351
 30
0.0
 40
220.0
  1
GROUP_002 [B2]
100
AcDbText
  0
LWPOLYLINE
  5
36
330
17
100
AcDbEntity
  8
DEBUG_BEAM_GROUPS
  6
DASHED
 62
8
100
AcDbPolyline
 90
5
 70
1
 10
16900.207
 20
17614.209
 10
17148.017
 20
17614.209
 10
17148.017
 20
18214.209
 10
16900.207
 20
18214.209
 10
16900.207
 20
17614.209
  0
TEXT
  5
37
330
17
100
AcDbEntity
  8
DEBUG_BEAM_GROUPS
 62
8
100
AcDbText
 10
16900.207
 20
18414.209
 30
0.0
 40
220.0
  1
GROUP_002 detail
100
AcDbText
  0
LWPOLYLINE
  5
38
330
17
100
AcDbEntity
  8
DEBUG_BEAM_GROUPS
 62
2
100
AcDbPolyline
 90
5
 70
1
 10
18832.972
 20
17896.891
 10
35085.317
 20
17896.891
 10
35085.317
 20
24649.351
 10
18832.972
 20
24649.351
 10
18832.972
 20
17896.891
  0
TEXT
  5
39
330
17
100
AcDbEntity
  8
DEBUG_BEAM_GROUPS
 62
2
100
AcDbText
 10
18832.972
 20
24849.351
 30
0.0
 40
220.0
  1
GROUP_003 [B3,B4]
100
AcDbText
  0
LWPOLYLINE
  5
3A
330
17
100
AcDbEntity
  8
DEBUG_BEAM_GROUPS
  6
DASHED
 62
8
100
AcDbPolyline
 90
5
 70
1
 10
21263.755
 20
20760.577
 10
32215.377
 20
20760.577
 10
32215.377
 20
21657.455
 10
21263.755
 20
21657.455
 10
21263.755
 20
20760.577
  0
TEXT
  5
3B
330
17
100
AcDbEntity
  8
DEBUG_BEAM_GROUPS
 62
8
100
AcDbText
 10
21263.755
 20
21857.455
 30
0.0
 40
220.0
  1
GROUP_003 detail
100
AcDbText
  0
LWPOLYLINE
  5
3C
330
17
100
AcDbEntity
  8
DEBUG_BEAM_GROUPS
 62
3
100
AcDbPolyline
 90
5
 70
1
 10
-1027.118
 20
14499.565
 10
8076.443
 20
14499.565
 10
8076.443
 20
17896.891
 10
-1027.118
 20
17896.891
 10
-1027.118
 20
14499.565
  0
TEXT
  5
3D
330
17
100
AcDbEntity
  8
DEBUG_BEAM_GROUPS
 62
3
100
AcDbText
 10
-1027.118
 20
18096.891
 30
0.0
 40
220.0
  1
GROUP_004 [B5]
100
AcDbText
  0
LWPOLYLINE
  5
3E
330
17
100
AcDbEntity
  8
DEBUG_BEAM_GROUPS
  6
DASHED
 62
8
100
AcDbPolyline
 90
5
 70
1
 10
1691.466
 20
17538.266
 10
8797.942
 20
17538.266
 10
8797.942
 20
21631.244
 10
1691.466
 20
21631.244
 10
1691.466
 20
17538.266
  0
TEXT
  5
3F
330
17
100
AcDbEntity
  8
DEBUG_BEAM_GROUPS
 62
8
100
AcDbText
 10
1691.466
 20
21831.244
 30
0.0
 40
220.0
  1
GROUP_004 detail
100
AcDbText
  0
LWPOLYLINE
  5
40
330
17
100
AcDbEntity
  8
DEBUG_BEAM_GROUPS
 62
3
100
AcDbPolyline
 90
5
 70
1
 10
8076.443
 20
14499.565
 10
13379.798
 20
14499.565
 10
13379.798
 20
17896.891
 10
8076.443
 20
17896.891
 10
8076.443
 20
14499.565
  0
TEXT
  5
41
330
17
100
AcDbEntity
  8
DEBUG_BEAM_GROUPS
 62
3
100
AcDbText
 10
8076.443
 20
18096.891
 30
0.0
 40
220.0
  1
GROUP_005 [B6]
100
AcDbText
  0
LWPOLYLINE
  5
42
330
17
100
AcDbEntity
  8
DEBUG_BEAM_GROUPS
  6
DASHED
 62
8
100
AcDbPolyline
 90
5
 70
1
 10
11217.319
 20
17665.569
 10
11367.319
 20
17665.569
 10
11367.319
 20
18265.569
 10
11217.319
 20
18265.569
 10
11217.319
 20
17665.569
  0
TEXT
  5
43
330
17
100
AcDbEntity
  8
DEBUG_BEAM_GROUPS
 62
8
100
AcDbText
 10
11217.319
 20
18465.569
 30
0.0
 40
220.0
  1
GROUP_005 detail
100
AcDbText
  0
LWPOLYLINE
  5
44
330
17
100
AcDbEntity
  8
DEBUG_BEAM_GROUPS
 62
3
100
AcDbPolyline
 90
5
 70
1
 10
13379.798
 20
14499.565
 10
18090.956
 20
14499.565
 10
18090.956
 20
17896.891
 10
13379.798
 20
17896.891
 10
13379.798
 20
14499.565
  0
TEXT
  5
45
330
17
100
AcDbEntity
  8
DEBUG_BEAM_GROUPS
 62
3
100
AcDbText
 10
13379.798
 20
18096.891
 30
0.0
 40
220.0
  1
GROUP_006 [B7]
100
AcDbText
  0
LWPOLYLINE
  5
46
330
17
100
AcDbEntity
  8
DEBUG_BEAM_GROUPS
  6
DASHED
 62
8
100
AcDbPolyline
 90
5
 70
1
 10
16900.207
 20
17614.209
 10
17148.017
 20
17614.209
 10
17148.017
 20
18214.209
 10
16900.207
 20
18214.209
 10
16900.207
 20
17614.209
  0
TEXT
  5
47
330
17
100
AcDbEntity
  8
DEBUG_BEAM_GROUPS
 62
8
100
AcDbText
 10
16900.207
 20
18414.209
 30
0.0
 40
220.0
  1
GROUP_006 detail
100
AcDbText
  0
LWPOLYLINE
  5
48
330
17
100
AcDbEntity
  8
DEBUG_BEAM_GROUPS
 62
2
100
AcDbPolyline
 90
5
 70
1
 10
18090.956
 20
14499.565
 10
30297.56
 20
14499.565
 10
30297.56
 20
17896.891
 10
18090.956
 20
17896.891
 10
18090.956
 20
14499.565
  0
TEXT
  5
49
330
17
100
AcDbEntity
  8
DEBUG_BEAM_GROUPS
 62
2
100
AcDbText
 10
18090.956
 20
18096.891
 30
0.0
 40
220.0
  1
GROUP_007 [B8,B9,B10]
100
AcDbText
  0
LWPOLYLINE
  5
4A
330
17
100
AcDbEntity
  8
DEBUG_BEAM_GROUPS
  6
DASHED
 62
8
100
AcDbPolyline
 90
5
 70
1
 10
21263.755
 20
20760.577
 10
25309.722
 20
20760.577
 10
25309.722
 20
21657.455
 10
21263.755
 20
21657.455
 10
21263.755
 20
20760.577
  0
TEXT
  5
4B
330
17
100
AcDbEntity
  8
DEBUG_BEAM_GROUPS
 62
8
100
AcDbText
 10
21263.755
 20
21857.455
 30
0.0
 40
220.0
  1
GROUP_007 detail
100
AcDbText
  0
LWPOLYLINE
  5
4C
330
17
100
AcDbEntity
  8
DEBUG_BEAM_GROUPS
 62
3
100
AcDbPolyline
 90
5
 70
1
 10
30297.56
 20
14499.565
 10
39683.143
 20
14499.565
 10
39683.143
 20
17896.891
 10
30297.56
 20
17896.891
 10
30297.56
 20
14499.565
  0
TEXT
  5
4D
330
17
100
AcDbEntity
  8
DEBUG_BEAM_GROUPS
 62
3
100
AcDbText
 10
30297.56
 20
18096.891
 30
0.0
 40
220.0
  1
GROUP_008 [B11]
100
AcDbText
  0
LWPOLYLINE
  5
4E
330
17
100
AcDbEntity
  8
DEBUG_BEAM_GROUPS
  6
DASHED
 62
8
100
AcDbPolyline
 90
5
 70
1
 10
29915.265
 20
20823.064
 10
32215.377
 20
20823.064
 10
32215.377
 20
21443.064
 10
29915.265
 20
21443.064
 10
29915.265
 20
20823.064
  0
TEXT
  5
4F
330
17
100
AcDbEntity
  8
DEBUG_BEAM_GROUPS
 62
8
100
AcDbText
 10
29915.265
 20
21643.064
 30
0.0
 40
220.0
  1
GROUP_008 detail
100
AcDbText
  0
LWPOLYLINE
  5
50
330
17
100
AcDbEntity
  8
DEBUG_BEAM_GROUPS
 62
3
100
AcDbPolyline
 90
5
 70
1
 10
-2170.06
 20
10924.904
 10
9334.175
 20
10924.904
 10
9334.175
 20
14499.565
 10
-2170.06
 20
14499.565
 10
-2170.06
 20
10924.904
  0
TEXT
  5
51
330
17
100
AcDbEntity
  8
DEBUG_BEAM_GROUPS
 62
3
100
AcDbText
 10
-2170.06
 20
14699.565
 30
0.0
 40
220.0
  1
GROUP_009 [B12]
100
AcDbText
  0
LWPOLYLINE
  5
52
330
17
100
AcDbEntity
  8
DEBUG_BEAM_GROUPS
  6
DASHED
 62
8
100
AcDbPolyline
 90
5
 70
1
 10
1691.466
 20
10313.395
 10
12074.112
 20
10313.395
 10
12074.112
 20
21631.244
 10
1691.466
 20
21631.244
 10
1691.466
 20
10313.395
  0
TEXT
  5
53
330
17
100
AcDbEntity
  8
DEBUG_BEAM_GROUPS
 62
8
100
AcDbText
 10
1691.466
 20
21831.244
 30
0.0
 40
220.0
  1
GROUP_009 detail
100
AcDbText
  0
LWPOLYLINE
  5
54
330
17
100
AcDbEntity
  8
DEBUG_BEAM_GROUPS
 62
3
100
AcDbPolyline
 90
5
 70
1
 10
9334.175
 20
10924.904
 10
19913.275
 20
10924.904
 10
19913.275
 20
14499.565
 10
9334.175
 20
14499.565
 10
9334.175
 20
10924.904
  0
TEXT
  5
55
330
17
100
AcDbEntity
  8
DEBUG_BEAM_GROUPS
 62
3
100
AcDbText
 10
9334.175
 20
14699.565
 30
0.0
 40
220.0
  1
GROUP_010 [B13]
100
AcDbText
  0
LWPOLYLINE
  5
56
330
17
100
AcDbEntity
  8
DEBUG_BEAM_GROUPS
  6
DASHED
 62
8
100
AcDbPolyline
 90
5
 70
1
 10
11217.319
 20
10313.395
 10
22255.51
 20
10313.395
 10
22255.51
 20
21657.455
 10
11217.319
 20
21657.455
 10
11217.319
 20
10313.395
  0
TEXT
  5
57
330
17
100
AcDbEntity
  8
DEBUG_BEAM_GROUPS
 62
8
100
AcDbText
 10
11217.319
 20
21857.455
 30
0.0
 40
220.0
  1
GROUP_010 detail
100
AcDbText
  0
LWPOLYLINE
  5
58
330
17
100
AcDbEntity
  8
DEBUG_BEAM_GROUPS
 62
3
100
AcDbPolyline
 90
5
 70
1
 10
19913.275
 20
10924.904
 10
28050.517
 20
10924.904
 10
28050.517
 20
14499.565
 10
19913.275
 20
14499.565
 10
19913.275
 20
10924.904
  0
TEXT
  5
59
330
17
100
AcDbEntity
  8
DEBUG_BEAM_GROUPS
 62
3
100
AcDbText
 10
19913.275
 20
14699.565
 30
0.0
 40
220.0
  1
GROUP_011 [B14]
100
AcDbText
  0
LWPOLYLINE
  5
5A
330
17
100
AcDbEntity
  8
DEBUG_BEAM_GROUPS
  6
DASHED
 62
8
100
AcDbPolyline
 90
5
 70
1
 10
21263.755
 20
20760.577
 10
25309.722
 20
20760.577
 10
25309.722
 20
21657.455
 10
21263.755
 20
21657.455
 10
21263.755
 20
20760.577
  0
TEXT
  5
5B
330
17
100
AcDbEntity
  8
DEBUG_BEAM_GROUPS
 62
8
100
AcDbText
 10
21263.755
 20
21857.455
 30
0.0
 40
220.0
  1
GROUP_011 detail
100
AcDbText
  0
LWPOLYLINE
  5
5C
330
17
100
AcDbEntity
  8
DEBUG_BEAM_GROUPS
 62
3
100
AcDbPolyline
 90
5
 70
1
 10
28050.517
 20
10924.904
 10
37112.893
 20
10924.904
 10
37112.893
 20
14499.565
 10
28050.517
 20
14499.565
 10
28050.517
 20
10924.904
  0
TEXT
  5
5D
330
17
100
AcDbEntity
  8
DEBUG_BEAM_GROUPS
 62
3
100
AcDbText
 10
28050.517
 20
14699.565
 30
0.0
 40
220.0
  1
GROUP_012 [B15]
100
AcDbText
  0
LWPOLYLINE
  5
5E
330
17
100
AcDbEntity
  8
DEBUG_BEAM_GROUPS
  6
DASHED
 62
8
100
AcDbPolyline
 90
5
 70
1
 10
29915.265
 20
20823.064
 10
32215.377
 20
20823.064
 10
32215.377
 20
21443.064
 10
29915.265
 20
21443.064
 10
29915.265
 20
20823.064
  0
TEXT
  5
5F
330
17
100
AcDbEntity
  8
DEBUG_BEAM_GROUPS
 62
8
100
AcDbText
 10
29915.265
 20
21643.064
 30
0.0
 40
220.0
  1
GROUP_012 detail
100
AcDbText
  0
LWPOLYLINE
  5
60
330
17
100
AcDbEntity
  8
DEBUG_BEAM_GROUPS
 62
3
100
AcDbPolyline
 90
5
 70
1
 10
-1540.756
 20
3995.109
 10
7242.225
 20
3995.109
 10
7242.225
 20
10924.904
 10
-1540.756
 20
10924.904
 10
-1540.756
 20
3995.109
  0
TEXT
  5
61
330
17
100
AcDbEntity
  8
DEBUG_BEAM_GROUPS
 62
3
100
AcDbText
 10
-1540.756
 20
11124.904
 30
0.0
 40
220.0
  1
GROUP_013 [B16]
100
AcDbText
  0
LWPOLYLINE
  5
62
330
17
100
AcDbEntity
  8
DEBUG_BEAM_GROUPS
  6
DASHED
 62
8
100
AcDbPolyline
 90
5
 70
1
 10
1691.466
 20
17538.266
 10
1892.287
 20
17538.266
 10
1892.287
 20
18288.568
 10
1691.466
 20
18288.568
 10
1691.466
 20
17538.266
  0
TEXT
  5
63
330
17
100
AcDbEntity
  8
DEBUG_BEAM_GROUPS
 62
8
100
AcDbText
 10
1691.466
 20
18488.568
 30
0.0
 40
220.0
  1
GROUP_013 detail
100
AcDbText
  0
LWPOLYLINE
  5
64
330
17
100
AcDbEntity
  8
DEBUG_BEAM_GROUPS
 62
3
100
AcDbPolyline
 90
5
 70
1
 10
7242.225
 20
3995.109
 10
10843.642
 20
3995.109
 10
10843.642
 20
10924.904
 10
7242.225
 20
10924.904
 10
7242.225
 20
3995.109
  0
TEXT
  5
65
330
17
100
AcDbEntity
  8
DEBUG_BEAM_GROUPS
 62
3
100
AcDbText
 10
7242.225
 20
11124.904
 30
0.0
 40
220.0
  1
GROUP_014 [B17]
100
AcDbText
  0
LWPOLYLINE
  5
66
330
17
100
AcDbEntity
  8
DEBUG_BEAM_GROUPS
  6
DASHED
 62
8
100
AcDbPolyline
 90
5
 70
1
 10
6497.83
 20
17600.752
 10
11367.319
 20
17600.752
 10
11367.319
 20
21631.14
 10
6497.83
 20
21631.14
 10
6497.83
 20
17600.752
  0
TEXT
  5
67
330
17
100
AcDbEntity
  8
DEBUG_BEAM_GROUPS
 62
8
100
AcDbText
 10
6497.83
 20
21831.14
 30
0.0
 40
220.0
  1
GROUP_014 detail
100
AcDbText
  0
LWPOLYLINE
  5
68
330
17
100
AcDbEntity
  8
DEBUG_BEAM_GROUPS
 62
3
100
AcDbPolyline
 90
5
 70
1
 10
10843.642
 20
3995.109
 10
18602.079
 20
3995.109
 10
18602.079
 20
10924.904
 10
10843.642
 20
10924.904
 10
10843.642
 20
3995.109
  0
TEXT
  5
69
330
17
100
AcDbEntity
  8
DEBUG_BEAM_GROUPS
 62
3
100
AcDbText
 10
10843.642
 20
11124.904
 30
0.0
 40
220.0
  1
GROUP_015 [B18]
100
AcDbText
  0
LWPOLYLINE
  5
6A
330
17
100
AcDbEntity
  8
DEBUG_BEAM_GROUPS
  6
DASHED
 62
8
100
AcDbPolyline
 90
5
 70
1
 10
11873.291
 20
10313.395
 10
15489.033
 20
10313.395
 10
15489.033
 20
11063.697
 10
11873.291
 20
11063.697
 10
11873.291
 20
10313.395
  0
TEXT
  5
6B
330
17
100
AcDbEntity
  8
DEBUG_BEAM_GROUPS
 62
8
100
AcDbText
 10
11873.291
 20
11263.697
 30
0.0
 40
220.0
  1
GROUP_015 detail
100
AcDbText
  0
CIRCLE
  5
6C
330
17
100
AcDbEntity
  8
DEBUG_BEAM_GROUPS
 62
3
100
AcDbCircle
 10
7162.6
 20
18919.1
 30
0.0
 40
120.0
  0
TEXT
  5
6D
330
17
100
AcDbEntity
  8
DEBUG_BEAM_GROUPS
 62
3
100
AcDbText
 10
7162.6
 20
19199.1
 30
0.0
 40
220.0
  1
SINGLEGROUP_0012-Y12
100
AcDbText
  0
CIRCLE
  5
6E
330
17
100
AcDbEntity
  8
DEBUG_BEAM_GROUPS
 62
3
100
AcDbCircle
 10
11596.4
 20
18664.6
 30
0.0
 40
120.0
  0
TEXT
  5
6F
330
17
100
AcDbEntity
  8
DEBUG_BEAM_GROUPS
 62
3
100
AcDbText
 10
11596.4
 20
18944.6
 30
0.0
 40
220.0
  1
SINGLEGROUP_0012-Y20
100
AcDbText
  0
CIRCLE
  5
70
330
17
100
AcDbEntity
  8
DEBUG_BEAM_GROUPS
 62
3
100
AcDbCircle
 10
11455.7
 20
17379.4
 30
0.0
 40
120.0
  0
TEXT
  5
71
330
17
100
AcDbEntity
  8
DEBUG_BEAM_GROUPS
 62
3
100
AcDbText
 10
11455.7
 20
17659.4
 30
0.0
 40
220.0
  1
SINGLEGROUP_0012-Y20
100
AcDbText
  0
CIRCLE
  5
72
330
17
100
AcDbEntity
  8
DEBUG_BEAM_GROUPS
 62
3
100
AcDbCircle
 10
3825.2
 20
18698.3
 30
0.0
 40
120.0
  0
TEXT
  5
73
330
17
100
AcDbEntity
  8
DEBUG_BEAM_GROUPS
 62
3
100
AcDbText
 10
3825.2
 20
18978.3
 30
0.0
 40
220.0
  1
SINGLEGROUP_0012-Y16
100
AcDbText
  0
CIRCLE
  5
74
330
17
100
AcDbEntity
  8
DEBUG_BEAM_GROUPS
 62
3
100
AcDbCircle
 10
2968.0
 20
17310.5
 30
0.0
 40
120.0
  0
TEXT
  5
75
330
17
100
AcDbEntity
  8
DEBUG_BEAM_GROUPS
 62
3
100
AcDbText
 10
2968.0
 20
17590.5
 30
0.0
 40
220.0
  1
SINGLEGROUP_0012-Y20
100
AcDbText
  0
CIRCLE
  5
76
330
17
100
AcDbEntity
  8
DEBUG_BEAM_GROUPS
 62
3
100
AcDbCircle
 10
10189.8
 20
22035.9
 30
0.0
 40
120.0
  0
TEXT
  5
77
330
17
100
AcDbEntity
  8
DEBUG_BEAM_GROUPS
 62
3
100
AcDbText
 10
10189.8
 20
22315.9
 30
0.0
 40
220.0
  1
SINGLEGROUP_001Ld
100
AcDbText
  0
CIRCLE
  5
78
330
17
100
AcDbEntity
  8
DEBUG_BEAM_GROUPS
 62
3
100
AcDbCircle
 10
7588.6
 20
20493.1
 30
0.0
 40
120.0
  0
TEXT
  5
79
330
17
100
AcDbEntity
  8
DEBUG_BEAM_GROUPS
 62
3
100
AcDbText
 10
7588.6
 20
20773.1
 30
0.0
 40
220.0
  1
SINGLEGROUP_0012-Y20
100
AcDbText
  0
CIRCLE
  5
7A
330
17
100
AcDbEntity
  8
DEBUG_BEAM_GROUPS
 62
3
100
AcDbCircle
 10
8689.4
 20
20479.4
 30
0.0
 40
120.0
  0
TEXT
  5
7B
330
17
100
AcDbEntity
  8
DEBUG_BEAM_GROUPS
 62
3
100
AcDbText
 10
8689.4
 20
20759.4
 30
0.0
 40
220.0
  1
SINGLEGROUP_0012-Y20
100
AcDbText
  0
CIRCLE
  5
7C
330
17
100
AcDbEntity
  8
DEBUG_BEAM_GROUPS
 62
3
100
AcDbCircle
 10
6945.3
 20
20147.6
 30
0.0
 40
120.0
  0
TEXT
  5
7D
330
17
100
AcDbEntity
  8
DEBUG_BEAM_GROUPS
 62
3
100
AcDbText
 10
6945.3
 20
20427.6
 30
0.0
 40
220.0
  1
SINGLEGROUP_0012L-Y10@100C/C
100
AcDbText
  0
CIRCLE
  5
7E
330
17
100
AcDbEntity
  8
DEBUG_BEAM_GROUPS
 62
3
100
AcDbCircle
 10
16546.7
 20
17375.5
 30
0.0
 40
120.0
  0
TEXT
  5
7F
330
17
100
AcDbEntity
  8
DEBUG_BEAM_GROUPS
 62
3
100
AcDbText
 10
16546.7
 20
17655.5
 30
0.0
 40
220.0
  1
SINGLEGROUP_0022-Y20
100
AcDbText
  0
CIRCLE
  5
80
330
17
100
AcDbEntity
  8
DEBUG_BEAM_GROUPS
 62
2
100
AcDbCircle
 10
23361.4
 20
20668.6
 30
0.0
 40
120.0
  0
TEXT
  5
81
330
17
100
AcDbEntity
  8
DEBUG_BEAM_GROUPS
 62
2
100
AcDbText
 10
23361.4
 20
20948.6
 30
0.0
 40
220.0
  1
GROUPGROUP_0032-Y20
100
AcDbText
  0
CIRCLE
  5
82
330
17
100
AcDbEntity
  8
DEBUG_BEAM_GROUPS
 62
2
100
AcDbCircle
 10
23397.9
 20
20180.3
 30
0.0
 40
120.0
  0
TEXT
  5
83
330
17
100
AcDbEntity
  8
DEBUG_BEAM_GROUPS
 62
2
100
AcDbText
 10
23397.9
 20
20460.3
 30
0.0
 40
220.0
  1
GROUPGROUP_0032L-Y8@100C/C
100
AcDbText
  0
CIRCLE
  5
84
330
17
100
AcDbEntity
  8
DEBUG_BEAM_GROUPS
 62
2
100
AcDbCircle
 10
24738.1
 20
19438.0
 30
0.0
 40
120.0
  0
TEXT
  5
85
330
17
100
AcDbEntity
  8
DEBUG_BEAM_GROUPS
 62
2
100
AcDbText
 10
24738.1
 20
19718.0
 30
0.0
 40
220.0
  1
GROUPGROUP_0074-Y8, SIDE FACE REINF. ON BOTH FACES (2-
100
AcDbText
  0
CIRCLE
  5
86
330
17
100
AcDbEntity
  8
DEBUG_BEAM_GROUPS
 62
3
100
AcDbCircle
 10
21864.1
 20
20180.3
 30
0.0
 40
120.0
  0
TEXT
  5
87
330
17
100
AcDbEntity
  8
DEBUG_BEAM_GROUPS
 62
3
100
AcDbText
 10
21864.1
 20
20460.3
 30
0.0
 40
220.0
  1
SINGLEGROUP_0032L-Y8@100C/C
100
AcDbText
  0
CIRCLE
  5
88
330
17
100
AcDbEntity
  8
DEBUG_BEAM_GROUPS
 62
3
100
AcDbCircle
 10
29313.4
 20
20385.1
 30
0.0
 40
120.0
  0
TEXT
  5
89
330
17
100
AcDbEntity
  8
DEBUG_BEAM_GROUPS
 62
3
100
AcDbText
 10
29313.4
 20
20665.1
 30
0.0
 40
220.0
  1
SINGLEGROUP_0032-Y16
100
AcDbText
  0
CIRCLE
  5
8A
330
17
100
AcDbEntity
  8
DEBUG_BEAM_GROUPS
 62
3
100
AcDbCircle
 10
28691.6
 20
20224.5
 30
0.0
 40
120.0
  0
TEXT
  5
8B
330
17
100
AcDbEntity
  8
DEBUG_BEAM_GROUPS
 62
3
100
AcDbText
 10
28691.6
 20
20504.5
 30
0.0
 40
220.0
  1
SINGLEGROUP_0032L-Y8@100/200/100C/C
100
AcDbText
  0
CIRCLE
  5
8C
330
17
100
AcDbEntity
  8
DEBUG_BEAM_GROUPS
 62
2
100
AcDbCircle
 10
26385.4
 20
20532.8
 30
0.0
 40
120.0
  0
TEXT
  5
8D
330
17
100
AcDbEntity
  8
DEBUG_BEAM_GROUPS
 62
2
100
AcDbText
 10
26385.4
 20
20812.8
 30
0.0
 40
220.0
  1
GROUPGROUP_0032-Y20
100
AcDbText
  0
CIRCLE
  5
8E
330
17
100
AcDbEntity
  8
DEBUG_BEAM_GROUPS
 62
3
100
AcDbCircle
 10
5895.9
 20
17162.8
 30
0.0
 40
120.0
  0
TEXT
  5
8F
330
17
100
AcDbEntity
  8
DEBUG_BEAM_GROUPS
 62
3
100
AcDbText
 10
5895.9
 20
17442.8
 30
0.0
 40
220.0
  1
SINGLEGROUP_0042-Y16
100
AcDbText
  0
CIRCLE
  5
90
330
17
100
AcDbEntity
  8
DEBUG_BEAM_GROUPS
 62
3
100
AcDbCircle
 10
5274.2
 20
17002.2
 30
0.0
 40
120.0
  0
TEXT
  5
91
330
17
100
AcDbEntity
  8
DEBUG_BEAM_GROUPS
 62
3
100
AcDbText
 10
5274.2
 20
17282.2
 30
0.0
 40
220.0
  1
SINGLEGROUP_0042L-Y8@100/200/100C/C
100
AcDbText
  0
CIRCLE
  5
92
330
17
100
AcDbEntity
  8
DEBUG_BEAM_GROUPS
 62
3
100
AcDbCircle
 10
11389.4
 20
16891.7
 30
0.0
 40
120.0
  0
TEXT
  5
93
330
17
100
AcDbEntity
  8
DEBUG_BEAM_GROUPS
 62
3
100
AcDbText
 10
11389.4
 20
17171.7
 30
0.0
 40
220.0
  1
SINGLEGROUP_0052L-Y8@150C/C
100
AcDbText
  0
CIRCLE
  5
94
330
17
100
AcDbEntity
  8
DEBUG_BEAM_GROUPS
 62
3
100
AcDbCircle
 10
15446.1
 20
17474.0
 30
0.0
 40
120.0
  0
TEXT
  5
95
330
17
100
AcDbEntity
  8
DEBUG_BEAM_GROUPS
 62
3
100
AcDbText
 10
15446.1
 20
17754.0
 30
0.0
 40
220.0
  1
SINGLEGROUP_006Ld
100
AcDbText
  0
CIRCLE
  5
96
330
17
100
AcDbEntity
  8
DEBUG_BEAM_GROUPS
 62
3
100
AcDbCircle
 10
16458.5
 20
16730.6
 30
0.0
 40
120.0
  0
TEXT
  5
97
330
17
100
AcDbEntity
  8
DEBUG_BEAM_GROUPS
 62
3
100
AcDbText
 10
16458.5
 20
17010.6
 30
0.0
 40
220.0
  1
SINGLEGROUP_0062L-Y10@100C/C
100
AcDbText
  0
CIRCLE
  5
98
330
17
100
AcDbEntity
  8
DEBUG_BEAM_GROUPS
 62
2
100
AcDbCircle
 10
20636.3
 20
18666.9
 30
0.0
 40
120.0
  0
TEXT
  5
99
330
17
100
AcDbEntity
  8
DEBUG_BEAM_GROUPS
 62
2
100
AcDbText
 10
20636.3
 20
18946.9
 30
0.0
 40
220.0
  1
GROUPGROUP_0072-Y16
100
AcDbText
  0
CIRCLE
  5
9A
330
17
100
AcDbEntity
  8
DEBUG_BEAM_GROUPS
 62
3
100
AcDbCircle
 10
19326.7
 20
17369.2
 30
0.0
 40
120.0
  0
TEXT
  5
9B
330
17
100
AcDbEntity
  8
DEBUG_BEAM_GROUPS
 62
3
100
AcDbText
 10
19326.7
 20
17649.2
 30
0.0
 40
220.0
  1
SINGLEGROUP_007Ld
100
AcDbText
  0
CIRCLE
  5
9C
330
17
100
AcDbEntity
  8
DEBUG_BEAM_GROUPS
 62
2
100
AcDbCircle
 10
20636.3
 20
17049.1
 30
0.0
 40
120.0
  0
TEXT
  5
9D
330
17
100
AcDbEntity
  8
DEBUG_BEAM_GROUPS
 62
2
100
AcDbText
 10
20636.3
 20
17329.1
 30
0.0
 40
220.0
  1
GROUPGROUP_0072-Y16
100
AcDbText
  0
CIRCLE
  5
9E
330
17
100
AcDbEntity
  8
DEBUG_BEAM_GROUPS
 62
2
100
AcDbCircle
 10
20572.6
 20
16742.7
 30
0.0
 40
120.0
  0
TEXT
  5
9F
330
17
100
AcDbEntity
  8
DEBUG_BEAM_GROUPS
 62
2
100
AcDbText
 10
20572.6
 20
17022.7
 30
0.0
 40
220.0
  1
GROUPGROUP_0072L-Y8@100C/C
100
AcDbText
  0
CIRCLE
  5
A0
330
17
100
AcDbEntity
  8
DEBUG_BEAM_GROUPS
 62
3
100
AcDbCircle
 10
22808.3
 20
18814.4
 30
0.0
 40
120.0
  0
TEXT
  5
A1
330
17
100
AcDbEntity
  8
DEBUG_BEAM_GROUPS
 62
3
100
AcDbText
 10
22808.3
 20
19094.4
 30
0.0
 40
220.0
  1
SINGLEGROUP_0072-Y16
100
AcDbText
  0
CIRCLE
  5
A2
330
17
100
AcDbEntity
  8
DEBUG_BEAM_GROUPS
 62
3
100
AcDbCircle
 10
24105.1
 20
18666.9
 30
0.0
 40
120.0
  0
TEXT
  5
A3
330
17
100
AcDbEntity
  8
DEBUG_BEAM_GROUPS
 62
3
100
AcDbText
 10
24105.1
 20
18946.9
 30
0.0
 40
220.0
  1
SINGLEGROUP_0072-Y16
100
AcDbText
  0
CIRCLE
  5
A4
330
17
100
AcDbEntity
  8
DEBUG_BEAM_GROUPS
 62
3
100
AcDbCircle
 10
23284.8
 20
17112.8
 30
0.0
 40
120.0
  0
TEXT
  5
A5
330
17
100
AcDbEntity
  8
DEBUG_BEAM_GROUPS
 62
3
100
AcDbText
 10
23284.8
 20
17392.8
 30
0.0
 40
220.0
  1
SINGLEGROUP_0072-Y16
100
AcDbText
  0
CIRCLE
  5
A6
330
17
100
AcDbEntity
  8
DEBUG_BEAM_GROUPS
 62
3
100
AcDbCircle
 10
24105.1
 20
17049.1
 30
0.0
 40
120.0
  0
TEXT
  5
A7
330
17
100
AcDbEntity
  8
DEBUG_BEAM_GROUPS
 62
3
100
AcDbText
 10
24105.1
 20
17329.1
 30
0.0
 40
220.0
  1
SINGLEGROUP_0072-Y16
100
AcDbText
  0
CIRCLE
  5
A8
330
17
100
AcDbEntity
  8
DEBUG_BEAM_GROUPS
 62
3
100
AcDbCircle
 10
24204.0
 20
16668.7
 30
0.0
 40
120.0
  0
TEXT
  5
A9
330
17
100
AcDbEntity
  8
DEBUG_BEAM_GROUPS
 62
3
100
AcDbText
 10
24204.0
 20
16948.7
 30
0.0
 40
220.0
  1
SINGLEGROUP_0072L-Y8@100C/C
100
AcDbText
  0
CIRCLE
  5
AA
330
17
100
AcDbEntity
  8
DEBUG_BEAM_GROUPS
 62
2
100
AcDbCircle
 10
27681.8
 20
18666.9
 30
0.0
 40
120.0
  0
TEXT
  5
AB
330
17
100
AcDbEntity
  8
DEBUG_BEAM_GROUPS
 62
2
100
AcDbText
 10
27681.8
 20
18946.9
 30
0.0
 40
220.0
  1
GROUPGROUP_0072-Y16
100
AcDbText
  0
CIRCLE
  5
AC
330
17
100
AcDbEntity
  8
DEBUG_BEAM_GROUPS
 62
3
100
AcDbCircle
 10
30082.4
 20
17369.2
 30
0.0
 40
120.0
  0
TEXT
  5
AD
330
17
100
AcDbEntity
  8
DEBUG_BEAM_GROUPS
 62
3
100
AcDbText
 10
30082.4
 20
17649.2
 30
0.0
 40
220.0
  1
SINGLEGROUP_007Ld
100
AcDbText
  0
CIRCLE
  5
AE
330
17
100
AcDbEntity
  8
DEBUG_BEAM_GROUPS
 62
2
100
AcDbCircle
 10
27681.8
 20
17049.1
 30
0.0
 40
120.0
  0
TEXT
  5
AF
330
17
100
AcDbEntity
  8
DEBUG_BEAM_GROUPS
 62
2
100
AcDbText
 10
27681.8
 20
17329.1
 30
0.0
 40
220.0
  1
GROUPGROUP_0072-Y16
100
AcDbText
  0
CIRCLE
  5
B0
330
17
100
AcDbEntity
  8
DEBUG_BEAM_GROUPS
 62
2
100
AcDbCircle
 10
27819.2
 20
16676.1
 30
0.0
 40
120.0
  0
TEXT
  5
B1
330
17
100
AcDbEntity
  8
DEBUG_BEAM_GROUPS
 62
2
100
AcDbText
 10
27819.2
 20
16956.1
 30
0.0
 40
220.0
  1
GROUPGROUP_0072L-Y8@100C/C
100
AcDbText
  0
CIRCLE
  5
B2
330
17
100
AcDbEntity
  8
DEBUG_BEAM_GROUPS
 62
3
100
AcDbCircle
 10
33657.0
 20
18612.7
 30
0.0
 40
120.0
  0
TEXT
  5
B3
330
17
100
AcDbEntity
  8
DEBUG_BEAM_GROUPS
 62
3
100
AcDbText
 10
33657.0
 20
18892.7
 30
0.0
 40
220.0
  1
SINGLEGROUP_0082-Y16
100
AcDbText
  0
CIRCLE
  5
B4
330
17
100
AcDbEntity
  8
DEBUG_BEAM_GROUPS
 62
3
100
AcDbCircle
 10
33739.4
 20
17059.7
 30
0.0
 40
120.0
  0
TEXT
  5
B5
330
17
100
AcDbEntity
  8
DEBUG_BEAM_GROUPS
 62
3
100
AcDbText
 10
33739.4
 20
17339.7
 30
0.0
 40
220.0
  1
SINGLEGROUP_0082-Y16
100
AcDbText
  0
CIRCLE
  5
B6
330
17
100
AcDbEntity
  8
DEBUG_BEAM_GROUPS
 62
3
100
AcDbCircle
 10
33709.3
 20
16727.9
 30
0.0
 40
120.0
  0
TEXT
  5
B7
330
17
100
AcDbEntity
  8
DEBUG_BEAM_GROUPS
 62
3
100
AcDbText
 10
33709.3
 20
17007.9
 30
0.0
 40
220.0
  1
SINGLEGROUP_0082L-Y8@200C/C
100
AcDbText
  0
CIRCLE
  5
B8
330
17
100
AcDbEntity
  8
DEBUG_BEAM_GROUPS
 62
3
100
AcDbCircle
 10
7277.3
 20
15210.1
 30
0.0
 40
120.0
  0
TEXT
  5
B9
330
17
100
AcDbEntity
  8
DEBUG_BEAM_GROUPS
 62
3
100
AcDbText
 10
7277.3
 20
15490.1
 30
0.0
 40
220.0
  1
SINGLEGROUP_0092-Y16
100
AcDbText
  0
CIRCLE
  5
BA
330
17
100
AcDbEntity
  8
DEBUG_BEAM_GROUPS
 62
3
100
AcDbCircle
 10
7288.1
 20
13657.1
 30
0.0
 40
120.0
  0
TEXT
  5
BB
330
17
100
AcDbEntity
  8
DEBUG_BEAM_GROUPS
 62
3
100
AcDbText
 10
7288.1
 20
13937.1
 30
0.0
 40
220.0
  1
SINGLEGROUP_0092-Y20
100
AcDbText
  0
CIRCLE
  5
BC
330
17
100
AcDbEntity
  8
DEBUG_BEAM_GROUPS
 62
3
100
AcDbCircle
 10
8140.7
 20
13325.3
 30
0.0
 40
120.0
  0
TEXT
  5
BD
330
17
100
AcDbEntity
  8
DEBUG_BEAM_GROUPS
 62
3
100
AcDbText
 10
8140.7
 20
13605.3
 30
0.0
 40
220.0
  1
SINGLEGROUP_0092L-Y8@100/200/100C/C
100
AcDbText
  0
CIRCLE
  5
BE
330
17
100
AcDbEntity
  8
DEBUG_BEAM_GROUPS
 62
3
100
AcDbCircle
 10
4923.3
 20
15210.1
 30
0.0
 40
120.0
  0
TEXT
  5
BF
330
17
100
AcDbEntity
  8
DEBUG_BEAM_GROUPS
 62
3
100
AcDbText
 10
4923.3
 20
15490.1
 30
0.0
 40
220.0
  1
SINGLEGROUP_0092-Y16
100
AcDbText
  0
CIRCLE
  5
C0
330
17
100
AcDbEntity
  8
DEBUG_BEAM_GROUPS
 62
3
100
AcDbCircle
 10
4934.1
 20
13657.1
 30
0.0
 40
120.0
  0
TEXT
  5
C1
330
17
100
AcDbEntity
  8
DEBUG_BEAM_GROUPS
 62
3
100
AcDbText
 10
4934.1
 20
13937.1
 30
0.0
 40
220.0
  1
SINGLEGROUP_0092-Y20
100
AcDbText
  0
CIRCLE
  5
C2
330
17
100
AcDbEntity
  8
DEBUG_BEAM_GROUPS
 62
3
100
AcDbCircle
 10
4651.9
 20
13325.3
 30
0.0
 40
120.0
  0
TEXT
  5
C3
330
17
100
AcDbEntity
  8
DEBUG_BEAM_GROUPS
 62
3
100
AcDbText
 10
4651.9
 20
13605.3
 30
0.0
 40
220.0
  1
SINGLEGROUP_0092L-Y8@100/200/100C/C
100
AcDbText
  0
CIRCLE
  5
C4
330
17
100
AcDbEntity
  8
DEBUG_BEAM_GROUPS
 62
3
100
AcDbCircle
 10
12553.0
 20
10074.9
 30
0.0
 40
120.0
  0
TEXT
  5
C5
330
17
100
AcDbEntity
  8
DEBUG_BEAM_GROUPS
 62
3
100
AcDbText
 10
12553.0
 20
10354.9
 30
0.0
 40
220.0
  1
SINGLEGROUP_0092-Y20
100
AcDbText
  0
CIRCLE
  5
C6
330
17
100
AcDbEntity
  8
DEBUG_BEAM_GROUPS
 62
3
100
AcDbCircle
 10
17321.0
 20
15210.1
 30
0.0
 40
120.0
  0
TEXT
  5
C7
330
17
100
AcDbEntity
  8
DEBUG_BEAM_GROUPS
 62
3
100
AcDbText
 10
17321.0
 20
15490.1
 30
0.0
 40
220.0
  1
SINGLEGROUP_0102-Y16
100
AcDbText
  0
CIRCLE
  5
C8
330
17
100
AcDbEntity
  8
DEBUG_BEAM_GROUPS
 62
3
100
AcDbCircle
 10
17331.8
 20
13657.1
 30
0.0
 40
120.0
  0
TEXT
  5
C9
330
17
100
AcDbEntity
  8
DEBUG_BEAM_GROUPS
 62
3
100
AcDbText
 10
17331.8
 20
13937.1
 30
0.0
 40
220.0
  1
SINGLEGROUP_0102-Y20
100
AcDbText
  0
CIRCLE
  5
CA
330
17
100
AcDbEntity
  8
DEBUG_BEAM_GROUPS
 62
3
100
AcDbCircle
 10
18184.4
 20
13325.3
 30
0.0
 40
120.0
  0
TEXT
  5
CB
330
17
100
AcDbEntity
  8
DEBUG_BEAM_GROUPS
 62
3
100
AcDbText
 10
18184.4
 20
13605.3
 30
0.0
 40
220.0
  1
SINGLEGROUP_0102L-Y8@100/200/100C/C
100
AcDbText
  0
CIRCLE
  5
CC
330
17
100
AcDbEntity
  8
DEBUG_BEAM_GROUPS
 62
3
100
AcDbCircle
 10
14966.9
 20
15210.1
 30
0.0
 40
120.0
  0
TEXT
  5
CD
330
17
100
AcDbEntity
  8
DEBUG_BEAM_GROUPS
 62
3
100
AcDbText
 10
14966.9
 20
15490.1
 30
0.0
 40
220.0
  1
SINGLEGROUP_0102-Y16
100
AcDbText
  0
CIRCLE
  5
CE
330
17
100
AcDbEntity
  8
DEBUG_BEAM_GROUPS
 62
3
100
AcDbCircle
 10
14977.7
 20
13657.1
 30
0.0
 40
120.0
  0
TEXT
  5
CF
330
17
100
AcDbEntity
  8
DEBUG_BEAM_GROUPS
 62
3
100
AcDbText
 10
14977.7
 20
13937.1
 30
0.0
 40
220.0
  1
SINGLEGROUP_0102-Y20
100
AcDbText
  0
CIRCLE
  5
D0
330
17
100
AcDbEntity
  8
DEBUG_BEAM_GROUPS
 62
3
100
AcDbCircle
 10
14695.6
 20
13325.3
 30
0.0
 40
120.0
  0
TEXT
  5
D1
330
17
100
AcDbEntity
  8
DEBUG_BEAM_GROUPS
 62
3
100
AcDbText
 10
14695.6
 20
13605.3
 30
0.0
 40
220.0
  1
SINGLEGROUP_0102L-Y8@100/200/100C/C
100
AcDbText
  0
CIRCLE
  5
D2
330
17
100
AcDbEntity
  8
DEBUG_BEAM_GROUPS
 62
3
100
AcDbCircle
 10
12738.9
 20
11471.7
 30
0.0
 40
120.0
  0
TEXT
  5
D3
330
17
100
AcDbEntity
  8
DEBUG_BEAM_GROUPS
 62
3
100
AcDbText
 10
12738.9
 20
11751.7
 30
0.0
 40
220.0
  1
SINGLEGROUP_0102-Y20
100
AcDbText
  0
CIRCLE
  5
D4
330
17
100
AcDbEntity
  8
DEBUG_BEAM_GROUPS
 62
3
100
AcDbCircle
 10
14721.3
 20
11471.7
 30
0.0
 40
120.0
  0
TEXT
  5
D5
330
17
100
AcDbEntity
  8
DEBUG_BEAM_GROUPS
 62
3
100
AcDbText
 10
14721.3
 20
11751.7
 30
0.0
 40
220.0
  1
SINGLEGROUP_0102-Y20
100
AcDbText
  0
CIRCLE
  5
D6
330
17
100
AcDbEntity
  8
DEBUG_BEAM_GROUPS
 62
3
100
AcDbCircle
 10
14535.4
 20
10074.9
 30
0.0
 40
120.0
  0
TEXT
  5
D7
330
17
100
AcDbEntity
  8
DEBUG_BEAM_GROUPS
 62
3
100
AcDbText
 10
14535.4
 20
10354.9
 30
0.0
 40
220.0
  1
SINGLEGROUP_0102-Y20
100
AcDbText
  0
CIRCLE
  5
D8
330
17
100
AcDbEntity
  8
DEBUG_BEAM_GROUPS
 62
3
100
AcDbCircle
 10
20809.8
 20
15210.1
 30
0.0
 40
120.0
  0
TEXT
  5
D9
330
17
100
AcDbEntity
  8
DEBUG_BEAM_GROUPS
 62
3
100
AcDbText
 10
20809.8
 20
15490.1
 30
0.0
 40
220.0
  1
SINGLEGROUP_0102-Y16
100
AcDbText
  0
CIRCLE
  5
DA
330
17
100
AcDbEntity
  8
DEBUG_BEAM_GROUPS
 62
3
100
AcDbCircle
 10
20820.6
 20
13657.1
 30
0.0
 40
120.0
  0
TEXT
  5
DB
330
17
100
AcDbEntity
  8
DEBUG_BEAM_GROUPS
 62
3
100
AcDbText
 10
20820.6
 20
13937.1
 30
0.0
 40
220.0
  1
SINGLEGROUP_0102-Y20
100
AcDbText
  0
CIRCLE
  5
DC
330
17
100
AcDbEntity
  8
DEBUG_BEAM_GROUPS
 62
3
100
AcDbCircle
 10
21673.2
 20
13325.3
 30
0.0
 40
120.0
  0
TEXT
  5
DD
330
17
100
AcDbEntity
  8
DEBUG_BEAM_GROUPS
 62
3
100
AcDbText
 10
21673.2
 20
13605.3
 30
0.0
 40
220.0
  1
SINGLEGROUP_0102L-Y8@100/200/100C/C
100
AcDbText
  0
CIRCLE
  5
DE
330
17
100
AcDbEntity
  8
DEBUG_BEAM_GROUPS
 62
3
100
AcDbCircle
 10
27242.6
 20
21920.6
 30
0.0
 40
120.0
  0
TEXT
  5
DF
330
17
100
AcDbEntity
  8
DEBUG_BEAM_GROUPS
 62
3
100
AcDbText
 10
27242.6
 20
22200.6
 30
0.0
 40
220.0
  1
SINGLEGROUP_0112-Y16
100
AcDbText
  0
CIRCLE
  5
E0
330
17
100
AcDbEntity
  8
DEBUG_BEAM_GROUPS
 62
3
100
AcDbCircle
 10
27355.6
 20
15751.1
 30
0.0
 40
120.0
  0
TEXT
  5
E1
330
17
100
AcDbEntity
  8
DEBUG_BEAM_GROUPS
 62
3
100
AcDbText
 10
27355.6
 20
16031.1
 30
0.0
 40
220.0
  1
SINGLEGROUP_0114-Y8, SIDE FACE REINF. ON BOTH FACES (2-
100
AcDbText
  0
CIRCLE
  5
E2
330
17
100
AcDbEntity
  8
DEBUG_BEAM_GROUPS
 62
3
100
AcDbCircle
 10
26448.3
 20
15465.0
 30
0.0
 40
120.0
  0
TEXT
  5
E3
330
17
100
AcDbEntity
  8
DEBUG_BEAM_GROUPS
 62
3
100
AcDbText
 10
26448.3
 20
15745.0
 30
0.0
 40
220.0
  1
SINGLEGROUP_0112-Y16
100
AcDbText
  0
CIRCLE
  5
E4
330
17
100
AcDbEntity
  8
DEBUG_BEAM_GROUPS
 62
3
100
AcDbCircle
 10
26251.2
 20
15259.2
 30
0.0
 40
120.0
  0
TEXT
  5
E5
330
17
100
AcDbEntity
  8
DEBUG_BEAM_GROUPS
 62
3
100
AcDbText
 10
26251.2
 20
15539.2
 30
0.0
 40
220.0
  1
SINGLEGROUP_0112-Y16
100
AcDbText
  0
CIRCLE
  5
E6
330
17
100
AcDbEntity
  8
DEBUG_BEAM_GROUPS
 62
3
100
AcDbCircle
 10
24696.2
 20
15103.4
 30
0.0
 40
120.0
  0
TEXT
  5
E7
330
17
100
AcDbEntity
  8
DEBUG_BEAM_GROUPS
 62
3
100
AcDbText
 10
24696.2
 20
15383.4
 30
0.0
 40
220.0
  1
SINGLEGROUP_011Ld
100
AcDbText
  0
CIRCLE
  5
E8
330
17
100
AcDbEntity
  8
DEBUG_BEAM_GROUPS
 62
3
100
AcDbCircle
 10
26249.5
 20
14021.4
 30
0.0
 40
120.0
  0
TEXT
  5
E9
330
17
100
AcDbEntity
  8
DEBUG_BEAM_GROUPS
 62
3
100
AcDbText
 10
26249.5
 20
14301.4
 30
0.0
 40
220.0
  1
SINGLEGROUP_0112-Y16
100
AcDbText
  0
CIRCLE
  5
EA
330
17
100
AcDbEntity
  8
DEBUG_BEAM_GROUPS
 62
3
100
AcDbCircle
 10
26265.0
 20
13888.1
 30
0.0
 40
120.0
  0
TEXT
  5
EB
330
17
100
AcDbEntity
  8
DEBUG_BEAM_GROUPS
 62
3
100
AcDbText
 10
26265.0
 20
14168.1
 30
0.0
 40
220.0
  1
SINGLEGROUP_0112-Y16
100
AcDbText
  0
CIRCLE
  5
EC
330
17
100
AcDbEntity
  8
DEBUG_BEAM_GROUPS
 62
3
100
AcDbCircle
 10
26024.9
 20
13446.0
 30
0.0
 40
120.0
  0
TEXT
  5
ED
330
17
100
AcDbEntity
  8
DEBUG_BEAM_GROUPS
 62
3
100
AcDbText
 10
26024.9
 20
13726.0
 30
0.0
 40
220.0
  1
SINGLEGROUP_0112L-Y8@100C/C
100
AcDbText
  0
CIRCLE
  5
EE
330
17
100
AcDbEntity
  8
DEBUG_BEAM_GROUPS
 62
3
100
AcDbCircle
 10
30550.2
 20
15260.5
 30
0.0
 40
120.0
  0
TEXT
  5
EF
330
17
100
AcDbEntity
  8
DEBUG_BEAM_GROUPS
 62
3
100
AcDbText
 10
30550.2
 20
15540.5
 30
0.0
 40
220.0
  1
SINGLEGROUP_0122-Y16
100
AcDbText
  0
CIRCLE
  5
F0
330
17
100
AcDbEntity
  8
DEBUG_BEAM_GROUPS
 62
3
100
AcDbCircle
 10
30561.0
 20
13707.5
 30
0.0
 40
120.0
  0
TEXT
  5
F1
330
17
100
AcDbEntity
  8
DEBUG_BEAM_GROUPS
 62
3
100
AcDbText
 10
30561.0
 20
13987.5
 30
0.0
 40
220.0
  1
SINGLEGROUP_0122-Y16
100
AcDbText
  0
CIRCLE
  5
F2
330
17
100
AcDbEntity
  8
DEBUG_BEAM_GROUPS
 62
3
100
AcDbCircle
 10
31413.7
 20
13375.7
 30
0.0
 40
120.0
  0
TEXT
  5
F3
330
17
100
AcDbEntity
  8
DEBUG_BEAM_GROUPS
 62
3
100
AcDbText
 10
31413.7
 20
13655.7
 30
0.0
 40
220.0
  1
SINGLEGROUP_0122L-Y8@100C/C
100
AcDbText
  0
CIRCLE
  5
F4
330
17
100
AcDbEntity
  8
DEBUG_BEAM_GROUPS
 62
3
100
AcDbCircle
 10
5767.1
 20
11496.9
 30
0.0
 40
120.0
  0
TEXT
  5
F5
330
17
100
AcDbEntity
  8
DEBUG_BEAM_GROUPS
 62
3
100
AcDbText
 10
5767.1
 20
11776.9
 30
0.0
 40
220.0
  1
SINGLEGROUP_0132-Y16
100
AcDbText
  0
CIRCLE
  5
F6
330
17
100
AcDbEntity
  8
DEBUG_BEAM_GROUPS
 62
3
100
AcDbCircle
 10
5760.7
 20
10095.7
 30
0.0
 40
120.0
  0
TEXT
  5
F7
330
17
100
AcDbEntity
  8
DEBUG_BEAM_GROUPS
 62
3
100
AcDbText
 10
5760.7
 20
10375.7
 30
0.0
 40
220.0
  1
SINGLEGROUP_0132-Y16
100
AcDbText
  0
CIRCLE
  5
F8
330
17
100
AcDbEntity
  8
DEBUG_BEAM_GROUPS
 62
3
100
AcDbCircle
 10
5633.0
 20
9600.8
 30
0.0
 40
120.0
  0
TEXT
  5
F9
330
17
100
AcDbEntity
  8
DEBUG_BEAM_GROUPS
 62
3
100
AcDbText
 10
5633.0
 20
9880.8
 30
0.0
 40
220.0
  1
SINGLEGROUP_0132L-Y8@150C/C
100
AcDbText
  0
CIRCLE
  5
FA
330
17
100
AcDbEntity
  8
DEBUG_BEAM_GROUPS
 62
3
100
AcDbCircle
 10
10766.1
 20
15210.1
 30
0.0
 40
120.0
  0
TEXT
  5
FB
330
17
100
AcDbEntity
  8
DEBUG_BEAM_GROUPS
 62
3
100
AcDbText
 10
10766.1
 20
15490.1
 30
0.0
 40
220.0
  1
SINGLEGROUP_0142-Y16
100
AcDbText
  0
CIRCLE
  5
FC
330
17
100
AcDbEntity
  8
DEBUG_BEAM_GROUPS
 62
3
100
AcDbCircle
 10
10776.9
 20
13657.1
 30
0.0
 40
120.0
  0
TEXT
  5
FD
330
17
100
AcDbEntity
  8
DEBUG_BEAM_GROUPS
 62
3
100
AcDbText
 10
10776.9
 20
13937.1
 30
0.0
 40
220.0
  1
SINGLEGROUP_0142-Y20
100
AcDbText
  0
CIRCLE
  5
FE
330
17
100
AcDbEntity
  8
DEBUG_BEAM_GROUPS
 62
3
100
AcDbCircle
 10
9868.3
 20
11493.4
 30
0.0
 40
120.0
  0
TEXT
  5
FF
330
17
100
AcDbEntity
  8
DEBUG_BEAM_GROUPS
 62
3
100
AcDbText
 10
9868.3
 20
11773.4
 30
0.0
 40
220.0
  1
SINGLEGROUP_0142-Y20
100
AcDbText
  0
CIRCLE
  5
100
330
17
100
AcDbEntity
  8
DEBUG_BEAM_GROUPS
 62
3
100
AcDbCircle
 10
9950.6
 20
9940.5
 30
0.0
 40
120.0
  0
TEXT
  5
101
330
17
100
AcDbEntity
  8
DEBUG_BEAM_GROUPS
 62
3
100
AcDbText
 10
9950.6
 20
10220.5
 30
0.0
 40
220.0
  1
SINGLEGROUP_0142-Y20
100
AcDbText
  0
CIRCLE
  5
102
330
17
100
AcDbEntity
  8
DEBUG_BEAM_GROUPS
 62
3
100
AcDbCircle
 10
9920.5
 20
9608.6
 30
0.0
 40
120.0
  0
TEXT
  5
103
330
17
100
AcDbEntity
  8
DEBUG_BEAM_GROUPS
 62
3
100
AcDbText
 10
9920.5
 20
9888.6
 30
0.0
 40
220.0
  1
SINGLEGROUP_0142L-Y8@200C/C
100
AcDbText
  0
CIRCLE
  5
104
330
17
100
AcDbEntity
  8
DEBUG_BEAM_GROUPS
 62
3
100
AcDbCircle
 10
17874.6
 20
11120.0
 30
0.0
 40
120.0
  0
TEXT
  5
105
330
17
100
AcDbEntity
  8
DEBUG_BEAM_GROUPS
 62
3
100
AcDbText
 10
17874.6
 20
11400.0
 30
0.0
 40
220.0
  1
SINGLEGROUP_015Ld+10db
100
AcDbText
  0
CIRCLE
  5
106
330
17
100
AcDbEntity
  8
DEBUG_BEAM_GROUPS
 62
3
100
AcDbCircle
 10
18895.4
 20
9945.1
 30
0.0
 40
120.0
  0
TEXT
  5
107
330
17
100
AcDbEntity
  8
DEBUG_BEAM_GROUPS
 62
3
100
AcDbText
 10
18895.4
 20
10225.1
 30
0.0
 40
220.0
  1
SINGLEGROUP_015S.F.R. ON BOTH FACE
100
AcDbText
  0
CIRCLE
  5
108
330
17
100
AcDbEntity
  8
DEBUG_BEAM_GROUPS
 62
3
100
AcDbCircle
 10
14356.6
 20
9586.6
 30
0.0
 40
120.0
  0
TEXT
  5
109
330
17
100
AcDbEntity
  8
DEBUG_BEAM_GROUPS
 62
3
100
AcDbText
 10
14356.6
 20
9866.6
 30
0.0
 40
220.0
  1
SINGLEGROUP_0152L-Y8@100C/C
100
AcDbText
  0
CIRCLE
  5
10A
330
17
100
AcDbEntity
  8
DEBUG_BEAM_GROUPS
 62
3
100
AcDbCircle
 10
16679.9
 20
9250.1
 30
0.0
 40
120.0
  0
TEXT
  5
10B
330
17
100
AcDbEntity
  8
DEBUG_BEAM_GROUPS
 62
3
100
AcDbText
 10
16679.9
 20
9530.1
 30
0.0
 40
220.0
  1
SINGLEGROUP_015SIDE.FACE.REINFORCEMENT DETAILS FOR CURV
100
AcDbText
  0
CIRCLE
  5
10C
330
17
100
AcDbEntity
  8
DEBUG_BEAM_GROUPS
 62
3
100
AcDbCircle
 10
18736.3
 20
9007.7
 30
0.0
 40
120.0
  0
TEXT
  5
10D
330
17
100
AcDbEntity
  8
DEBUG_BEAM_GROUPS
 62
3
100
AcDbText
 10
18736.3
 20
9287.7
 30
0.0
 40
220.0
  1
SINGLEGROUP_015S.F.R.- 2-Y10
100
AcDbText
  0
CIRCLE
  5
10E
330
17
100
AcDbEntity
  8
DEBUG_BEAM_GROUPS
 62
3
100
AcDbCircle
 10
12656.1
 20
9586.6
 30
0.0
 40
120.0
  0
TEXT
  5
10F
330
17
100
AcDbEntity
  8
DEBUG_BEAM_GROUPS
 62
3
100
AcDbText
 10
12656.1
 20
9866.6
 30
0.0
 40
220.0
  1
SINGLEGROUP_0152L-Y8@100C/C
100
AcDbText
  0
LINE
  5
110
330
17
100
AcDbEntity
  8
DEBUG_BEAM_GROUPS
 62
5
100
AcDbLine
 10
23361.4
 20
20668.6
 30
0.0
 11
23761.4
 21
21068.6
 31
0.0
  0
TEXT
  5
111
330
17
100
AcDbEntity
  8
DEBUG_BEAM_GROUPS
 62
5
100
AcDbText
 10
23781.4
 20
21088.6
 30
0.0
 40
176.0
  1
EXP->B3
100
AcDbText
  0
LINE
  5
112
330
17
100
AcDbEntity
  8
DEBUG_BEAM_GROUPS
 62
5
100
AcDbLine
 10
23361.4
 20
20668.6
 30
0.0
 11
23761.4
 21
21068.6
 31
0.0
  0
TEXT
  5
113
330
17
100
AcDbEntity
  8
DEBUG_BEAM_GROUPS
 62
5
100
AcDbText
 10
23781.4
 20
21088.6
 30
0.0
 40
176.0
  1
EXP->B4
100
AcDbText
  0
LINE
  5
114
330
17
100
AcDbEntity
  8
DEBUG_BEAM_GROUPS
 62
5
100
AcDbLine
 10
23397.9
 20
20180.3
 30
0.0
 11
23797.9
 21
20580.3
 31
0.0
  0
TEXT
  5
115
330
17
100
AcDbEntity
  8
DEBUG_BEAM_GROUPS
 62
5
100
AcDbText
 10
23817.9
 20
20600.3
 30
0.0
 40
176.0
  1
EXP->B3
100
AcDbText
  0
LINE
  5
116
330
17
100
AcDbEntity
  8
DEBUG_BEAM_GROUPS
 62
5
100
AcDbLine
 10
23397.9
 20
20180.3
 30
0.0
 11
23797.9
 21
20580.3
 31
0.0
  0
TEXT
  5
117
330
17
100
AcDbEntity
  8
DEBUG_BEAM_GROUPS
 62
5
100
AcDbText
 10
23817.9
 20
20600.3
 30
0.0
 40
176.0
  1
EXP->B4
100
AcDbText
  0
LINE
  5
118
330
17
100
AcDbEntity
  8
DEBUG_BEAM_GROUPS
 62
5
100
AcDbLine
 10
24738.1
 20
19438.0
 30
0.0
 11
25138.1
 21
19838.0
 31
0.0
  0
TEXT
  5
119
330
17
100
AcDbEntity
  8
DEBUG_BEAM_GROUPS
 62
5
100
AcDbText
 10
25158.1
 20
19858.0
 30
0.0
 40
176.0
  1
EXP->B8
100
AcDbText
  0
LINE
  5
11A
330
17
100
AcDbEntity
  8
DEBUG_BEAM_GROUPS
 62
5
100
AcDbLine
 10
24738.1
 20
19438.0
 30
0.0
 11
25138.1
 21
19838.0
 31
0.0
  0
TEXT
  5
11B
330
17
100
AcDbEntity
  8
DEBUG_BEAM_GROUPS
 62
5
100
AcDbText
 10
25158.1
 20
19858.0
 30
0.0
 40
176.0
  1
EXP->B9
100
AcDbText
  0
LINE
  5
11C
330
17
100
AcDbEntity
  8
DEBUG_BEAM_GROUPS
 62
5
100
AcDbLine
 10
24738.1
 20
19438.0
 30
0.0
 11
25138.1
 21
19838.0
 31
0.0
  0
TEXT
  5
11D
330
17
100
AcDbEntity
  8
DEBUG_BEAM_GROUPS
 62
5
100
AcDbText
 10
25158.1
 20
19858.0
 30
0.0
 40
176.0
  1
EXP->B10
100
AcDbText
  0
LINE
  5
11E
330
17
100
AcDbEntity
  8
DEBUG_BEAM_GROUPS
 62
5
100
AcDbLine
 10
26385.4
 20
20532.8
 30
0.0
 11
26785.4
 21
20932.8
 31
0.0
  0
TEXT
  5
11F
330
17
100
AcDbEntity
  8
DEBUG_BEAM_GROUPS
 62
5
100
AcDbText
 10
26805.4
 20
20952.8
 30
0.0
 40
176.0
  1
EXP->B3
100
AcDbText
  0
LINE
  5
120
330
17
100
AcDbEntity
  8
DEBUG_BEAM_GROUPS
 62
5
100
AcDbLine
 10
26385.4
 20
20532.8
 30
0.0
 11
26785.4
 21
20932.8
 31
0.0
  0
TEXT
  5
121
330
17
100
AcDbEntity
  8
DEBUG_BEAM_GROUPS
 62
5
100
AcDbText
 10
26805.4
 20
20952.8
 30
0.0
 40
176.0
  1
EXP->B4
100
AcDbText
  0
LINE
  5
122
330
17
100
AcDbEntity
  8
DEBUG_BEAM_GROUPS
 62
5
100
AcDbLine
 10
20636.3
 20
18666.9
 30
0.0
 11
21036.3
 21
19066.9
 31
0.0
  0
TEXT
  5
123
330
17
100
AcDbEntity
  8
DEBUG_BEAM_GROUPS
 62
5
100
AcDbText
 10
21056.3
 20
19086.9
 30
0.0
 40
176.0
  1
EXP->B8
100
AcDbText
  0
LINE
  5
124
330
17
100
AcDbEntity
  8
DEBUG_BEAM_GROUPS
 62
5
100
AcDbLine
 10
20636.3
 20
18666.9
 30
0.0
 11
21036.3
 21
19066.9
 31
0.0
  0
TEXT
  5
125
330
17
100
AcDbEntity
  8
DEBUG_BEAM_GROUPS
 62
5
100
AcDbText
 10
21056.3
 20
19086.9
 30
0.0
 40
176.0
  1
EXP->B9
100
AcDbText
  0
LINE
  5
126
330
17
100
AcDbEntity
  8
DEBUG_BEAM_GROUPS
 62
5
100
AcDbLine
 10
20636.3
 20
18666.9
 30
0.0
 11
21036.3
 21
19066.9
 31
0.0
  0
TEXT
  5
127
330
17
100
AcDbEntity
  8
DEBUG_BEAM_GROUPS
 62
5
100
AcDbText
 10
21056.3
 20
19086.9
 30
0.0
 40
176.0
  1
EXP->B10
100
AcDbText
  0
LINE
  5
128
330
17
100
AcDbEntity
  8
DEBUG_BEAM_GROUPS
 62
5
100
AcDbLine
 10
20636.3
 20
17049.1
 30
0.0
 11
21036.3
 21
17449.1
 31
0.0
  0
TEXT
  5
129
330
17
100
AcDbEntity
  8
DEBUG_BEAM_GROUPS
 62
5
100
AcDbText
 10
21056.3
 20
17469.1
 30
0.0
 40
176.0
  1
EXP->B8
100
AcDbText
  0
LINE
  5
12A
330
17
100
AcDbEntity
  8
DEBUG_BEAM_GROUPS
 62
5
100
AcDbLine
 10
20636.3
 20
17049.1
 30
0.0
 11
21036.3
 21
17449.1
 31
0.0
  0
TEXT
  5
12B
330
17
100
AcDbEntity
  8
DEBUG_BEAM_GROUPS
 62
5
100
AcDbText
 10
21056.3
 20
17469.1
 30
0.0
 40
176.0
  1
EXP->B9
100
AcDbText
  0
LINE
  5
12C
330
17
100
AcDbEntity
  8
DEBUG_BEAM_GROUPS
 62
5
100
AcDbLine
 10
20636.3
 20
17049.1
 30
0.0
 11
21036.3
 21
17449.1
 31
0.0
  0
TEXT
  5
12D
330
17
100
AcDbEntity
  8
DEBUG_BEAM_GROUPS
 62
5
100
AcDbText
 10
21056.3
 20
17469.1
 30
0.0
 40
176.0
  1
EXP->B10
100
AcDbText
  0
LINE
  5
12E
330
17
100
AcDbEntity
  8
DEBUG_BEAM_GROUPS
 62
5
100
AcDbLine
 10
20572.6
 20
16742.7
 30
0.0
 11
20972.6
 21
17142.7
 31
0.0
  0
TEXT
  5
12F
330
17
100
AcDbEntity
  8
DEBUG_BEAM_GROUPS
 62
5
100
AcDbText
 10
20992.6
 20
17162.7
 30
0.0
 40
176.0
  1
EXP->B8
100
AcDbText
  0
LINE
  5
130
330
17
100
AcDbEntity
  8
DEBUG_BEAM_GROUPS
 62
5
100
AcDbLine
 10
20572.6
 20
16742.7
 30
0.0
 11
20972.6
 21
17142.7
 31
0.0
  0
TEXT
  5
131
330
17
100
AcDbEntity
  8
DEBUG_BEAM_GROUPS
 62
5
100
AcDbText
 10
20992.6
 20
17162.7
 30
0.0
 40
176.0
  1
EXP->B9
100
AcDbText
  0
LINE
  5
132
330
17
100
AcDbEntity
  8
DEBUG_BEAM_GROUPS
 62
5
100
AcDbLine
 10
20572.6
 20
16742.7
 30
0.0
 11
20972.6
 21
17142.7
 31
0.0
  0
TEXT
  5
133
330
17
100
AcDbEntity
  8
DEBUG_BEAM_GROUPS
 62
5
100
AcDbText
 10
20992.6
 20
17162.7
 30
0.0
 40
176.0
  1
EXP->B10
100
AcDbText
  0
LINE
  5
134
330
17
100
AcDbEntity
  8
DEBUG_BEAM_GROUPS
 62
5
100
AcDbLine
 10
27681.8
 20
18666.9
 30
0.0
 11
28081.8
 21
19066.9
 31
0.0
  0
TEXT
  5
135
330
17
100
AcDbEntity
  8
DEBUG_BEAM_GROUPS
 62
5
100
AcDbText
 10
28101.8
 20
19086.9
 30
0.0
 40
176.0
  1
EXP->B8
100
AcDbText
  0
LINE
  5
136
330
17
100
AcDbEntity
  8
DEBUG_BEAM_GROUPS
 62
5
100
AcDbLine
 10
27681.8
 20
18666.9
 30
0.0
 11
28081.8
 21
19066.9
 31
0.0
  0
TEXT
  5
137
330
17
100
AcDbEntity
  8
DEBUG_BEAM_GROUPS
 62
5
100
AcDbText
 10
28101.8
 20
19086.9
 30
0.0
 40
176.0
  1
EXP->B9
100
AcDbText
  0
LINE
  5
138
330
17
100
AcDbEntity
  8
DEBUG_BEAM_GROUPS
 62
5
100
AcDbLine
 10
27681.8
 20
18666.9
 30
0.0
 11
28081.8
 21
19066.9
 31
0.0
  0
TEXT
  5
139
330
17
100
AcDbEntity
  8
DEBUG_BEAM_GROUPS
 62
5
100
AcDbText
 10
28101.8
 20
19086.9
 30
0.0
 40
176.0
  1
EXP->B10
100
AcDbText
  0
LINE
  5
13A
330
17
100
AcDbEntity
  8
DEBUG_BEAM_GROUPS
 62
5
100
AcDbLine
 10
27681.8
 20
17049.1
 30
0.0
 11
28081.8
 21
17449.1
 31
0.0
  0
TEXT
  5
13B
330
17
100
AcDbEntity
  8
DEBUG_BEAM_GROUPS
 62
5
100
AcDbText
 10
28101.8
 20
17469.1
 30
0.0
 40
176.0
  1
EXP->B8
100
AcDbText
  0
LINE
  5
13C
330
17
100
AcDbEntity
  8
DEBUG_BEAM_GROUPS
 62
5
100
AcDbLine
 10
27681.8
 20
17049.1
 30
0.0
 11
28081.8
 21
17449.1
 31
0.0
  0
TEXT
  5
13D
330
17
100
AcDbEntity
  8
DEBUG_BEAM_GROUPS
 62
5
100
AcDbText
 10
28101.8
 20
17469.1
 30
0.0
 40
176.0
  1
EXP->B9
100
AcDbText
  0
LINE
  5
13E
330
17
100
AcDbEntity
  8
DEBUG_BEAM_GROUPS
 62
5
100
AcDbLine
 10
27681.8
 20
17049.1
 30
0.0
 11
28081.8
 21
17449.1
 31
0.0
  0
TEXT
  5
13F
330
17
100
AcDbEntity
  8
DEBUG_BEAM_GROUPS
 62
5
100
AcDbText
 10
28101.8
 20
17469.1
 30
0.0
 40
176.0
  1
EXP->B10
100
AcDbText
  0
LINE
  5
140
330
17
100
AcDbEntity
  8
DEBUG_BEAM_GROUPS
 62
5
100
AcDbLine
 10
27819.2
 20
16676.1
 30
0.0
 11
28219.2
 21
17076.1
 31
0.0
  0
TEXT
  5
141
330
17
100
AcDbEntity
  8
DEBUG_BEAM_GROUPS
 62
5
100
AcDbText
 10
28239.2
 20
17096.1
 30
0.0
 40
176.0
  1
EXP->B8
100
AcDbText
  0
LINE
  5
142
330
17
100
AcDbEntity
  8
DEBUG_BEAM_GROUPS
 62
5
100
AcDbLine
 10
27819.2
 20
16676.1
 30
0.0
 11
28219.2
 21
17076.1
 31
0.0
  0
TEXT
  5
143
330
17
100
AcDbEntity
  8
DEBUG_BEAM_GROUPS
 62
5
100
AcDbText
 10
28239.2
 20
17096.1
 30
0.0
 40
176.0
  1
EXP->B9
100
AcDbText
  0
LINE
  5
144
330
17
100
AcDbEntity
  8
DEBUG_BEAM_GROUPS
 62
5
100
AcDbLine
 10
27819.2
 20
16676.1
 30
0.0
 11
28219.2
 21
17076.1
 31
0.0
  0
TEXT
  5
145
330
17
100
AcDbEntity
  8
DEBUG_BEAM_GROUPS
 62
5
100
AcDbText
 10
28239.2
 20
17096.1
 30
0.0
 40
176.0
  1
EXP->B10
100
AcDbText
  0
ENDSEC
  0
SECTION
  2
OBJECTS
  0
DICTIONARY
  5
A
330
0
100
AcDbDictionary
281
1
  3
ACAD_COLOR
350
B
  3
ACAD_GROUP
350
C
  3
ACAD_LAYOUT
350
D
  3
ACAD_MATERIAL
350
E
  3
ACAD_MLEADERSTYLE
350
F
  3
ACAD_MLINESTYLE
350
10
  3
ACAD_PLOTSETTINGS
350
11
  3
ACAD_PLOTSTYLENAME
350
12
  3
ACAD_SCALELIST
350
14
  3
ACAD_TABLESTYLE
350
15
  3
ACAD_VISUALSTYLE
350
16
  3
EZDXF_META
350
2D
  0
DICTIONARY
  5
B
330
A
100
AcDbDictionary
281
1
  0
DICTIONARY
  5
C
330
A
100
AcDbDictionary
281
1
  0
DICTIONARY
  5
D
330
A
100
AcDbDictionary
281
1
  3
Model
350
1A
  3
Layout1
350
1E
  0
DICTIONARY
  5
E
330
A
100
AcDbDictionary
281
1
  3
ByBlock
350
1F
  3
ByLayer
350
20
  3
Global
350
21
  0
DICTIONARY
  5
F
330
A
100
AcDbDictionary
281
1
  3
Standard
350
2C
  0
DICTIONARY
  5
10
330
A
100
AcDbDictionary
281
1
  3
Standard
350
22
  0
DICTIONARY
  5
11
330
A
100
AcDbDictionary
281
1
  0
ACDBDICTIONARYWDFLT
  5
12
330
A
100
AcDbDictionary
281
1
  3
Normal
350
13
100
AcDbDictionaryWithDefault
340
13
  0
ACDBPLACEHOLDER
  5
13
330
12
  0
DICTIONARY
  5
14
330
A
100
AcDbDictionary
281
1
  0
DICTIONARY
  5
15
330
A
100
AcDbDictionary
281
1
  0
DICTIONARY
  5
16
330
A
100
AcDbDictionary
281
1
  0
LAYOUT
  5
1A
330
D
100
AcDbPlotSettings
  1

  4
A3
  6

 40
7.5
 41
20.0
 42
7.5
 43
20.0
 44
420.0
 45
297.0
 46
0.0
 47
0.0
 48
0.0
 49
0.0
140
0.0
141
0.0
142
1.0
143
1.0
 70
1024
 72
1
 73
0
 74
5
  7

 75
16
 76
0
 77
2
 78
300
147
1.0
148
0.0
149
0.0
100
AcDbLayout
  1
Model
 70
1
 71
0
 10
0.0
 20
0.0
 11
420.0
 21
297.0
 12
0.0
 22
0.0
 32
0.0
 14
1e+20
 24
1e+20
 34
1e+20
 15
-1e+20
 25
-1e+20
 35
-1e+20
146
0.0
 13
0.0
 23
0.0
 33
0.0
 16
1.0
 26
0.0
 36
0.0
 17
0.0
 27
1.0
 37
0.0
 76
1
330
17
  0
LAYOUT
  5
1E
330
D
100
AcDbPlotSettings
  1

  4
A3
  6

 40
7.5
 41
20.0
 42
7.5
 43
20.0
 44
420.0
 45
297.0
 46
0.0
 47
0.0
 48
0.0
 49
0.0
140
0.0
141
0.0
142
1.0
143
1.0
 70
0
 72
1
 73
0
 74
5
  7

 75
16
 76
0
 77
2
 78
300
147
1.0
148
0.0
149
0.0
100
AcDbLayout
  1
Layout1
 70
1
 71
1
 10
0.0
 20
0.0
 11
420.0
 21
297.0
 12
0.0
 22
0.0
 32
0.0
 14
1e+20
 24
1e+20
 34
1e+20
 15
-1e+20
 25
-1e+20
 35
-1e+20
146
0.0
 13
0.0
 23
0.0
 33
0.0
 16
1.0
 26
0.0
 36
0.0
 17
0.0
 27
1.0
 37
0.0
 76
1
330
1B
  0
MATERIAL
  5
1F
102
{ACAD_REACTORS
330
E
102
}
330
E
100
AcDbMaterial
  1
ByBlock
  2

 70
0
 40
1.0
 71
1
 41
1.0
 91
-1023410177
 42
1.0
 72
1
  3

 73
1
 74
1
 75
1
 44
0.5
 73
0
 45
1.0
 46
1.0
 77
1
  4

 78
1
 79
1
170
1
 48
1.0
171
1
  6

172
1
173
1
174
1
140
1.0
141
1.0
175
1
  7

176
1
177
1
178
1
143
1.0
179
1
  8

270
1
271
1
272
1
145
1.0
146
1.0
273
1
  9

274
1
275
1
276
1
 42
1.0
 72
1
  3

 73
1
 74
1
 75
1
 94
63
  0
MATERIAL
  5
20
102
{ACAD_REACTORS
330
E
102
}
330
E
100
AcDbMaterial
  1
ByLayer
  2

 70
0
 40
1.0
 71
1
 41
1.0
 91
-1023410177
 42
1.0
 72
1
  3

 73
1
 74
1
 75
1
 44
0.5
 73
0
 45
1.0
 46
1.0
 77
1
  4

 78
1
 79
1
170
1
 48
1.0
171
1
  6

172
1
173
1
174
1
140
1.0
141
1.0
175
1
  7

176
1
177
1
178
1
143
1.0
179
1
  8

270
1
271
1
272
1
145
1.0
146
1.0
273
1
  9

274
1
275
1
276
1
 42
1.0
 72
1
  3

 73
1
 74
1
 75
1
 94
63
  0
MATERIAL
  5
21
102
{ACAD_REACTORS
330
E
102
}
330
E
100
AcDbMaterial
  1
Global
  2

 70
0
 40
1.0
 71
1
 41
1.0
 91
-1023410177
 42
1.0
 72
1
  3

 73
1
 74
1
 75
1
 44
0.5
 73
0
 45
1.0
 46
1.0
 77
1
  4

 78
1
 79
1
170
1
 48
1.0
171
1
  6

172
1
173
1
174
1
140
1.0
141
1.0
175
1
  7

176
1
177
1
178
1
143
1.0
179
1
  8

270
1
271
1
272
1
145
1.0
146
1.0
273
1
  9

274
1
275
1
276
1
 42
1.0
 72
1
  3

 73
1
 74
1
 75
1
 94
63
  0
MLINESTYLE
  5
22
102
{ACAD_REACTORS
330
10
102
}
330
10
100
AcDbMlineStyle
  2
Standard
 70
0
  3

 62
256
 51
90.0
 52
90.0
 71
2
 49
0.5
 62
256
  6
BYLAYER
 49
-0.5
 62
256
  6
BYLAYER
  0
MLEADERSTYLE
  5
2C
102
{ACAD_REACTORS
330
F
102
}
330
F
100
AcDbMLeaderStyle
179
2
170
2
171
1
172
0
 90
2
 40
0.0
 41
0.0
173
1
 91
-1056964608
 92
-2
290
1
 42
2.0
291
1
 43
8.0
  3
Standard
 44
4.0
300

342
29
174
1
175
1
176
0
178
1
 93
-1056964608
 45
4.0
292
0
297
0
 46
4.0
 94
-1056964608
 47
1.0
 49
1.0
140
1.0
294
1
141
0.0
177
0
142
1.0
295
0
296
0
143
3.75
271
0
272
9
273
9
  0
DICTIONARY
  5
2D
330
A
100
AcDbDictionary
280
1
281
1
  3
CREATED_BY_EZDXF
350
2E
  3
WRITTEN_BY_EZDXF
350
148
  0
DICTIONARYVAR
  5
2E
330
2D
100
DictionaryVariables
280
0
  1
1.4.4 @ 2026-06-25T10:19:01.207959+00:00
  0
DICTIONARYVAR
  5
148
330
2D
100
DictionaryVariables
280
0
  1
1.4.4 @ 2026-06-25T10:19:01.220729+00:00
  0
ENDSEC
  0
EOF
