  0
SECTION
  2
HEADER
  9
$ACADVER
  1
AC1024
  9
$ACADMAINTVER
 70
6
  9
$DWGCODEPAGE
  3
ANSI_1252
  9
$LASTSAVEDBY
  1
ezdxf
  9
$INSBASE
 10
0.0
 20
0.0
 30
0.0
  9
$EXTMIN
 10
1e+20
 20
1e+20
 30
1e+20
  9
$EXTMAX
 10
-1e+20
 20
-1e+20
 30
-1e+20
  9
$LIMMIN
 10
0.0
 20
0.0
  9
$LIMMAX
 10
420.0
 20
297.0
  9
$ORTHOMODE
 70
0
  9
$REGENMODE
 70
1
  9
$FILLMODE
 70
1
  9
$QTEXTMODE
 70
0
  9
$MIRRTEXT
 70
1
  9
$LTSCALE
 40
1.0
  9
$ATTMODE
 70
1
  9
$TEXTSIZE
 40
2.5
  9
$TRACEWID
 40
1.0
  9
$TEXTSTYLE
  7
Standard
  9
$CLAYER
  8
0
  9
$CELTYPE
  6
ByLayer
  9
$CECOLOR
 62
256
  9
$CELTSCALE
 40
1.0
  9
$DISPSILH
 70
0
  9
$DIMSCALE
 40
1.0
  9
$DIMASZ
 40
2.5
  9
$DIMEXO
 40
0.625
  9
$DIMDLI
 40
3.75
  9
$DIMRND
 40
0.0
  9
$DIMDLE
 40
0.0
  9
$DIMEXE
 40
1.25
  9
$DIMTP
 40
0.0
  9
$DIMTM
 40
0.0
  9
$DIMTXT
 40
2.5
  9
$DIMCEN
 40
2.5
  9
$DIMTSZ
 40
0.0
  9
$DIMTOL
 70
0
  9
$DIMLIM
 70
0
  9
$DIMTIH
 70
0
  9
$DIMTOH
 70
0
  9
$DIMSE1
 70
0
  9
$DIMSE2
 70
0
  9
$DIMTAD
 70
1
  9
$DIMZIN
 70
8
  9
$DIMBLK
  1

  9
$DIMASO
 70
1
  9
$DIMSHO
 70
1
  9
$DIMPOST
  1

  9
$DIMAPOST
  1

  9
$DIMALT
 70
0
  9
$DIMALTD
 70
3
  9
$DIMALTF
 40
0.03937007874
  9
$DIMLFAC
 40
1.0
  9
$DIMTOFL
 70
1
  9
$DIMTVP
 40
0.0
  9
$DIMTIX
 70
0
  9
$DIMSOXD
 70
0
  9
$DIMSAH
 70
0
  9
$DIMBLK1
  1

  9
$DIMBLK2
  1

  9
$DIMSTYLE
  2
ISO-25
  9
$DIMCLRD
 70
0
  9
$DIMCLRE
 70
0
  9
$DIMCLRT
 70
0
  9
$DIMTFAC
 40
1.0
  9
$DIMGAP
 40
0.625
  9
$DIMJUST
 70
0
  9
$DIMSD1
 70
0
  9
$DIMSD2
 70
0
  9
$DIMTOLJ
 70
0
  9
$DIMTZIN
 70
8
  9
$DIMALTZ
 70
0
  9
$DIMALTTZ
 70
0
  9
$DIMUPT
 70
0
  9
$DIMDEC
 70
2
  9
$DIMTDEC
 70
2
  9
$DIMALTU
 70
2
  9
$DIMALTTD
 70
3
  9
$DIMTXSTY
  7
Standard
  9
$DIMAUNIT
 70
0
  9
$DIMADEC
 70
0
  9
$DIMALTRND
 40
0.0
  9
$DIMAZIN
 70
0
  9
$DIMDSEP
 70
44
  9
$DIMATFIT
 70
3
  9
$DIMFRAC
 70
0
  9
$DIMLDRBLK
  1

  9
$DIMLUNIT
 70
2
  9
$DIMLWD
 70
-2
  9
$DIMLWE
 70
-2
  9
$DIMTMOVE
 70
0
  9
$DIMFXL
 40
1.0
  9
$DIMFXLON
 70
0
  9
$DIMJOGANG
 40
0.785398163397
  9
$DIMTFILL
 70
0
  9
$DIMTFILLCLR
 70
0
  9
$DIMARCSYM
 70
0
  9
$DIMLTYPE
  6

  9
$DIMLTEX1
  6

  9
$DIMLTEX2
  6

  9
$DIMTXTDIRECTION
 70
0
  9
$LUNITS
 70
2
  9
$LUPREC
 70
4
  9
$SKETCHINC
 40
1.0
  9
$FILLETRAD
 40
10.0
  9
$AUNITS
 70
0
  9
$AUPREC
 70
2
  9
$MENU
  1
.
  9
$ELEVATION
 40
0.0
  9
$PELEVATION
 40
0.0
  9
$THICKNESS
 40
0.0
  9
$LIMCHECK
 70
0
  9
$CHAMFERA
 40
0.0
  9
$CHAMFERB
 40
0.0
  9
$CHAMFERC
 40
0.0
  9
$CHAMFERD
 40
0.0
  9
$SKPOLY
 70
0
  9
$TDCREATE
 40
2461218.472337963
  9
$TDUCREATE
 40
2458532.153996898
  9
$TDUPDATE
 40
2461218.472337963
  9
$TDUUPDATE
 40
2458532.1544311
  9
$TDINDWG
 40
0.0
  9
$TDUSRTIMER
 40
0.0
  9
$USRTIMER
 70
1
  9
$ANGBASE
 50
0.0
  9
$ANGDIR
 70
0
  9
$PDMODE
 70
0
  9
$PDSIZE
 40
0.0
  9
$PLINEWID
 40
0.0
  9
$SPLFRAME
 70
0
  9
$SPLINETYPE
 70
6
  9
$SPLINESEGS
 70
8
  9
$HANDSEED
  5
16C
  9
$SURFTAB1
 70
6
  9
$SURFTAB2
 70
6
  9
$SURFTYPE
 70
6
  9
$SURFU
 70
6
  9
$SURFV
 70
6
  9
$UCSBASE
  2

  9
$UCSNAME
  2

  9
$UCSORG
 10
0.0
 20
0.0
 30
0.0
  9
$UCSXDIR
 10
1.0
 20
0.0
 30
0.0
  9
$UCSYDIR
 10
0.0
 20
1.0
 30
0.0
  9
$UCSORTHOREF
  2

  9
$UCSORTHOVIEW
 70
0
  9
$UCSORGTOP
 10
0.0
 20
0.0
 30
0.0
  9
$UCSORGBOTTOM
 10
0.0
 20
0.0
 30
0.0
  9
$UCSORGLEFT
 10
0.0
 20
0.0
 30
0.0
  9
$UCSORGRIGHT
 10
0.0
 20
0.0
 30
0.0
  9
$UCSORGFRONT
 10
0.0
 20
0.0
 30
0.0
  9
$UCSORGBACK
 10
0.0
 20
0.0
 30
0.0
  9
$PUCSBASE
  2

  9
$PUCSNAME
  2

  9
$PUCSORG
 10
0.0
 20
0.0
 30
0.0
  9
$PUCSXDIR
 10
1.0
 20
0.0
 30
0.0
  9
$PUCSYDIR
 10
0.0
 20
1.0
 30
0.0
  9
$PUCSORTHOREF
  2

  9
$PUCSORTHOVIEW
 70
0
  9
$PUCSORGTOP
 10
0.0
 20
0.0
 30
0.0
  9
$PUCSORGBOTTOM
 10
0.0
 20
0.0
 30
0.0
  9
$PUCSORGLEFT
 10
0.0
 20
0.0
 30
0.0
  9
$PUCSORGRIGHT
 10
0.0
 20
0.0
 30
0.0
  9
$PUCSORGFRONT
 10
0.0
 20
0.0
 30
0.0
  9
$PUCSORGBACK
 10
0.0
 20
0.0
 30
0.0
  9
$USERI1
 70
0
  9
$USERI2
 70
0
  9
$USERI3
 70
0
  9
$USERI4
 70
0
  9
$USERI5
 70
0
  9
$USERR1
 40
0.0
  9
$USERR2
 40
0.0
  9
$USERR3
 40
0.0
  9
$USERR4
 40
0.0
  9
$USERR5
 40
0.0
  9
$WORLDVIEW
 70
1
  9
$SHADEDGE
 70
3
  9
$SHADEDIF
 70
70
  9
$TILEMODE
 70
1
  9
$MAXACTVP
 70
64
  9
$PINSBASE
 10
0.0
 20
0.0
 30
0.0
  9
$PLIMCHECK
 70
0
  9
$PEXTMIN
 10
1e+20
 20
1e+20
 30
1e+20
  9
$PEXTMAX
 10
-1e+20
 20
-1e+20
 30
-1e+20
  9
$PLIMMIN
 10
0.0
 20
0.0
  9
$PLIMMAX
 10
420.0
 20
297.0
  9
$UNITMODE
 70
0
  9
$VISRETAIN
 70
1
  9
$PLINEGEN
 70
0
  9
$PSLTSCALE
 70
1
  9
$TREEDEPTH
 70
3020
  9
$CMLSTYLE
  2
Standard
  9
$CMLJUST
 70
0
  9
$CMLSCALE
 40
20.0
  9
$PROXYGRAPHICS
 70
1
  9
$MEASUREMENT
 70
1
  9
$CELWEIGHT
370
-1
  9
$ENDCAPS
280
0
  9
$JOINSTYLE
280
0
  9
$LWDISPLAY
290
0
  9
$INSUNITS
 70
6
  9
$HYPERLINKBASE
  1

  9
$STYLESHEET
  1

  9
$XEDIT
290
1
  9
$CEPSNTYPE
380
0
  9
$PSTYLEMODE
290
1
  9
$FINGERPRINTGUID
  2
{7ADE9A2E-3FF0-42FF-A90B-74EF20E383A8}
  9
$VERSIONGUID
  2
{9A62706F-2601-4DC1-B219-9D424C8DBCF2}
  9
$EXTNAMES
290
1
  9
$PSVPSCALE
 40
0.0
  9
$OLESTARTUP
290
0
  9
$SORTENTS
280
127
  9
$INDEXCTL
280
0
  9
$HIDETEXT
280
1
  9
$XCLIPFRAME
280
1
  9
$HALOGAP
280
0
  9
$OBSCOLOR
 70
257
  9
$OBSLTYPE
280
0
  9
$INTERSECTIONDISPLAY
280
0
  9
$INTERSECTIONCOLOR
 70
257
  9
$DIMASSOC
280
2
  9
$PROJECTNAME
  1

  9
$CAMERADISPLAY
290
0
  9
$LENSLENGTH
 40
50.0
  9
$CAMERAHEIGHT
 40
0.0
  9
$STEPSPERSEC
 40
24.0
  9
$STEPSIZE
 40
100.0
  9
$3DDWFPREC
 40
2.0
  9
$PSOLWIDTH
 40
0.005
  9
$PSOLHEIGHT
 40
0.08
  9
$LOFTANG1
 40
1.570796326795
  9
$LOFTANG2
 40
1.570796326795
  9
$LOFTMAG1
 40
0.0
  9
$LOFTMAG2
 40
0.0
  9
$LOFTPARAM
 70
7
  9
$LOFTNORMALS
280
1
  9
$LATITUDE
 40
37.795
  9
$LONGITUDE
 40
-122.394
  9
$NORTHDIRECTION
 40
0.0
  9
$TIMEZONE
 70
-8000
  9
$LIGHTGLYPHDISPLAY
280
1
  9
$TILEMODELIGHTSYNCH
280
1
  9
$CMATERIAL
347
20
  9
$SOLIDHIST
280
0
  9
$SHOWHIST
280
1
  9
$DWFFRAME
280
2
  9
$DGNFRAME
280
2
  9
$REALWORLDSCALE
290
1
  9
$INTERFERECOLOR
 62
256
  9
$CSHADOW
280
0
  9
$SHADOWPLANELOCATION
 40
0.0
  0
ENDSEC
  0
SECTION
  2
CLASSES
  0
CLASS
  1
ACDBDICTIONARYWDFLT
  2
AcDbDictionaryWithDefault
  3
ObjectDBX Classes
 90
0
 91
0
280
0
281
0
  0
CLASS
  1
SUN
  2
AcDbSun
  3
SCENEOE
 90
1153
 91
0
280
0
281
0
  0
CLASS
  1
VISUALSTYLE
  2
AcDbVisualStyle
  3
ObjectDBX Classes
 90
4095
 91
0
280
0
281
0
  0
CLASS
  1
MATERIAL
  2
AcDbMaterial
  3
ObjectDBX Classes
 90
1153
 91
0
280
0
281
0
  0
CLASS
  1
SCALE
  2
AcDbScale
  3
ObjectDBX Classes
 90
1153
 91
0
280
0
281
0
  0
CLASS
  1
TABLESTYLE
  2
AcDbTableStyle
  3
ObjectDBX Classes
 90
4095
 91
0
280
0
281
0
  0
CLASS
  1
MLEADERSTYLE
  2
AcDbMLeaderStyle
  3
ACDB_MLEADERSTYLE_CLASS
 90
4095
 91
0
280
0
281
0
  0
CLASS
  1
DICTIONARYVAR
  2
AcDbDictionaryVar
  3
ObjectDBX Classes
 90
0
 91
0
280
0
281
0
  0
CLASS
  1
CELLSTYLEMAP
  2
AcDbCellStyleMap
  3
ObjectDBX Classes
 90
1152
 91
0
280
0
281
0
  0
CLASS
  1
MENTALRAYRENDERSETTINGS
  2
AcDbMentalRayRenderSettings
  3
SCENEOE
 90
1024
 91
0
280
0
281
0
  0
CLASS
  1
ACDBDETAILVIEWSTYLE
  2
AcDbDetailViewStyle
  3
ObjectDBX Classes
 90
1025
 91
0
280
0
281
0
  0
CLASS
  1
ACDBSECTIONVIEWSTYLE
  2
AcDbSectionViewStyle
  3
ObjectDBX Classes
 90
1025
 91
0
280
0
281
0
  0
CLASS
  1
RASTERVARIABLES
  2
AcDbRasterVariables
  3
ISM
 90
0
 91
0
280
0
281
0
  0
CLASS
  1
LAYOUT
  2
AcDbLayout
  3
ObjectDBX Classes
 90
0
 91
0
280
0
281
0
  0
CLASS
  1
ACDBPLACEHOLDER
  2
AcDbPlaceHolder
  3
ObjectDBX Classes
 90
0
 91
0
280
0
281
0
  0
ENDSEC
  0
SECTION
  2
TABLES
  0
TABLE
  2
VPORT
  5
8
330
0
100
AcDbSymbolTable
 70
1
  0
VPORT
  5
23
330
8
100
AcDbSymbolTableRecord
100
AcDbViewportTableRecord
  2
*Active
 70
0
 10
0.0
 20
0.0
 11
1.0
 21
1.0
 12
0.0
 22
0.0
 13
0.0
 23
0.0
 14
0.5
 24
0.5
 15
0.5
 25
0.5
 16
0.0
 26
0.0
 36
1.0
 17
0.0
 27
0.0
 37
0.0
 40
1000.0
 41
1.34
 42
50.0
 43
0.0
 44
0.0
 50
0.0
 51
0.0
 71
0
 72
1000
 73
1
 74
3
 75
0
 76
0
 77
0
 78
0
281
0
 65
0
146
0.0
  0
ENDTAB
  0
TABLE
  2
LTYPE
  5
2
330
0
100
AcDbSymbolTable
 70
3
  0
LTYPE
  5
24
330
2
100
AcDbSymbolTableRecord
100
AcDbLinetypeTableRecord
  2
ByBlock
 70
0
  3

 72
65
 73
0
 40
0.0
  0
LTYPE
  5
25
330
2
100
AcDbSymbolTableRecord
100
AcDbLinetypeTableRecord
  2
ByLayer
 70
0
  3

 72
65
 73
0
 40
0.0
  0
LTYPE
  5
26
330
2
100
AcDbSymbolTableRecord
100
AcDbLinetypeTableRecord
  2
Continuous
 70
0
  3

 72
65
 73
0
 40
0.0
  0
ENDTAB
  0
TABLE
  2
LAYER
  5
1
330
0
100
AcDbSymbolTable
 70
6
  0
LAYER
  5
27
330
1
100
AcDbSymbolTableRecord
100
AcDbLayerTableRecord
  2
0
 70
0
 62
7
  6
Continuous
370
-3
390
13
347
21
  0
LAYER
  5
28
330
1
100
AcDbSymbolTableRecord
100
AcDbLayerTableRecord
  2
Defpoints
 70
0
 62
7
  6
Continuous
290
0
370
-3
390
13
347
21
  0
LAYER
  5
2F
330
1
100
AcDbSymbolTableRecord
100
AcDbLayerTableRecord
  2
DEBUG_REBAR_GEOMETRY
 70
0
 62
7
  6
Continuous
370
-3
390
13
347
21
  0
LAYER
  5
30
330
1
100
AcDbSymbolTableRecord
100
AcDbLayerTableRecord
  2
DEBUG_REBAR_ATTACHMENTS
 70
0
 62
7
  6
Continuous
370
-3
390
13
347
21
  0
LAYER
  5
31
330
1
100
AcDbSymbolTableRecord
100
AcDbLayerTableRecord
  2
DEBUG_REBAR_CONTINUITY
 70
0
 62
7
  6
Continuous
370
-3
390
13
347
21
  0
LAYER
  5
32
330
1
100
AcDbSymbolTableRecord
100
AcDbLayerTableRecord
  2
DEBUG_REBAR_POSITION
 70
0
 62
7
  6
Continuous
370
-3
390
13
347
21
  0
ENDTAB
  0
TABLE
  2
STYLE
  5
5
330
0
100
AcDbSymbolTable
 70
1
  0
STYLE
  5
29
330
5
100
AcDbSymbolTableRecord
100
AcDbTextStyleTableRecord
  2
Standard
 70
0
 40
0.0
 41
1.0
 50
0.0
 71
0
 42
2.5
  3
txt
  4

  0
ENDTAB
  0
TABLE
  2
VIEW
  5
7
330
0
100
AcDbSymbolTable
 70
0
  0
ENDTAB
  0
TABLE
  2
UCS
  5
6
330
0
100
AcDbSymbolTable
 70
0
  0
ENDTAB
  0
TABLE
  2
APPID
  5
3
330
0
100
AcDbSymbolTable
 70
3
  0
APPID
  5
2A
330
3
100
AcDbSymbolTableRecord
100
AcDbRegAppTableRecord
  2
ACAD
 70
0
  0
APPID
  5
169
330
3
100
AcDbSymbolTableRecord
100
AcDbRegAppTableRecord
  2
HATCHBACKGROUNDCOLOR
 70
0
  0
APPID
  5
16A
330
3
100
AcDbSymbolTableRecord
100
AcDbRegAppTableRecord
  2
EZDXF
 70
0
  0
ENDTAB
  0
TABLE
  2
DIMSTYLE
  5
4
330
0
100
AcDbSymbolTable
 70
1
100
AcDbDimStyleTable
  0
DIMSTYLE
105
2B
330
4
100
AcDbSymbolTableRecord
100
AcDbDimStyleTableRecord
  2
Standard
 70
0
 40
1.0
 41
2.5
 42
0.625
 43
3.75
 44
1.25
 45
0.0
 46
0.0
 47
0.0
 48
0.0
 49
2.5
140
2.5
141
2.5
142
0.0
143
0.03937007874
144
1.0
145
0.0
146
1.0
147
0.625
148
0.0
 69
0
 70
0
 71
0
 72
0
 73
0
 74
0
 75
0
 76
0
 77
1
 78
8
 79
3
170
0
171
3
172
1
173
0
174
0
175
0
176
0
177
0
178
0
179
2
271
2
272
2
273
2
274
3
275
0
276
0
277
2
278
44
279
0
280
0
281
0
282
0
283
0
284
8
285
0
286
0
288
0
289
3
290
0
371
-2
372
-2
  0
ENDTAB
  0
TABLE
  2
BLOCK_RECORD
  5
9
330
0
100
AcDbSymbolTable
 70
2
  0
BLOCK_RECORD
  5
17
330
9
100
AcDbSymbolTableRecord
100
AcDbBlockTableRecord
  2
*Model_Space
340
1A
 70
0
280
1
281
0
  0
BLOCK_RECORD
  5
1B
330
9
100
AcDbSymbolTableRecord
100
AcDbBlockTableRecord
  2
*Paper_Space
340
1E
 70
0
280
1
281
0
  0
ENDTAB
  0
ENDSEC
  0
SECTION
  2
BLOCKS
  0
BLOCK
  5
18
330
17
100
AcDbEntity
  8
0
100
AcDbBlockBegin
  2
*Model_Space
 70
0
 10
0.0
 20
0.0
 30
0.0
  3
*Model_Space
  1

  0
ENDBLK
  5
19
330
17
100
AcDbEntity
  8
0
100
AcDbBlockEnd
  0
BLOCK
  5
1C
330
1B
100
AcDbEntity
  8
0
100
AcDbBlockBegin
  2
*Paper_Space
 70
0
 10
0.0
 20
0.0
 30
0.0
  3
*Paper_Space
  1

  0
ENDBLK
  5
1D
330
1B
100
AcDbEntity
  8
0
100
AcDbBlockEnd
  0
ENDSEC
  0
SECTION
  2
ENTITIES
  0
LINE
  5
33
330
17
100
AcDbEntity
  8
DEBUG_REBAR_GEOMETRY
 62
8
100
AcDbLine
 10
1807.974564335207
 20
17585.75244483799
 30
0.0
 11
8732.481701667319
 21
17585.75244483799
 31
0.0
  0
LINE
  5
34
330
17
100
AcDbEntity
  8
DEBUG_REBAR_GEOMETRY
 62
8
100
AcDbLine
 10
1757.974564335207
 20
18235.75244483799
 30
0.0
 11
8783.050942840886
 21
18235.75244483799
 31
0.0
  0
LINE
  5
35
330
17
100
AcDbEntity
  8
DEBUG_REBAR_GEOMETRY
 62
8
100
AcDbLine
 10
8797.94204209269
 20
18220.75284015648
 30
0.0
 11
8797.94204209269
 21
17735.09032482915
 31
0.0
  0
LINE
  5
36
330
17
100
AcDbEntity
  8
DEBUG_REBAR_GEOMETRY
 62
8
100
AcDbLine
 10
8747.481701667319
 20
18086.41496016532
 30
0.0
 11
8747.481701667319
 21
17600.75244483799
 31
0.0
  0
LINE
  5
37
330
17
100
AcDbEntity
  8
DEBUG_REBAR_GEOMETRY
 62
8
100
AcDbLine
 10
4122.739082316766
 20
17635.67527832351
 30
0.0
 11
8632.481701671046
 21
17635.67527832351
 31
0.0
  0
LINE
  5
38
330
17
100
AcDbEntity
  8
DEBUG_REBAR_GEOMETRY
 62
8
100
AcDbLine
 10
8647.481701667319
 20
18086.41496016532
 30
0.0
 11
8647.481701663593
 21
17650.67485249304
 31
0.0
  0
CIRCLE
  5
39
330
17
100
AcDbEntity
  8
DEBUG_REBAR_ATTACHMENTS
 62
2
100
AcDbCircle
 10
7162.6
 20
18220.753
 30
0.0
 40
90.0
  0
LINE
  5
3A
330
17
100
AcDbEntity
  8
DEBUG_REBAR_ATTACHMENTS
 62
2
100
AcDbLine
 10
7162.6
 20
18220.753
 30
0.0
 11
5270.513
 21
18235.752
 31
0.0
  0
TEXT
  5
3B
330
17
100
AcDbEntity
  8
DEBUG_REBAR_CONTINUITY
 62
2
100
AcDbText
 10
7162.6
 20
18440.753
 30
0.0
 40
160.0
  1
2d8b4e3dP=TOP C=CONTINUOUScov=0.9935
100
AcDbText
  0
TEXT
  5
3C
330
17
100
AcDbEntity
  8
DEBUG_REBAR_POSITION
 62
3
100
AcDbText
 10
5270.513
 20
18415.752
 30
0.0
 40
140.0
  1
TOP
100
AcDbText
  0
LINE
  5
3D
330
17
100
AcDbEntity
  8
DEBUG_REBAR_GEOMETRY
 62
8
100
AcDbLine
 10
13782.32399766789
 20
17715.56241061613
 30
0.0
 11
9211.934053446064
 21
17715.56241061241
 31
0.0
  0
LINE
  5
3E
330
17
100
AcDbEntity
  8
DEBUG_REBAR_GEOMETRY
 62
8
100
AcDbLine
 10
13832.75115236164
 20
18215.56928441935
 30
0.0
 11
9162.236136927168
 21
18215.56928441935
 31
0.0
  0
CIRCLE
  5
3F
330
17
100
AcDbEntity
  8
DEBUG_REBAR_ATTACHMENTS
 62
3
100
AcDbCircle
 10
11217.319
 20
17665.569
 30
0.0
 40
90.0
  0
LINE
  5
40
330
17
100
AcDbEntity
  8
DEBUG_REBAR_ATTACHMENTS
 62
3
100
AcDbLine
 10
11217.319
 20
17665.569
 30
0.0
 11
11497.129
 21
17715.562
 31
0.0
  0
TEXT
  5
41
330
17
100
AcDbEntity
  8
DEBUG_REBAR_CONTINUITY
 62
3
100
AcDbText
 10
11217.319
 20
17885.569
 30
0.0
 40
160.0
  1
18838997P=TOP C=PARTIALcov=0.0
100
AcDbText
  0
TEXT
  5
42
330
17
100
AcDbEntity
  8
DEBUG_REBAR_POSITION
 62
3
100
AcDbText
 10
11497.129
 20
17895.562
 30
0.0
 40
140.0
  1
TOP
100
AcDbText
  0
CIRCLE
  5
43
330
17
100
AcDbEntity
  8
DEBUG_REBAR_ATTACHMENTS
 62
2
100
AcDbCircle
 10
11217.319
 20
18265.569
 30
0.0
 40
90.0
  0
LINE
  5
44
330
17
100
AcDbEntity
  8
DEBUG_REBAR_ATTACHMENTS
 62
2
100
AcDbLine
 10
11217.319
 20
18265.569
 30
0.0
 11
11497.494
 21
18215.569
 31
0.0
  0
TEXT
  5
45
330
17
100
AcDbEntity
  8
DEBUG_REBAR_CONTINUITY
 62
2
100
AcDbText
 10
11217.319
 20
18485.569
 30
0.0
 40
160.0
  1
a31dd1dfP=TOP C=CONTINUOUScov=1.0
100
AcDbText
  0
TEXT
  5
46
330
17
100
AcDbEntity
  8
DEBUG_REBAR_POSITION
 62
3
100
AcDbText
 10
11497.494
 20
18395.569
 30
0.0
 40
140.0
  1
TOP
100
AcDbText
  0
LINE
  5
47
330
17
100
AcDbEntity
  8
DEBUG_REBAR_GEOMETRY
 62
8
100
AcDbLine
 10
3235.883662364344
 20
20931.18706009426
 30
0.0
 11
10683.29398085819
 21
20931.18706009426
 31
0.0
  0
LINE
  5
48
330
17
100
AcDbEntity
  8
DEBUG_REBAR_GEOMETRY
 62
8
100
AcDbLine
 10
3235.883662364344
 20
20981.18706009426
 30
0.0
 11
10683.29398085819
 21
20981.18706009426
 31
0.0
  0
LINE
  5
49
330
17
100
AcDbEntity
  8
DEBUG_REBAR_GEOMETRY
 62
8
100
AcDbLine
 10
6084.656750044683
 20
21530.72384421044
 30
0.0
 11
3235.883662364344
 21
21530.72384421044
 31
0.0
  0
LINE
  5
4A
330
17
100
AcDbEntity
  8
DEBUG_REBAR_GEOMETRY
 62
8
100
AcDbLine
 10
3235.883662364344
 20
21581.18706009426
 30
0.0
 11
10683.29398085819
 21
21581.18706009426
 31
0.0
  0
LINE
  5
4B
330
17
100
AcDbEntity
  8
DEBUG_REBAR_GEOMETRY
 62
8
100
AcDbLine
 10
3312.681867650609
 20
21338.88886130863
 30
0.0
 11
10760.09218614445
 21
21338.88886130863
 31
0.0
  0
LINE
  5
4C
330
17
100
AcDbEntity
  8
DEBUG_REBAR_GEOMETRY
 62
8
100
AcDbLine
 10
3371.902603528361
 20
21140.83950572722
 30
0.0
 11
10819.3129220222
 21
21140.83950572722
 31
0.0
  0
CIRCLE
  5
4D
330
17
100
AcDbEntity
  8
DEBUG_REBAR_ATTACHMENTS
 62
2
100
AcDbCircle
 10
5316.264
 20
20881.187
 30
0.0
 40
90.0
  0
LINE
  5
4E
330
17
100
AcDbEntity
  8
DEBUG_REBAR_ATTACHMENTS
 62
2
100
AcDbLine
 10
5316.264
 20
20881.187
 30
0.0
 11
6959.589
 21
20931.187
 31
0.0
  0
TEXT
  5
4F
330
17
100
AcDbEntity
  8
DEBUG_REBAR_CONTINUITY
 62
2
100
AcDbText
 10
5316.264
 20
21101.187
 30
0.0
 40
160.0
  1
a0a5184aP=TOP C=CONTINUOUScov=1.0
100
AcDbText
  0
TEXT
  5
50
330
17
100
AcDbEntity
  8
DEBUG_REBAR_POSITION
 62
3
100
AcDbText
 10
6959.589
 20
21111.187
 30
0.0
 40
140.0
  1
TOP
100
AcDbText
  0
LINE
  5
51
330
17
100
AcDbEntity
  8
DEBUG_REBAR_GEOMETRY
 62
8
100
AcDbLine
 10
1807.974564335207
 20
17585.75244483799
 30
0.0
 11
8732.481701667319
 21
17585.75244483799
 31
0.0
  0
LINE
  5
52
330
17
100
AcDbEntity
  8
DEBUG_REBAR_GEOMETRY
 62
8
100
AcDbLine
 10
1757.974564335207
 20
18235.75244483799
 30
0.0
 11
8783.050942840886
 21
18235.75244483799
 31
0.0
  0
LINE
  5
53
330
17
100
AcDbEntity
  8
DEBUG_REBAR_GEOMETRY
 62
8
100
AcDbLine
 10
1742.974564335207
 20
18220.75244483799
 30
0.0
 11
1742.974564335207
 21
17633.05010404885
 31
0.0
  0
LINE
  5
54
330
17
100
AcDbEntity
  8
DEBUG_REBAR_GEOMETRY
 62
8
100
AcDbLine
 10
1792.974564335207
 20
18180.33592037559
 30
0.0
 11
1792.974564335207
 21
17600.75244483799
 31
0.0
  0
CIRCLE
  5
55
330
17
100
AcDbEntity
  8
DEBUG_REBAR_ATTACHMENTS
 62
3
100
AcDbCircle
 10
3487.452
 20
18285.752
 30
0.0
 40
90.0
  0
LINE
  5
56
330
17
100
AcDbEntity
  8
DEBUG_REBAR_ATTACHMENTS
 62
3
100
AcDbLine
 10
3487.452
 20
18285.752
 30
0.0
 11
5270.513
 21
18235.752
 31
0.0
  0
TEXT
  5
57
330
17
100
AcDbEntity
  8
DEBUG_REBAR_CONTINUITY
 62
3
100
AcDbText
 10
3487.452
 20
18505.752
 30
0.0
 40
160.0
  1
fb1e7e2eP=TOP C=CONTINUOUScov=1.0
100
AcDbText
  0
TEXT
  5
58
330
17
100
AcDbEntity
  8
DEBUG_REBAR_POSITION
 62
3
100
AcDbText
 10
5270.513
 20
18415.752
 30
0.0
 40
140.0
  1
TOP
100
AcDbText
  0
LINE
  5
59
330
17
100
AcDbEntity
  8
DEBUG_REBAR_GEOMETRY
 62
8
100
AcDbLine
 10
3235.883662364344
 20
20931.18706009426
 30
0.0
 11
10683.29398085819
 21
20931.18706009426
 31
0.0
  0
LINE
  5
5A
330
17
100
AcDbEntity
  8
DEBUG_REBAR_GEOMETRY
 62
8
100
AcDbLine
 10
3235.883662364344
 20
20981.18706009426
 30
0.0
 11
10683.29398085819
 21
20981.18706009426
 31
0.0
  0
LINE
  5
5B
330
17
100
AcDbEntity
  8
DEBUG_REBAR_GEOMETRY
 62
8
100
AcDbLine
 10
7795.846149730394
 20
21530.72384421044
 30
0.0
 11
10683.29398085819
 21
21530.72384421044
 31
0.0
  0
LINE
  5
5C
330
17
100
AcDbEntity
  8
DEBUG_REBAR_GEOMETRY
 62
8
100
AcDbLine
 10
3235.883662364344
 20
21581.18706009426
 30
0.0
 11
10683.29398085819
 21
21581.18706009426
 31
0.0
  0
LINE
  5
5D
330
17
100
AcDbEntity
  8
DEBUG_REBAR_GEOMETRY
 62
8
100
AcDbLine
 10
3312.681867650609
 20
21338.88886130863
 30
0.0
 11
10760.09218614445
 21
21338.88886130863
 31
0.0
  0
LINE
  5
5E
330
17
100
AcDbEntity
  8
DEBUG_REBAR_GEOMETRY
 62
8
100
AcDbLine
 10
3371.902603528361
 20
21140.83950572722
 30
0.0
 11
10819.3129220222
 21
21140.83950572722
 31
0.0
  0
CIRCLE
  5
5F
330
17
100
AcDbEntity
  8
DEBUG_REBAR_ATTACHMENTS
 62
2
100
AcDbCircle
 10
7923.76
 20
20881.187
 30
0.0
 40
90.0
  0
LINE
  5
60
330
17
100
AcDbEntity
  8
DEBUG_REBAR_ATTACHMENTS
 62
2
100
AcDbLine
 10
7923.76
 20
20881.187
 30
0.0
 11
6959.589
 21
20931.187
 31
0.0
  0
TEXT
  5
61
330
17
100
AcDbEntity
  8
DEBUG_REBAR_CONTINUITY
 62
2
100
AcDbText
 10
7923.76
 20
21101.187
 30
0.0
 40
160.0
  1
287f473fP=BOTTOM C=CONTINUOUScov=1.0
100
AcDbText
  0
TEXT
  5
62
330
17
100
AcDbEntity
  8
DEBUG_REBAR_POSITION
 62
3
100
AcDbText
 10
6959.589
 20
21111.187
 30
0.0
 40
140.0
  1
BOTTOM
100
AcDbText
  0
CIRCLE
  5
63
330
17
100
AcDbEntity
  8
DEBUG_REBAR_ATTACHMENTS
 62
2
100
AcDbCircle
 10
8123.76
 20
20881.187
 30
0.0
 40
90.0
  0
LINE
  5
64
330
17
100
AcDbEntity
  8
DEBUG_REBAR_ATTACHMENTS
 62
2
100
AcDbLine
 10
8123.76
 20
20881.187
 30
0.0
 11
6959.589
 21
20931.187
 31
0.0
  0
TEXT
  5
65
330
17
100
AcDbEntity
  8
DEBUG_REBAR_CONTINUITY
 62
2
100
AcDbText
 10
8123.76
 20
21101.187
 30
0.0
 40
160.0
  1
e291fd95P=BOTTOM C=CONTINUOUScov=1.0
100
AcDbText
  0
TEXT
  5
66
330
17
100
AcDbEntity
  8
DEBUG_REBAR_POSITION
 62
3
100
AcDbText
 10
6959.589
 20
21111.187
 30
0.0
 40
140.0
  1
BOTTOM
100
AcDbText
  0
LINE
  5
67
330
17
100
AcDbEntity
  8
DEBUG_REBAR_GEOMETRY
 62
8
100
AcDbLine
 10
17019.95252007515
 20
17664.20197230093
 30
0.0
 11
14936.82107574389
 21
17664.20197230093
 31
0.0
  0
LINE
  5
68
330
17
100
AcDbEntity
  8
DEBUG_REBAR_GEOMETRY
 62
8
100
AcDbLine
 10
14919.05556763978
 20
18114.66268820204
 30
0.0
 11
16911.68190529466
 21
18113.74602532089
 31
0.0
  0
LINE
  5
69
330
17
100
AcDbEntity
  8
DEBUG_REBAR_GEOMETRY
 62
8
100
AcDbLine
 10
17000.2707739015
 20
18098.74642085731
 30
0.0
 11
17000.27077389778
 21
17687.04905238263
 31
0.0
  0
LINE
  5
6A
330
17
100
AcDbEntity
  8
DEBUG_REBAR_GEOMETRY
 62
8
100
AcDbLine
 10
17070.3796747689
 20
18164.20884610415
 30
0.0
 11
14936.82107574762
 21
18164.66513733268
 31
0.0
  0
LINE
  5
6B
330
17
100
AcDbEntity
  8
DEBUG_REBAR_GEOMETRY
 62
8
100
AcDbLine
 10
17044.95252007515
 20
18087.27883821801
 30
0.0
 11
17044.95252007515
 21
17689.20197230093
 31
0.0
  0
CIRCLE
  5
6C
330
17
100
AcDbEntity
  8
DEBUG_REBAR_ATTACHMENTS
 62
3
100
AcDbCircle
 10
16947.97
 20
18064.209
 30
0.0
 40
90.0
  0
LINE
  5
6D
330
17
100
AcDbEntity
  8
DEBUG_REBAR_ATTACHMENTS
 62
3
100
AcDbLine
 10
16947.97
 20
18064.209
 30
0.0
 11
17000.271
 21
17892.898
 31
0.0
  0
TEXT
  5
6E
330
17
100
AcDbEntity
  8
DEBUG_REBAR_CONTINUITY
 62
3
100
AcDbText
 10
16947.97
 20
18284.209
 30
0.0
 40
160.0
  1
94ef54a4P=BOTTOM C=PARTIALcov=0.6862
100
AcDbText
  0
TEXT
  5
6F
330
17
100
AcDbEntity
  8
DEBUG_REBAR_POSITION
 62
3
100
AcDbText
 10
17000.271
 20
18072.898
 30
0.0
 40
140.0
  1
BOTTOM
100
AcDbText
  0
LINE
  5
70
330
17
100
AcDbEntity
  8
DEBUG_REBAR_GEOMETRY
 62
8
100
AcDbLine
 10
21379.5760557604
 20
20957.35488833935
 30
0.0
 11
23841.29256676779
 21
20957.35337406658
 31
0.0
  0
LINE
  5
71
330
17
100
AcDbEntity
  8
DEBUG_REBAR_GEOMETRY
 62
8
100
AcDbLine
 10
23906.29918987946
 20
21592.3552836597
 30
0.0
 11
23906.29918987946
 21
21106.69276833237
 31
0.0
  0
LINE
  5
72
330
17
100
AcDbEntity
  8
DEBUG_REBAR_GEOMETRY
 62
8
100
AcDbLine
 10
23856.29918988318
 20
21458.01740366854
 30
0.0
 11
23856.29918988318
 21
20972.35488834121
 31
0.0
  0
LINE
  5
73
330
17
100
AcDbEntity
  8
DEBUG_REBAR_GEOMETRY
 62
8
100
AcDbLine
 10
21329.55444636838
 20
21607.35487277322
 30
0.0
 11
23891.29967069895
 21
21607.35528365225
 31
0.0
  0
CIRCLE
  5
74
330
17
100
AcDbEntity
  8
DEBUG_REBAR_ATTACHMENTS
 62
2
100
AcDbCircle
 10
23955.992
 20
21657.455
 30
0.0
 40
90.0
  0
LINE
  5
75
330
17
100
AcDbEntity
  8
DEBUG_REBAR_ATTACHMENTS
 62
2
100
AcDbLine
 10
23955.992
 20
21657.455
 30
0.0
 11
22610.427
 21
21607.355
 31
0.0
  0
TEXT
  5
76
330
17
100
AcDbEntity
  8
DEBUG_REBAR_CONTINUITY
 62
2
100
AcDbText
 10
23955.992
 20
21877.455
 30
0.0
 40
160.0
  1
90b69f20P=BOTTOM C=PARTIALcov=0.0
100
AcDbText
  0
TEXT
  5
77
330
17
100
AcDbEntity
  8
DEBUG_REBAR_POSITION
 62
3
100
AcDbText
 10
22610.427
 20
21787.355
 30
0.0
 40
140.0
  1
BOTTOM
100
AcDbText
  0
LINE
  5
78
330
17
100
AcDbEntity
  8
DEBUG_REBAR_GEOMETRY
 62
8
100
AcDbLine
 10
25225.40974180297
 20
20808.06362478324
 30
0.0
 11
32149.91687913508
 21
20808.06362478324
 31
0.0
  0
LINE
  5
79
330
17
100
AcDbEntity
  8
DEBUG_REBAR_GEOMETRY
 62
8
100
AcDbLine
 10
25175.40974180297
 20
21458.06362478324
 30
0.0
 11
32200.48612030865
 21
21458.06362478324
 31
0.0
  0
LINE
  5
7A
330
17
100
AcDbEntity
  8
DEBUG_REBAR_GEOMETRY
 62
8
100
AcDbLine
 10
32215.37721956047
 20
21443.06402010173
 30
0.0
 11
32215.37721956047
 21
20957.4015047744
 31
0.0
  0
LINE
  5
7B
330
17
100
AcDbEntity
  8
DEBUG_REBAR_GEOMETRY
 62
8
100
AcDbLine
 10
32164.91687913508
 20
21308.72614011057
 30
0.0
 11
32164.91687913508
 21
20823.06362478324
 31
0.0
  0
LINE
  5
7C
330
17
100
AcDbEntity
  8
DEBUG_REBAR_GEOMETRY
 62
8
100
AcDbLine
 10
27540.17425978453
 20
20857.98645826877
 30
0.0
 11
32049.91687913882
 21
20857.98645826877
 31
0.0
  0
LINE
  5
7D
330
17
100
AcDbEntity
  8
DEBUG_REBAR_GEOMETRY
 62
8
100
AcDbLine
 10
32064.91687913509
 20
21308.72614011057
 30
0.0
 11
32064.91687913136
 21
20872.98603243828
 31
0.0
  0
CIRCLE
  5
7E
330
17
100
AcDbEntity
  8
DEBUG_REBAR_ATTACHMENTS
 62
2
100
AcDbCircle
 10
29915.265
 20
20823.064
 30
0.0
 40
90.0
  0
LINE
  5
7F
330
17
100
AcDbEntity
  8
DEBUG_REBAR_ATTACHMENTS
 62
2
100
AcDbLine
 10
29915.265
 20
20823.064
 30
0.0
 11
28687.663
 21
20808.064
 31
0.0
  0
TEXT
  5
80
330
17
100
AcDbEntity
  8
DEBUG_REBAR_CONTINUITY
 62
2
100
AcDbText
 10
29915.265
 20
21043.064
 30
0.0
 40
160.0
  1
b2d6bfbfP=BOTTOM C=CONTINUOUScov=0.9715
100
AcDbText
  0
TEXT
  5
81
330
17
100
AcDbEntity
  8
DEBUG_REBAR_POSITION
 62
3
100
AcDbText
 10
28687.663
 20
20988.064
 30
0.0
 40
140.0
  1
BOTTOM
100
AcDbText
  0
LINE
  5
82
330
17
100
AcDbEntity
  8
DEBUG_REBAR_GEOMETRY
 62
8
100
AcDbLine
 10
25225.40974180297
 20
20808.06362478324
 30
0.0
 11
32149.91687913508
 21
20808.06362478324
 31
0.0
  0
LINE
  5
83
330
17
100
AcDbEntity
  8
DEBUG_REBAR_GEOMETRY
 62
8
100
AcDbLine
 10
25175.40974180297
 20
21458.06362478324
 30
0.0
 11
32200.48612030865
 21
21458.06362478324
 31
0.0
  0
LINE
  5
84
330
17
100
AcDbEntity
  8
DEBUG_REBAR_GEOMETRY
 62
8
100
AcDbLine
 10
25160.40974180297
 20
21443.06362478324
 30
0.0
 11
25160.40974180297
 21
20855.3612839941
 31
0.0
  0
LINE
  5
85
330
17
100
AcDbEntity
  8
DEBUG_REBAR_GEOMETRY
 62
8
100
AcDbLine
 10
25210.40974180297
 20
21402.64710032083
 30
0.0
 11
25210.40974180297
 21
20823.06362478324
 31
0.0
  0
CIRCLE
  5
86
330
17
100
AcDbEntity
  8
DEBUG_REBAR_ATTACHMENTS
 62
3
100
AcDbCircle
 10
26904.887
 20
21508.064
 30
0.0
 40
90.0
  0
LINE
  5
87
330
17
100
AcDbEntity
  8
DEBUG_REBAR_ATTACHMENTS
 62
3
100
AcDbLine
 10
26904.887
 20
21508.064
 30
0.0
 11
28687.948
 21
21458.064
 31
0.0
  0
TEXT
  5
88
330
17
100
AcDbEntity
  8
DEBUG_REBAR_CONTINUITY
 62
3
100
AcDbText
 10
26904.887
 20
21728.064
 30
0.0
 40
160.0
  1
0f5329a9P=TOP C=CONTINUOUScov=1.0
100
AcDbText
  0
TEXT
  5
89
330
17
100
AcDbEntity
  8
DEBUG_REBAR_POSITION
 62
3
100
AcDbText
 10
28687.948
 20
21638.064
 30
0.0
 40
140.0
  1
TOP
100
AcDbText
  0
CIRCLE
  5
8A
330
17
100
AcDbEntity
  8
DEBUG_REBAR_ATTACHMENTS
 62
2
100
AcDbCircle
 10
6497.83
 20
17600.752
 30
0.0
 40
90.0
  0
LINE
  5
8B
330
17
100
AcDbEntity
  8
DEBUG_REBAR_ATTACHMENTS
 62
2
100
AcDbLine
 10
6497.83
 20
17600.752
 30
0.0
 11
5270.228
 21
17585.752
 31
0.0
  0
TEXT
  5
8C
330
17
100
AcDbEntity
  8
DEBUG_REBAR_CONTINUITY
 62
2
100
AcDbText
 10
6497.83
 20
17820.752
 30
0.0
 40
160.0
  1
e5b90c9bP=BOTTOM C=CONTINUOUScov=0.9715
100
AcDbText
  0
TEXT
  5
8D
330
17
100
AcDbEntity
  8
DEBUG_REBAR_POSITION
 62
3
100
AcDbText
 10
5270.228
 20
17765.752
 30
0.0
 40
140.0
  1
BOTTOM
100
AcDbText
  0
LINE
  5
8E
330
17
100
AcDbEntity
  8
DEBUG_REBAR_GEOMETRY
 62
8
100
AcDbLine
 10
21379.5760557604
 20
20957.35488833935
 30
0.0
 11
23841.29256676779
 21
20957.35337406658
 31
0.0
  0
LINE
  5
8F
330
17
100
AcDbEntity
  8
DEBUG_REBAR_GEOMETRY
 62
8
100
AcDbLine
 10
21314.57605576039
 20
21592.35488833934
 30
0.0
 11
21314.57605576039
 21
20993.10707136691
 31
0.0
  0
LINE
  5
90
330
17
100
AcDbEntity
  8
DEBUG_REBAR_GEOMETRY
 62
8
100
AcDbLine
 10
21364.5760557604
 20
21543.95962284953
 30
0.0
 11
21364.5760557604
 21
20972.35488833935
 31
0.0
  0
LINE
  5
91
330
17
100
AcDbEntity
  8
DEBUG_REBAR_GEOMETRY
 62
8
100
AcDbLine
 10
21329.55444636838
 20
21607.35487277322
 30
0.0
 11
23891.29967069895
 21
21607.35528365225
 31
0.0
  0
CIRCLE
  5
92
330
17
100
AcDbEntity
  8
DEBUG_REBAR_ATTACHMENTS
 62
2
100
AcDbCircle
 10
21263.755
 20
20907.154
 30
0.0
 40
90.0
  0
LINE
  5
93
330
17
100
AcDbEntity
  8
DEBUG_REBAR_ATTACHMENTS
 62
2
100
AcDbLine
 10
21263.755
 20
20907.154
 30
0.0
 11
21314.576
 21
21292.731
 31
0.0
  0
TEXT
  5
94
330
17
100
AcDbEntity
  8
DEBUG_REBAR_CONTINUITY
 62
2
100
AcDbText
 10
21263.755
 20
21127.154
 30
0.0
 40
160.0
  1
0ba16d33P=TOP C=PARTIALcov=0.6042
100
AcDbText
  0
TEXT
  5
95
330
17
100
AcDbEntity
  8
DEBUG_REBAR_POSITION
 62
3
100
AcDbText
 10
21314.576
 20
21472.731
 30
0.0
 40
140.0
  1
TOP
100
AcDbText
  0
CIRCLE
  5
96
330
17
100
AcDbEntity
  8
DEBUG_REBAR_ATTACHMENTS
 62
2
100
AcDbCircle
 10
21263.755
 20
20907.154
 30
0.0
 40
90.0
  0
LINE
  5
97
330
17
100
AcDbEntity
  8
DEBUG_REBAR_ATTACHMENTS
 62
2
100
AcDbLine
 10
21263.755
 20
20907.154
 30
0.0
 11
21314.576
 21
21292.731
 31
0.0
  0
TEXT
  5
98
330
17
100
AcDbEntity
  8
DEBUG_REBAR_CONTINUITY
 62
2
100
AcDbText
 10
21263.755
 20
21127.154
 30
0.0
 40
160.0
  1
f3c837f7P=TOP C=PARTIALcov=0.6042
100
AcDbText
  0
TEXT
  5
99
330
17
100
AcDbEntity
  8
DEBUG_REBAR_POSITION
 62
3
100
AcDbText
 10
21314.576
 20
21472.731
 30
0.0
 40
140.0
  1
TOP
100
AcDbText
  0
LINE
  5
9A
330
17
100
AcDbEntity
  8
DEBUG_REBAR_GEOMETRY
 62
8
100
AcDbLine
 10
21379.5760557604
 20
20957.35488833935
 30
0.0
 11
23841.29256676779
 21
20957.35337406658
 31
0.0
  0
LINE
  5
9B
330
17
100
AcDbEntity
  8
DEBUG_REBAR_GEOMETRY
 62
8
100
AcDbLine
 10
21314.57605576039
 20
21592.35488833934
 30
0.0
 11
21314.57605576039
 21
20993.10707136691
 31
0.0
  0
LINE
  5
9C
330
17
100
AcDbEntity
  8
DEBUG_REBAR_GEOMETRY
 62
8
100
AcDbLine
 10
21364.5760557604
 20
21543.95962284953
 30
0.0
 11
21364.5760557604
 21
20972.35488833935
 31
0.0
  0
LINE
  5
9D
330
17
100
AcDbEntity
  8
DEBUG_REBAR_GEOMETRY
 62
8
100
AcDbLine
 10
21329.55444636838
 20
21607.35487277322
 30
0.0
 11
23891.29967069895
 21
21607.35528365225
 31
0.0
  0
CIRCLE
  5
9E
330
17
100
AcDbEntity
  8
DEBUG_REBAR_ATTACHMENTS
 62
2
100
AcDbCircle
 10
22255.51
 20
20907.154
 30
0.0
 40
90.0
  0
LINE
  5
9F
330
17
100
AcDbEntity
  8
DEBUG_REBAR_ATTACHMENTS
 62
2
100
AcDbLine
 10
22255.51
 20
20907.154
 30
0.0
 11
22610.434
 21
20957.354
 31
0.0
  0
TEXT
  5
A0
330
17
100
AcDbEntity
  8
DEBUG_REBAR_CONTINUITY
 62
2
100
AcDbText
 10
22255.51
 20
21127.154
 30
0.0
 40
160.0
  1
1e7574ecP=BOTTOM C=CONTINUOUScov=0.8832
100
AcDbText
  0
TEXT
  5
A1
330
17
100
AcDbEntity
  8
DEBUG_REBAR_POSITION
 62
3
100
AcDbText
 10
22610.434
 20
21137.354
 30
0.0
 40
140.0
  1
BOTTOM
100
AcDbText
  0
LINE
  5
A2
330
17
100
AcDbEntity
  8
DEBUG_REBAR_GEOMETRY
 62
8
100
AcDbLine
 10
21379.5760557604
 20
20957.35488833935
 30
0.0
 11
23841.29256676779
 21
20957.35337406658
 31
0.0
  0
LINE
  5
A3
330
17
100
AcDbEntity
  8
DEBUG_REBAR_GEOMETRY
 62
8
100
AcDbLine
 10
23906.29918987946
 20
21592.3552836597
 30
0.0
 11
23906.29918987946
 21
21106.69276833237
 31
0.0
  0
LINE
  5
A4
330
17
100
AcDbEntity
  8
DEBUG_REBAR_GEOMETRY
 62
8
100
AcDbLine
 10
23856.29918988318
 20
21458.01740366854
 30
0.0
 11
23856.29918988318
 21
20972.35488834121
 31
0.0
  0
LINE
  5
A5
330
17
100
AcDbEntity
  8
DEBUG_REBAR_GEOMETRY
 62
8
100
AcDbLine
 10
21329.55444636838
 20
21607.35487277322
 30
0.0
 11
23891.29967069895
 21
21607.35528365225
 31
0.0
  0
CIRCLE
  5
A6
330
17
100
AcDbEntity
  8
DEBUG_REBAR_ATTACHMENTS
 62
2
100
AcDbCircle
 10
23956.595
 20
20907.154
 30
0.0
 40
90.0
  0
LINE
  5
A7
330
17
100
AcDbEntity
  8
DEBUG_REBAR_ATTACHMENTS
 62
2
100
AcDbLine
 10
23956.595
 20
20907.154
 30
0.0
 11
23856.299
 21
21215.186
 31
0.0
  0
TEXT
  5
A8
330
17
100
AcDbEntity
  8
DEBUG_REBAR_CONTINUITY
 62
2
100
AcDbText
 10
23956.595
 20
21127.154
 30
0.0
 40
160.0
  1
db90abbbP=TOP C=PARTIALcov=0.6473
100
AcDbText
  0
TEXT
  5
A9
330
17
100
AcDbEntity
  8
DEBUG_REBAR_POSITION
 62
3
100
AcDbText
 10
23856.299
 20
21395.186
 30
0.0
 40
140.0
  1
TOP
100
AcDbText
  0
CIRCLE
  5
AA
330
17
100
AcDbEntity
  8
DEBUG_REBAR_ATTACHMENTS
 62
2
100
AcDbCircle
 10
23755.774
 20
20907.154
 30
0.0
 40
90.0
  0
LINE
  5
AB
330
17
100
AcDbEntity
  8
DEBUG_REBAR_ATTACHMENTS
 62
2
100
AcDbLine
 10
23755.774
 20
20907.154
 30
0.0
 11
22610.434
 21
20957.354
 31
0.0
  0
TEXT
  5
AC
330
17
100
AcDbEntity
  8
DEBUG_REBAR_CONTINUITY
 62
2
100
AcDbText
 10
23755.774
 20
21127.154
 30
0.0
 40
160.0
  1
c7d3f2f8P=BOTTOM C=PARTIALcov=0.0
100
AcDbText
  0
TEXT
  5
AD
330
17
100
AcDbEntity
  8
DEBUG_REBAR_POSITION
 62
3
100
AcDbText
 10
22610.434
 20
21137.354
 30
0.0
 40
140.0
  1
BOTTOM
100
AcDbText
  0
LINE
  5
AE
330
17
100
AcDbEntity
  8
DEBUG_REBAR_GEOMETRY
 62
8
100
AcDbLine
 10
25225.40974180297
 20
20808.06362478324
 30
0.0
 11
32149.91687913508
 21
20808.06362478324
 31
0.0
  0
LINE
  5
AF
330
17
100
AcDbEntity
  8
DEBUG_REBAR_GEOMETRY
 62
8
100
AcDbLine
 10
25175.40974180297
 20
21458.06362478324
 30
0.0
 11
32200.48612030865
 21
21458.06362478324
 31
0.0
  0
LINE
  5
B0
330
17
100
AcDbEntity
  8
DEBUG_REBAR_GEOMETRY
 62
8
100
AcDbLine
 10
25160.40974180297
 20
21443.06362478324
 30
0.0
 11
25160.40974180297
 21
20855.3612839941
 31
0.0
  0
LINE
  5
B1
330
17
100
AcDbEntity
  8
DEBUG_REBAR_GEOMETRY
 62
8
100
AcDbLine
 10
25210.40974180297
 20
21402.64710032083
 30
0.0
 11
25210.40974180297
 21
20823.06362478324
 31
0.0
  0
CIRCLE
  5
B2
330
17
100
AcDbEntity
  8
DEBUG_REBAR_ATTACHMENTS
 62
2
100
AcDbCircle
 10
25108.901
 20
20760.577
 30
0.0
 40
90.0
  0
LINE
  5
B3
330
17
100
AcDbEntity
  8
DEBUG_REBAR_ATTACHMENTS
 62
2
100
AcDbLine
 10
25108.901
 20
20760.577
 30
0.0
 11
25160.41
 21
21149.212
 31
0.0
  0
TEXT
  5
B4
330
17
100
AcDbEntity
  8
DEBUG_REBAR_CONTINUITY
 62
2
100
AcDbText
 10
25108.901
 20
20980.577
 30
0.0
 40
160.0
  1
4086fec9P=BOTTOM C=PARTIALcov=0.7833
100
AcDbText
  0
TEXT
  5
B5
330
17
100
AcDbEntity
  8
DEBUG_REBAR_POSITION
 62
3
100
AcDbText
 10
25160.41
 20
21329.212
 30
0.0
 40
140.0
  1
BOTTOM
100
AcDbText
  0
LINE
  5
B6
330
17
100
AcDbEntity
  8
DEBUG_REBAR_GEOMETRY
 62
8
100
AcDbLine
 10
25225.40974180297
 20
20808.06362478324
 30
0.0
 11
32149.91687913508
 21
20808.06362478324
 31
0.0
  0
LINE
  5
B7
330
17
100
AcDbEntity
  8
DEBUG_REBAR_GEOMETRY
 62
8
100
AcDbLine
 10
25175.40974180297
 20
21458.06362478324
 30
0.0
 11
32200.48612030865
 21
21458.06362478324
 31
0.0
  0
LINE
  5
B8
330
17
100
AcDbEntity
  8
DEBUG_REBAR_GEOMETRY
 62
8
100
AcDbLine
 10
25160.40974180297
 20
21443.06362478324
 30
0.0
 11
25160.40974180297
 21
20855.3612839941
 31
0.0
  0
LINE
  5
B9
330
17
100
AcDbEntity
  8
DEBUG_REBAR_GEOMETRY
 62
8
100
AcDbLine
 10
25210.40974180297
 20
21402.64710032083
 30
0.0
 11
25210.40974180297
 21
20823.06362478324
 31
0.0
  0
CIRCLE
  5
BA
330
17
100
AcDbEntity
  8
DEBUG_REBAR_ATTACHMENTS
 62
2
100
AcDbCircle
 10
25309.722
 20
20760.577
 30
0.0
 40
90.0
  0
LINE
  5
BB
330
17
100
AcDbEntity
  8
DEBUG_REBAR_ATTACHMENTS
 62
2
100
AcDbLine
 10
25309.722
 20
20760.577
 30
0.0
 11
28687.663
 21
20808.064
 31
0.0
  0
TEXT
  5
BC
330
17
100
AcDbEntity
  8
DEBUG_REBAR_CONTINUITY
 62
2
100
AcDbText
 10
25309.722
 20
20980.577
 30
0.0
 40
160.0
  1
3fc8ba15P=TOP C=CONTINUOUScov=1.0
100
AcDbText
  0
TEXT
  5
BD
330
17
100
AcDbEntity
  8
DEBUG_REBAR_POSITION
 62
3
100
AcDbText
 10
28687.663
 20
20988.064
 30
0.0
 40
140.0
  1
TOP
100
AcDbText
  0
CIRCLE
  5
BE
330
17
100
AcDbEntity
  8
DEBUG_REBAR_ATTACHMENTS
 62
2
100
AcDbCircle
 10
25309.722
 20
20760.577
 30
0.0
 40
90.0
  0
LINE
  5
BF
330
17
100
AcDbEntity
  8
DEBUG_REBAR_ATTACHMENTS
 62
2
100
AcDbLine
 10
25309.722
 20
20760.577
 30
0.0
 11
28687.663
 21
20808.064
 31
0.0
  0
TEXT
  5
C0
330
17
100
AcDbEntity
  8
DEBUG_REBAR_CONTINUITY
 62
2
100
AcDbText
 10
25309.722
 20
20980.577
 30
0.0
 40
160.0
  1
9859c41aP=TOP C=CONTINUOUScov=1.0
100
AcDbText
  0
TEXT
  5
C1
330
17
100
AcDbEntity
  8
DEBUG_REBAR_POSITION
 62
3
100
AcDbText
 10
28687.663
 20
20988.064
 30
0.0
 40
140.0
  1
TOP
100
AcDbText
  0
LINE
  5
C2
330
17
100
AcDbEntity
  8
DEBUG_REBAR_GEOMETRY
 62
8
100
AcDbLine
 10
25225.40974180297
 20
20808.06362478324
 30
0.0
 11
32149.91687913508
 21
20808.06362478324
 31
0.0
  0
LINE
  5
C3
330
17
100
AcDbEntity
  8
DEBUG_REBAR_GEOMETRY
 62
8
100
AcDbLine
 10
25175.40974180297
 20
21458.06362478324
 30
0.0
 11
32200.48612030865
 21
21458.06362478324
 31
0.0
  0
LINE
  5
C4
330
17
100
AcDbEntity
  8
DEBUG_REBAR_GEOMETRY
 62
8
100
AcDbLine
 10
32215.37721956047
 20
21443.06402010173
 30
0.0
 11
32215.37721956047
 21
20957.4015047744
 31
0.0
  0
LINE
  5
C5
330
17
100
AcDbEntity
  8
DEBUG_REBAR_GEOMETRY
 62
8
100
AcDbLine
 10
32164.91687913508
 20
21308.72614011057
 30
0.0
 11
32164.91687913508
 21
20823.06362478324
 31
0.0
  0
LINE
  5
C6
330
17
100
AcDbEntity
  8
DEBUG_REBAR_GEOMETRY
 62
8
100
AcDbLine
 10
27540.17425978453
 20
20857.98645826877
 30
0.0
 11
32049.91687913882
 21
20857.98645826877
 31
0.0
  0
LINE
  5
C7
330
17
100
AcDbEntity
  8
DEBUG_REBAR_GEOMETRY
 62
8
100
AcDbLine
 10
32064.91687913509
 20
21308.72614011057
 30
0.0
 11
32064.91687913136
 21
20872.98603243828
 31
0.0
  0
CIRCLE
  5
C8
330
17
100
AcDbEntity
  8
DEBUG_REBAR_ATTACHMENTS
 62
2
100
AcDbCircle
 10
32215.377
 20
20823.064
 30
0.0
 40
90.0
  0
LINE
  5
C9
330
17
100
AcDbEntity
  8
DEBUG_REBAR_ATTACHMENTS
 62
2
100
AcDbLine
 10
32215.377
 20
20823.064
 30
0.0
 11
32164.917
 21
21065.895
 31
0.0
  0
TEXT
  5
CA
330
17
100
AcDbEntity
  8
DEBUG_REBAR_CONTINUITY
 62
2
100
AcDbText
 10
32215.377
 20
21043.064
 30
0.0
 40
160.0
  1
688717b1P=BOTTOM C=PARTIALcov=0.2111
100
AcDbText
  0
TEXT
  5
CB
330
17
100
AcDbEntity
  8
DEBUG_REBAR_POSITION
 62
3
100
AcDbText
 10
32164.917
 20
21245.895
 30
0.0
 40
140.0
  1
BOTTOM
100
AcDbText
  0
CIRCLE
  5
CC
330
17
100
AcDbEntity
  8
DEBUG_REBAR_ATTACHMENTS
 62
2
100
AcDbCircle
 10
32215.377
 20
20823.064
 30
0.0
 40
90.0
  0
LINE
  5
CD
330
17
100
AcDbEntity
  8
DEBUG_REBAR_ATTACHMENTS
 62
2
100
AcDbLine
 10
32215.377
 20
20823.064
 30
0.0
 11
32164.917
 21
21065.895
 31
0.0
  0
TEXT
  5
CE
330
17
100
AcDbEntity
  8
DEBUG_REBAR_CONTINUITY
 62
2
100
AcDbText
 10
32215.377
 20
21043.064
 30
0.0
 40
160.0
  1
c288e509P=BOTTOM C=PARTIALcov=0.2111
100
AcDbText
  0
TEXT
  5
CF
330
17
100
AcDbEntity
  8
DEBUG_REBAR_POSITION
 62
3
100
AcDbText
 10
32164.917
 20
21245.895
 30
0.0
 40
140.0
  1
BOTTOM
100
AcDbText
  0
CIRCLE
  5
D0
330
17
100
AcDbEntity
  8
DEBUG_REBAR_ATTACHMENTS
 62
2
100
AcDbCircle
 10
11217.319
 20
17665.569
 30
0.0
 40
90.0
  0
LINE
  5
D1
330
17
100
AcDbEntity
  8
DEBUG_REBAR_ATTACHMENTS
 62
2
100
AcDbLine
 10
11217.319
 20
17665.569
 30
0.0
 11
11497.129
 21
17715.562
 31
0.0
  0
TEXT
  5
D2
330
17
100
AcDbEntity
  8
DEBUG_REBAR_CONTINUITY
 62
2
100
AcDbText
 10
11217.319
 20
17885.569
 30
0.0
 40
160.0
  1
06ddadfbP=TOP C=PARTIALcov=0.0
100
AcDbText
  0
TEXT
  5
D3
330
17
100
AcDbEntity
  8
DEBUG_REBAR_POSITION
 62
3
100
AcDbText
 10
11497.129
 20
17895.562
 30
0.0
 40
140.0
  1
TOP
100
AcDbText
  0
LINE
  5
D4
330
17
100
AcDbEntity
  8
DEBUG_REBAR_GEOMETRY
 62
8
100
AcDbLine
 10
1807.974564335207
 20
17585.75244483799
 30
0.0
 11
8732.481701667319
 21
17585.75244483799
 31
0.0
  0
LINE
  5
D5
330
17
100
AcDbEntity
  8
DEBUG_REBAR_GEOMETRY
 62
8
100
AcDbLine
 10
1757.974564335207
 20
18235.75244483799
 30
0.0
 11
8783.050942840886
 21
18235.75244483799
 31
0.0
  0
LINE
  5
D6
330
17
100
AcDbEntity
  8
DEBUG_REBAR_GEOMETRY
 62
8
100
AcDbLine
 10
8797.94204209269
 20
18220.75284015648
 30
0.0
 11
8797.94204209269
 21
17735.09032482915
 31
0.0
  0
LINE
  5
D7
330
17
100
AcDbEntity
  8
DEBUG_REBAR_GEOMETRY
 62
8
100
AcDbLine
 10
8747.481701667319
 20
18086.41496016532
 30
0.0
 11
8747.481701667319
 21
17600.75244483799
 31
0.0
  0
LINE
  5
D8
330
17
100
AcDbEntity
  8
DEBUG_REBAR_GEOMETRY
 62
8
100
AcDbLine
 10
4122.739082316766
 20
17635.67527832351
 30
0.0
 11
8632.481701671046
 21
17635.67527832351
 31
0.0
  0
LINE
  5
D9
330
17
100
AcDbEntity
  8
DEBUG_REBAR_GEOMETRY
 62
8
100
AcDbLine
 10
8647.481701667319
 20
18086.41496016532
 30
0.0
 11
8647.481701663593
 21
17650.67485249304
 31
0.0
  0
CIRCLE
  5
DA
330
17
100
AcDbEntity
  8
DEBUG_REBAR_ATTACHMENTS
 62
2
100
AcDbCircle
 10
7288.1
 20
17600.752
 30
0.0
 40
90.0
  0
LINE
  5
DB
330
17
100
AcDbEntity
  8
DEBUG_REBAR_ATTACHMENTS
 62
2
100
AcDbLine
 10
7288.1
 20
17600.752
 30
0.0
 11
5270.228
 21
17585.752
 31
0.0
  0
TEXT
  5
DC
330
17
100
AcDbEntity
  8
DEBUG_REBAR_CONTINUITY
 62
2
100
AcDbText
 10
7288.1
 20
17820.752
 30
0.0
 40
160.0
  1
244a698cP=BOTTOM C=CONTINUOUScov=0.9715
100
AcDbText
  0
TEXT
  5
DD
330
17
100
AcDbEntity
  8
DEBUG_REBAR_POSITION
 62
3
100
AcDbText
 10
5270.228
 20
17765.752
 30
0.0
 40
140.0
  1
BOTTOM
100
AcDbText
  0
CIRCLE
  5
DE
330
17
100
AcDbEntity
  8
DEBUG_REBAR_ATTACHMENTS
 62
2
100
AcDbCircle
 10
6497.83
 20
17600.752
 30
0.0
 40
90.0
  0
LINE
  5
DF
330
17
100
AcDbEntity
  8
DEBUG_REBAR_ATTACHMENTS
 62
2
100
AcDbLine
 10
6497.83
 20
17600.752
 30
0.0
 11
5270.228
 21
17585.752
 31
0.0
  0
TEXT
  5
E0
330
17
100
AcDbEntity
  8
DEBUG_REBAR_CONTINUITY
 62
2
100
AcDbText
 10
6497.83
 20
17820.752
 30
0.0
 40
160.0
  1
18614ad4P=BOTTOM C=CONTINUOUScov=0.9715
100
AcDbText
  0
TEXT
  5
E1
330
17
100
AcDbEntity
  8
DEBUG_REBAR_POSITION
 62
3
100
AcDbText
 10
5270.228
 20
17765.752
 30
0.0
 40
140.0
  1
BOTTOM
100
AcDbText
  0
CIRCLE
  5
E2
330
17
100
AcDbEntity
  8
DEBUG_REBAR_ATTACHMENTS
 62
2
100
AcDbCircle
 10
6497.83
 20
17600.752
 30
0.0
 40
90.0
  0
LINE
  5
E3
330
17
100
AcDbEntity
  8
DEBUG_REBAR_ATTACHMENTS
 62
2
100
AcDbLine
 10
6497.83
 20
17600.752
 30
0.0
 11
5270.228
 21
17585.752
 31
0.0
  0
TEXT
  5
E4
330
17
100
AcDbEntity
  8
DEBUG_REBAR_CONTINUITY
 62
2
100
AcDbText
 10
6497.83
 20
17820.752
 30
0.0
 40
160.0
  1
809a8268P=BOTTOM C=CONTINUOUScov=0.9715
100
AcDbText
  0
TEXT
  5
E5
330
17
100
AcDbEntity
  8
DEBUG_REBAR_POSITION
 62
3
100
AcDbText
 10
5270.228
 20
17765.752
 30
0.0
 40
140.0
  1
BOTTOM
100
AcDbText
  0
LINE
  5
E6
330
17
100
AcDbEntity
  8
DEBUG_REBAR_GEOMETRY
 62
8
100
AcDbLine
 10
11989.11166357518
 20
10363.59627743699
 30
0.0
 11
15373.73060639099
 21
10363.59476316423
 31
0.0
  0
LINE
  5
E7
330
17
100
AcDbEntity
  8
DEBUG_REBAR_GEOMETRY
 62
8
100
AcDbLine
 10
11924.11166357518
 20
10998.59627743699
 30
0.0
 11
11924.11166357518
 21
10399.34846046455
 31
0.0
  0
LINE
  5
E8
330
17
100
AcDbEntity
  8
DEBUG_REBAR_GEOMETRY
 62
8
100
AcDbLine
 10
11974.11166357518
 20
10950.20101194717
 30
0.0
 11
11974.11166357518
 21
10378.59627743699
 31
0.0
  0
LINE
  5
E9
330
17
100
AcDbEntity
  8
DEBUG_REBAR_GEOMETRY
 62
8
100
AcDbLine
 10
11939.09005418316
 20
11013.59626187086
 30
0.0
 11
15423.73771032215
 21
11013.59667274989
 31
0.0
  0
CIRCLE
  5
EA
330
17
100
AcDbEntity
  8
DEBUG_REBAR_ATTACHMENTS
 62
2
100
AcDbCircle
 10
12074.112
 20
10313.395
 30
0.0
 40
90.0
  0
LINE
  5
EB
330
17
100
AcDbEntity
  8
DEBUG_REBAR_ATTACHMENTS
 62
2
100
AcDbLine
 10
12074.112
 20
10313.395
 30
0.0
 11
13681.421
 21
10363.596
 31
0.0
  0
TEXT
  5
EC
330
17
100
AcDbEntity
  8
DEBUG_REBAR_CONTINUITY
 62
2
100
AcDbText
 10
12074.112
 20
10533.395
 30
0.0
 40
160.0
  1
0b19903bP=TOP C=PARTIALcov=0.0
100
AcDbText
  0
TEXT
  5
ED
330
17
100
AcDbEntity
  8
DEBUG_REBAR_POSITION
 62
3
100
AcDbText
 10
13681.421
 20
10543.596
 30
0.0
 40
140.0
  1
TOP
100
AcDbText
  0
CIRCLE
  5
EE
330
17
100
AcDbEntity
  8
DEBUG_REBAR_ATTACHMENTS
 62
2
100
AcDbCircle
 10
17148.017
 20
17614.209
 30
0.0
 40
90.0
  0
LINE
  5
EF
330
17
100
AcDbEntity
  8
DEBUG_REBAR_ATTACHMENTS
 62
2
100
AcDbLine
 10
17148.017
 20
17614.209
 30
0.0
 11
17044.953
 21
17888.24
 31
0.0
  0
TEXT
  5
F0
330
17
100
AcDbEntity
  8
DEBUG_REBAR_CONTINUITY
 62
2
100
AcDbText
 10
17148.017
 20
17834.209
 30
0.0
 40
160.0
  1
041adaa3P=TOP C=PARTIALcov=0.6635
100
AcDbText
  0
TEXT
  5
F1
330
17
100
AcDbEntity
  8
DEBUG_REBAR_POSITION
 62
3
100
AcDbText
 10
17044.953
 20
18068.24
 30
0.0
 40
140.0
  1
TOP
100
AcDbText
  0
LINE
  5
F2
330
17
100
AcDbEntity
  8
DEBUG_REBAR_GEOMETRY
 62
8
100
AcDbLine
 10
11989.11166357518
 20
10363.59627743699
 30
0.0
 11
15373.73060639099
 21
10363.59476316423
 31
0.0
  0
LINE
  5
F3
330
17
100
AcDbEntity
  8
DEBUG_REBAR_GEOMETRY
 62
8
100
AcDbLine
 10
15438.73722950266
 20
10998.59667275735
 30
0.0
 11
15438.73722950266
 21
10512.93415743001
 31
0.0
  0
LINE
  5
F4
330
17
100
AcDbEntity
  8
DEBUG_REBAR_GEOMETRY
 62
8
100
AcDbLine
 10
15388.73722950638
 20
10864.25879276619
 30
0.0
 11
15388.73722950638
 21
10378.59627743885
 31
0.0
  0
LINE
  5
F5
330
17
100
AcDbEntity
  8
DEBUG_REBAR_GEOMETRY
 62
8
100
AcDbLine
 10
11939.09005418316
 20
11013.59626187086
 30
0.0
 11
15423.73771032215
 21
11013.59667274989
 31
0.0
  0
CIRCLE
  5
F6
330
17
100
AcDbEntity
  8
DEBUG_REBAR_ATTACHMENTS
 62
2
100
AcDbCircle
 10
15489.033
 20
11063.697
 30
0.0
 40
90.0
  0
LINE
  5
F7
330
17
100
AcDbEntity
  8
DEBUG_REBAR_ATTACHMENTS
 62
2
100
AcDbLine
 10
15489.033
 20
11063.697
 30
0.0
 11
15438.737
 21
10755.765
 31
0.0
  0
TEXT
  5
F8
330
17
100
AcDbEntity
  8
DEBUG_REBAR_CONTINUITY
 62
2
100
AcDbText
 10
15489.033
 20
11283.697
 30
0.0
 40
160.0
  1
7e755263P=TOP C=PARTIALcov=0.6473
100
AcDbText
  0
TEXT
  5
F9
330
17
100
AcDbEntity
  8
DEBUG_REBAR_POSITION
 62
3
100
AcDbText
 10
15438.737
 20
10935.765
 30
0.0
 40
140.0
  1
TOP
100
AcDbText
  0
LINE
  5
FA
330
17
100
AcDbEntity
  8
DEBUG_REBAR_GEOMETRY
 62
8
100
AcDbLine
 10
17019.95252007515
 20
17664.20197230093
 30
0.0
 11
14936.82107574389
 21
17664.20197230093
 31
0.0
  0
LINE
  5
FB
330
17
100
AcDbEntity
  8
DEBUG_REBAR_GEOMETRY
 62
8
100
AcDbLine
 10
14919.05556763978
 20
18114.66268820204
 30
0.0
 11
16911.68190529466
 21
18113.74602532089
 31
0.0
  0
LINE
  5
FC
330
17
100
AcDbEntity
  8
DEBUG_REBAR_GEOMETRY
 62
8
100
AcDbLine
 10
17000.2707739015
 20
18098.74642085731
 30
0.0
 11
17000.27077389778
 21
17687.04905238263
 31
0.0
  0
LINE
  5
FD
330
17
100
AcDbEntity
  8
DEBUG_REBAR_GEOMETRY
 62
8
100
AcDbLine
 10
17070.3796747689
 20
18164.20884610415
 30
0.0
 11
14936.82107574762
 21
18164.66513733268
 31
0.0
  0
LINE
  5
FE
330
17
100
AcDbEntity
  8
DEBUG_REBAR_GEOMETRY
 62
8
100
AcDbLine
 10
17044.95252007515
 20
18087.27883821801
 30
0.0
 11
17044.95252007515
 21
17689.20197230093
 31
0.0
  0
CIRCLE
  5
FF
330
17
100
AcDbEntity
  8
DEBUG_REBAR_ATTACHMENTS
 62
2
100
AcDbCircle
 10
16900.207
 20
17614.209
 30
0.0
 40
90.0
  0
LINE
  5
100
330
17
100
AcDbEntity
  8
DEBUG_REBAR_ATTACHMENTS
 62
2
100
AcDbLine
 10
16900.207
 20
17614.209
 30
0.0
 11
15978.387
 21
17664.202
 31
0.0
  0
TEXT
  5
101
330
17
100
AcDbEntity
  8
DEBUG_REBAR_CONTINUITY
 62
2
100
AcDbText
 10
16900.207
 20
17834.209
 30
0.0
 40
160.0
  1
e9e78371P=BOTTOM C=CONTINUOUScov=1.0
100
AcDbText
  0
TEXT
  5
102
330
17
100
AcDbEntity
  8
DEBUG_REBAR_POSITION
 62
3
100
AcDbText
 10
15978.387
 20
17844.202
 30
0.0
 40
140.0
  1
BOTTOM
100
AcDbText
  0
CIRCLE
  5
103
330
17
100
AcDbEntity
  8
DEBUG_REBAR_ATTACHMENTS
 62
2
100
AcDbCircle
 10
15288.212
 20
11063.697
 30
0.0
 40
90.0
  0
LINE
  5
104
330
17
100
AcDbEntity
  8
DEBUG_REBAR_ATTACHMENTS
 62
2
100
AcDbLine
 10
15288.212
 20
11063.697
 30
0.0
 11
13681.414
 21
11013.596
 31
0.0
  0
TEXT
  5
105
330
17
100
AcDbEntity
  8
DEBUG_REBAR_CONTINUITY
 62
2
100
AcDbText
 10
15288.212
 20
11283.697
 30
0.0
 40
160.0
  1
293fff78P=BOTTOM C=PARTIALcov=0.0
100
AcDbText
  0
TEXT
  5
106
330
17
100
AcDbEntity
  8
DEBUG_REBAR_POSITION
 62
3
100
AcDbText
 10
13681.414
 20
11193.596
 30
0.0
 40
140.0
  1
BOTTOM
100
AcDbText
  0
CIRCLE
  5
107
330
17
100
AcDbEntity
  8
DEBUG_REBAR_ATTACHMENTS
 62
2
100
AcDbCircle
 10
15288.212
 20
11063.697
 30
0.0
 40
90.0
  0
LINE
  5
108
330
17
100
AcDbEntity
  8
DEBUG_REBAR_ATTACHMENTS
 62
2
100
AcDbLine
 10
15288.212
 20
11063.697
 30
0.0
 11
13681.414
 21
11013.596
 31
0.0
  0
TEXT
  5
109
330
17
100
AcDbEntity
  8
DEBUG_REBAR_CONTINUITY
 62
2
100
AcDbText
 10
15288.212
 20
11283.697
 30
0.0
 40
160.0
  1
136eb596P=BOTTOM C=PARTIALcov=0.0
100
AcDbText
  0
TEXT
  5
10A
330
17
100
AcDbEntity
  8
DEBUG_REBAR_POSITION
 62
3
100
AcDbText
 10
13681.414
 20
11193.596
 30
0.0
 40
140.0
  1
BOTTOM
100
AcDbText
  0
LINE
  5
10B
330
17
100
AcDbEntity
  8
DEBUG_REBAR_GEOMETRY
 62
8
100
AcDbLine
 10
11989.11166357518
 20
10363.59627743699
 30
0.0
 11
15373.73060639099
 21
10363.59476316423
 31
0.0
  0
LINE
  5
10C
330
17
100
AcDbEntity
  8
DEBUG_REBAR_GEOMETRY
 62
8
100
AcDbLine
 10
15438.73722950266
 20
10998.59667275735
 30
0.0
 11
15438.73722950266
 21
10512.93415743001
 31
0.0
  0
LINE
  5
10D
330
17
100
AcDbEntity
  8
DEBUG_REBAR_GEOMETRY
 62
8
100
AcDbLine
 10
15388.73722950638
 20
10864.25879276619
 30
0.0
 11
15388.73722950638
 21
10378.59627743885
 31
0.0
  0
LINE
  5
10E
330
17
100
AcDbEntity
  8
DEBUG_REBAR_GEOMETRY
 62
8
100
AcDbLine
 10
11939.09005418316
 20
11013.59626187086
 30
0.0
 11
15423.73771032215
 21
11013.59667274989
 31
0.0
  0
CIRCLE
  5
10F
330
17
100
AcDbEntity
  8
DEBUG_REBAR_ATTACHMENTS
 62
2
100
AcDbCircle
 10
15288.212
 20
11063.697
 30
0.0
 40
90.0
  0
LINE
  5
110
330
17
100
AcDbEntity
  8
DEBUG_REBAR_ATTACHMENTS
 62
2
100
AcDbLine
 10
15288.212
 20
11063.697
 30
0.0
 11
13681.414
 21
11013.596
 31
0.0
  0
TEXT
  5
111
330
17
100
AcDbEntity
  8
DEBUG_REBAR_CONTINUITY
 62
2
100
AcDbText
 10
15288.212
 20
11283.697
 30
0.0
 40
160.0
  1
b61a4e86P=BOTTOM C=PARTIALcov=0.0
100
AcDbText
  0
TEXT
  5
112
330
17
100
AcDbEntity
  8
DEBUG_REBAR_POSITION
 62
3
100
AcDbText
 10
13681.414
 20
11193.596
 30
0.0
 40
140.0
  1
BOTTOM
100
AcDbText
  0
CIRCLE
  5
113
330
17
100
AcDbEntity
  8
DEBUG_REBAR_ATTACHMENTS
 62
2
100
AcDbCircle
 10
15288.212
 20
10313.395
 30
0.0
 40
90.0
  0
LINE
  5
114
330
17
100
AcDbEntity
  8
DEBUG_REBAR_ATTACHMENTS
 62
2
100
AcDbLine
 10
15288.212
 20
10313.395
 30
0.0
 11
13681.421
 21
10363.596
 31
0.0
  0
TEXT
  5
115
330
17
100
AcDbEntity
  8
DEBUG_REBAR_CONTINUITY
 62
2
100
AcDbText
 10
15288.212
 20
10533.395
 30
0.0
 40
160.0
  1
d84facb2P=BOTTOM C=PARTIALcov=0.0
100
AcDbText
  0
TEXT
  5
116
330
17
100
AcDbEntity
  8
DEBUG_REBAR_POSITION
 62
3
100
AcDbText
 10
13681.421
 20
10543.596
 30
0.0
 40
140.0
  1
BOTTOM
100
AcDbText
  0
CIRCLE
  5
117
330
17
100
AcDbEntity
  8
DEBUG_REBAR_ATTACHMENTS
 62
2
100
AcDbCircle
 10
21263.755
 20
20907.154
 30
0.0
 40
90.0
  0
LINE
  5
118
330
17
100
AcDbEntity
  8
DEBUG_REBAR_ATTACHMENTS
 62
2
100
AcDbLine
 10
21263.755
 20
20907.154
 30
0.0
 11
21314.576
 21
21292.731
 31
0.0
  0
TEXT
  5
119
330
17
100
AcDbEntity
  8
DEBUG_REBAR_CONTINUITY
 62
2
100
AcDbText
 10
21263.755
 20
21127.154
 30
0.0
 40
160.0
  1
1e36cee4P=TOP C=PARTIALcov=0.6042
100
AcDbText
  0
TEXT
  5
11A
330
17
100
AcDbEntity
  8
DEBUG_REBAR_POSITION
 62
3
100
AcDbText
 10
21314.576
 20
21472.731
 30
0.0
 40
140.0
  1
TOP
100
AcDbText
  0
LINE
  5
11B
330
17
100
AcDbEntity
  8
DEBUG_REBAR_GEOMETRY
 62
8
100
AcDbLine
 10
21379.5760557604
 20
20957.35488833935
 30
0.0
 11
23841.29256676779
 21
20957.35337406658
 31
0.0
  0
LINE
  5
11C
330
17
100
AcDbEntity
  8
DEBUG_REBAR_GEOMETRY
 62
8
100
AcDbLine
 10
21314.57605576039
 20
21592.35488833934
 30
0.0
 11
21314.57605576039
 21
20993.10707136691
 31
0.0
  0
LINE
  5
11D
330
17
100
AcDbEntity
  8
DEBUG_REBAR_GEOMETRY
 62
8
100
AcDbLine
 10
21364.5760557604
 20
21543.95962284953
 30
0.0
 11
21364.5760557604
 21
20972.35488833935
 31
0.0
  0
LINE
  5
11E
330
17
100
AcDbEntity
  8
DEBUG_REBAR_GEOMETRY
 62
8
100
AcDbLine
 10
21329.55444636838
 20
21607.35487277322
 30
0.0
 11
23891.29967069895
 21
21607.35528365225
 31
0.0
  0
CIRCLE
  5
11F
330
17
100
AcDbEntity
  8
DEBUG_REBAR_ATTACHMENTS
 62
2
100
AcDbCircle
 10
21263.755
 20
20907.154
 30
0.0
 40
90.0
  0
LINE
  5
120
330
17
100
AcDbEntity
  8
DEBUG_REBAR_ATTACHMENTS
 62
2
100
AcDbLine
 10
21263.755
 20
20907.154
 30
0.0
 11
21314.576
 21
21292.731
 31
0.0
  0
TEXT
  5
121
330
17
100
AcDbEntity
  8
DEBUG_REBAR_CONTINUITY
 62
2
100
AcDbText
 10
21263.755
 20
21127.154
 30
0.0
 40
160.0
  1
d6b6c530P=TOP C=PARTIALcov=0.6042
100
AcDbText
  0
TEXT
  5
122
330
17
100
AcDbEntity
  8
DEBUG_REBAR_POSITION
 62
3
100
AcDbText
 10
21314.576
 20
21472.731
 30
0.0
 40
140.0
  1
TOP
100
AcDbText
  0
CIRCLE
  5
123
330
17
100
AcDbEntity
  8
DEBUG_REBAR_ATTACHMENTS
 62
2
100
AcDbCircle
 10
25309.722
 20
21510.879
 30
0.0
 40
90.0
  0
LINE
  5
124
330
17
100
AcDbEntity
  8
DEBUG_REBAR_ATTACHMENTS
 62
2
100
AcDbLine
 10
25309.722
 20
21510.879
 30
0.0
 11
28687.948
 21
21458.064
 31
0.0
  0
TEXT
  5
125
330
17
100
AcDbEntity
  8
DEBUG_REBAR_CONTINUITY
 62
2
100
AcDbText
 10
25309.722
 20
21730.879
 30
0.0
 40
160.0
  1
8948ff95P=TOP C=CONTINUOUScov=1.0
100
AcDbText
  0
TEXT
  5
126
330
17
100
AcDbEntity
  8
DEBUG_REBAR_POSITION
 62
3
100
AcDbText
 10
28687.948
 20
21638.064
 30
0.0
 40
140.0
  1
TOP
100
AcDbText
  0
CIRCLE
  5
127
330
17
100
AcDbEntity
  8
DEBUG_REBAR_ATTACHMENTS
 62
2
100
AcDbCircle
 10
25309.722
 20
20760.577
 30
0.0
 40
90.0
  0
LINE
  5
128
330
17
100
AcDbEntity
  8
DEBUG_REBAR_ATTACHMENTS
 62
2
100
AcDbLine
 10
25309.722
 20
20760.577
 30
0.0
 11
28687.663
 21
20808.064
 31
0.0
  0
TEXT
  5
129
330
17
100
AcDbEntity
  8
DEBUG_REBAR_CONTINUITY
 62
2
100
AcDbText
 10
25309.722
 20
20980.577
 30
0.0
 40
160.0
  1
8eb3a839P=TOP C=CONTINUOUScov=1.0
100
AcDbText
  0
TEXT
  5
12A
330
17
100
AcDbEntity
  8
DEBUG_REBAR_POSITION
 62
3
100
AcDbText
 10
28687.663
 20
20988.064
 30
0.0
 40
140.0
  1
TOP
100
AcDbText
  0
CIRCLE
  5
12B
330
17
100
AcDbEntity
  8
DEBUG_REBAR_ATTACHMENTS
 62
2
100
AcDbCircle
 10
25309.722
 20
20760.577
 30
0.0
 40
90.0
  0
LINE
  5
12C
330
17
100
AcDbEntity
  8
DEBUG_REBAR_ATTACHMENTS
 62
2
100
AcDbLine
 10
25309.722
 20
20760.577
 30
0.0
 11
28687.663
 21
20808.064
 31
0.0
  0
TEXT
  5
12D
330
17
100
AcDbEntity
  8
DEBUG_REBAR_CONTINUITY
 62
2
100
AcDbText
 10
25309.722
 20
20980.577
 30
0.0
 40
160.0
  1
d8c49c95P=TOP C=CONTINUOUScov=1.0
100
AcDbText
  0
TEXT
  5
12E
330
17
100
AcDbEntity
  8
DEBUG_REBAR_POSITION
 62
3
100
AcDbText
 10
28687.663
 20
20988.064
 30
0.0
 40
140.0
  1
TOP
100
AcDbText
  0
CIRCLE
  5
12F
330
17
100
AcDbEntity
  8
DEBUG_REBAR_ATTACHMENTS
 62
2
100
AcDbCircle
 10
25309.722
 20
20760.577
 30
0.0
 40
90.0
  0
LINE
  5
130
330
17
100
AcDbEntity
  8
DEBUG_REBAR_ATTACHMENTS
 62
2
100
AcDbLine
 10
25309.722
 20
20760.577
 30
0.0
 11
28687.663
 21
20808.064
 31
0.0
  0
TEXT
  5
131
330
17
100
AcDbEntity
  8
DEBUG_REBAR_CONTINUITY
 62
2
100
AcDbText
 10
25309.722
 20
20980.577
 30
0.0
 40
160.0
  1
3251659cP=TOP C=CONTINUOUScov=1.0
100
AcDbText
  0
TEXT
  5
132
330
17
100
AcDbEntity
  8
DEBUG_REBAR_POSITION
 62
3
100
AcDbText
 10
28687.663
 20
20988.064
 30
0.0
 40
140.0
  1
TOP
100
AcDbText
  0
CIRCLE
  5
133
330
17
100
AcDbEntity
  8
DEBUG_REBAR_ATTACHMENTS
 62
2
100
AcDbCircle
 10
25309.722
 20
20760.577
 30
0.0
 40
90.0
  0
LINE
  5
134
330
17
100
AcDbEntity
  8
DEBUG_REBAR_ATTACHMENTS
 62
2
100
AcDbLine
 10
25309.722
 20
20760.577
 30
0.0
 11
28687.663
 21
20808.064
 31
0.0
  0
TEXT
  5
135
330
17
100
AcDbEntity
  8
DEBUG_REBAR_CONTINUITY
 62
2
100
AcDbText
 10
25309.722
 20
20980.577
 30
0.0
 40
160.0
  1
d99ad272P=TOP C=CONTINUOUScov=1.0
100
AcDbText
  0
TEXT
  5
136
330
17
100
AcDbEntity
  8
DEBUG_REBAR_POSITION
 62
3
100
AcDbText
 10
28687.663
 20
20988.064
 30
0.0
 40
140.0
  1
TOP
100
AcDbText
  0
LINE
  5
137
330
17
100
AcDbEntity
  8
DEBUG_REBAR_GEOMETRY
 62
8
100
AcDbLine
 10
25225.40974180297
 20
20808.06362478324
 30
0.0
 11
32149.91687913508
 21
20808.06362478324
 31
0.0
  0
LINE
  5
138
330
17
100
AcDbEntity
  8
DEBUG_REBAR_GEOMETRY
 62
8
100
AcDbLine
 10
25175.40974180297
 20
21458.06362478324
 30
0.0
 11
32200.48612030865
 21
21458.06362478324
 31
0.0
  0
LINE
  5
139
330
17
100
AcDbEntity
  8
DEBUG_REBAR_GEOMETRY
 62
8
100
AcDbLine
 10
32215.37721956047
 20
21443.06402010173
 30
0.0
 11
32215.37721956047
 21
20957.4015047744
 31
0.0
  0
LINE
  5
13A
330
17
100
AcDbEntity
  8
DEBUG_REBAR_GEOMETRY
 62
8
100
AcDbLine
 10
32164.91687913508
 20
21308.72614011057
 30
0.0
 11
32164.91687913508
 21
20823.06362478324
 31
0.0
  0
LINE
  5
13B
330
17
100
AcDbEntity
  8
DEBUG_REBAR_GEOMETRY
 62
8
100
AcDbLine
 10
27540.17425978453
 20
20857.98645826877
 30
0.0
 11
32049.91687913882
 21
20857.98645826877
 31
0.0
  0
LINE
  5
13C
330
17
100
AcDbEntity
  8
DEBUG_REBAR_GEOMETRY
 62
8
100
AcDbLine
 10
32064.91687913509
 20
21308.72614011057
 30
0.0
 11
32064.91687913136
 21
20872.98603243828
 31
0.0
  0
CIRCLE
  5
13D
330
17
100
AcDbEntity
  8
DEBUG_REBAR_ATTACHMENTS
 62
2
100
AcDbCircle
 10
30550.2
 20
20823.064
 30
0.0
 40
90.0
  0
LINE
  5
13E
330
17
100
AcDbEntity
  8
DEBUG_REBAR_ATTACHMENTS
 62
2
100
AcDbLine
 10
30550.2
 20
20823.064
 30
0.0
 11
28687.663
 21
20808.064
 31
0.0
  0
TEXT
  5
13F
330
17
100
AcDbEntity
  8
DEBUG_REBAR_CONTINUITY
 62
2
100
AcDbText
 10
30550.2
 20
21043.064
 30
0.0
 40
160.0
  1
d6e343a2P=BOTTOM C=CONTINUOUScov=0.9715
100
AcDbText
  0
TEXT
  5
140
330
17
100
AcDbEntity
  8
DEBUG_REBAR_POSITION
 62
3
100
AcDbText
 10
28687.663
 20
20988.064
 30
0.0
 40
140.0
  1
BOTTOM
100
AcDbText
  0
CIRCLE
  5
141
330
17
100
AcDbEntity
  8
DEBUG_REBAR_ATTACHMENTS
 62
2
100
AcDbCircle
 10
30561.0
 20
20823.064
 30
0.0
 40
90.0
  0
LINE
  5
142
330
17
100
AcDbEntity
  8
DEBUG_REBAR_ATTACHMENTS
 62
2
100
AcDbLine
 10
30561.0
 20
20823.064
 30
0.0
 11
28687.663
 21
20808.064
 31
0.0
  0
TEXT
  5
143
330
17
100
AcDbEntity
  8
DEBUG_REBAR_CONTINUITY
 62
2
100
AcDbText
 10
30561.0
 20
21043.064
 30
0.0
 40
160.0
  1
7a7d1e67P=BOTTOM C=CONTINUOUScov=0.9715
100
AcDbText
  0
TEXT
  5
144
330
17
100
AcDbEntity
  8
DEBUG_REBAR_POSITION
 62
3
100
AcDbText
 10
28687.663
 20
20988.064
 30
0.0
 40
140.0
  1
BOTTOM
100
AcDbText
  0
CIRCLE
  5
145
330
17
100
AcDbEntity
  8
DEBUG_REBAR_ATTACHMENTS
 62
2
100
AcDbCircle
 10
6497.83
 20
17600.752
 30
0.0
 40
90.0
  0
LINE
  5
146
330
17
100
AcDbEntity
  8
DEBUG_REBAR_ATTACHMENTS
 62
2
100
AcDbLine
 10
6497.83
 20
17600.752
 30
0.0
 11
5270.228
 21
17585.752
 31
0.0
  0
TEXT
  5
147
330
17
100
AcDbEntity
  8
DEBUG_REBAR_CONTINUITY
 62
2
100
AcDbText
 10
6497.83
 20
17820.752
 30
0.0
 40
160.0
  1
1b386e69P=BOTTOM C=CONTINUOUScov=0.9715
100
AcDbText
  0
TEXT
  5
148
330
17
100
AcDbEntity
  8
DEBUG_REBAR_POSITION
 62
3
100
AcDbText
 10
5270.228
 20
17765.752
 30
0.0
 40
140.0
  1
BOTTOM
100
AcDbText
  0
LINE
  5
149
330
17
100
AcDbEntity
  8
DEBUG_REBAR_GEOMETRY
 62
8
100
AcDbLine
 10
1807.974564335207
 20
17585.75244483799
 30
0.0
 11
8732.481701667319
 21
17585.75244483799
 31
0.0
  0
LINE
  5
14A
330
17
100
AcDbEntity
  8
DEBUG_REBAR_GEOMETRY
 62
8
100
AcDbLine
 10
1757.974564335207
 20
18235.75244483799
 30
0.0
 11
8783.050942840886
 21
18235.75244483799
 31
0.0
  0
LINE
  5
14B
330
17
100
AcDbEntity
  8
DEBUG_REBAR_GEOMETRY
 62
8
100
AcDbLine
 10
1742.974564335207
 20
18220.75244483799
 30
0.0
 11
1742.974564335207
 21
17633.05010404885
 31
0.0
  0
LINE
  5
14C
330
17
100
AcDbEntity
  8
DEBUG_REBAR_GEOMETRY
 62
8
100
AcDbLine
 10
1792.974564335207
 20
18180.33592037559
 30
0.0
 11
1792.974564335207
 21
17600.75244483799
 31
0.0
  0
CIRCLE
  5
14D
330
17
100
AcDbEntity
  8
DEBUG_REBAR_ATTACHMENTS
 62
2
100
AcDbCircle
 10
1892.287
 20
17538.266
 30
0.0
 40
90.0
  0
LINE
  5
14E
330
17
100
AcDbEntity
  8
DEBUG_REBAR_ATTACHMENTS
 62
2
100
AcDbLine
 10
1892.287
 20
17538.266
 30
0.0
 11
5270.228
 21
17585.752
 31
0.0
  0
TEXT
  5
14F
330
17
100
AcDbEntity
  8
DEBUG_REBAR_CONTINUITY
 62
2
100
AcDbText
 10
1892.287
 20
17758.266
 30
0.0
 40
160.0
  1
53e58e39P=TOP C=CONTINUOUScov=1.0
100
AcDbText
  0
TEXT
  5
150
330
17
100
AcDbEntity
  8
DEBUG_REBAR_POSITION
 62
3
100
AcDbText
 10
5270.228
 20
17765.752
 30
0.0
 40
140.0
  1
TOP
100
AcDbText
  0
CIRCLE
  5
151
330
17
100
AcDbEntity
  8
DEBUG_REBAR_ATTACHMENTS
 62
2
100
AcDbCircle
 10
11217.319
 20
17665.569
 30
0.0
 40
90.0
  0
LINE
  5
152
330
17
100
AcDbEntity
  8
DEBUG_REBAR_ATTACHMENTS
 62
2
100
AcDbLine
 10
11217.319
 20
17665.569
 30
0.0
 11
11497.129
 21
17715.562
 31
0.0
  0
TEXT
  5
153
330
17
100
AcDbEntity
  8
DEBUG_REBAR_CONTINUITY
 62
2
100
AcDbText
 10
11217.319
 20
17885.569
 30
0.0
 40
160.0
  1
03cbad17P=TOP C=PARTIALcov=0.0
100
AcDbText
  0
TEXT
  5
154
330
17
100
AcDbEntity
  8
DEBUG_REBAR_POSITION
 62
3
100
AcDbText
 10
11497.129
 20
17895.562
 30
0.0
 40
140.0
  1
TOP
100
AcDbText
  0
LINE
  5
155
330
17
100
AcDbEntity
  8
DEBUG_REBAR_GEOMETRY
 62
8
100
AcDbLine
 10
13782.32399766789
 20
17715.56241061613
 30
0.0
 11
9211.934053446064
 21
17715.56241061241
 31
0.0
  0
LINE
  5
156
330
17
100
AcDbEntity
  8
DEBUG_REBAR_GEOMETRY
 62
8
100
AcDbLine
 10
13832.75115236164
 20
18215.56928441935
 30
0.0
 11
9162.236136927168
 21
18215.56928441935
 31
0.0
  0
CIRCLE
  5
157
330
17
100
AcDbEntity
  8
DEBUG_REBAR_ATTACHMENTS
 62
2
100
AcDbCircle
 10
11217.319
 20
17665.569
 30
0.0
 40
90.0
  0
LINE
  5
158
330
17
100
AcDbEntity
  8
DEBUG_REBAR_ATTACHMENTS
 62
2
100
AcDbLine
 10
11217.319
 20
17665.569
 30
0.0
 11
11497.129
 21
17715.562
 31
0.0
  0
TEXT
  5
159
330
17
100
AcDbEntity
  8
DEBUG_REBAR_CONTINUITY
 62
2
100
AcDbText
 10
11217.319
 20
17885.569
 30
0.0
 40
160.0
  1
ff82d053P=TOP C=PARTIALcov=0.0
100
AcDbText
  0
TEXT
  5
15A
330
17
100
AcDbEntity
  8
DEBUG_REBAR_POSITION
 62
3
100
AcDbText
 10
11497.129
 20
17895.562
 30
0.0
 40
140.0
  1
TOP
100
AcDbText
  0
LINE
  5
15B
330
17
100
AcDbEntity
  8
DEBUG_REBAR_GEOMETRY
 62
8
100
AcDbLine
 10
1807.974564335207
 20
17585.75244483799
 30
0.0
 11
8732.481701667319
 21
17585.75244483799
 31
0.0
  0
LINE
  5
15C
330
17
100
AcDbEntity
  8
DEBUG_REBAR_GEOMETRY
 62
8
100
AcDbLine
 10
1757.974564335207
 20
18235.75244483799
 30
0.0
 11
8783.050942840886
 21
18235.75244483799
 31
0.0
  0
LINE
  5
15D
330
17
100
AcDbEntity
  8
DEBUG_REBAR_GEOMETRY
 62
8
100
AcDbLine
 10
8797.94204209269
 20
18220.75284015648
 30
0.0
 11
8797.94204209269
 21
17735.09032482915
 31
0.0
  0
LINE
  5
15E
330
17
100
AcDbEntity
  8
DEBUG_REBAR_GEOMETRY
 62
8
100
AcDbLine
 10
8747.481701667319
 20
18086.41496016532
 30
0.0
 11
8747.481701667319
 21
17600.75244483799
 31
0.0
  0
LINE
  5
15F
330
17
100
AcDbEntity
  8
DEBUG_REBAR_GEOMETRY
 62
8
100
AcDbLine
 10
4122.739082316766
 20
17635.67527832351
 30
0.0
 11
8632.481701671046
 21
17635.67527832351
 31
0.0
  0
LINE
  5
160
330
17
100
AcDbEntity
  8
DEBUG_REBAR_GEOMETRY
 62
8
100
AcDbLine
 10
8647.481701667319
 20
18086.41496016532
 30
0.0
 11
8647.481701663593
 21
17650.67485249304
 31
0.0
  0
CIRCLE
  5
161
330
17
100
AcDbEntity
  8
DEBUG_REBAR_ATTACHMENTS
 62
2
100
AcDbCircle
 10
8797.942
 20
17600.752
 30
0.0
 40
90.0
  0
LINE
  5
162
330
17
100
AcDbEntity
  8
DEBUG_REBAR_ATTACHMENTS
 62
2
100
AcDbLine
 10
8797.942
 20
17600.752
 30
0.0
 11
8747.482
 21
17843.584
 31
0.0
  0
TEXT
  5
163
330
17
100
AcDbEntity
  8
DEBUG_REBAR_CONTINUITY
 62
2
100
AcDbText
 10
8797.942
 20
17820.752
 30
0.0
 40
160.0
  1
3ef0f778P=BOTTOM C=PARTIALcov=0.2111
100
AcDbText
  0
TEXT
  5
164
330
17
100
AcDbEntity
  8
DEBUG_REBAR_POSITION
 62
3
100
AcDbText
 10
8747.482
 20
18023.584
 30
0.0
 40
140.0
  1
BOTTOM
100
AcDbText
  0
CIRCLE
  5
165
330
17
100
AcDbEntity
  8
DEBUG_REBAR_ATTACHMENTS
 62
2
100
AcDbCircle
 10
8797.942
 20
17600.752
 30
0.0
 40
90.0
  0
LINE
  5
166
330
17
100
AcDbEntity
  8
DEBUG_REBAR_ATTACHMENTS
 62
2
100
AcDbLine
 10
8797.942
 20
17600.752
 30
0.0
 11
8747.482
 21
17843.584
 31
0.0
  0
TEXT
  5
167
330
17
100
AcDbEntity
  8
DEBUG_REBAR_CONTINUITY
 62
2
100
AcDbText
 10
8797.942
 20
17820.752
 30
0.0
 40
160.0
  1
b2eb8502P=BOTTOM C=PARTIALcov=0.2111
100
AcDbText
  0
TEXT
  5
168
330
17
100
AcDbEntity
  8
DEBUG_REBAR_POSITION
 62
3
100
AcDbText
 10
8747.482
 20
18023.584
 30
0.0
 40
140.0
  1
BOTTOM
100
AcDbText
  0
ENDSEC
  0
SECTION
  2
OBJECTS
  0
DICTIONARY
  5
A
330
0
100
AcDbDictionary
281
1
  3
ACAD_COLOR
350
B
  3
ACAD_GROUP
350
C
  3
ACAD_LAYOUT
350
D
  3
ACAD_MATERIAL
350
E
  3
ACAD_MLEADERSTYLE
350
F
  3
ACAD_MLINESTYLE
350
10
  3
ACAD_PLOTSETTINGS
350
11
  3
ACAD_PLOTSTYLENAME
350
12
  3
ACAD_SCALELIST
350
14
  3
ACAD_TABLESTYLE
350
15
  3
ACAD_VISUALSTYLE
350
16
  3
EZDXF_META
350
2D
  0
DICTIONARY
  5
B
330
A
100
AcDbDictionary
281
1
  0
DICTIONARY
  5
C
330
A
100
AcDbDictionary
281
1
  0
DICTIONARY
  5
D
330
A
100
AcDbDictionary
281
1
  3
Model
350
1A
  3
Layout1
350
1E
  0
DICTIONARY
  5
E
330
A
100
AcDbDictionary
281
1
  3
ByBlock
350
1F
  3
ByLayer
350
20
  3
Global
350
21
  0
DICTIONARY
  5
F
330
A
100
AcDbDictionary
281
1
  3
Standard
350
2C
  0
DICTIONARY
  5
10
330
A
100
AcDbDictionary
281
1
  3
Standard
350
22
  0
DICTIONARY
  5
11
330
A
100
AcDbDictionary
281
1
  0
ACDBDICTIONARYWDFLT
  5
12
330
A
100
AcDbDictionary
281
1
  3
Normal
350
13
100
AcDbDictionaryWithDefault
340
13
  0
ACDBPLACEHOLDER
  5
13
330
12
  0
DICTIONARY
  5
14
330
A
100
AcDbDictionary
281
1
  0
DICTIONARY
  5
15
330
A
100
AcDbDictionary
281
1
  0
DICTIONARY
  5
16
330
A
100
AcDbDictionary
281
1
  0
LAYOUT
  5
1A
330
D
100
AcDbPlotSettings
  1

  4
A3
  6

 40
7.5
 41
20.0
 42
7.5
 43
20.0
 44
420.0
 45
297.0
 46
0.0
 47
0.0
 48
0.0
 49
0.0
140
0.0
141
0.0
142
1.0
143
1.0
 70
1024
 72
1
 73
0
 74
5
  7

 75
16
 76
0
 77
2
 78
300
147
1.0
148
0.0
149
0.0
100
AcDbLayout
  1
Model
 70
1
 71
0
 10
0.0
 20
0.0
 11
420.0
 21
297.0
 12
0.0
 22
0.0
 32
0.0
 14
1e+20
 24
1e+20
 34
1e+20
 15
-1e+20
 25
-1e+20
 35
-1e+20
146
0.0
 13
0.0
 23
0.0
 33
0.0
 16
1.0
 26
0.0
 36
0.0
 17
0.0
 27
1.0
 37
0.0
 76
1
330
17
  0
LAYOUT
  5
1E
330
D
100
AcDbPlotSettings
  1

  4
A3
  6

 40
7.5
 41
20.0
 42
7.5
 43
20.0
 44
420.0
 45
297.0
 46
0.0
 47
0.0
 48
0.0
 49
0.0
140
0.0
141
0.0
142
1.0
143
1.0
 70
0
 72
1
 73
0
 74
5
  7

 75
16
 76
0
 77
2
 78
300
147
1.0
148
0.0
149
0.0
100
AcDbLayout
  1
Layout1
 70
1
 71
1
 10
0.0
 20
0.0
 11
420.0
 21
297.0
 12
0.0
 22
0.0
 32
0.0
 14
1e+20
 24
1e+20
 34
1e+20
 15
-1e+20
 25
-1e+20
 35
-1e+20
146
0.0
 13
0.0
 23
0.0
 33
0.0
 16
1.0
 26
0.0
 36
0.0
 17
0.0
 27
1.0
 37
0.0
 76
1
330
1B
  0
MATERIAL
  5
1F
102
{ACAD_REACTORS
330
E
102
}
330
E
100
AcDbMaterial
  1
ByBlock
  2

 70
0
 40
1.0
 71
1
 41
1.0
 91
-1023410177
 42
1.0
 72
1
  3

 73
1
 74
1
 75
1
 44
0.5
 73
0
 45
1.0
 46
1.0
 77
1
  4

 78
1
 79
1
170
1
 48
1.0
171
1
  6

172
1
173
1
174
1
140
1.0
141
1.0
175
1
  7

176
1
177
1
178
1
143
1.0
179
1
  8

270
1
271
1
272
1
145
1.0
146
1.0
273
1
  9

274
1
275
1
276
1
 42
1.0
 72
1
  3

 73
1
 74
1
 75
1
 94
63
  0
MATERIAL
  5
20
102
{ACAD_REACTORS
330
E
102
}
330
E
100
AcDbMaterial
  1
ByLayer
  2

 70
0
 40
1.0
 71
1
 41
1.0
 91
-1023410177
 42
1.0
 72
1
  3

 73
1
 74
1
 75
1
 44
0.5
 73
0
 45
1.0
 46
1.0
 77
1
  4

 78
1
 79
1
170
1
 48
1.0
171
1
  6

172
1
173
1
174
1
140
1.0
141
1.0
175
1
  7

176
1
177
1
178
1
143
1.0
179
1
  8

270
1
271
1
272
1
145
1.0
146
1.0
273
1
  9

274
1
275
1
276
1
 42
1.0
 72
1
  3

 73
1
 74
1
 75
1
 94
63
  0
MATERIAL
  5
21
102
{ACAD_REACTORS
330
E
102
}
330
E
100
AcDbMaterial
  1
Global
  2

 70
0
 40
1.0
 71
1
 41
1.0
 91
-1023410177
 42
1.0
 72
1
  3

 73
1
 74
1
 75
1
 44
0.5
 73
0
 45
1.0
 46
1.0
 77
1
  4

 78
1
 79
1
170
1
 48
1.0
171
1
  6

172
1
173
1
174
1
140
1.0
141
1.0
175
1
  7

176
1
177
1
178
1
143
1.0
179
1
  8

270
1
271
1
272
1
145
1.0
146
1.0
273
1
  9

274
1
275
1
276
1
 42
1.0
 72
1
  3

 73
1
 74
1
 75
1
 94
63
  0
MLINESTYLE
  5
22
102
{ACAD_REACTORS
330
10
102
}
330
10
100
AcDbMlineStyle
  2
Standard
 70
0
  3

 62
256
 51
90.0
 52
90.0
 71
2
 49
0.5
 62
256
  6
BYLAYER
 49
-0.5
 62
256
  6
BYLAYER
  0
MLEADERSTYLE
  5
2C
102
{ACAD_REACTORS
330
F
102
}
330
F
100
AcDbMLeaderStyle
179
2
170
2
171
1
172
0
 90
2
 40
0.0
 41
0.0
173
1
 91
-1056964608
 92
-2
290
1
 42
2.0
291
1
 43
8.0
  3
Standard
 44
4.0
300

342
29
174
1
175
1
176
0
178
1
 93
-1056964608
 45
4.0
292
0
297
0
 46
4.0
 94
-1056964608
 47
1.0
 49
1.0
140
1.0
294
1
141
0.0
177
0
142
1.0
295
0
296
0
143
3.75
271
0
272
9
273
9
  0
DICTIONARY
  5
2D
330
A
100
AcDbDictionary
280
1
281
1
  3
CREATED_BY_EZDXF
350
2E
  3
WRITTEN_BY_EZDXF
350
16B
  0
DICTIONARYVAR
  5
2E
330
2D
100
DictionaryVariables
280
0
  1
1.4.4 @ 2026-06-26T05:50:10.193142+00:00
  0
DICTIONARYVAR
  5
16B
330
2D
100
DictionaryVariables
280
0
  1
1.4.4 @ 2026-06-26T05:50:10.354144+00:00
  0
ENDSEC
  0
EOF
