  0
SECTION
  2
HEADER
  9
$ACADVER
  1
AC1024
  9
$ACADMAINTVER
 70
6
  9
$DWGCODEPAGE
  3
ANSI_1252
  9
$LASTSAVEDBY
  1
ezdxf
  9
$INSBASE
 10
0.0
 20
0.0
 30
0.0
  9
$EXTMIN
 10
1e+20
 20
1e+20
 30
1e+20
  9
$EXTMAX
 10
-1e+20
 20
-1e+20
 30
-1e+20
  9
$LIMMIN
 10
0.0
 20
0.0
  9
$LIMMAX
 10
420.0
 20
297.0
  9
$ORTHOMODE
 70
0
  9
$REGENMODE
 70
1
  9
$FILLMODE
 70
1
  9
$QTEXTMODE
 70
0
  9
$MIRRTEXT
 70
1
  9
$LTSCALE
 40
1.0
  9
$ATTMODE
 70
1
  9
$TEXTSIZE
 40
2.5
  9
$TRACEWID
 40
1.0
  9
$TEXTSTYLE
  7
Standard
  9
$CLAYER
  8
0
  9
$CELTYPE
  6
ByLayer
  9
$CECOLOR
 62
256
  9
$CELTSCALE
 40
1.0
  9
$DISPSILH
 70
0
  9
$DIMSCALE
 40
1.0
  9
$DIMASZ
 40
2.5
  9
$DIMEXO
 40
0.625
  9
$DIMDLI
 40
3.75
  9
$DIMRND
 40
0.0
  9
$DIMDLE
 40
0.0
  9
$DIMEXE
 40
1.25
  9
$DIMTP
 40
0.0
  9
$DIMTM
 40
0.0
  9
$DIMTXT
 40
2.5
  9
$DIMCEN
 40
2.5
  9
$DIMTSZ
 40
0.0
  9
$DIMTOL
 70
0
  9
$DIMLIM
 70
0
  9
$DIMTIH
 70
0
  9
$DIMTOH
 70
0
  9
$DIMSE1
 70
0
  9
$DIMSE2
 70
0
  9
$DIMTAD
 70
1
  9
$DIMZIN
 70
8
  9
$DIMBLK
  1

  9
$DIMASO
 70
1
  9
$DIMSHO
 70
1
  9
$DIMPOST
  1

  9
$DIMAPOST
  1

  9
$DIMALT
 70
0
  9
$DIMALTD
 70
3
  9
$DIMALTF
 40
0.03937007874
  9
$DIMLFAC
 40
1.0
  9
$DIMTOFL
 70
1
  9
$DIMTVP
 40
0.0
  9
$DIMTIX
 70
0
  9
$DIMSOXD
 70
0
  9
$DIMSAH
 70
0
  9
$DIMBLK1
  1

  9
$DIMBLK2
  1

  9
$DIMSTYLE
  2
ISO-25
  9
$DIMCLRD
 70
0
  9
$DIMCLRE
 70
0
  9
$DIMCLRT
 70
0
  9
$DIMTFAC
 40
1.0
  9
$DIMGAP
 40
0.625
  9
$DIMJUST
 70
0
  9
$DIMSD1
 70
0
  9
$DIMSD2
 70
0
  9
$DIMTOLJ
 70
0
  9
$DIMTZIN
 70
8
  9
$DIMALTZ
 70
0
  9
$DIMALTTZ
 70
0
  9
$DIMUPT
 70
0
  9
$DIMDEC
 70
2
  9
$DIMTDEC
 70
2
  9
$DIMALTU
 70
2
  9
$DIMALTTD
 70
3
  9
$DIMTXSTY
  7
Standard
  9
$DIMAUNIT
 70
0
  9
$DIMADEC
 70
0
  9
$DIMALTRND
 40
0.0
  9
$DIMAZIN
 70
0
  9
$DIMDSEP
 70
44
  9
$DIMATFIT
 70
3
  9
$DIMFRAC
 70
0
  9
$DIMLDRBLK
  1

  9
$DIMLUNIT
 70
2
  9
$DIMLWD
 70
-2
  9
$DIMLWE
 70
-2
  9
$DIMTMOVE
 70
0
  9
$DIMFXL
 40
1.0
  9
$DIMFXLON
 70
0
  9
$DIMJOGANG
 40
0.785398163397
  9
$DIMTFILL
 70
0
  9
$DIMTFILLCLR
 70
0
  9
$DIMARCSYM
 70
0
  9
$DIMLTYPE
  6

  9
$DIMLTEX1
  6

  9
$DIMLTEX2
  6

  9
$DIMTXTDIRECTION
 70
0
  9
$LUNITS
 70
2
  9
$LUPREC
 70
4
  9
$SKETCHINC
 40
1.0
  9
$FILLETRAD
 40
10.0
  9
$AUNITS
 70
0
  9
$AUPREC
 70
2
  9
$MENU
  1
.
  9
$ELEVATION
 40
0.0
  9
$PELEVATION
 40
0.0
  9
$THICKNESS
 40
0.0
  9
$LIMCHECK
 70
0
  9
$CHAMFERA
 40
0.0
  9
$CHAMFERB
 40
0.0
  9
$CHAMFERC
 40
0.0
  9
$CHAMFERD
 40
0.0
  9
$SKPOLY
 70
0
  9
$TDCREATE
 40
2461222.637928241
  9
$TDUCREATE
 40
2458532.153996898
  9
$TDUPDATE
 40
2461222.637928241
  9
$TDUUPDATE
 40
2458532.1544311
  9
$TDINDWG
 40
0.0
  9
$TDUSRTIMER
 40
0.0
  9
$USRTIMER
 70
1
  9
$ANGBASE
 50
0.0
  9
$ANGDIR
 70
0
  9
$PDMODE
 70
0
  9
$PDSIZE
 40
0.0
  9
$PLINEWID
 40
0.0
  9
$SPLFRAME
 70
0
  9
$SPLINETYPE
 70
6
  9
$SPLINESEGS
 70
8
  9
$HANDSEED
  5
260
  9
$SURFTAB1
 70
6
  9
$SURFTAB2
 70
6
  9
$SURFTYPE
 70
6
  9
$SURFU
 70
6
  9
$SURFV
 70
6
  9
$UCSBASE
  2

  9
$UCSNAME
  2

  9
$UCSORG
 10
0.0
 20
0.0
 30
0.0
  9
$UCSXDIR
 10
1.0
 20
0.0
 30
0.0
  9
$UCSYDIR
 10
0.0
 20
1.0
 30
0.0
  9
$UCSORTHOREF
  2

  9
$UCSORTHOVIEW
 70
0
  9
$UCSORGTOP
 10
0.0
 20
0.0
 30
0.0
  9
$UCSORGBOTTOM
 10
0.0
 20
0.0
 30
0.0
  9
$UCSORGLEFT
 10
0.0
 20
0.0
 30
0.0
  9
$UCSORGRIGHT
 10
0.0
 20
0.0
 30
0.0
  9
$UCSORGFRONT
 10
0.0
 20
0.0
 30
0.0
  9
$UCSORGBACK
 10
0.0
 20
0.0
 30
0.0
  9
$PUCSBASE
  2

  9
$PUCSNAME
  2

  9
$PUCSORG
 10
0.0
 20
0.0
 30
0.0
  9
$PUCSXDIR
 10
1.0
 20
0.0
 30
0.0
  9
$PUCSYDIR
 10
0.0
 20
1.0
 30
0.0
  9
$PUCSORTHOREF
  2

  9
$PUCSORTHOVIEW
 70
0
  9
$PUCSORGTOP
 10
0.0
 20
0.0
 30
0.0
  9
$PUCSORGBOTTOM
 10
0.0
 20
0.0
 30
0.0
  9
$PUCSORGLEFT
 10
0.0
 20
0.0
 30
0.0
  9
$PUCSORGRIGHT
 10
0.0
 20
0.0
 30
0.0
  9
$PUCSORGFRONT
 10
0.0
 20
0.0
 30
0.0
  9
$PUCSORGBACK
 10
0.0
 20
0.0
 30
0.0
  9
$USERI1
 70
0
  9
$USERI2
 70
0
  9
$USERI3
 70
0
  9
$USERI4
 70
0
  9
$USERI5
 70
0
  9
$USERR1
 40
0.0
  9
$USERR2
 40
0.0
  9
$USERR3
 40
0.0
  9
$USERR4
 40
0.0
  9
$USERR5
 40
0.0
  9
$WORLDVIEW
 70
1
  9
$SHADEDGE
 70
3
  9
$SHADEDIF
 70
70
  9
$TILEMODE
 70
1
  9
$MAXACTVP
 70
64
  9
$PINSBASE
 10
0.0
 20
0.0
 30
0.0
  9
$PLIMCHECK
 70
0
  9
$PEXTMIN
 10
1e+20
 20
1e+20
 30
1e+20
  9
$PEXTMAX
 10
-1e+20
 20
-1e+20
 30
-1e+20
  9
$PLIMMIN
 10
0.0
 20
0.0
  9
$PLIMMAX
 10
420.0
 20
297.0
  9
$UNITMODE
 70
0
  9
$VISRETAIN
 70
1
  9
$PLINEGEN
 70
0
  9
$PSLTSCALE
 70
1
  9
$TREEDEPTH
 70
3020
  9
$CMLSTYLE
  2
Standard
  9
$CMLJUST
 70
0
  9
$CMLSCALE
 40
20.0
  9
$PROXYGRAPHICS
 70
1
  9
$MEASUREMENT
 70
1
  9
$CELWEIGHT
370
-1
  9
$ENDCAPS
280
0
  9
$JOINSTYLE
280
0
  9
$LWDISPLAY
290
0
  9
$INSUNITS
 70
6
  9
$HYPERLINKBASE
  1

  9
$STYLESHEET
  1

  9
$XEDIT
290
1
  9
$CEPSNTYPE
380
0
  9
$PSTYLEMODE
290
1
  9
$FINGERPRINTGUID
  2
{DDE29030-529F-4F1B-B5E0-86AF8A727C9A}
  9
$VERSIONGUID
  2
{7D809920-7265-4519-93E5-A5FD20995F49}
  9
$EXTNAMES
290
1
  9
$PSVPSCALE
 40
0.0
  9
$OLESTARTUP
290
0
  9
$SORTENTS
280
127
  9
$INDEXCTL
280
0
  9
$HIDETEXT
280
1
  9
$XCLIPFRAME
280
1
  9
$HALOGAP
280
0
  9
$OBSCOLOR
 70
257
  9
$OBSLTYPE
280
0
  9
$INTERSECTIONDISPLAY
280
0
  9
$INTERSECTIONCOLOR
 70
257
  9
$DIMASSOC
280
2
  9
$PROJECTNAME
  1

  9
$CAMERADISPLAY
290
0
  9
$LENSLENGTH
 40
50.0
  9
$CAMERAHEIGHT
 40
0.0
  9
$STEPSPERSEC
 40
24.0
  9
$STEPSIZE
 40
100.0
  9
$3DDWFPREC
 40
2.0
  9
$PSOLWIDTH
 40
0.005
  9
$PSOLHEIGHT
 40
0.08
  9
$LOFTANG1
 40
1.570796326795
  9
$LOFTANG2
 40
1.570796326795
  9
$LOFTMAG1
 40
0.0
  9
$LOFTMAG2
 40
0.0
  9
$LOFTPARAM
 70
7
  9
$LOFTNORMALS
280
1
  9
$LATITUDE
 40
37.795
  9
$LONGITUDE
 40
-122.394
  9
$NORTHDIRECTION
 40
0.0
  9
$TIMEZONE
 70
-8000
  9
$LIGHTGLYPHDISPLAY
280
1
  9
$TILEMODELIGHTSYNCH
280
1
  9
$CMATERIAL
347
20
  9
$SOLIDHIST
280
0
  9
$SHOWHIST
280
1
  9
$DWFFRAME
280
2
  9
$DGNFRAME
280
2
  9
$REALWORLDSCALE
290
1
  9
$INTERFERECOLOR
 62
256
  9
$CSHADOW
280
0
  9
$SHADOWPLANELOCATION
 40
0.0
  0
ENDSEC
  0
SECTION
  2
CLASSES
  0
CLASS
  1
ACDBDICTIONARYWDFLT
  2
AcDbDictionaryWithDefault
  3
ObjectDBX Classes
 90
0
 91
0
280
0
281
0
  0
CLASS
  1
SUN
  2
AcDbSun
  3
SCENEOE
 90
1153
 91
0
280
0
281
0
  0
CLASS
  1
VISUALSTYLE
  2
AcDbVisualStyle
  3
ObjectDBX Classes
 90
4095
 91
0
280
0
281
0
  0
CLASS
  1
MATERIAL
  2
AcDbMaterial
  3
ObjectDBX Classes
 90
1153
 91
0
280
0
281
0
  0
CLASS
  1
SCALE
  2
AcDbScale
  3
ObjectDBX Classes
 90
1153
 91
0
280
0
281
0
  0
CLASS
  1
TABLESTYLE
  2
AcDbTableStyle
  3
ObjectDBX Classes
 90
4095
 91
0
280
0
281
0
  0
CLASS
  1
MLEADERSTYLE
  2
AcDbMLeaderStyle
  3
ACDB_MLEADERSTYLE_CLASS
 90
4095
 91
0
280
0
281
0
  0
CLASS
  1
DICTIONARYVAR
  2
AcDbDictionaryVar
  3
ObjectDBX Classes
 90
0
 91
0
280
0
281
0
  0
CLASS
  1
CELLSTYLEMAP
  2
AcDbCellStyleMap
  3
ObjectDBX Classes
 90
1152
 91
0
280
0
281
0
  0
CLASS
  1
MENTALRAYRENDERSETTINGS
  2
AcDbMentalRayRenderSettings
  3
SCENEOE
 90
1024
 91
0
280
0
281
0
  0
CLASS
  1
ACDBDETAILVIEWSTYLE
  2
AcDbDetailViewStyle
  3
ObjectDBX Classes
 90
1025
 91
0
280
0
281
0
  0
CLASS
  1
ACDBSECTIONVIEWSTYLE
  2
AcDbSectionViewStyle
  3
ObjectDBX Classes
 90
1025
 91
0
280
0
281
0
  0
CLASS
  1
RASTERVARIABLES
  2
AcDbRasterVariables
  3
ISM
 90
0
 91
0
280
0
281
0
  0
CLASS
  1
ACDBPLACEHOLDER
  2
AcDbPlaceHolder
  3
ObjectDBX Classes
 90
0
 91
0
280
0
281
0
  0
CLASS
  1
LAYOUT
  2
AcDbLayout
  3
ObjectDBX Classes
 90
0
 91
0
280
0
281
0
  0
ENDSEC
  0
SECTION
  2
TABLES
  0
TABLE
  2
VPORT
  5
8
330
0
100
AcDbSymbolTable
 70
1
  0
VPORT
  5
23
330
8
100
AcDbSymbolTableRecord
100
AcDbViewportTableRecord
  2
*Active
 70
0
 10
0.0
 20
0.0
 11
1.0
 21
1.0
 12
0.0
 22
0.0
 13
0.0
 23
0.0
 14
0.5
 24
0.5
 15
0.5
 25
0.5
 16
0.0
 26
0.0
 36
1.0
 17
0.0
 27
0.0
 37
0.0
 40
1000.0
 41
1.34
 42
50.0
 43
0.0
 44
0.0
 50
0.0
 51
0.0
 71
0
 72
1000
 73
1
 74
3
 75
0
 76
0
 77
0
 78
0
281
0
 65
0
146
0.0
  0
ENDTAB
  0
TABLE
  2
LTYPE
  5
2
330
0
100
AcDbSymbolTable
 70
3
  0
LTYPE
  5
24
330
2
100
AcDbSymbolTableRecord
100
AcDbLinetypeTableRecord
  2
ByBlock
 70
0
  3

 72
65
 73
0
 40
0.0
  0
LTYPE
  5
25
330
2
100
AcDbSymbolTableRecord
100
AcDbLinetypeTableRecord
  2
ByLayer
 70
0
  3

 72
65
 73
0
 40
0.0
  0
LTYPE
  5
26
330
2
100
AcDbSymbolTableRecord
100
AcDbLinetypeTableRecord
  2
Continuous
 70
0
  3

 72
65
 73
0
 40
0.0
  0
ENDTAB
  0
TABLE
  2
LAYER
  5
1
330
0
100
AcDbSymbolTable
 70
19
  0
LAYER
  5
27
330
1
100
AcDbSymbolTableRecord
100
AcDbLayerTableRecord
  2
0
 70
0
 62
7
  6
Continuous
370
-3
390
13
347
21
  0
LAYER
  5
28
330
1
100
AcDbSymbolTableRecord
100
AcDbLayerTableRecord
  2
Defpoints
 70
0
 62
7
  6
Continuous
290
0
370
-3
390
13
347
21
  0
LAYER
  5
2F
330
1
100
AcDbSymbolTableRecord
100
AcDbLayerTableRecord
  2
DEBUG_BEAM_CENTERLINE
 70
0
 62
7
  6
Continuous
370
-3
390
13
347
21
  0
LAYER
  5
30
330
1
100
AcDbSymbolTableRecord
100
AcDbLayerTableRecord
  2
DEBUG_BEAM_CONNECTIVITY
 70
0
 62
7
  6
Continuous
370
-3
390
13
347
21
  0
LAYER
  5
31
330
1
100
AcDbSymbolTableRecord
100
AcDbLayerTableRecord
  2
DEBUG_BEAM_SUPPORTS
 70
0
 62
7
  6
Continuous
370
-3
390
13
347
21
  0
LAYER
  5
32
330
1
100
AcDbSymbolTableRecord
100
AcDbLayerTableRecord
  2
DEBUG_BEAM_GEOMETRY
 70
0
 62
7
  6
Continuous
370
-3
390
13
347
21
  0
LAYER
  5
33
330
1
100
AcDbSymbolTableRecord
100
AcDbLayerTableRecord
  2
DEBUG_DIMENSIONS
 70
0
 62
7
  6
Continuous
370
-3
390
13
347
21
  0
LAYER
  5
34
330
1
100
AcDbSymbolTableRecord
100
AcDbLayerTableRecord
  2
DEBUG_SECTION
 70
0
 62
7
  6
Continuous
370
-3
390
13
347
21
  0
LAYER
  5
35
330
1
100
AcDbSymbolTableRecord
100
AcDbLayerTableRecord
  2
DEBUG_STRUCTURAL_NODES
 70
0
 62
7
  6
Continuous
370
-3
390
13
347
21
  0
LAYER
  5
36
330
1
100
AcDbSymbolTableRecord
100
AcDbLayerTableRecord
  2
DEBUG_ENGINEERING_LENGTHS
 70
0
 62
7
  6
Continuous
370
-3
390
13
347
21
  0
LAYER
  5
37
330
1
100
AcDbSymbolTableRecord
100
AcDbLayerTableRecord
  2
DEBUG_GRAPH
 70
0
 62
7
  6
Continuous
370
-3
390
13
347
21
  0
LAYER
  5
38
330
1
100
AcDbSymbolTableRecord
100
AcDbLayerTableRecord
  2
DEBUG_STATIONING
 70
0
 62
7
  6
Continuous
370
-3
390
13
347
21
  0
LAYER
  5
39
330
1
100
AcDbSymbolTableRecord
100
AcDbLayerTableRecord
  2
DEBUG_RELATIONSHIPS
 70
0
 62
7
  6
Continuous
370
-3
390
13
347
21
  0
LAYER
  5
3A
330
1
100
AcDbSymbolTableRecord
100
AcDbLayerTableRecord
  2
DEBUG_ENGINEERING_CONTEXT
 70
0
 62
7
  6
Continuous
370
-3
390
13
347
21
  0
LAYER
  5
3B
330
1
100
AcDbSymbolTableRecord
100
AcDbLayerTableRecord
  2
DEBUG_DEPENDENCIES
 70
0
 62
7
  6
Continuous
370
-3
390
13
347
21
  0
LAYER
  5
3C
330
1
100
AcDbSymbolTableRecord
100
AcDbLayerTableRecord
  2
DEBUG_PROJECT_GRAPH
 70
0
 62
7
  6
Continuous
370
-3
390
13
347
21
  0
LAYER
  5
3D
330
1
100
AcDbSymbolTableRecord
100
AcDbLayerTableRecord
  2
DEBUG_PROJECT
 70
0
 62
7
  6
Continuous
370
-3
390
13
347
21
  0
LAYER
  5
3E
330
1
100
AcDbSymbolTableRecord
100
AcDbLayerTableRecord
  2
DEBUG_FLOORS
 70
0
 62
7
  6
Continuous
370
-3
390
13
347
21
  0
LAYER
  5
3F
330
1
100
AcDbSymbolTableRecord
100
AcDbLayerTableRecord
  2
DEBUG_WORKSPACE
 70
0
 62
7
  6
Continuous
370
-3
390
13
347
21
  0
ENDTAB
  0
TABLE
  2
STYLE
  5
5
330
0
100
AcDbSymbolTable
 70
1
  0
STYLE
  5
29
330
5
100
AcDbSymbolTableRecord
100
AcDbTextStyleTableRecord
  2
Standard
 70
0
 40
0.0
 41
1.0
 50
0.0
 71
0
 42
2.5
  3
txt
  4

  0
ENDTAB
  0
TABLE
  2
VIEW
  5
7
330
0
100
AcDbSymbolTable
 70
0
  0
ENDTAB
  0
TABLE
  2
UCS
  5
6
330
0
100
AcDbSymbolTable
 70
0
  0
ENDTAB
  0
TABLE
  2
APPID
  5
3
330
0
100
AcDbSymbolTable
 70
3
  0
APPID
  5
2A
330
3
100
AcDbSymbolTableRecord
100
AcDbRegAppTableRecord
  2
ACAD
 70
0
  0
APPID
  5
25D
330
3
100
AcDbSymbolTableRecord
100
AcDbRegAppTableRecord
  2
HATCHBACKGROUNDCOLOR
 70
0
  0
APPID
  5
25E
330
3
100
AcDbSymbolTableRecord
100
AcDbRegAppTableRecord
  2
EZDXF
 70
0
  0
ENDTAB
  0
TABLE
  2
DIMSTYLE
  5
4
330
0
100
AcDbSymbolTable
 70
1
100
AcDbDimStyleTable
  0
DIMSTYLE
105
2B
330
4
100
AcDbSymbolTableRecord
100
AcDbDimStyleTableRecord
  2
Standard
 70
0
 40
1.0
 41
2.5
 42
0.625
 43
3.75
 44
1.25
 45
0.0
 46
0.0
 47
0.0
 48
0.0
 49
2.5
140
2.5
141
2.5
142
0.0
143
0.03937007874
144
1.0
145
0.0
146
1.0
147
0.625
148
0.0
 69
0
 70
0
 71
0
 72
0
 73
0
 74
0
 75
0
 76
0
 77
1
 78
8
 79
3
170
0
171
3
172
1
173
0
174
0
175
0
176
0
177
0
178
0
179
2
271
2
272
2
273
2
274
3
275
0
276
0
277
2
278
44
279
0
280
0
281
0
282
0
283
0
284
8
285
0
286
0
288
0
289
3
290
0
371
-2
372
-2
  0
ENDTAB
  0
TABLE
  2
BLOCK_RECORD
  5
9
330
0
100
AcDbSymbolTable
 70
2
  0
BLOCK_RECORD
  5
17
330
9
100
AcDbSymbolTableRecord
100
AcDbBlockTableRecord
  2
*Model_Space
340
1A
 70
0
280
1
281
0
  0
BLOCK_RECORD
  5
1B
330
9
100
AcDbSymbolTableRecord
100
AcDbBlockTableRecord
  2
*Paper_Space
340
1E
 70
0
280
1
281
0
  0
ENDTAB
  0
ENDSEC
  0
SECTION
  2
BLOCKS
  0
BLOCK
  5
18
330
17
100
AcDbEntity
  8
0
100
AcDbBlockBegin
  2
*Model_Space
 70
0
 10
0.0
 20
0.0
 30
0.0
  3
*Model_Space
  1

  0
ENDBLK
  5
19
330
17
100
AcDbEntity
  8
0
100
AcDbBlockEnd
  0
BLOCK
  5
1C
330
1B
100
AcDbEntity
  8
0
100
AcDbBlockBegin
  2
*Paper_Space
 70
0
 10
0.0
 20
0.0
 30
0.0
  3
*Paper_Space
  1

  0
ENDBLK
  5
1D
330
1B
100
AcDbEntity
  8
0
100
AcDbBlockEnd
  0
ENDSEC
  0
SECTION
  2
ENTITIES
  0
LINE
  5
40
330
17
100
AcDbEntity
  8
DEBUG_BEAM_CENTERLINE
 62
3
100
AcDbLine
 10
12950.646
 20
45761.611
 30
0.0
 11
9561.051
 21
45919.835
 31
0.0
  0
TEXT
  5
41
330
17
100
AcDbEntity
  8
DEBUG_BEAM_GEOMETRY
 62
2
100
AcDbText
 10
11255.8485
 20
45840.723
 30
0.0
 40
180.0
  1
B1
100
AcDbText
  0
LWPOLYLINE
  5
42
330
17
100
AcDbEntity
  8
DEBUG_BEAM_GEOMETRY
 62
8
100
AcDbPolyline
 90
5
 70
0
 10
9561.051
 20
45761.611
 10
12950.646
 20
45761.611
 10
12950.646
 20
45919.835
 10
9561.051
 20
45919.835
 10
9561.051
 20
45761.611
  0
TEXT
  5
43
330
17
100
AcDbEntity
  8
DEBUG_DIMENSIONS
 62
5
100
AcDbText
 10
11505.8485
 20
46090.723
 30
0.0
 40
200.0
  1
B1200×600
100
AcDbText
  0
TEXT
  5
44
330
17
100
AcDbEntity
  8
DEBUG_SECTION
 62
4
100
AcDbText
 10
10955.8485
 20
45540.723
 30
0.0
 40
180.0
  1
B1200x600DEEP_SECTION
100
AcDbText
  0
TEXT
  5
45
330
17
100
AcDbEntity
  8
DEBUG_ENGINEERING_LENGTHS
 62
140
100
AcDbText
 10
11655.8485
 20
45440.723
 30
0.0
 40
160.0
  1
B1CL=3393CS=3393
100
AcDbText
  0
CIRCLE
  5
46
330
17
100
AcDbEntity
  8
DEBUG_STATIONING
 62
11
100
AcDbCircle
 10
12950.646
 20
45761.611
 30
0.0
 40
80.0
  0
TEXT
  5
47
330
17
100
AcDbEntity
  8
DEBUG_STATIONING
 62
11
100
AcDbText
 10
13050.646
 20
45861.611
 30
0.0
 40
100.0
  1
START
100
AcDbText
  0
CIRCLE
  5
48
330
17
100
AcDbEntity
  8
DEBUG_STATIONING
 62
11
100
AcDbCircle
 10
12103.247
 20
45801.167
 30
0.0
 40
80.0
  0
TEXT
  5
49
330
17
100
AcDbEntity
  8
DEBUG_STATIONING
 62
11
100
AcDbText
 10
12203.247
 20
45901.167
 30
0.0
 40
100.0
  1
0.25L
100
AcDbText
  0
CIRCLE
  5
4A
330
17
100
AcDbEntity
  8
DEBUG_STATIONING
 62
11
100
AcDbCircle
 10
11255.849
 20
45840.724
 30
0.0
 40
80.0
  0
TEXT
  5
4B
330
17
100
AcDbEntity
  8
DEBUG_STATIONING
 62
11
100
AcDbText
 10
11355.849
 20
45940.724
 30
0.0
 40
100.0
  1
0.50L
100
AcDbText
  0
CIRCLE
  5
4C
330
17
100
AcDbEntity
  8
DEBUG_STATIONING
 62
11
100
AcDbCircle
 10
10408.45
 20
45880.28
 30
0.0
 40
80.0
  0
TEXT
  5
4D
330
17
100
AcDbEntity
  8
DEBUG_STATIONING
 62
11
100
AcDbText
 10
10508.45
 20
45980.28
 30
0.0
 40
100.0
  1
0.75L
100
AcDbText
  0
CIRCLE
  5
4E
330
17
100
AcDbEntity
  8
DEBUG_STATIONING
 62
11
100
AcDbCircle
 10
9561.052
 20
45919.837
 30
0.0
 40
80.0
  0
TEXT
  5
4F
330
17
100
AcDbEntity
  8
DEBUG_STATIONING
 62
11
100
AcDbText
 10
9661.052
 20
46019.837
 30
0.0
 40
100.0
  1
END
100
AcDbText
  0
TEXT
  5
50
330
17
100
AcDbEntity
  8
DEBUG_GRAPH
 62
7
100
AcDbText
 10
12750.646
 20
45561.611
 30
0.0
 40
140.0
  1
B1S0→SL
100
AcDbText
  0
CIRCLE
  5
51
330
17
100
AcDbEntity
  8
DEBUG_BEAM_SUPPORTS
 62
1
100
AcDbCircle
 10
12950.646
 20
45761.611
 30
0.0
 40
120.0
  0
TEXT
  5
52
330
17
100
AcDbEntity
  8
DEBUG_BEAM_SUPPORTS
 62
1
100
AcDbText
 10
13100.646
 20
45911.611
 30
0.0
 40
120.0
  1
BEAM:B14
100
AcDbText
  0
CIRCLE
  5
53
330
17
100
AcDbEntity
  8
DEBUG_BEAM_SUPPORTS
 62
1
100
AcDbCircle
 10
9561.051
 20
45919.835
 30
0.0
 40
120.0
  0
TEXT
  5
54
330
17
100
AcDbEntity
  8
DEBUG_BEAM_SUPPORTS
 62
1
100
AcDbText
 10
9711.051
 20
46069.835
 30
0.0
 40
120.0
  1
FREE_END:None
100
AcDbText
  0
LINE
  5
55
330
17
100
AcDbEntity
  8
DEBUG_BEAM_CENTERLINE
 62
3
100
AcDbLine
 10
13896.309
 20
45157.533
 30
0.0
 11
16306.619
 21
45590.652
 31
0.0
  0
TEXT
  5
56
330
17
100
AcDbEntity
  8
DEBUG_BEAM_GEOMETRY
 62
2
100
AcDbText
 10
15101.464
 20
45374.0925
 30
0.0
 40
180.0
  1
B2
100
AcDbText
  0
LWPOLYLINE
  5
57
330
17
100
AcDbEntity
  8
DEBUG_BEAM_GEOMETRY
 62
8
100
AcDbPolyline
 90
5
 70
0
 10
13896.309
 20
45157.533
 10
16306.619
 20
45157.533
 10
16306.619
 20
45590.652
 10
13896.309
 20
45590.652
 10
13896.309
 20
45157.533
  0
TEXT
  5
58
330
17
100
AcDbEntity
  8
DEBUG_DIMENSIONS
 62
5
100
AcDbText
 10
15351.464
 20
45624.0925
 30
0.0
 40
200.0
  1
B2200×600
100
AcDbText
  0
TEXT
  5
59
330
17
100
AcDbEntity
  8
DEBUG_SECTION
 62
4
100
AcDbText
 10
14801.464
 20
45074.0925
 30
0.0
 40
180.0
  1
B2200x600DEEP_SECTION
100
AcDbText
  0
TEXT
  5
5A
330
17
100
AcDbEntity
  8
DEBUG_ENGINEERING_LENGTHS
 62
140
100
AcDbText
 10
15501.464
 20
44974.0925
 30
0.0
 40
160.0
  1
B2CL=2448CS=2448
100
AcDbText
  0
CIRCLE
  5
5B
330
17
100
AcDbEntity
  8
DEBUG_STATIONING
 62
11
100
AcDbCircle
 10
13896.309
 20
45157.533
 30
0.0
 40
80.0
  0
TEXT
  5
5C
330
17
100
AcDbEntity
  8
DEBUG_STATIONING
 62
11
100
AcDbText
 10
13996.309
 20
45257.533
 30
0.0
 40
100.0
  1
START
100
AcDbText
  0
CIRCLE
  5
5D
330
17
100
AcDbEntity
  8
DEBUG_STATIONING
 62
11
100
AcDbCircle
 10
14498.887
 20
45265.813
 30
0.0
 40
80.0
  0
TEXT
  5
5E
330
17
100
AcDbEntity
  8
DEBUG_STATIONING
 62
11
100
AcDbText
 10
14598.887
 20
45365.813
 30
0.0
 40
100.0
  1
0.25L
100
AcDbText
  0
CIRCLE
  5
5F
330
17
100
AcDbEntity
  8
DEBUG_STATIONING
 62
11
100
AcDbCircle
 10
15101.464
 20
45374.093
 30
0.0
 40
80.0
  0
TEXT
  5
60
330
17
100
AcDbEntity
  8
DEBUG_STATIONING
 62
11
100
AcDbText
 10
15201.464
 20
45474.093
 30
0.0
 40
100.0
  1
0.50L
100
AcDbText
  0
CIRCLE
  5
61
330
17
100
AcDbEntity
  8
DEBUG_STATIONING
 62
11
100
AcDbCircle
 10
15704.042
 20
45482.373
 30
0.0
 40
80.0
  0
TEXT
  5
62
330
17
100
AcDbEntity
  8
DEBUG_STATIONING
 62
11
100
AcDbText
 10
15804.042
 20
45582.373
 30
0.0
 40
100.0
  1
0.75L
100
AcDbText
  0
CIRCLE
  5
63
330
17
100
AcDbEntity
  8
DEBUG_STATIONING
 62
11
100
AcDbCircle
 10
16306.619
 20
45590.653
 30
0.0
 40
80.0
  0
TEXT
  5
64
330
17
100
AcDbEntity
  8
DEBUG_STATIONING
 62
11
100
AcDbText
 10
16406.619
 20
45690.653
 30
0.0
 40
100.0
  1
END
100
AcDbText
  0
TEXT
  5
65
330
17
100
AcDbEntity
  8
DEBUG_GRAPH
 62
7
100
AcDbText
 10
13696.309
 20
44957.533
 30
0.0
 40
140.0
  1
B2S0→SL
100
AcDbText
  0
CIRCLE
  5
66
330
17
100
AcDbEntity
  8
DEBUG_BEAM_SUPPORTS
 62
1
100
AcDbCircle
 10
13896.309
 20
45157.533
 30
0.0
 40
120.0
  0
TEXT
  5
67
330
17
100
AcDbEntity
  8
DEBUG_BEAM_SUPPORTS
 62
1
100
AcDbText
 10
14046.309
 20
45307.533
 30
0.0
 40
120.0
  1
WALL:WALL_74
100
AcDbText
  0
CIRCLE
  5
68
330
17
100
AcDbEntity
  8
DEBUG_BEAM_SUPPORTS
 62
1
100
AcDbCircle
 10
16306.619
 20
45590.652
 30
0.0
 40
120.0
  0
TEXT
  5
69
330
17
100
AcDbEntity
  8
DEBUG_BEAM_SUPPORTS
 62
1
100
AcDbText
 10
16456.619
 20
45740.652
 30
0.0
 40
120.0
  1
WALL:WALL_74
100
AcDbText
  0
LINE
  5
6A
330
17
100
AcDbEntity
  8
DEBUG_BEAM_CENTERLINE
 62
3
100
AcDbLine
 10
21062.896
 20
46447.401
 30
0.0
 11
23319.145
 21
46851.532
 31
0.0
  0
TEXT
  5
6B
330
17
100
AcDbEntity
  8
DEBUG_BEAM_GEOMETRY
 62
2
100
AcDbText
 10
22191.0205
 20
46649.466499999995
 30
0.0
 40
180.0
  1
B3
100
AcDbText
  0
LWPOLYLINE
  5
6C
330
17
100
AcDbEntity
  8
DEBUG_BEAM_GEOMETRY
 62
8
100
AcDbPolyline
 90
5
 70
0
 10
21062.896
 20
46447.401
 10
23319.145
 20
46447.401
 10
23319.145
 20
46851.532
 10
21062.896
 20
46851.532
 10
21062.896
 20
46447.401
  0
TEXT
  5
6D
330
17
100
AcDbEntity
  8
DEBUG_DIMENSIONS
 62
5
100
AcDbText
 10
22441.0205
 20
46899.466499999995
 30
0.0
 40
200.0
  1
B3200×600
100
AcDbText
  0
TEXT
  5
6E
330
17
100
AcDbEntity
  8
DEBUG_SECTION
 62
4
100
AcDbText
 10
21891.0205
 20
46349.466499999995
 30
0.0
 40
180.0
  1
B3200x600DEEP_SECTION
100
AcDbText
  0
TEXT
  5
6F
330
17
100
AcDbEntity
  8
DEBUG_ENGINEERING_LENGTHS
 62
140
100
AcDbText
 10
22591.0205
 20
46249.466499999995
 30
0.0
 40
160.0
  1
B3CL=2292CS=2292
100
AcDbText
  0
CIRCLE
  5
70
330
17
100
AcDbEntity
  8
DEBUG_STATIONING
 62
11
100
AcDbCircle
 10
21062.896
 20
46447.401
 30
0.0
 40
80.0
  0
TEXT
  5
71
330
17
100
AcDbEntity
  8
DEBUG_STATIONING
 62
11
100
AcDbText
 10
21162.896
 20
46547.401
 30
0.0
 40
100.0
  1
START
100
AcDbText
  0
CIRCLE
  5
72
330
17
100
AcDbEntity
  8
DEBUG_STATIONING
 62
11
100
AcDbCircle
 10
21626.958
 20
46548.434
 30
0.0
 40
80.0
  0
TEXT
  5
73
330
17
100
AcDbEntity
  8
DEBUG_STATIONING
 62
11
100
AcDbText
 10
21726.958
 20
46648.434
 30
0.0
 40
100.0
  1
0.25L
100
AcDbText
  0
CIRCLE
  5
74
330
17
100
AcDbEntity
  8
DEBUG_STATIONING
 62
11
100
AcDbCircle
 10
22191.021
 20
46649.466
 30
0.0
 40
80.0
  0
TEXT
  5
75
330
17
100
AcDbEntity
  8
DEBUG_STATIONING
 62
11
100
AcDbText
 10
22291.021
 20
46749.466
 30
0.0
 40
100.0
  1
0.50L
100
AcDbText
  0
CIRCLE
  5
76
330
17
100
AcDbEntity
  8
DEBUG_STATIONING
 62
11
100
AcDbCircle
 10
22755.083
 20
46750.499
 30
0.0
 40
80.0
  0
TEXT
  5
77
330
17
100
AcDbEntity
  8
DEBUG_STATIONING
 62
11
100
AcDbText
 10
22855.083
 20
46850.499
 30
0.0
 40
100.0
  1
0.75L
100
AcDbText
  0
CIRCLE
  5
78
330
17
100
AcDbEntity
  8
DEBUG_STATIONING
 62
11
100
AcDbCircle
 10
23319.145
 20
46851.531
 30
0.0
 40
80.0
  0
TEXT
  5
79
330
17
100
AcDbEntity
  8
DEBUG_STATIONING
 62
11
100
AcDbText
 10
23419.145
 20
46951.531
 30
0.0
 40
100.0
  1
END
100
AcDbText
  0
TEXT
  5
7A
330
17
100
AcDbEntity
  8
DEBUG_GRAPH
 62
7
100
AcDbText
 10
20862.896
 20
46247.401
 30
0.0
 40
140.0
  1
B3S0→SL
100
AcDbText
  0
CIRCLE
  5
7B
330
17
100
AcDbEntity
  8
DEBUG_BEAM_SUPPORTS
 62
1
100
AcDbCircle
 10
21062.896
 20
46447.401
 30
0.0
 40
120.0
  0
TEXT
  5
7C
330
17
100
AcDbEntity
  8
DEBUG_BEAM_SUPPORTS
 62
1
100
AcDbText
 10
21212.896
 20
46597.401
 30
0.0
 40
120.0
  1
WALL:WALL_79
100
AcDbText
  0
CIRCLE
  5
7D
330
17
100
AcDbEntity
  8
DEBUG_BEAM_SUPPORTS
 62
1
100
AcDbCircle
 10
23319.145
 20
46851.532
 30
0.0
 40
120.0
  0
TEXT
  5
7E
330
17
100
AcDbEntity
  8
DEBUG_BEAM_SUPPORTS
 62
1
100
AcDbText
 10
23469.145
 20
47001.532
 30
0.0
 40
120.0
  1
WALL:WALL_79
100
AcDbText
  0
LINE
  5
7F
330
17
100
AcDbEntity
  8
DEBUG_BEAM_CENTERLINE
 62
3
100
AcDbLine
 10
12950.646
 20
43984.472
 30
0.0
 11
9561.051
 21
43984.472
 31
0.0
  0
TEXT
  5
80
330
17
100
AcDbEntity
  8
DEBUG_BEAM_GEOMETRY
 62
2
100
AcDbText
 10
11255.8485
 20
43984.472
 30
0.0
 40
180.0
  1
B4
100
AcDbText
  0
LWPOLYLINE
  5
81
330
17
100
AcDbEntity
  8
DEBUG_BEAM_GEOMETRY
 62
8
100
AcDbPolyline
 90
5
 70
0
 10
9561.051
 20
43984.472
 10
12950.646
 20
43984.472
 10
12950.646
 20
43984.472
 10
9561.051
 20
43984.472
 10
9561.051
 20
43984.472
  0
TEXT
  5
82
330
17
100
AcDbEntity
  8
DEBUG_DIMENSIONS
 62
5
100
AcDbText
 10
11505.8485
 20
44234.472
 30
0.0
 40
200.0
  1
B4200×600
100
AcDbText
  0
TEXT
  5
83
330
17
100
AcDbEntity
  8
DEBUG_SECTION
 62
4
100
AcDbText
 10
10955.8485
 20
43684.472
 30
0.0
 40
180.0
  1
B4200x600DEEP_SECTION
100
AcDbText
  0
TEXT
  5
84
330
17
100
AcDbEntity
  8
DEBUG_ENGINEERING_LENGTHS
 62
140
100
AcDbText
 10
11655.8485
 20
43584.472
 30
0.0
 40
160.0
  1
B4CL=3389CS=3289
100
AcDbText
  0
CIRCLE
  5
85
330
17
100
AcDbEntity
  8
DEBUG_ENGINEERING_LENGTHS
 62
140
100
AcDbCircle
 10
12950.646
 20
43984.472
 30
0.0
 40
100.0
  0
CIRCLE
  5
86
330
17
100
AcDbEntity
  8
DEBUG_STATIONING
 62
11
100
AcDbCircle
 10
12950.646
 20
43984.472
 30
0.0
 40
80.0
  0
TEXT
  5
87
330
17
100
AcDbEntity
  8
DEBUG_STATIONING
 62
11
100
AcDbText
 10
13050.646
 20
44084.472
 30
0.0
 40
100.0
  1
START
100
AcDbText
  0
CIRCLE
  5
88
330
17
100
AcDbEntity
  8
DEBUG_STATIONING
 62
11
100
AcDbCircle
 10
12128.247
 20
43984.472
 30
0.0
 40
80.0
  0
TEXT
  5
89
330
17
100
AcDbEntity
  8
DEBUG_STATIONING
 62
11
100
AcDbText
 10
12228.247
 20
44084.472
 30
0.0
 40
100.0
  1
0.25L
100
AcDbText
  0
CIRCLE
  5
8A
330
17
100
AcDbEntity
  8
DEBUG_STATIONING
 62
11
100
AcDbCircle
 10
11305.849
 20
43984.472
 30
0.0
 40
80.0
  0
TEXT
  5
8B
330
17
100
AcDbEntity
  8
DEBUG_STATIONING
 62
11
100
AcDbText
 10
11405.849
 20
44084.472
 30
0.0
 40
100.0
  1
0.50L
100
AcDbText
  0
CIRCLE
  5
8C
330
17
100
AcDbEntity
  8
DEBUG_STATIONING
 62
11
100
AcDbCircle
 10
10483.45
 20
43984.472
 30
0.0
 40
80.0
  0
TEXT
  5
8D
330
17
100
AcDbEntity
  8
DEBUG_STATIONING
 62
11
100
AcDbText
 10
10583.45
 20
44084.472
 30
0.0
 40
100.0
  1
0.75L
100
AcDbText
  0
CIRCLE
  5
8E
330
17
100
AcDbEntity
  8
DEBUG_STATIONING
 62
11
100
AcDbCircle
 10
9661.051
 20
43984.472
 30
0.0
 40
80.0
  0
TEXT
  5
8F
330
17
100
AcDbEntity
  8
DEBUG_STATIONING
 62
11
100
AcDbText
 10
9761.051
 20
44084.472
 30
0.0
 40
100.0
  1
END
100
AcDbText
  0
TEXT
  5
90
330
17
100
AcDbEntity
  8
DEBUG_GRAPH
 62
7
100
AcDbText
 10
12750.646
 20
43784.472
 30
0.0
 40
140.0
  1
B4S0→SL
100
AcDbText
  0
CIRCLE
  5
91
330
17
100
AcDbEntity
  8
DEBUG_BEAM_SUPPORTS
 62
1
100
AcDbCircle
 10
12950.646
 20
43984.472
 30
0.0
 40
120.0
  0
TEXT
  5
92
330
17
100
AcDbEntity
  8
DEBUG_BEAM_SUPPORTS
 62
1
100
AcDbText
 10
13100.646
 20
44134.472
 30
0.0
 40
120.0
  1
BEAM:B13
100
AcDbText
  0
CIRCLE
  5
93
330
17
100
AcDbEntity
  8
DEBUG_BEAM_SUPPORTS
 62
1
100
AcDbCircle
 10
9561.051
 20
43984.472
 30
0.0
 40
120.0
  0
TEXT
  5
94
330
17
100
AcDbEntity
  8
DEBUG_BEAM_SUPPORTS
 62
1
100
AcDbText
 10
9711.051
 20
44134.472
 30
0.0
 40
120.0
  1
BEAM:B12
100
AcDbText
  0
LINE
  5
95
330
17
100
AcDbEntity
  8
DEBUG_BEAM_CENTERLINE
 62
3
100
AcDbLine
 10
12950.646
 20
41284.109
 30
0.0
 11
9561.051
 21
41284.109
 31
0.0
  0
TEXT
  5
96
330
17
100
AcDbEntity
  8
DEBUG_BEAM_GEOMETRY
 62
2
100
AcDbText
 10
11255.8485
 20
41284.109
 30
0.0
 40
180.0
  1
B5
100
AcDbText
  0
LWPOLYLINE
  5
97
330
17
100
AcDbEntity
  8
DEBUG_BEAM_GEOMETRY
 62
8
100
AcDbPolyline
 90
5
 70
0
 10
9561.051
 20
41284.109
 10
12950.646
 20
41284.109
 10
12950.646
 20
41284.109
 10
9561.051
 20
41284.109
 10
9561.051
 20
41284.109
  0
TEXT
  5
98
330
17
100
AcDbEntity
  8
DEBUG_DIMENSIONS
 62
5
100
AcDbText
 10
11505.8485
 20
41534.109
 30
0.0
 40
200.0
  1
B5200×600
100
AcDbText
  0
TEXT
  5
99
330
17
100
AcDbEntity
  8
DEBUG_SECTION
 62
4
100
AcDbText
 10
10955.8485
 20
40984.109
 30
0.0
 40
180.0
  1
B5200x600DEEP_SECTION
100
AcDbText
  0
TEXT
  5
9A
330
17
100
AcDbEntity
  8
DEBUG_ENGINEERING_LENGTHS
 62
140
100
AcDbText
 10
11655.8485
 20
40884.109
 30
0.0
 40
160.0
  1
B5CL=3389CS=3289
100
AcDbText
  0
CIRCLE
  5
9B
330
17
100
AcDbEntity
  8
DEBUG_ENGINEERING_LENGTHS
 62
140
100
AcDbCircle
 10
12950.646
 20
41284.109
 30
0.0
 40
100.0
  0
CIRCLE
  5
9C
330
17
100
AcDbEntity
  8
DEBUG_STATIONING
 62
11
100
AcDbCircle
 10
12950.646
 20
41284.109
 30
0.0
 40
80.0
  0
TEXT
  5
9D
330
17
100
AcDbEntity
  8
DEBUG_STATIONING
 62
11
100
AcDbText
 10
13050.646
 20
41384.109
 30
0.0
 40
100.0
  1
START
100
AcDbText
  0
CIRCLE
  5
9E
330
17
100
AcDbEntity
  8
DEBUG_STATIONING
 62
11
100
AcDbCircle
 10
12128.247
 20
41284.109
 30
0.0
 40
80.0
  0
TEXT
  5
9F
330
17
100
AcDbEntity
  8
DEBUG_STATIONING
 62
11
100
AcDbText
 10
12228.247
 20
41384.109
 30
0.0
 40
100.0
  1
0.25L
100
AcDbText
  0
CIRCLE
  5
A0
330
17
100
AcDbEntity
  8
DEBUG_STATIONING
 62
11
100
AcDbCircle
 10
11305.849
 20
41284.109
 30
0.0
 40
80.0
  0
TEXT
  5
A1
330
17
100
AcDbEntity
  8
DEBUG_STATIONING
 62
11
100
AcDbText
 10
11405.849
 20
41384.109
 30
0.0
 40
100.0
  1
0.50L
100
AcDbText
  0
CIRCLE
  5
A2
330
17
100
AcDbEntity
  8
DEBUG_STATIONING
 62
11
100
AcDbCircle
 10
10483.45
 20
41284.109
 30
0.0
 40
80.0
  0
TEXT
  5
A3
330
17
100
AcDbEntity
  8
DEBUG_STATIONING
 62
11
100
AcDbText
 10
10583.45
 20
41384.109
 30
0.0
 40
100.0
  1
0.75L
100
AcDbText
  0
CIRCLE
  5
A4
330
17
100
AcDbEntity
  8
DEBUG_STATIONING
 62
11
100
AcDbCircle
 10
9661.051
 20
41284.109
 30
0.0
 40
80.0
  0
TEXT
  5
A5
330
17
100
AcDbEntity
  8
DEBUG_STATIONING
 62
11
100
AcDbText
 10
9761.051
 20
41384.109
 30
0.0
 40
100.0
  1
END
100
AcDbText
  0
TEXT
  5
A6
330
17
100
AcDbEntity
  8
DEBUG_GRAPH
 62
7
100
AcDbText
 10
12750.646
 20
41084.109
 30
0.0
 40
140.0
  1
B5S0→SL
100
AcDbText
  0
CIRCLE
  5
A7
330
17
100
AcDbEntity
  8
DEBUG_BEAM_SUPPORTS
 62
1
100
AcDbCircle
 10
12950.646
 20
41284.109
 30
0.0
 40
120.0
  0
TEXT
  5
A8
330
17
100
AcDbEntity
  8
DEBUG_BEAM_SUPPORTS
 62
1
100
AcDbText
 10
13100.646
 20
41434.109
 30
0.0
 40
120.0
  1
BEAM:B13
100
AcDbText
  0
CIRCLE
  5
A9
330
17
100
AcDbEntity
  8
DEBUG_BEAM_SUPPORTS
 62
1
100
AcDbCircle
 10
9561.051
 20
41284.109
 30
0.0
 40
120.0
  0
TEXT
  5
AA
330
17
100
AcDbEntity
  8
DEBUG_BEAM_SUPPORTS
 62
1
100
AcDbText
 10
9711.051
 20
41434.109
 30
0.0
 40
120.0
  1
BEAM:B12
100
AcDbText
  0
LINE
  5
AB
330
17
100
AcDbEntity
  8
DEBUG_BEAM_CENTERLINE
 62
3
100
AcDbLine
 10
14819.463
 20
41871.066
 30
0.0
 11
16908.044
 21
42245.434
 31
0.0
  0
TEXT
  5
AC
330
17
100
AcDbEntity
  8
DEBUG_BEAM_GEOMETRY
 62
2
100
AcDbText
 10
15863.7535
 20
42058.25
 30
0.0
 40
180.0
  1
B6
100
AcDbText
  0
LWPOLYLINE
  5
AD
330
17
100
AcDbEntity
  8
DEBUG_BEAM_GEOMETRY
 62
8
100
AcDbPolyline
 90
5
 70
0
 10
14819.463
 20
41871.066
 10
16908.044
 20
41871.066
 10
16908.044
 20
42245.434
 10
14819.463
 20
42245.434
 10
14819.463
 20
41871.066
  0
TEXT
  5
AE
330
17
100
AcDbEntity
  8
DEBUG_DIMENSIONS
 62
5
100
AcDbText
 10
16113.7535
 20
42308.25
 30
0.0
 40
200.0
  1
B6200×600
100
AcDbText
  0
TEXT
  5
AF
330
17
100
AcDbEntity
  8
DEBUG_SECTION
 62
4
100
AcDbText
 10
15563.7535
 20
41758.25
 30
0.0
 40
180.0
  1
B6200x600DEEP_SECTION
100
AcDbText
  0
TEXT
  5
B0
330
17
100
AcDbEntity
  8
DEBUG_ENGINEERING_LENGTHS
 62
140
100
AcDbText
 10
16263.7535
 20
41658.25
 30
0.0
 40
160.0
  1
B6CL=2121CS=1659
100
AcDbText
  0
CIRCLE
  5
B1
330
17
100
AcDbEntity
  8
DEBUG_ENGINEERING_LENGTHS
 62
140
100
AcDbCircle
 10
14819.463
 20
41871.066
 30
0.0
 40
190.316
  0
CIRCLE
  5
B2
330
17
100
AcDbEntity
  8
DEBUG_ENGINEERING_LENGTHS
 62
140
100
AcDbCircle
 10
16908.044
 20
42245.434
 30
0.0
 40
271.652
  0
CIRCLE
  5
B3
330
17
100
AcDbEntity
  8
DEBUG_STATIONING
 62
11
100
AcDbCircle
 10
14819.463
 20
41871.066
 30
0.0
 40
80.0
  0
TEXT
  5
B4
330
17
100
AcDbEntity
  8
DEBUG_STATIONING
 62
11
100
AcDbText
 10
14919.463
 20
41971.066
 30
0.0
 40
100.0
  1
START
100
AcDbText
  0
CIRCLE
  5
B5
330
17
100
AcDbEntity
  8
DEBUG_STATIONING
 62
11
100
AcDbCircle
 10
15227.928
 20
41944.281
 30
0.0
 40
80.0
  0
TEXT
  5
B6
330
17
100
AcDbEntity
  8
DEBUG_STATIONING
 62
11
100
AcDbText
 10
15327.928
 20
42044.281
 30
0.0
 40
100.0
  1
0.25L
100
AcDbText
  0
CIRCLE
  5
B7
330
17
100
AcDbEntity
  8
DEBUG_STATIONING
 62
11
100
AcDbCircle
 10
15636.393
 20
42017.496
 30
0.0
 40
80.0
  0
TEXT
  5
B8
330
17
100
AcDbEntity
  8
DEBUG_STATIONING
 62
11
100
AcDbText
 10
15736.393
 20
42117.496
 30
0.0
 40
100.0
  1
0.50L
100
AcDbText
  0
CIRCLE
  5
B9
330
17
100
AcDbEntity
  8
DEBUG_STATIONING
 62
11
100
AcDbCircle
 10
16044.858
 20
42090.712
 30
0.0
 40
80.0
  0
TEXT
  5
BA
330
17
100
AcDbEntity
  8
DEBUG_STATIONING
 62
11
100
AcDbText
 10
16144.858
 20
42190.712
 30
0.0
 40
100.0
  1
0.75L
100
AcDbText
  0
CIRCLE
  5
BB
330
17
100
AcDbEntity
  8
DEBUG_STATIONING
 62
11
100
AcDbCircle
 10
16453.323
 20
42163.927
 30
0.0
 40
80.0
  0
TEXT
  5
BC
330
17
100
AcDbEntity
  8
DEBUG_STATIONING
 62
11
100
AcDbText
 10
16553.323
 20
42263.927
 30
0.0
 40
100.0
  1
END
100
AcDbText
  0
TEXT
  5
BD
330
17
100
AcDbEntity
  8
DEBUG_GRAPH
 62
7
100
AcDbText
 10
14619.463
 20
41671.066
 30
0.0
 40
140.0
  1
B6S0→SL
100
AcDbText
  0
CIRCLE
  5
BE
330
17
100
AcDbEntity
  8
DEBUG_BEAM_SUPPORTS
 62
1
100
AcDbCircle
 10
14819.463
 20
41871.066
 30
0.0
 40
120.0
  0
TEXT
  5
BF
330
17
100
AcDbEntity
  8
DEBUG_BEAM_SUPPORTS
 62
1
100
AcDbText
 10
14969.463
 20
42021.066
 30
0.0
 40
120.0
  1
COLUMN:COLUMN_5
100
AcDbText
  0
CIRCLE
  5
C0
330
17
100
AcDbEntity
  8
DEBUG_BEAM_SUPPORTS
 62
1
100
AcDbCircle
 10
16908.044
 20
42245.434
 30
0.0
 40
120.0
  0
TEXT
  5
C1
330
17
100
AcDbEntity
  8
DEBUG_BEAM_SUPPORTS
 62
1
100
AcDbText
 10
17058.044
 20
42395.434
 30
0.0
 40
120.0
  1
WALL:WALL_77
100
AcDbText
  0
LINE
  5
C2
330
17
100
AcDbEntity
  8
DEBUG_BEAM_CENTERLINE
 62
3
100
AcDbLine
 10
17104.906
 20
42280.721
 30
0.0
 11
23921.252
 21
43502.519
 31
0.0
  0
TEXT
  5
C3
330
17
100
AcDbEntity
  8
DEBUG_BEAM_GEOMETRY
 62
2
100
AcDbText
 10
20513.078999999998
 20
42891.619999999995
 30
0.0
 40
180.0
  1
B7
100
AcDbText
  0
LWPOLYLINE
  5
C4
330
17
100
AcDbEntity
  8
DEBUG_BEAM_GEOMETRY
 62
8
100
AcDbPolyline
 90
5
 70
0
 10
17104.906
 20
42280.721
 10
23921.252
 20
42280.721
 10
23921.252
 20
43502.519
 10
17104.906
 20
43502.519
 10
17104.906
 20
42280.721
  0
TEXT
  5
C5
330
17
100
AcDbEntity
  8
DEBUG_DIMENSIONS
 62
5
100
AcDbText
 10
20763.078999999998
 20
43141.619999999995
 30
0.0
 40
200.0
  1
B7200×600
100
AcDbText
  0
TEXT
  5
C6
330
17
100
AcDbEntity
  8
DEBUG_SECTION
 62
4
100
AcDbText
 10
20213.078999999998
 20
42591.619999999995
 30
0.0
 40
180.0
  1
B7200x600DEEP_SECTION
100
AcDbText
  0
TEXT
  5
C7
330
17
100
AcDbEntity
  8
DEBUG_ENGINEERING_LENGTHS
 62
140
100
AcDbText
 10
20913.078999999998
 20
42491.619999999995
 30
0.0
 40
160.0
  1
B7CL=6924CS=6924
100
AcDbText
  0
CIRCLE
  5
C8
330
17
100
AcDbEntity
  8
DEBUG_STATIONING
 62
11
100
AcDbCircle
 10
17104.906
 20
42280.721
 30
0.0
 40
80.0
  0
TEXT
  5
C9
330
17
100
AcDbEntity
  8
DEBUG_STATIONING
 62
11
100
AcDbText
 10
17204.906
 20
42380.721
 30
0.0
 40
100.0
  1
START
100
AcDbText
  0
CIRCLE
  5
CA
330
17
100
AcDbEntity
  8
DEBUG_STATIONING
 62
11
100
AcDbCircle
 10
18808.993
 20
42586.17
 30
0.0
 40
80.0
  0
TEXT
  5
CB
330
17
100
AcDbEntity
  8
DEBUG_STATIONING
 62
11
100
AcDbText
 10
18908.993
 20
42686.17
 30
0.0
 40
100.0
  1
0.25L
100
AcDbText
  0
CIRCLE
  5
CC
330
17
100
AcDbEntity
  8
DEBUG_STATIONING
 62
11
100
AcDbCircle
 10
20513.08
 20
42891.619
 30
0.0
 40
80.0
  0
TEXT
  5
CD
330
17
100
AcDbEntity
  8
DEBUG_STATIONING
 62
11
100
AcDbText
 10
20613.08
 20
42991.619
 30
0.0
 40
100.0
  1
0.50L
100
AcDbText
  0
CIRCLE
  5
CE
330
17
100
AcDbEntity
  8
DEBUG_STATIONING
 62
11
100
AcDbCircle
 10
22217.168
 20
43197.067
 30
0.0
 40
80.0
  0
TEXT
  5
CF
330
17
100
AcDbEntity
  8
DEBUG_STATIONING
 62
11
100
AcDbText
 10
22317.168
 20
43297.067
 30
0.0
 40
100.0
  1
0.75L
100
AcDbText
  0
CIRCLE
  5
D0
330
17
100
AcDbEntity
  8
DEBUG_STATIONING
 62
11
100
AcDbCircle
 10
23921.255
 20
43502.516
 30
0.0
 40
80.0
  0
TEXT
  5
D1
330
17
100
AcDbEntity
  8
DEBUG_STATIONING
 62
11
100
AcDbText
 10
24021.255
 20
43602.516
 30
0.0
 40
100.0
  1
END
100
AcDbText
  0
TEXT
  5
D2
330
17
100
AcDbEntity
  8
DEBUG_GRAPH
 62
7
100
AcDbText
 10
16904.906
 20
42080.721
 30
0.0
 40
140.0
  1
B7S0→SL
100
AcDbText
  0
CIRCLE
  5
D3
330
17
100
AcDbEntity
  8
DEBUG_BEAM_SUPPORTS
 62
1
100
AcDbCircle
 10
17104.906
 20
42280.721
 30
0.0
 40
120.0
  0
TEXT
  5
D4
330
17
100
AcDbEntity
  8
DEBUG_BEAM_SUPPORTS
 62
1
100
AcDbText
 10
17254.906
 20
42430.721
 30
0.0
 40
120.0
  1
WALL:WALL_77
100
AcDbText
  0
CIRCLE
  5
D5
330
17
100
AcDbEntity
  8
DEBUG_BEAM_SUPPORTS
 62
1
100
AcDbCircle
 10
23921.252
 20
43502.519
 30
0.0
 40
120.0
  0
TEXT
  5
D6
330
17
100
AcDbEntity
  8
DEBUG_BEAM_SUPPORTS
 62
1
100
AcDbText
 10
24071.252
 20
43652.519
 30
0.0
 40
120.0
  1
WALL:WALL_77
100
AcDbText
  0
LINE
  5
D7
330
17
100
AcDbEntity
  8
DEBUG_BEAM_CENTERLINE
 62
3
100
AcDbLine
 10
7451.529
 20
43657.175
 30
0.0
 11
7531.91
 21
41455.527
 31
0.0
  0
TEXT
  5
D8
330
17
100
AcDbEntity
  8
DEBUG_BEAM_GEOMETRY
 62
2
100
AcDbText
 10
7491.7195
 20
42556.351
 30
0.0
 40
180.0
  1
B8
100
AcDbText
  0
LWPOLYLINE
  5
D9
330
17
100
AcDbEntity
  8
DEBUG_BEAM_GEOMETRY
 62
8
100
AcDbPolyline
 90
5
 70
0
 10
7451.529
 20
41455.527
 10
7531.91
 20
41455.527
 10
7531.91
 20
43657.175
 10
7451.529
 20
43657.175
 10
7451.529
 20
41455.527
  0
TEXT
  5
DA
330
17
100
AcDbEntity
  8
DEBUG_DIMENSIONS
 62
5
100
AcDbText
 10
7741.7195
 20
42806.351
 30
0.0
 40
200.0
  1
B8200×600
100
AcDbText
  0
TEXT
  5
DB
330
17
100
AcDbEntity
  8
DEBUG_SECTION
 62
4
100
AcDbText
 10
7191.7195
 20
42256.351
 30
0.0
 40
180.0
  1
B8200x600DEEP_SECTION
100
AcDbText
  0
TEXT
  5
DC
330
17
100
AcDbEntity
  8
DEBUG_ENGINEERING_LENGTHS
 62
140
100
AcDbText
 10
7891.7195
 20
42156.351
 30
0.0
 40
160.0
  1
B8CL=2203CS=2144
100
AcDbText
  0
CIRCLE
  5
DD
330
17
100
AcDbEntity
  8
DEBUG_ENGINEERING_LENGTHS
 62
140
100
AcDbCircle
 10
7531.91
 20
41455.527
 30
0.0
 40
58.262
  0
CIRCLE
  5
DE
330
17
100
AcDbEntity
  8
DEBUG_STATIONING
 62
11
100
AcDbCircle
 10
7451.529
 20
43657.175
 30
0.0
 40
80.0
  0
TEXT
  5
DF
330
17
100
AcDbEntity
  8
DEBUG_STATIONING
 62
11
100
AcDbText
 10
7551.529
 20
43757.175
 30
0.0
 40
100.0
  1
START
100
AcDbText
  0
CIRCLE
  5
E0
330
17
100
AcDbEntity
  8
DEBUG_STATIONING
 62
11
100
AcDbCircle
 10
7471.093
 20
43121.319
 30
0.0
 40
80.0
  0
TEXT
  5
E1
330
17
100
AcDbEntity
  8
DEBUG_STATIONING
 62
11
100
AcDbText
 10
7571.093
 20
43221.319
 30
0.0
 40
100.0
  1
0.25L
100
AcDbText
  0
CIRCLE
  5
E2
330
17
100
AcDbEntity
  8
DEBUG_STATIONING
 62
11
100
AcDbCircle
 10
7490.656
 20
42585.463
 30
0.0
 40
80.0
  0
TEXT
  5
E3
330
17
100
AcDbEntity
  8
DEBUG_STATIONING
 62
11
100
AcDbText
 10
7590.656
 20
42685.463
 30
0.0
 40
100.0
  1
0.50L
100
AcDbText
  0
CIRCLE
  5
E4
330
17
100
AcDbEntity
  8
DEBUG_STATIONING
 62
11
100
AcDbCircle
 10
7510.22
 20
42049.607
 30
0.0
 40
80.0
  0
TEXT
  5
E5
330
17
100
AcDbEntity
  8
DEBUG_STATIONING
 62
11
100
AcDbText
 10
7610.22
 20
42149.607
 30
0.0
 40
100.0
  1
0.75L
100
AcDbText
  0
CIRCLE
  5
E6
330
17
100
AcDbEntity
  8
DEBUG_STATIONING
 62
11
100
AcDbCircle
 10
7529.784
 20
41513.75
 30
0.0
 40
80.0
  0
TEXT
  5
E7
330
17
100
AcDbEntity
  8
DEBUG_STATIONING
 62
11
100
AcDbText
 10
7629.784
 20
41613.75
 30
0.0
 40
100.0
  1
END
100
AcDbText
  0
TEXT
  5
E8
330
17
100
AcDbEntity
  8
DEBUG_GRAPH
 62
7
100
AcDbText
 10
7251.529
 20
43457.175
 30
0.0
 40
140.0
  1
B8S0→SL
100
AcDbText
  0
CIRCLE
  5
E9
330
17
100
AcDbEntity
  8
DEBUG_BEAM_SUPPORTS
 62
1
100
AcDbCircle
 10
7451.529
 20
43657.175
 30
0.0
 40
120.0
  0
TEXT
  5
EA
330
17
100
AcDbEntity
  8
DEBUG_BEAM_SUPPORTS
 62
1
100
AcDbText
 10
7601.529
 20
43807.175
 30
0.0
 40
120.0
  1
WALL:WALL_29
100
AcDbText
  0
CIRCLE
  5
EB
330
17
100
AcDbEntity
  8
DEBUG_BEAM_SUPPORTS
 62
1
100
AcDbCircle
 10
7531.91
 20
41455.527
 30
0.0
 40
120.0
  0
TEXT
  5
EC
330
17
100
AcDbEntity
  8
DEBUG_BEAM_SUPPORTS
 62
1
100
AcDbText
 10
7681.91
 20
41605.527
 30
0.0
 40
120.0
  1
WALL:WALL_36
100
AcDbText
  0
LINE
  5
ED
330
17
100
AcDbEntity
  8
DEBUG_BEAM_CENTERLINE
 62
3
100
AcDbLine
 10
7870.017
 20
40732.805
 30
0.0
 11
10252.033
 21
39003.331
 31
0.0
  0
TEXT
  5
EE
330
17
100
AcDbEntity
  8
DEBUG_BEAM_GEOMETRY
 62
2
100
AcDbText
 10
9061.025
 20
39868.068
 30
0.0
 40
180.0
  1
B9
100
AcDbText
  0
LWPOLYLINE
  5
EF
330
17
100
AcDbEntity
  8
DEBUG_BEAM_GEOMETRY
 62
8
100
AcDbPolyline
 90
5
 70
0
 10
7870.017
 20
39003.331
 10
10252.033
 20
39003.331
 10
10252.033
 20
40732.805
 10
7870.017
 20
40732.805
 10
7870.017
 20
39003.331
  0
TEXT
  5
F0
330
17
100
AcDbEntity
  8
DEBUG_DIMENSIONS
 62
5
100
AcDbText
 10
9311.025
 20
40118.068
 30
0.0
 40
200.0
  1
B9200×600
100
AcDbText
  0
TEXT
  5
F1
330
17
100
AcDbEntity
  8
DEBUG_SECTION
 62
4
100
AcDbText
 10
8761.025
 20
39568.068
 30
0.0
 40
180.0
  1
B9200x600DEEP_SECTION
100
AcDbText
  0
TEXT
  5
F2
330
17
100
AcDbEntity
  8
DEBUG_ENGINEERING_LENGTHS
 62
140
100
AcDbText
 10
9461.025
 20
39468.068
 30
0.0
 40
160.0
  1
B9CL=2943CS=2805
100
AcDbText
  0
CIRCLE
  5
F3
330
17
100
AcDbEntity
  8
DEBUG_ENGINEERING_LENGTHS
 62
140
100
AcDbCircle
 10
7870.017
 20
40732.805
 30
0.0
 40
138.461
  0
CIRCLE
  5
F4
330
17
100
AcDbEntity
  8
DEBUG_STATIONING
 62
11
100
AcDbCircle
 10
7870.017
 20
40732.805
 30
0.0
 40
80.0
  0
TEXT
  5
F5
330
17
100
AcDbEntity
  8
DEBUG_STATIONING
 62
11
100
AcDbText
 10
7970.017
 20
40832.805
 30
0.0
 40
100.0
  1
START
100
AcDbText
  0
CIRCLE
  5
F6
330
17
100
AcDbEntity
  8
DEBUG_STATIONING
 62
11
100
AcDbCircle
 10
8437.51
 20
40320.774
 30
0.0
 40
80.0
  0
TEXT
  5
F7
330
17
100
AcDbEntity
  8
DEBUG_STATIONING
 62
11
100
AcDbText
 10
8537.51
 20
40420.774
 30
0.0
 40
100.0
  1
0.25L
100
AcDbText
  0
CIRCLE
  5
F8
330
17
100
AcDbEntity
  8
DEBUG_STATIONING
 62
11
100
AcDbCircle
 10
9005.004
 20
39908.743
 30
0.0
 40
80.0
  0
TEXT
  5
F9
330
17
100
AcDbEntity
  8
DEBUG_STATIONING
 62
11
100
AcDbText
 10
9105.004
 20
40008.743
 30
0.0
 40
100.0
  1
0.50L
100
AcDbText
  0
CIRCLE
  5
FA
330
17
100
AcDbEntity
  8
DEBUG_STATIONING
 62
11
100
AcDbCircle
 10
9572.497
 20
39496.711
 30
0.0
 40
80.0
  0
TEXT
  5
FB
330
17
100
AcDbEntity
  8
DEBUG_STATIONING
 62
11
100
AcDbText
 10
9672.497
 20
39596.711
 30
0.0
 40
100.0
  1
0.75L
100
AcDbText
  0
CIRCLE
  5
FC
330
17
100
AcDbEntity
  8
DEBUG_STATIONING
 62
11
100
AcDbCircle
 10
10139.991
 20
39084.68
 30
0.0
 40
80.0
  0
TEXT
  5
FD
330
17
100
AcDbEntity
  8
DEBUG_STATIONING
 62
11
100
AcDbText
 10
10239.991
 20
39184.68
 30
0.0
 40
100.0
  1
END
100
AcDbText
  0
TEXT
  5
FE
330
17
100
AcDbEntity
  8
DEBUG_GRAPH
 62
7
100
AcDbText
 10
7670.017
 20
40532.805
 30
0.0
 40
140.0
  1
B9S0→SL
100
AcDbText
  0
CIRCLE
  5
FF
330
17
100
AcDbEntity
  8
DEBUG_BEAM_SUPPORTS
 62
1
100
AcDbCircle
 10
7870.017
 20
40732.805
 30
0.0
 40
120.0
  0
TEXT
  5
100
330
17
100
AcDbEntity
  8
DEBUG_BEAM_SUPPORTS
 62
1
100
AcDbText
 10
8020.017
 20
40882.805
 30
0.0
 40
120.0
  1
COLUMN:COLUMN_4
100
AcDbText
  0
CIRCLE
  5
101
330
17
100
AcDbEntity
  8
DEBUG_BEAM_SUPPORTS
 62
1
100
AcDbCircle
 10
10252.033
 20
39003.331
 30
0.0
 40
120.0
  0
TEXT
  5
102
330
17
100
AcDbEntity
  8
DEBUG_BEAM_SUPPORTS
 62
1
100
AcDbText
 10
10402.033
 20
39153.331
 30
0.0
 40
120.0
  1
FREE_END:None
100
AcDbText
  0
LINE
  5
103
330
17
100
AcDbEntity
  8
DEBUG_BEAM_CENTERLINE
 62
3
100
AcDbLine
 10
11047.921
 20
39105.604
 30
0.0
 11
12950.646
 21
39615.338
 31
0.0
  0
TEXT
  5
104
330
17
100
AcDbEntity
  8
DEBUG_BEAM_GEOMETRY
 62
2
100
AcDbText
 10
11999.283500000001
 20
39360.471000000005
 30
0.0
 40
180.0
  1
B10
100
AcDbText
  0
LWPOLYLINE
  5
105
330
17
100
AcDbEntity
  8
DEBUG_BEAM_GEOMETRY
 62
8
100
AcDbPolyline
 90
5
 70
0
 10
11047.921
 20
39105.604
 10
12950.646
 20
39105.604
 10
12950.646
 20
39615.338
 10
11047.921
 20
39615.338
 10
11047.921
 20
39105.604
  0
TEXT
  5
106
330
17
100
AcDbEntity
  8
DEBUG_DIMENSIONS
 62
5
100
AcDbText
 10
12249.283500000001
 20
39610.471000000005
 30
0.0
 40
200.0
  1
B10200×600
100
AcDbText
  0
TEXT
  5
107
330
17
100
AcDbEntity
  8
DEBUG_SECTION
 62
4
100
AcDbText
 10
11699.283500000001
 20
39060.471000000005
 30
0.0
 40
180.0
  1
B10200x600DEEP_SECTION
100
AcDbText
  0
TEXT
  5
108
330
17
100
AcDbEntity
  8
DEBUG_ENGINEERING_LENGTHS
 62
140
100
AcDbText
 10
12399.283500000001
 20
38960.471000000005
 30
0.0
 40
160.0
  1
B10CL=1969CS=1949
100
AcDbText
  0
CIRCLE
  5
109
330
17
100
AcDbEntity
  8
DEBUG_ENGINEERING_LENGTHS
 62
140
100
AcDbCircle
 10
11047.921
 20
39105.604
 30
0.0
 40
20.134
  0
CIRCLE
  5
10A
330
17
100
AcDbEntity
  8
DEBUG_STATIONING
 62
11
100
AcDbCircle
 10
11047.921
 20
39105.604
 30
0.0
 40
80.0
  0
TEXT
  5
10B
330
17
100
AcDbEntity
  8
DEBUG_STATIONING
 62
11
100
AcDbText
 10
11147.921
 20
39205.604
 30
0.0
 40
100.0
  1
START
100
AcDbText
  0
CIRCLE
  5
10C
330
17
100
AcDbEntity
  8
DEBUG_STATIONING
 62
11
100
AcDbCircle
 10
11518.74
 20
39231.735
 30
0.0
 40
80.0
  0
TEXT
  5
10D
330
17
100
AcDbEntity
  8
DEBUG_STATIONING
 62
11
100
AcDbText
 10
11618.74
 20
39331.735
 30
0.0
 40
100.0
  1
0.25L
100
AcDbText
  0
CIRCLE
  5
10E
330
17
100
AcDbEntity
  8
DEBUG_STATIONING
 62
11
100
AcDbCircle
 10
11989.559
 20
39357.866
 30
0.0
 40
80.0
  0
TEXT
  5
10F
330
17
100
AcDbEntity
  8
DEBUG_STATIONING
 62
11
100
AcDbText
 10
12089.559
 20
39457.866
 30
0.0
 40
100.0
  1
0.50L
100
AcDbText
  0
CIRCLE
  5
110
330
17
100
AcDbEntity
  8
DEBUG_STATIONING
 62
11
100
AcDbCircle
 10
12460.378
 20
39483.997
 30
0.0
 40
80.0
  0
TEXT
  5
111
330
17
100
AcDbEntity
  8
DEBUG_STATIONING
 62
11
100
AcDbText
 10
12560.378
 20
39583.997
 30
0.0
 40
100.0
  1
0.75L
100
AcDbText
  0
CIRCLE
  5
112
330
17
100
AcDbEntity
  8
DEBUG_STATIONING
 62
11
100
AcDbCircle
 10
12931.197
 20
39610.128
 30
0.0
 40
80.0
  0
TEXT
  5
113
330
17
100
AcDbEntity
  8
DEBUG_STATIONING
 62
11
100
AcDbText
 10
13031.197
 20
39710.128
 30
0.0
 40
100.0
  1
END
100
AcDbText
  0
TEXT
  5
114
330
17
100
AcDbEntity
  8
DEBUG_GRAPH
 62
7
100
AcDbText
 10
10847.921
 20
38905.604
 30
0.0
 40
140.0
  1
B10S0→SL
100
AcDbText
  0
CIRCLE
  5
115
330
17
100
AcDbEntity
  8
DEBUG_BEAM_SUPPORTS
 62
1
100
AcDbCircle
 10
11047.921
 20
39105.604
 30
0.0
 40
120.0
  0
TEXT
  5
116
330
17
100
AcDbEntity
  8
DEBUG_BEAM_SUPPORTS
 62
1
100
AcDbText
 10
11197.921
 20
39255.604
 30
0.0
 40
120.0
  1
BEAM:B11
100
AcDbText
  0
CIRCLE
  5
117
330
17
100
AcDbEntity
  8
DEBUG_BEAM_SUPPORTS
 62
1
100
AcDbCircle
 10
12950.646
 20
39615.338
 30
0.0
 40
120.0
  0
TEXT
  5
118
330
17
100
AcDbEntity
  8
DEBUG_BEAM_SUPPORTS
 62
1
100
AcDbText
 10
13100.646
 20
39765.338
 30
0.0
 40
120.0
  1
FREE_END:None
100
AcDbText
  0
LINE
  5
119
330
17
100
AcDbEntity
  8
DEBUG_BEAM_CENTERLINE
 62
3
100
AcDbLine
 10
11044.701
 20
38905.599
 30
0.0
 11
14321.653
 21
40697.331
 31
0.0
  0
TEXT
  5
11A
330
17
100
AcDbEntity
  8
DEBUG_BEAM_GEOMETRY
 62
2
100
AcDbText
 10
12683.177
 20
39801.465
 30
0.0
 40
180.0
  1
B11
100
AcDbText
  0
LWPOLYLINE
  5
11B
330
17
100
AcDbEntity
  8
DEBUG_BEAM_GEOMETRY
 62
8
100
AcDbPolyline
 90
5
 70
0
 10
11044.701
 20
38905.599
 10
14321.653
 20
38905.599
 10
14321.653
 20
40697.331
 10
11044.701
 20
40697.331
 10
11044.701
 20
38905.599
  0
TEXT
  5
11C
330
17
100
AcDbEntity
  8
DEBUG_DIMENSIONS
 62
5
100
AcDbText
 10
12933.177
 20
40051.465
 30
0.0
 40
200.0
  1
B11150×600
100
AcDbText
  0
TEXT
  5
11D
330
17
100
AcDbEntity
  8
DEBUG_SECTION
 62
4
100
AcDbText
 10
12383.177
 20
39501.465
 30
0.0
 40
180.0
  1
B11150x600DEEP_SECTION
100
AcDbText
  0
TEXT
  5
11E
330
17
100
AcDbEntity
  8
DEBUG_ENGINEERING_LENGTHS
 62
140
100
AcDbText
 10
13083.177
 20
39401.465
 30
0.0
 40
160.0
  1
B11CL=3734CS=3400
100
AcDbText
  0
CIRCLE
  5
11F
330
17
100
AcDbEntity
  8
DEBUG_ENGINEERING_LENGTHS
 62
140
100
AcDbCircle
 10
11044.701
 20
38905.599
 30
0.0
 40
198.776
  0
CIRCLE
  5
120
330
17
100
AcDbEntity
  8
DEBUG_ENGINEERING_LENGTHS
 62
140
100
AcDbCircle
 10
14321.653
 20
40697.331
 30
0.0
 40
135.51
  0
CIRCLE
  5
121
330
17
100
AcDbEntity
  8
DEBUG_STATIONING
 62
11
100
AcDbCircle
 10
11044.701
 20
38905.599
 30
0.0
 40
80.0
  0
TEXT
  5
122
330
17
100
AcDbEntity
  8
DEBUG_STATIONING
 62
11
100
AcDbText
 10
11144.701
 20
39005.599
 30
0.0
 40
100.0
  1
START
100
AcDbText
  0
CIRCLE
  5
123
330
17
100
AcDbEntity
  8
DEBUG_STATIONING
 62
11
100
AcDbCircle
 10
11790.613
 20
39313.439
 30
0.0
 40
80.0
  0
TEXT
  5
124
330
17
100
AcDbEntity
  8
DEBUG_STATIONING
 62
11
100
AcDbText
 10
11890.613
 20
39413.439
 30
0.0
 40
100.0
  1
0.25L
100
AcDbText
  0
CIRCLE
  5
125
330
17
100
AcDbEntity
  8
DEBUG_STATIONING
 62
11
100
AcDbCircle
 10
12536.524
 20
39721.28
 30
0.0
 40
80.0
  0
TEXT
  5
126
330
17
100
AcDbEntity
  8
DEBUG_STATIONING
 62
11
100
AcDbText
 10
12636.524
 20
39821.28
 30
0.0
 40
100.0
  1
0.50L
100
AcDbText
  0
CIRCLE
  5
127
330
17
100
AcDbEntity
  8
DEBUG_STATIONING
 62
11
100
AcDbCircle
 10
13282.436
 20
40129.12
 30
0.0
 40
80.0
  0
TEXT
  5
128
330
17
100
AcDbEntity
  8
DEBUG_STATIONING
 62
11
100
AcDbText
 10
13382.436
 20
40229.12
 30
0.0
 40
100.0
  1
0.75L
100
AcDbText
  0
CIRCLE
  5
129
330
17
100
AcDbEntity
  8
DEBUG_STATIONING
 62
11
100
AcDbCircle
 10
14028.348
 20
40536.961
 30
0.0
 40
80.0
  0
TEXT
  5
12A
330
17
100
AcDbEntity
  8
DEBUG_STATIONING
 62
11
100
AcDbText
 10
14128.348
 20
40636.961
 30
0.0
 40
100.0
  1
END
100
AcDbText
  0
TEXT
  5
12B
330
17
100
AcDbEntity
  8
DEBUG_GRAPH
 62
7
100
AcDbText
 10
10844.701
 20
38705.599
 30
0.0
 40
140.0
  1
B11S0→SL
100
AcDbText
  0
CIRCLE
  5
12C
330
17
100
AcDbEntity
  8
DEBUG_BEAM_SUPPORTS
 62
1
100
AcDbCircle
 10
11044.701
 20
38905.599
 30
0.0
 40
120.0
  0
TEXT
  5
12D
330
17
100
AcDbEntity
  8
DEBUG_BEAM_SUPPORTS
 62
1
100
AcDbText
 10
11194.701
 20
39055.599
 30
0.0
 40
120.0
  1
BEAM:B10
100
AcDbText
  0
CIRCLE
  5
12E
330
17
100
AcDbEntity
  8
DEBUG_BEAM_SUPPORTS
 62
1
100
AcDbCircle
 10
14321.653
 20
40697.331
 30
0.0
 40
120.0
  0
TEXT
  5
12F
330
17
100
AcDbEntity
  8
DEBUG_BEAM_SUPPORTS
 62
1
100
AcDbText
 10
14471.653
 20
40847.331
 30
0.0
 40
120.0
  1
WALL:WALL_45
100
AcDbText
  0
LINE
  5
130
330
17
100
AcDbEntity
  8
DEBUG_BEAM_CENTERLINE
 62
3
100
AcDbLine
 10
9361.051
 20
43784.472
 30
0.0
 11
9361.051
 21
41284.109
 31
0.0
  0
TEXT
  5
131
330
17
100
AcDbEntity
  8
DEBUG_BEAM_GEOMETRY
 62
2
100
AcDbText
 10
9361.051
 20
42534.2905
 30
0.0
 40
180.0
  1
B12
100
AcDbText
  0
LWPOLYLINE
  5
132
330
17
100
AcDbEntity
  8
DEBUG_BEAM_GEOMETRY
 62
8
100
AcDbPolyline
 90
5
 70
0
 10
9361.051
 20
41284.109
 10
9361.051
 20
41284.109
 10
9361.051
 20
43784.472
 10
9361.051
 20
43784.472
 10
9361.051
 20
41284.109
  0
TEXT
  5
133
330
17
100
AcDbEntity
  8
DEBUG_DIMENSIONS
 62
5
100
AcDbText
 10
9611.051
 20
42784.2905
 30
0.0
 40
200.0
  1
B12200×600
100
AcDbText
  0
TEXT
  5
134
330
17
100
AcDbEntity
  8
DEBUG_SECTION
 62
4
100
AcDbText
 10
9061.051
 20
42234.2905
 30
0.0
 40
180.0
  1
B12200x600DEEP_SECTION
100
AcDbText
  0
TEXT
  5
135
330
17
100
AcDbEntity
  8
DEBUG_ENGINEERING_LENGTHS
 62
140
100
AcDbText
 10
9761.051
 20
42134.2905
 30
0.0
 40
160.0
  1
B12CL=2500CS=2400
100
AcDbText
  0
CIRCLE
  5
136
330
17
100
AcDbEntity
  8
DEBUG_ENGINEERING_LENGTHS
 62
140
100
AcDbCircle
 10
9361.051
 20
41284.109
 30
0.0
 40
100.001
  0
CIRCLE
  5
137
330
17
100
AcDbEntity
  8
DEBUG_STATIONING
 62
11
100
AcDbCircle
 10
9361.051
 20
43784.472
 30
0.0
 40
80.0
  0
TEXT
  5
138
330
17
100
AcDbEntity
  8
DEBUG_STATIONING
 62
11
100
AcDbText
 10
9461.051
 20
43884.472
 30
0.0
 40
100.0
  1
START
100
AcDbText
  0
CIRCLE
  5
139
330
17
100
AcDbEntity
  8
DEBUG_STATIONING
 62
11
100
AcDbCircle
 10
9361.051
 20
43184.381
 30
0.0
 40
80.0
  0
TEXT
  5
13A
330
17
100
AcDbEntity
  8
DEBUG_STATIONING
 62
11
100
AcDbText
 10
9461.051
 20
43284.381
 30
0.0
 40
100.0
  1
0.25L
100
AcDbText
  0
CIRCLE
  5
13B
330
17
100
AcDbEntity
  8
DEBUG_STATIONING
 62
11
100
AcDbCircle
 10
9361.051
 20
42584.291
 30
0.0
 40
80.0
  0
TEXT
  5
13C
330
17
100
AcDbEntity
  8
DEBUG_STATIONING
 62
11
100
AcDbText
 10
9461.051
 20
42684.291
 30
0.0
 40
100.0
  1
0.50L
100
AcDbText
  0
CIRCLE
  5
13D
330
17
100
AcDbEntity
  8
DEBUG_STATIONING
 62
11
100
AcDbCircle
 10
9361.051
 20
41984.2
 30
0.0
 40
80.0
  0
TEXT
  5
13E
330
17
100
AcDbEntity
  8
DEBUG_STATIONING
 62
11
100
AcDbText
 10
9461.051
 20
42084.2
 30
0.0
 40
100.0
  1
0.75L
100
AcDbText
  0
CIRCLE
  5
13F
330
17
100
AcDbEntity
  8
DEBUG_STATIONING
 62
11
100
AcDbCircle
 10
9361.051
 20
41384.109
 30
0.0
 40
80.0
  0
TEXT
  5
140
330
17
100
AcDbEntity
  8
DEBUG_STATIONING
 62
11
100
AcDbText
 10
9461.051
 20
41484.109
 30
0.0
 40
100.0
  1
END
100
AcDbText
  0
TEXT
  5
141
330
17
100
AcDbEntity
  8
DEBUG_GRAPH
 62
7
100
AcDbText
 10
9161.051
 20
43584.472
 30
0.0
 40
140.0
  1
B12S0→SL
100
AcDbText
  0
CIRCLE
  5
142
330
17
100
AcDbEntity
  8
DEBUG_BEAM_SUPPORTS
 62
1
100
AcDbCircle
 10
9361.051
 20
43784.472
 30
0.0
 40
120.0
  0
TEXT
  5
143
330
17
100
AcDbEntity
  8
DEBUG_BEAM_SUPPORTS
 62
1
100
AcDbText
 10
9511.051
 20
43934.472
 30
0.0
 40
120.0
  1
BEAM:B4
100
AcDbText
  0
CIRCLE
  5
144
330
17
100
AcDbEntity
  8
DEBUG_BEAM_SUPPORTS
 62
1
100
AcDbCircle
 10
9361.051
 20
41284.109
 30
0.0
 40
120.0
  0
TEXT
  5
145
330
17
100
AcDbEntity
  8
DEBUG_BEAM_SUPPORTS
 62
1
100
AcDbText
 10
9511.051
 20
41434.109
 30
0.0
 40
120.0
  1
BEAM:B5
100
AcDbText
  0
LINE
  5
146
330
17
100
AcDbEntity
  8
DEBUG_BEAM_CENTERLINE
 62
3
100
AcDbLine
 10
12950.646
 20
43784.472
 30
0.0
 11
12950.646
 21
41284.109
 31
0.0
  0
TEXT
  5
147
330
17
100
AcDbEntity
  8
DEBUG_BEAM_GEOMETRY
 62
2
100
AcDbText
 10
12950.646
 20
42534.2905
 30
0.0
 40
180.0
  1
B13
100
AcDbText
  0
LWPOLYLINE
  5
148
330
17
100
AcDbEntity
  8
DEBUG_BEAM_GEOMETRY
 62
8
100
AcDbPolyline
 90
5
 70
0
 10
12950.646
 20
41284.109
 10
12950.646
 20
41284.109
 10
12950.646
 20
43784.472
 10
12950.646
 20
43784.472
 10
12950.646
 20
41284.109
  0
TEXT
  5
149
330
17
100
AcDbEntity
  8
DEBUG_DIMENSIONS
 62
5
100
AcDbText
 10
13200.646
 20
42784.2905
 30
0.0
 40
200.0
  1
B13200×600
100
AcDbText
  0
TEXT
  5
14A
330
17
100
AcDbEntity
  8
DEBUG_SECTION
 62
4
100
AcDbText
 10
12650.646
 20
42234.2905
 30
0.0
 40
180.0
  1
B13200x600DEEP_SECTION
100
AcDbText
  0
TEXT
  5
14B
330
17
100
AcDbEntity
  8
DEBUG_ENGINEERING_LENGTHS
 62
140
100
AcDbText
 10
13350.646
 20
42134.2905
 30
0.0
 40
160.0
  1
B13CL=2500CS=2400
100
AcDbText
  0
CIRCLE
  5
14C
330
17
100
AcDbEntity
  8
DEBUG_ENGINEERING_LENGTHS
 62
140
100
AcDbCircle
 10
12950.646
 20
41284.109
 30
0.0
 40
100.001
  0
CIRCLE
  5
14D
330
17
100
AcDbEntity
  8
DEBUG_STATIONING
 62
11
100
AcDbCircle
 10
12950.646
 20
43784.472
 30
0.0
 40
80.0
  0
TEXT
  5
14E
330
17
100
AcDbEntity
  8
DEBUG_STATIONING
 62
11
100
AcDbText
 10
13050.646
 20
43884.472
 30
0.0
 40
100.0
  1
START
100
AcDbText
  0
CIRCLE
  5
14F
330
17
100
AcDbEntity
  8
DEBUG_STATIONING
 62
11
100
AcDbCircle
 10
12950.646
 20
43184.381
 30
0.0
 40
80.0
  0
TEXT
  5
150
330
17
100
AcDbEntity
  8
DEBUG_STATIONING
 62
11
100
AcDbText
 10
13050.646
 20
43284.381
 30
0.0
 40
100.0
  1
0.25L
100
AcDbText
  0
CIRCLE
  5
151
330
17
100
AcDbEntity
  8
DEBUG_STATIONING
 62
11
100
AcDbCircle
 10
12950.646
 20
42584.291
 30
0.0
 40
80.0
  0
TEXT
  5
152
330
17
100
AcDbEntity
  8
DEBUG_STATIONING
 62
11
100
AcDbText
 10
13050.646
 20
42684.291
 30
0.0
 40
100.0
  1
0.50L
100
AcDbText
  0
CIRCLE
  5
153
330
17
100
AcDbEntity
  8
DEBUG_STATIONING
 62
11
100
AcDbCircle
 10
12950.646
 20
41984.2
 30
0.0
 40
80.0
  0
TEXT
  5
154
330
17
100
AcDbEntity
  8
DEBUG_STATIONING
 62
11
100
AcDbText
 10
13050.646
 20
42084.2
 30
0.0
 40
100.0
  1
0.75L
100
AcDbText
  0
CIRCLE
  5
155
330
17
100
AcDbEntity
  8
DEBUG_STATIONING
 62
11
100
AcDbCircle
 10
12950.646
 20
41384.109
 30
0.0
 40
80.0
  0
TEXT
  5
156
330
17
100
AcDbEntity
  8
DEBUG_STATIONING
 62
11
100
AcDbText
 10
13050.646
 20
41484.109
 30
0.0
 40
100.0
  1
END
100
AcDbText
  0
TEXT
  5
157
330
17
100
AcDbEntity
  8
DEBUG_GRAPH
 62
7
100
AcDbText
 10
12750.646
 20
43584.472
 30
0.0
 40
140.0
  1
B13S0→SL
100
AcDbText
  0
CIRCLE
  5
158
330
17
100
AcDbEntity
  8
DEBUG_BEAM_SUPPORTS
 62
1
100
AcDbCircle
 10
12950.646
 20
43784.472
 30
0.0
 40
120.0
  0
TEXT
  5
159
330
17
100
AcDbEntity
  8
DEBUG_BEAM_SUPPORTS
 62
1
100
AcDbText
 10
13100.646
 20
43934.472
 30
0.0
 40
120.0
  1
BEAM:B4
100
AcDbText
  0
CIRCLE
  5
15A
330
17
100
AcDbEntity
  8
DEBUG_BEAM_SUPPORTS
 62
1
100
AcDbCircle
 10
12950.646
 20
41284.109
 30
0.0
 40
120.0
  0
TEXT
  5
15B
330
17
100
AcDbEntity
  8
DEBUG_BEAM_SUPPORTS
 62
1
100
AcDbText
 10
13100.646
 20
41434.109
 30
0.0
 40
120.0
  1
BEAM:B5
100
AcDbText
  0
LINE
  5
15C
330
17
100
AcDbEntity
  8
DEBUG_BEAM_CENTERLINE
 62
3
100
AcDbLine
 10
14585.252
 20
41196.321
 30
0.0
 11
13233.291
 21
45818.317
 31
0.0
  0
TEXT
  5
15D
330
17
100
AcDbEntity
  8
DEBUG_BEAM_GEOMETRY
 62
2
100
AcDbText
 10
13909.271499999999
 20
43507.319
 30
0.0
 40
180.0
  1
B14
100
AcDbText
  0
LWPOLYLINE
  5
15E
330
17
100
AcDbEntity
  8
DEBUG_BEAM_GEOMETRY
 62
8
100
AcDbPolyline
 90
5
 70
0
 10
13233.291
 20
41196.321
 10
14585.252
 20
41196.321
 10
14585.252
 20
45818.317
 10
13233.291
 20
45818.317
 10
13233.291
 20
41196.321
  0
TEXT
  5
15F
330
17
100
AcDbEntity
  8
DEBUG_DIMENSIONS
 62
5
100
AcDbText
 10
14159.271499999999
 20
43757.319
 30
0.0
 40
200.0
  1
B14200×600
100
AcDbText
  0
TEXT
  5
160
330
17
100
AcDbEntity
  8
DEBUG_SECTION
 62
4
100
AcDbText
 10
13609.271499999999
 20
43207.319
 30
0.0
 40
180.0
  1
B14200x600DEEP_SECTION
100
AcDbText
  0
TEXT
  5
161
330
17
100
AcDbEntity
  8
DEBUG_ENGINEERING_LENGTHS
 62
140
100
AcDbText
 10
14309.271499999999
 20
43107.319
 30
0.0
 40
160.0
  1
B14CL=4815CS=4072
100
AcDbText
  0
CIRCLE
  5
162
330
17
100
AcDbEntity
  8
DEBUG_ENGINEERING_LENGTHS
 62
140
100
AcDbCircle
 10
14585.252
 20
41196.321
 30
0.0
 40
354.871
  0
CIRCLE
  5
163
330
17
100
AcDbEntity
  8
DEBUG_ENGINEERING_LENGTHS
 62
140
100
AcDbCircle
 10
13233.291
 20
45818.317
 30
0.0
 40
388.087
  0
CIRCLE
  5
164
330
17
100
AcDbEntity
  8
DEBUG_STATIONING
 62
11
100
AcDbCircle
 10
14585.252
 20
41196.321
 30
0.0
 40
80.0
  0
TEXT
  5
165
330
17
100
AcDbEntity
  8
DEBUG_STATIONING
 62
11
100
AcDbText
 10
14685.252
 20
41296.321
 30
0.0
 40
100.0
  1
START
100
AcDbText
  0
CIRCLE
  5
166
330
17
100
AcDbEntity
  8
DEBUG_STATIONING
 62
11
100
AcDbCircle
 10
14299.407
 20
42173.55
 30
0.0
 40
80.0
  0
TEXT
  5
167
330
17
100
AcDbEntity
  8
DEBUG_STATIONING
 62
11
100
AcDbText
 10
14399.407
 20
42273.55
 30
0.0
 40
100.0
  1
0.25L
100
AcDbText
  0
CIRCLE
  5
168
330
17
100
AcDbEntity
  8
DEBUG_STATIONING
 62
11
100
AcDbCircle
 10
14013.562
 20
43150.779
 30
0.0
 40
80.0
  0
TEXT
  5
169
330
17
100
AcDbEntity
  8
DEBUG_STATIONING
 62
11
100
AcDbText
 10
14113.562
 20
43250.779
 30
0.0
 40
100.0
  1
0.50L
100
AcDbText
  0
CIRCLE
  5
16A
330
17
100
AcDbEntity
  8
DEBUG_STATIONING
 62
11
100
AcDbCircle
 10
13727.717
 20
44128.009
 30
0.0
 40
80.0
  0
TEXT
  5
16B
330
17
100
AcDbEntity
  8
DEBUG_STATIONING
 62
11
100
AcDbText
 10
13827.717
 20
44228.009
 30
0.0
 40
100.0
  1
0.75L
100
AcDbText
  0
CIRCLE
  5
16C
330
17
100
AcDbEntity
  8
DEBUG_STATIONING
 62
11
100
AcDbCircle
 10
13441.872
 20
45105.238
 30
0.0
 40
80.0
  0
TEXT
  5
16D
330
17
100
AcDbEntity
  8
DEBUG_STATIONING
 62
11
100
AcDbText
 10
13541.872
 20
45205.238
 30
0.0
 40
100.0
  1
END
100
AcDbText
  0
TEXT
  5
16E
330
17
100
AcDbEntity
  8
DEBUG_GRAPH
 62
7
100
AcDbText
 10
14385.252
 20
40996.321
 30
0.0
 40
140.0
  1
B14S0→SL
100
AcDbText
  0
CIRCLE
  5
16F
330
17
100
AcDbEntity
  8
DEBUG_BEAM_SUPPORTS
 62
1
100
AcDbCircle
 10
14585.252
 20
41196.321
 30
0.0
 40
120.0
  0
TEXT
  5
170
330
17
100
AcDbEntity
  8
DEBUG_BEAM_SUPPORTS
 62
1
100
AcDbText
 10
14735.252
 20
41346.321
 30
0.0
 40
120.0
  1
WALL:WALL_43
100
AcDbText
  0
CIRCLE
  5
171
330
17
100
AcDbEntity
  8
DEBUG_BEAM_SUPPORTS
 62
1
100
AcDbCircle
 10
13233.291
 20
45818.317
 30
0.0
 40
120.0
  0
TEXT
  5
172
330
17
100
AcDbEntity
  8
DEBUG_BEAM_SUPPORTS
 62
1
100
AcDbText
 10
13383.291
 20
45968.317
 30
0.0
 40
120.0
  1
WALL:WALL_34
100
AcDbText
  0
LINE
  5
173
330
17
100
AcDbEntity
  8
DEBUG_BEAM_CENTERLINE
 62
3
100
AcDbLine
 10
16306.581
 20
45590.867
 30
0.0
 11
16908.941
 21
42240.441
 31
0.0
  0
TEXT
  5
174
330
17
100
AcDbEntity
  8
DEBUG_BEAM_GEOMETRY
 62
2
100
AcDbText
 10
16607.761
 20
43915.653999999995
 30
0.0
 40
180.0
  1
B15
100
AcDbText
  0
LWPOLYLINE
  5
175
330
17
100
AcDbEntity
  8
DEBUG_BEAM_GEOMETRY
 62
8
100
AcDbPolyline
 90
5
 70
0
 10
16306.581
 20
42240.441
 10
16908.941
 20
42240.441
 10
16908.941
 20
45590.867
 10
16306.581
 20
45590.867
 10
16306.581
 20
42240.441
  0
TEXT
  5
176
330
17
100
AcDbEntity
  8
DEBUG_DIMENSIONS
 62
5
100
AcDbText
 10
16857.761
 20
44165.653999999995
 30
0.0
 40
200.0
  1
B15200×600
100
AcDbText
  0
TEXT
  5
177
330
17
100
AcDbEntity
  8
DEBUG_SECTION
 62
4
100
AcDbText
 10
16307.760999999999
 20
43615.653999999995
 30
0.0
 40
180.0
  1
B15200x600DEEP_SECTION
100
AcDbText
  0
TEXT
  5
178
330
17
100
AcDbEntity
  8
DEBUG_ENGINEERING_LENGTHS
 62
140
100
AcDbText
 10
17007.761
 20
43515.653999999995
 30
0.0
 40
160.0
  1
B15CL=3404CS=3404
100
AcDbText
  0
CIRCLE
  5
179
330
17
100
AcDbEntity
  8
DEBUG_STATIONING
 62
11
100
AcDbCircle
 10
16306.581
 20
45590.867
 30
0.0
 40
80.0
  0
TEXT
  5
17A
330
17
100
AcDbEntity
  8
DEBUG_STATIONING
 62
11
100
AcDbText
 10
16406.581
 20
45690.867
 30
0.0
 40
100.0
  1
START
100
AcDbText
  0
CIRCLE
  5
17B
330
17
100
AcDbEntity
  8
DEBUG_STATIONING
 62
11
100
AcDbCircle
 10
16457.171
 20
44753.261
 30
0.0
 40
80.0
  0
TEXT
  5
17C
330
17
100
AcDbEntity
  8
DEBUG_STATIONING
 62
11
100
AcDbText
 10
16557.171
 20
44853.261
 30
0.0
 40
100.0
  1
0.25L
100
AcDbText
  0
CIRCLE
  5
17D
330
17
100
AcDbEntity
  8
DEBUG_STATIONING
 62
11
100
AcDbCircle
 10
16607.761
 20
43915.654
 30
0.0
 40
80.0
  0
TEXT
  5
17E
330
17
100
AcDbEntity
  8
DEBUG_STATIONING
 62
11
100
AcDbText
 10
16707.761
 20
44015.654
 30
0.0
 40
100.0
  1
0.50L
100
AcDbText
  0
CIRCLE
  5
17F
330
17
100
AcDbEntity
  8
DEBUG_STATIONING
 62
11
100
AcDbCircle
 10
16758.351
 20
43078.048
 30
0.0
 40
80.0
  0
TEXT
  5
180
330
17
100
AcDbEntity
  8
DEBUG_STATIONING
 62
11
100
AcDbText
 10
16858.351
 20
43178.048
 30
0.0
 40
100.0
  1
0.75L
100
AcDbText
  0
CIRCLE
  5
181
330
17
100
AcDbEntity
  8
DEBUG_STATIONING
 62
11
100
AcDbCircle
 10
16908.941
 20
42240.441
 30
0.0
 40
80.0
  0
TEXT
  5
182
330
17
100
AcDbEntity
  8
DEBUG_STATIONING
 62
11
100
AcDbText
 10
17008.941
 20
42340.441
 30
0.0
 40
100.0
  1
END
100
AcDbText
  0
TEXT
  5
183
330
17
100
AcDbEntity
  8
DEBUG_GRAPH
 62
7
100
AcDbText
 10
16106.581
 20
45390.867
 30
0.0
 40
140.0
  1
B15S0→SL
100
AcDbText
  0
CIRCLE
  5
184
330
17
100
AcDbEntity
  8
DEBUG_BEAM_SUPPORTS
 62
1
100
AcDbCircle
 10
16306.581
 20
45590.867
 30
0.0
 40
120.0
  0
TEXT
  5
185
330
17
100
AcDbEntity
  8
DEBUG_BEAM_SUPPORTS
 62
1
100
AcDbText
 10
16456.581
 20
45740.867
 30
0.0
 40
120.0
  1
WALL:WALL_74
100
AcDbText
  0
CIRCLE
  5
186
330
17
100
AcDbEntity
  8
DEBUG_BEAM_SUPPORTS
 62
1
100
AcDbCircle
 10
16908.941
 20
42240.441
 30
0.0
 40
120.0
  0
TEXT
  5
187
330
17
100
AcDbEntity
  8
DEBUG_BEAM_SUPPORTS
 62
1
100
AcDbText
 10
17058.941
 20
42390.441
 30
0.0
 40
120.0
  1
WALL:WALL_77
100
AcDbText
  0
LINE
  5
188
330
17
100
AcDbEntity
  8
DEBUG_BEAM_CENTERLINE
 62
3
100
AcDbLine
 10
18655.273
 20
42558.155
 30
0.0
 11
18053.581
 21
45904.912
 31
0.0
  0
TEXT
  5
189
330
17
100
AcDbEntity
  8
DEBUG_BEAM_GEOMETRY
 62
2
100
AcDbText
 10
18354.427
 20
44231.5335
 30
0.0
 40
180.0
  1
B16
100
AcDbText
  0
LWPOLYLINE
  5
18A
330
17
100
AcDbEntity
  8
DEBUG_BEAM_GEOMETRY
 62
8
100
AcDbPolyline
 90
5
 70
0
 10
18053.581
 20
42558.155
 10
18655.273
 20
42558.155
 10
18655.273
 20
45904.912
 10
18053.581
 20
45904.912
 10
18053.581
 20
42558.155
  0
TEXT
  5
18B
330
17
100
AcDbEntity
  8
DEBUG_DIMENSIONS
 62
5
100
AcDbText
 10
18604.427
 20
44481.5335
 30
0.0
 40
200.0
  1
B16200×600
100
AcDbText
  0
TEXT
  5
18C
330
17
100
AcDbEntity
  8
DEBUG_SECTION
 62
4
100
AcDbText
 10
18054.427
 20
43931.5335
 30
0.0
 40
180.0
  1
B16200x600DEEP_SECTION
100
AcDbText
  0
TEXT
  5
18D
330
17
100
AcDbEntity
  8
DEBUG_ENGINEERING_LENGTHS
 62
140
100
AcDbText
 10
18754.427
 20
43831.5335
 30
0.0
 40
160.0
  1
B16CL=3400CS=3398
100
AcDbText
  0
CIRCLE
  5
18E
330
17
100
AcDbEntity
  8
DEBUG_ENGINEERING_LENGTHS
 62
140
100
AcDbCircle
 10
18655.273
 20
42558.155
 30
0.0
 40
1.379
  0
CIRCLE
  5
18F
330
17
100
AcDbEntity
  8
DEBUG_ENGINEERING_LENGTHS
 62
140
100
AcDbCircle
 10
18053.581
 20
45904.912
 30
0.0
 40
0.334
  0
CIRCLE
  5
190
330
17
100
AcDbEntity
  8
DEBUG_STATIONING
 62
11
100
AcDbCircle
 10
18655.273
 20
42558.155
 30
0.0
 40
80.0
  0
TEXT
  5
191
330
17
100
AcDbEntity
  8
DEBUG_STATIONING
 62
11
100
AcDbText
 10
18755.273
 20
42658.155
 30
0.0
 40
100.0
  1
START
100
AcDbText
  0
CIRCLE
  5
192
330
17
100
AcDbEntity
  8
DEBUG_STATIONING
 62
11
100
AcDbCircle
 10
18504.926
 20
43394.422
 30
0.0
 40
80.0
  0
TEXT
  5
193
330
17
100
AcDbEntity
  8
DEBUG_STATIONING
 62
11
100
AcDbText
 10
18604.926
 20
43494.422
 30
0.0
 40
100.0
  1
0.25L
100
AcDbText
  0
CIRCLE
  5
194
330
17
100
AcDbEntity
  8
DEBUG_STATIONING
 62
11
100
AcDbCircle
 10
18354.578
 20
44230.689
 30
0.0
 40
80.0
  0
TEXT
  5
195
330
17
100
AcDbEntity
  8
DEBUG_STATIONING
 62
11
100
AcDbText
 10
18454.578
 20
44330.689
 30
0.0
 40
100.0
  1
0.50L
100
AcDbText
  0
CIRCLE
  5
196
330
17
100
AcDbEntity
  8
DEBUG_STATIONING
 62
11
100
AcDbCircle
 10
18204.231
 20
45066.956
 30
0.0
 40
80.0
  0
TEXT
  5
197
330
17
100
AcDbEntity
  8
DEBUG_STATIONING
 62
11
100
AcDbText
 10
18304.231
 20
45166.956
 30
0.0
 40
100.0
  1
0.75L
100
AcDbText
  0
CIRCLE
  5
198
330
17
100
AcDbEntity
  8
DEBUG_STATIONING
 62
11
100
AcDbCircle
 10
18053.883
 20
45903.223
 30
0.0
 40
80.0
  0
TEXT
  5
199
330
17
100
AcDbEntity
  8
DEBUG_STATIONING
 62
11
100
AcDbText
 10
18153.883
 20
46003.223
 30
0.0
 40
100.0
  1
END
100
AcDbText
  0
TEXT
  5
19A
330
17
100
AcDbEntity
  8
DEBUG_GRAPH
 62
7
100
AcDbText
 10
18455.273
 20
42358.155
 30
0.0
 40
140.0
  1
B16S0→SL
100
AcDbText
  0
CIRCLE
  5
19B
330
17
100
AcDbEntity
  8
DEBUG_BEAM_SUPPORTS
 62
1
100
AcDbCircle
 10
18655.273
 20
42558.155
 30
0.0
 40
120.0
  0
TEXT
  5
19C
330
17
100
AcDbEntity
  8
DEBUG_BEAM_SUPPORTS
 62
1
100
AcDbText
 10
18805.273
 20
42708.155
 30
0.0
 40
120.0
  1
WALL:WALL_58
100
AcDbText
  0
CIRCLE
  5
19D
330
17
100
AcDbEntity
  8
DEBUG_BEAM_SUPPORTS
 62
1
100
AcDbCircle
 10
18053.581
 20
45904.912
 30
0.0
 40
120.0
  0
TEXT
  5
19E
330
17
100
AcDbEntity
  8
DEBUG_BEAM_SUPPORTS
 62
1
100
AcDbText
 10
18203.581
 20
46054.912
 30
0.0
 40
120.0
  1
WALL:WALL_50
100
AcDbText
  0
LINE
  5
19F
330
17
100
AcDbEntity
  8
DEBUG_BEAM_CENTERLINE
 62
3
100
AcDbLine
 10
21062.896
 20
46447.401
 30
0.0
 11
21317.261
 21
45018.186
 31
0.0
  0
TEXT
  5
1A0
330
17
100
AcDbEntity
  8
DEBUG_BEAM_GEOMETRY
 62
2
100
AcDbText
 10
21190.0785
 20
45732.7935
 30
0.0
 40
180.0
  1
B17
100
AcDbText
  0
LWPOLYLINE
  5
1A1
330
17
100
AcDbEntity
  8
DEBUG_BEAM_GEOMETRY
 62
8
100
AcDbPolyline
 90
5
 70
0
 10
21062.896
 20
45018.186
 10
21317.261
 20
45018.186
 10
21317.261
 20
46447.401
 10
21062.896
 20
46447.401
 10
21062.896
 20
45018.186
  0
TEXT
  5
1A2
330
17
100
AcDbEntity
  8
DEBUG_DIMENSIONS
 62
5
100
AcDbText
 10
21440.0785
 20
45982.7935
 30
0.0
 40
200.0
  1
B17200×600
100
AcDbText
  0
TEXT
  5
1A3
330
17
100
AcDbEntity
  8
DEBUG_SECTION
 62
4
100
AcDbText
 10
20890.0785
 20
45432.7935
 30
0.0
 40
180.0
  1
B17200x600DEEP_SECTION
100
AcDbText
  0
TEXT
  5
1A4
330
17
100
AcDbEntity
  8
DEBUG_ENGINEERING_LENGTHS
 62
140
100
AcDbText
 10
21590.0785
 20
45332.7935
 30
0.0
 40
160.0
  1
B17CL=1451CS=1451
100
AcDbText
  0
CIRCLE
  5
1A5
330
17
100
AcDbEntity
  8
DEBUG_STATIONING
 62
11
100
AcDbCircle
 10
21062.896
 20
46447.401
 30
0.0
 40
80.0
  0
TEXT
  5
1A6
330
17
100
AcDbEntity
  8
DEBUG_STATIONING
 62
11
100
AcDbText
 10
21162.896
 20
46547.401
 30
0.0
 40
100.0
  1
START
100
AcDbText
  0
CIRCLE
  5
1A7
330
17
100
AcDbEntity
  8
DEBUG_STATIONING
 62
11
100
AcDbCircle
 10
21126.487
 20
46090.097
 30
0.0
 40
80.0
  0
TEXT
  5
1A8
330
17
100
AcDbEntity
  8
DEBUG_STATIONING
 62
11
100
AcDbText
 10
21226.487
 20
46190.097
 30
0.0
 40
100.0
  1
0.25L
100
AcDbText
  0
CIRCLE
  5
1A9
330
17
100
AcDbEntity
  8
DEBUG_STATIONING
 62
11
100
AcDbCircle
 10
21190.079
 20
45732.794
 30
0.0
 40
80.0
  0
TEXT
  5
1AA
330
17
100
AcDbEntity
  8
DEBUG_STATIONING
 62
11
100
AcDbText
 10
21290.079
 20
45832.794
 30
0.0
 40
100.0
  1
0.50L
100
AcDbText
  0
CIRCLE
  5
1AB
330
17
100
AcDbEntity
  8
DEBUG_STATIONING
 62
11
100
AcDbCircle
 10
21253.67
 20
45375.49
 30
0.0
 40
80.0
  0
TEXT
  5
1AC
330
17
100
AcDbEntity
  8
DEBUG_STATIONING
 62
11
100
AcDbText
 10
21353.67
 20
45475.49
 30
0.0
 40
100.0
  1
0.75L
100
AcDbText
  0
CIRCLE
  5
1AD
330
17
100
AcDbEntity
  8
DEBUG_STATIONING
 62
11
100
AcDbCircle
 10
21317.261
 20
45018.187
 30
0.0
 40
80.0
  0
TEXT
  5
1AE
330
17
100
AcDbEntity
  8
DEBUG_STATIONING
 62
11
100
AcDbText
 10
21417.261
 20
45118.187
 30
0.0
 40
100.0
  1
END
100
AcDbText
  0
TEXT
  5
1AF
330
17
100
AcDbEntity
  8
DEBUG_GRAPH
 62
7
100
AcDbText
 10
20862.896
 20
46247.401
 30
0.0
 40
140.0
  1
B17S0→SL
100
AcDbText
  0
CIRCLE
  5
1B0
330
17
100
AcDbEntity
  8
DEBUG_BEAM_SUPPORTS
 62
1
100
AcDbCircle
 10
21062.896
 20
46447.401
 30
0.0
 40
120.0
  0
TEXT
  5
1B1
330
17
100
AcDbEntity
  8
DEBUG_BEAM_SUPPORTS
 62
1
100
AcDbText
 10
21212.896
 20
46597.401
 30
0.0
 40
120.0
  1
WALL:WALL_79
100
AcDbText
  0
CIRCLE
  5
1B2
330
17
100
AcDbEntity
  8
DEBUG_BEAM_SUPPORTS
 62
1
100
AcDbCircle
 10
21317.261
 20
45018.186
 30
0.0
 40
120.0
  0
TEXT
  5
1B3
330
17
100
AcDbEntity
  8
DEBUG_BEAM_SUPPORTS
 62
1
100
AcDbText
 10
21467.261
 20
45168.186
 30
0.0
 40
120.0
  1
WALL:WALL_47
100
AcDbText
  0
LINE
  5
1B4
330
17
100
AcDbEntity
  8
DEBUG_BEAM_CENTERLINE
 62
3
100
AcDbLine
 10
23319.145
 20
46851.532
 30
0.0
 11
23921.252
 21
43502.519
 31
0.0
  0
TEXT
  5
1B5
330
17
100
AcDbEntity
  8
DEBUG_BEAM_GEOMETRY
 62
2
100
AcDbText
 10
23620.1985
 20
45177.0255
 30
0.0
 40
180.0
  1
B18
100
AcDbText
  0
LWPOLYLINE
  5
1B6
330
17
100
AcDbEntity
  8
DEBUG_BEAM_GEOMETRY
 62
8
100
AcDbPolyline
 90
5
 70
0
 10
23319.145
 20
43502.519
 10
23921.252
 20
43502.519
 10
23921.252
 20
46851.532
 10
23319.145
 20
46851.532
 10
23319.145
 20
43502.519
  0
TEXT
  5
1B7
330
17
100
AcDbEntity
  8
DEBUG_DIMENSIONS
 62
5
100
AcDbText
 10
23870.1985
 20
45427.0255
 30
0.0
 40
200.0
  1
B18200×600
100
AcDbText
  0
TEXT
  5
1B8
330
17
100
AcDbEntity
  8
DEBUG_SECTION
 62
4
100
AcDbText
 10
23320.1985
 20
44877.0255
 30
0.0
 40
180.0
  1
B18200x600DEEP_SECTION
100
AcDbText
  0
TEXT
  5
1B9
330
17
100
AcDbEntity
  8
DEBUG_ENGINEERING_LENGTHS
 62
140
100
AcDbText
 10
24020.1985
 20
44777.0255
 30
0.0
 40
160.0
  1
B18CL=3402CS=3402
100
AcDbText
  0
CIRCLE
  5
1BA
330
17
100
AcDbEntity
  8
DEBUG_STATIONING
 62
11
100
AcDbCircle
 10
23319.145
 20
46851.532
 30
0.0
 40
80.0
  0
TEXT
  5
1BB
330
17
100
AcDbEntity
  8
DEBUG_STATIONING
 62
11
100
AcDbText
 10
23419.145
 20
46951.532
 30
0.0
 40
100.0
  1
START
100
AcDbText
  0
CIRCLE
  5
1BC
330
17
100
AcDbEntity
  8
DEBUG_STATIONING
 62
11
100
AcDbCircle
 10
23469.671
 20
46014.279
 30
0.0
 40
80.0
  0
TEXT
  5
1BD
330
17
100
AcDbEntity
  8
DEBUG_STATIONING
 62
11
100
AcDbText
 10
23569.671
 20
46114.279
 30
0.0
 40
100.0
  1
0.25L
100
AcDbText
  0
CIRCLE
  5
1BE
330
17
100
AcDbEntity
  8
DEBUG_STATIONING
 62
11
100
AcDbCircle
 10
23620.198
 20
45177.025
 30
0.0
 40
80.0
  0
TEXT
  5
1BF
330
17
100
AcDbEntity
  8
DEBUG_STATIONING
 62
11
100
AcDbText
 10
23720.198
 20
45277.025
 30
0.0
 40
100.0
  1
0.50L
100
AcDbText
  0
CIRCLE
  5
1C0
330
17
100
AcDbEntity
  8
DEBUG_STATIONING
 62
11
100
AcDbCircle
 10
23770.724
 20
44339.772
 30
0.0
 40
80.0
  0
TEXT
  5
1C1
330
17
100
AcDbEntity
  8
DEBUG_STATIONING
 62
11
100
AcDbText
 10
23870.724
 20
44439.772
 30
0.0
 40
100.0
  1
0.75L
100
AcDbText
  0
CIRCLE
  5
1C2
330
17
100
AcDbEntity
  8
DEBUG_STATIONING
 62
11
100
AcDbCircle
 10
23921.251
 20
43502.519
 30
0.0
 40
80.0
  0
TEXT
  5
1C3
330
17
100
AcDbEntity
  8
DEBUG_STATIONING
 62
11
100
AcDbText
 10
24021.251
 20
43602.519
 30
0.0
 40
100.0
  1
END
100
AcDbText
  0
TEXT
  5
1C4
330
17
100
AcDbEntity
  8
DEBUG_GRAPH
 62
7
100
AcDbText
 10
23119.145
 20
46651.532
 30
0.0
 40
140.0
  1
B18S0→SL
100
AcDbText
  0
CIRCLE
  5
1C5
330
17
100
AcDbEntity
  8
DEBUG_BEAM_SUPPORTS
 62
1
100
AcDbCircle
 10
23319.145
 20
46851.532
 30
0.0
 40
120.0
  0
TEXT
  5
1C6
330
17
100
AcDbEntity
  8
DEBUG_BEAM_SUPPORTS
 62
1
100
AcDbText
 10
23469.145
 20
47001.532
 30
0.0
 40
120.0
  1
WALL:WALL_79
100
AcDbText
  0
CIRCLE
  5
1C7
330
17
100
AcDbEntity
  8
DEBUG_BEAM_SUPPORTS
 62
1
100
AcDbCircle
 10
23921.252
 20
43502.519
 30
0.0
 40
120.0
  0
TEXT
  5
1C8
330
17
100
AcDbEntity
  8
DEBUG_BEAM_SUPPORTS
 62
1
100
AcDbText
 10
24071.252
 20
43652.519
 30
0.0
 40
120.0
  1
WALL:WALL_77
100
AcDbText
  0
CIRCLE
  5
1C9
330
17
100
AcDbEntity
  8
DEBUG_STRUCTURAL_NODES
 62
30
100
AcDbCircle
 10
11044.701
 20
38905.599
 30
0.0
 40
200.0
  0
TEXT
  5
1CA
330
17
100
AcDbEntity
  8
DEBUG_STRUCTURAL_NODES
 62
30
100
AcDbText
 10
11264.701
 20
39125.599
 30
0.0
 40
150.0
  1
B10BEAM
100
AcDbText
  0
CIRCLE
  5
1CB
330
17
100
AcDbEntity
  8
DEBUG_STRUCTURAL_NODES
 62
30
100
AcDbCircle
 10
11047.921
 20
39105.604
 30
0.0
 40
200.0
  0
TEXT
  5
1CC
330
17
100
AcDbEntity
  8
DEBUG_STRUCTURAL_NODES
 62
30
100
AcDbText
 10
11267.921
 20
39325.604
 30
0.0
 40
150.0
  1
B11BEAM
100
AcDbText
  0
CIRCLE
  5
1CD
330
17
100
AcDbEntity
  8
DEBUG_STRUCTURAL_NODES
 62
30
100
AcDbCircle
 10
9561.051
 20
43984.472
 30
0.0
 40
200.0
  0
TEXT
  5
1CE
330
17
100
AcDbEntity
  8
DEBUG_STRUCTURAL_NODES
 62
30
100
AcDbText
 10
9781.051
 20
44204.472
 30
0.0
 40
150.0
  1
B12BEAM
100
AcDbText
  0
CIRCLE
  5
1CF
330
17
100
AcDbEntity
  8
DEBUG_STRUCTURAL_NODES
 62
30
100
AcDbCircle
 10
12950.646
 20
43984.472
 30
0.0
 40
200.0
  0
TEXT
  5
1D0
330
17
100
AcDbEntity
  8
DEBUG_STRUCTURAL_NODES
 62
30
100
AcDbText
 10
13170.646
 20
44204.472
 30
0.0
 40
150.0
  1
B13BEAM
100
AcDbText
  0
CIRCLE
  5
1D1
330
17
100
AcDbEntity
  8
DEBUG_STRUCTURAL_NODES
 62
30
100
AcDbCircle
 10
12950.646
 20
45761.611
 30
0.0
 40
200.0
  0
TEXT
  5
1D2
330
17
100
AcDbEntity
  8
DEBUG_STRUCTURAL_NODES
 62
30
100
AcDbText
 10
13170.646
 20
45981.611
 30
0.0
 40
150.0
  1
B14BEAM
100
AcDbText
  0
CIRCLE
  5
1D3
330
17
100
AcDbEntity
  8
DEBUG_STRUCTURAL_NODES
 62
30
100
AcDbCircle
 10
9361.051
 20
43784.472
 30
0.0
 40
200.0
  0
TEXT
  5
1D4
330
17
100
AcDbEntity
  8
DEBUG_STRUCTURAL_NODES
 62
30
100
AcDbText
 10
9581.051
 20
44004.472
 30
0.0
 40
150.0
  1
B4BEAM
100
AcDbText
  0
CIRCLE
  5
1D5
330
17
100
AcDbEntity
  8
DEBUG_STRUCTURAL_NODES
 62
30
100
AcDbCircle
 10
9361.051
 20
41284.109
 30
0.0
 40
200.0
  0
TEXT
  5
1D6
330
17
100
AcDbEntity
  8
DEBUG_STRUCTURAL_NODES
 62
30
100
AcDbText
 10
9581.051
 20
41504.109
 30
0.0
 40
150.0
  1
B5BEAM
100
AcDbText
  0
CIRCLE
  5
1D7
330
17
100
AcDbEntity
  8
DEBUG_STRUCTURAL_NODES
 62
30
100
AcDbCircle
 10
21874.155
 20
43137.316
 30
0.0
 40
200.0
  0
TEXT
  5
1D8
330
17
100
AcDbEntity
  8
DEBUG_STRUCTURAL_NODES
 62
30
100
AcDbText
 10
22094.155
 20
43357.316
 30
0.0
 40
150.0
  1
COLUMN_1COLUMN
100
AcDbText
  0
CIRCLE
  5
1D9
330
17
100
AcDbEntity
  8
DEBUG_STRUCTURAL_NODES
 62
30
100
AcDbCircle
 10
8030.357
 20
44466.944
 30
0.0
 40
200.0
  0
TEXT
  5
1DA
330
17
100
AcDbEntity
  8
DEBUG_STRUCTURAL_NODES
 62
30
100
AcDbText
 10
8250.357
 20
44686.944
 30
0.0
 40
150.0
  1
COLUMN_2COLUMN
100
AcDbText
  0
CIRCLE
  5
1DB
330
17
100
AcDbEntity
  8
DEBUG_STRUCTURAL_NODES
 62
30
100
AcDbCircle
 10
14004.067
 20
44751.527
 30
0.0
 40
200.0
  0
TEXT
  5
1DC
330
17
100
AcDbEntity
  8
DEBUG_STRUCTURAL_NODES
 62
30
100
AcDbText
 10
14224.067
 20
44971.527
 30
0.0
 40
150.0
  1
COLUMN_3COLUMN
100
AcDbText
  0
CIRCLE
  5
1DD
330
17
100
AcDbEntity
  8
DEBUG_STRUCTURAL_NODES
 62
30
100
AcDbCircle
 10
7841.031
 20
41076.353
 30
0.0
 40
200.0
  0
TEXT
  5
1DE
330
17
100
AcDbEntity
  8
DEBUG_STRUCTURAL_NODES
 62
30
100
AcDbText
 10
8061.031
 20
41296.353
 30
0.0
 40
150.0
  1
COLUMN_4COLUMN
100
AcDbText
  0
CIRCLE
  5
1DF
330
17
100
AcDbEntity
  8
DEBUG_STRUCTURAL_NODES
 62
30
100
AcDbCircle
 10
14613.766
 20
41606.931
 30
0.0
 40
200.0
  0
TEXT
  5
1E0
330
17
100
AcDbEntity
  8
DEBUG_STRUCTURAL_NODES
 62
30
100
AcDbText
 10
14833.766
 20
41826.931
 30
0.0
 40
150.0
  1
COLUMN_5COLUMN
100
AcDbText
  0
CIRCLE
  5
1E1
330
17
100
AcDbEntity
  8
DEBUG_STRUCTURAL_NODES
 62
30
100
AcDbCircle
 10
10658.765
 20
39056.554
 30
0.0
 40
200.0
  0
TEXT
  5
1E2
330
17
100
AcDbEntity
  8
DEBUG_STRUCTURAL_NODES
 62
30
100
AcDbText
 10
10878.765
 20
39276.554
 30
0.0
 40
150.0
  1
COLUMN_6COLUMN
100
AcDbText
  0
CIRCLE
  5
1E3
330
17
100
AcDbEntity
  8
DEBUG_STRUCTURAL_NODES
 62
30
100
AcDbCircle
 10
7451.529
 20
43657.175
 30
0.0
 40
200.0
  0
TEXT
  5
1E4
330
17
100
AcDbEntity
  8
DEBUG_STRUCTURAL_NODES
 62
30
100
AcDbText
 10
7671.529
 20
43877.175
 30
0.0
 40
150.0
  1
WALL_29WALL
100
AcDbText
  0
CIRCLE
  5
1E5
330
17
100
AcDbEntity
  8
DEBUG_STRUCTURAL_NODES
 62
30
100
AcDbCircle
 10
13233.291
 20
45818.317
 30
0.0
 40
200.0
  0
TEXT
  5
1E6
330
17
100
AcDbEntity
  8
DEBUG_STRUCTURAL_NODES
 62
30
100
AcDbText
 10
13453.291
 20
46038.317
 30
0.0
 40
150.0
  1
WALL_34WALL
100
AcDbText
  0
CIRCLE
  5
1E7
330
17
100
AcDbEntity
  8
DEBUG_STRUCTURAL_NODES
 62
30
100
AcDbCircle
 10
7531.91
 20
41455.527
 30
0.0
 40
200.0
  0
TEXT
  5
1E8
330
17
100
AcDbEntity
  8
DEBUG_STRUCTURAL_NODES
 62
30
100
AcDbText
 10
7751.91
 20
41675.527
 30
0.0
 40
150.0
  1
WALL_36WALL
100
AcDbText
  0
CIRCLE
  5
1E9
330
17
100
AcDbEntity
  8
DEBUG_STRUCTURAL_NODES
 62
30
100
AcDbCircle
 10
14585.252
 20
41196.321
 30
0.0
 40
200.0
  0
TEXT
  5
1EA
330
17
100
AcDbEntity
  8
DEBUG_STRUCTURAL_NODES
 62
30
100
AcDbText
 10
14805.252
 20
41416.321
 30
0.0
 40
150.0
  1
WALL_43WALL
100
AcDbText
  0
CIRCLE
  5
1EB
330
17
100
AcDbEntity
  8
DEBUG_STRUCTURAL_NODES
 62
30
100
AcDbCircle
 10
14321.653
 20
40697.331
 30
0.0
 40
200.0
  0
TEXT
  5
1EC
330
17
100
AcDbEntity
  8
DEBUG_STRUCTURAL_NODES
 62
30
100
AcDbText
 10
14541.653
 20
40917.331
 30
0.0
 40
150.0
  1
WALL_45WALL
100
AcDbText
  0
CIRCLE
  5
1ED
330
17
100
AcDbEntity
  8
DEBUG_STRUCTURAL_NODES
 62
30
100
AcDbCircle
 10
21317.261
 20
45018.186
 30
0.0
 40
200.0
  0
TEXT
  5
1EE
330
17
100
AcDbEntity
  8
DEBUG_STRUCTURAL_NODES
 62
30
100
AcDbText
 10
21537.261
 20
45238.186
 30
0.0
 40
150.0
  1
WALL_47WALL
100
AcDbText
  0
CIRCLE
  5
1EF
330
17
100
AcDbEntity
  8
DEBUG_STRUCTURAL_NODES
 62
30
100
AcDbCircle
 10
18053.581
 20
45904.912
 30
0.0
 40
200.0
  0
TEXT
  5
1F0
330
17
100
AcDbEntity
  8
DEBUG_STRUCTURAL_NODES
 62
30
100
AcDbText
 10
18273.581
 20
46124.912
 30
0.0
 40
150.0
  1
WALL_50WALL
100
AcDbText
  0
CIRCLE
  5
1F1
330
17
100
AcDbEntity
  8
DEBUG_STRUCTURAL_NODES
 62
30
100
AcDbCircle
 10
18655.273
 20
42558.155
 30
0.0
 40
200.0
  0
TEXT
  5
1F2
330
17
100
AcDbEntity
  8
DEBUG_STRUCTURAL_NODES
 62
30
100
AcDbText
 10
18875.273
 20
42778.155
 30
0.0
 40
150.0
  1
WALL_58WALL
100
AcDbText
  0
CIRCLE
  5
1F3
330
17
100
AcDbEntity
  8
DEBUG_STRUCTURAL_NODES
 62
30
100
AcDbCircle
 10
13896.309
 20
45157.533
 30
0.0
 40
200.0
  0
TEXT
  5
1F4
330
17
100
AcDbEntity
  8
DEBUG_STRUCTURAL_NODES
 62
30
100
AcDbText
 10
14116.309
 20
45377.533
 30
0.0
 40
150.0
  1
WALL_74WALL
100
AcDbText
  0
CIRCLE
  5
1F5
330
17
100
AcDbEntity
  8
DEBUG_STRUCTURAL_NODES
 62
30
100
AcDbCircle
 10
16908.044
 20
42245.434
 30
0.0
 40
200.0
  0
TEXT
  5
1F6
330
17
100
AcDbEntity
  8
DEBUG_STRUCTURAL_NODES
 62
30
100
AcDbText
 10
17128.044
 20
42465.434
 30
0.0
 40
150.0
  1
WALL_77WALL
100
AcDbText
  0
CIRCLE
  5
1F7
330
17
100
AcDbEntity
  8
DEBUG_STRUCTURAL_NODES
 62
30
100
AcDbCircle
 10
21062.896
 20
46447.401
 30
0.0
 40
200.0
  0
TEXT
  5
1F8
330
17
100
AcDbEntity
  8
DEBUG_STRUCTURAL_NODES
 62
30
100
AcDbText
 10
21282.896
 20
46667.401
 30
0.0
 40
150.0
  1
WALL_79WALL
100
AcDbText
  0
TEXT
  5
1F9
330
17
100
AcDbEntity
  8
DEBUG_BEAM_CONNECTIVITY
 62
6
100
AcDbText
 10
12950.646
 20
45561.611
 30
0.0
 40
100.0
  1
support_to_beam
100
AcDbText
  0
TEXT
  5
1FA
330
17
100
AcDbEntity
  8
DEBUG_BEAM_CONNECTIVITY
 62
6
100
AcDbText
 10
13896.309
 20
44957.533
 30
0.0
 40
100.0
  1
support_to_beam
100
AcDbText
  0
TEXT
  5
1FB
330
17
100
AcDbEntity
  8
DEBUG_BEAM_CONNECTIVITY
 62
6
100
AcDbText
 10
16306.619
 20
45390.652
 30
0.0
 40
100.0
  1
beam_to_support
100
AcDbText
  0
TEXT
  5
1FC
330
17
100
AcDbEntity
  8
DEBUG_BEAM_CONNECTIVITY
 62
6
100
AcDbText
 10
21062.896
 20
46247.401
 30
0.0
 40
100.0
  1
support_to_beam
100
AcDbText
  0
TEXT
  5
1FD
330
17
100
AcDbEntity
  8
DEBUG_BEAM_CONNECTIVITY
 62
6
100
AcDbText
 10
23319.145
 20
46651.532
 30
0.0
 40
100.0
  1
beam_to_support
100
AcDbText
  0
TEXT
  5
1FE
330
17
100
AcDbEntity
  8
DEBUG_BEAM_CONNECTIVITY
 62
6
100
AcDbText
 10
12950.646
 20
43784.472
 30
0.0
 40
100.0
  1
support_to_beam
100
AcDbText
  0
TEXT
  5
1FF
330
17
100
AcDbEntity
  8
DEBUG_BEAM_CONNECTIVITY
 62
6
100
AcDbText
 10
9561.051
 20
43784.472
 30
0.0
 40
100.0
  1
beam_to_support
100
AcDbText
  0
TEXT
  5
200
330
17
100
AcDbEntity
  8
DEBUG_BEAM_CONNECTIVITY
 62
6
100
AcDbText
 10
12950.646
 20
41084.109
 30
0.0
 40
100.0
  1
support_to_beam
100
AcDbText
  0
TEXT
  5
201
330
17
100
AcDbEntity
  8
DEBUG_BEAM_CONNECTIVITY
 62
6
100
AcDbText
 10
9561.051
 20
41084.109
 30
0.0
 40
100.0
  1
beam_to_support
100
AcDbText
  0
TEXT
  5
202
330
17
100
AcDbEntity
  8
DEBUG_BEAM_CONNECTIVITY
 62
6
100
AcDbText
 10
14819.463
 20
41671.066
 30
0.0
 40
100.0
  1
support_to_beam
100
AcDbText
  0
TEXT
  5
203
330
17
100
AcDbEntity
  8
DEBUG_BEAM_CONNECTIVITY
 62
6
100
AcDbText
 10
16908.044
 20
42045.434
 30
0.0
 40
100.0
  1
beam_to_support
100
AcDbText
  0
TEXT
  5
204
330
17
100
AcDbEntity
  8
DEBUG_BEAM_CONNECTIVITY
 62
6
100
AcDbText
 10
17104.906
 20
42080.721
 30
0.0
 40
100.0
  1
support_to_beam
100
AcDbText
  0
TEXT
  5
205
330
17
100
AcDbEntity
  8
DEBUG_BEAM_CONNECTIVITY
 62
6
100
AcDbText
 10
23921.252
 20
43302.519
 30
0.0
 40
100.0
  1
beam_to_support
100
AcDbText
  0
TEXT
  5
206
330
17
100
AcDbEntity
  8
DEBUG_BEAM_CONNECTIVITY
 62
6
100
AcDbText
 10
7451.529
 20
43457.175
 30
0.0
 40
100.0
  1
support_to_beam
100
AcDbText
  0
TEXT
  5
207
330
17
100
AcDbEntity
  8
DEBUG_BEAM_CONNECTIVITY
 62
6
100
AcDbText
 10
7531.91
 20
41255.527
 30
0.0
 40
100.0
  1
beam_to_support
100
AcDbText
  0
TEXT
  5
208
330
17
100
AcDbEntity
  8
DEBUG_BEAM_CONNECTIVITY
 62
6
100
AcDbText
 10
7870.017
 20
40532.805
 30
0.0
 40
100.0
  1
support_to_beam
100
AcDbText
  0
TEXT
  5
209
330
17
100
AcDbEntity
  8
DEBUG_BEAM_CONNECTIVITY
 62
6
100
AcDbText
 10
11047.921
 20
38905.604
 30
0.0
 40
100.0
  1
support_to_beam
100
AcDbText
  0
TEXT
  5
20A
330
17
100
AcDbEntity
  8
DEBUG_BEAM_CONNECTIVITY
 62
6
100
AcDbText
 10
11047.921
 20
38905.604
 30
0.0
 40
100.0
  1
support_to_beam
100
AcDbText
  0
TEXT
  5
20B
330
17
100
AcDbEntity
  8
DEBUG_BEAM_CONNECTIVITY
 62
6
100
AcDbText
 10
14321.653
 20
40497.331
 30
0.0
 40
100.0
  1
beam_to_support
100
AcDbText
  0
TEXT
  5
20C
330
17
100
AcDbEntity
  8
DEBUG_BEAM_CONNECTIVITY
 62
6
100
AcDbText
 10
12950.646
 20
43784.472
 30
0.0
 40
100.0
  1
support_to_beam
100
AcDbText
  0
TEXT
  5
20D
330
17
100
AcDbEntity
  8
DEBUG_BEAM_CONNECTIVITY
 62
6
100
AcDbText
 10
9561.051
 20
41084.109
 30
0.0
 40
100.0
  1
beam_to_support
100
AcDbText
  0
TEXT
  5
20E
330
17
100
AcDbEntity
  8
DEBUG_BEAM_CONNECTIVITY
 62
6
100
AcDbText
 10
12950.646
 20
43784.472
 30
0.0
 40
100.0
  1
support_to_beam
100
AcDbText
  0
TEXT
  5
20F
330
17
100
AcDbEntity
  8
DEBUG_BEAM_CONNECTIVITY
 62
6
100
AcDbText
 10
9561.051
 20
41084.109
 30
0.0
 40
100.0
  1
beam_to_support
100
AcDbText
  0
TEXT
  5
210
330
17
100
AcDbEntity
  8
DEBUG_BEAM_CONNECTIVITY
 62
6
100
AcDbText
 10
14585.252
 20
40996.321
 30
0.0
 40
100.0
  1
support_to_beam
100
AcDbText
  0
TEXT
  5
211
330
17
100
AcDbEntity
  8
DEBUG_BEAM_CONNECTIVITY
 62
6
100
AcDbText
 10
13233.291
 20
45618.317
 30
0.0
 40
100.0
  1
beam_to_support
100
AcDbText
  0
TEXT
  5
212
330
17
100
AcDbEntity
  8
DEBUG_BEAM_CONNECTIVITY
 62
6
100
AcDbText
 10
16306.581
 20
45390.867
 30
0.0
 40
100.0
  1
support_to_beam
100
AcDbText
  0
TEXT
  5
213
330
17
100
AcDbEntity
  8
DEBUG_BEAM_CONNECTIVITY
 62
6
100
AcDbText
 10
16908.941
 20
42040.441
 30
0.0
 40
100.0
  1
beam_to_support
100
AcDbText
  0
TEXT
  5
214
330
17
100
AcDbEntity
  8
DEBUG_BEAM_CONNECTIVITY
 62
6
100
AcDbText
 10
18655.273
 20
42358.155
 30
0.0
 40
100.0
  1
support_to_beam
100
AcDbText
  0
TEXT
  5
215
330
17
100
AcDbEntity
  8
DEBUG_BEAM_CONNECTIVITY
 62
6
100
AcDbText
 10
18053.581
 20
45704.912
 30
0.0
 40
100.0
  1
beam_to_support
100
AcDbText
  0
TEXT
  5
216
330
17
100
AcDbEntity
  8
DEBUG_BEAM_CONNECTIVITY
 62
6
100
AcDbText
 10
21062.896
 20
46247.401
 30
0.0
 40
100.0
  1
support_to_beam
100
AcDbText
  0
TEXT
  5
217
330
17
100
AcDbEntity
  8
DEBUG_BEAM_CONNECTIVITY
 62
6
100
AcDbText
 10
21317.261
 20
44818.186
 30
0.0
 40
100.0
  1
beam_to_support
100
AcDbText
  0
TEXT
  5
218
330
17
100
AcDbEntity
  8
DEBUG_BEAM_CONNECTIVITY
 62
6
100
AcDbText
 10
23319.145
 20
46651.532
 30
0.0
 40
100.0
  1
support_to_beam
100
AcDbText
  0
TEXT
  5
219
330
17
100
AcDbEntity
  8
DEBUG_BEAM_CONNECTIVITY
 62
6
100
AcDbText
 10
23921.252
 20
43302.519
 30
0.0
 40
100.0
  1
beam_to_support
100
AcDbText
  0
TEXT
  5
21A
330
17
100
AcDbEntity
  8
DEBUG_ENGINEERING_CONTEXT
 62
22
100
AcDbText
 10
13450.646
 20
46261.611
 30
0.0
 40
120.0
  1
CTX:CTX::B1
100
AcDbText
  0
TEXT
  5
21B
330
17
100
AcDbEntity
  8
DEBUG_ENGINEERING_CONTEXT
 62
22
100
AcDbText
 10
14396.309
 20
45657.533
 30
0.0
 40
120.0
  1
CTX:CTX::B2
100
AcDbText
  0
TEXT
  5
21C
330
17
100
AcDbEntity
  8
DEBUG_ENGINEERING_CONTEXT
 62
22
100
AcDbText
 10
21562.896
 20
46947.401
 30
0.0
 40
120.0
  1
CTX:CTX::B3
100
AcDbText
  0
TEXT
  5
21D
330
17
100
AcDbEntity
  8
DEBUG_ENGINEERING_CONTEXT
 62
22
100
AcDbText
 10
13450.646
 20
44484.472
 30
0.0
 40
120.0
  1
CTX:CTX::B4
100
AcDbText
  0
TEXT
  5
21E
330
17
100
AcDbEntity
  8
DEBUG_ENGINEERING_CONTEXT
 62
22
100
AcDbText
 10
13450.646
 20
41784.109
 30
0.0
 40
120.0
  1
CTX:CTX::B5
100
AcDbText
  0
TEXT
  5
21F
330
17
100
AcDbEntity
  8
DEBUG_ENGINEERING_CONTEXT
 62
22
100
AcDbText
 10
15319.463
 20
42371.066
 30
0.0
 40
120.0
  1
CTX:CTX::B6
100
AcDbText
  0
TEXT
  5
220
330
17
100
AcDbEntity
  8
DEBUG_ENGINEERING_CONTEXT
 62
22
100
AcDbText
 10
17604.906
 20
42780.721
 30
0.0
 40
120.0
  1
CTX:CTX::B7
100
AcDbText
  0
TEXT
  5
221
330
17
100
AcDbEntity
  8
DEBUG_ENGINEERING_CONTEXT
 62
22
100
AcDbText
 10
7951.529
 20
44157.175
 30
0.0
 40
120.0
  1
CTX:CTX::B8
100
AcDbText
  0
TEXT
  5
222
330
17
100
AcDbEntity
  8
DEBUG_ENGINEERING_CONTEXT
 62
22
100
AcDbText
 10
8370.017
 20
41232.805
 30
0.0
 40
120.0
  1
CTX:CTX::B9
100
AcDbText
  0
TEXT
  5
223
330
17
100
AcDbEntity
  8
DEBUG_ENGINEERING_CONTEXT
 62
22
100
AcDbText
 10
11547.921
 20
39605.604
 30
0.0
 40
120.0
  1
CTX:CTX::B10
100
AcDbText
  0
TEXT
  5
224
330
17
100
AcDbEntity
  8
DEBUG_ENGINEERING_CONTEXT
 62
22
100
AcDbText
 10
11544.701
 20
39405.599
 30
0.0
 40
120.0
  1
CTX:CTX::B11
100
AcDbText
  0
TEXT
  5
225
330
17
100
AcDbEntity
  8
DEBUG_ENGINEERING_CONTEXT
 62
22
100
AcDbText
 10
9861.051
 20
44284.472
 30
0.0
 40
120.0
  1
CTX:CTX::B12
100
AcDbText
  0
TEXT
  5
226
330
17
100
AcDbEntity
  8
DEBUG_ENGINEERING_CONTEXT
 62
22
100
AcDbText
 10
13450.646
 20
44284.472
 30
0.0
 40
120.0
  1
CTX:CTX::B13
100
AcDbText
  0
TEXT
  5
227
330
17
100
AcDbEntity
  8
DEBUG_ENGINEERING_CONTEXT
 62
22
100
AcDbText
 10
15085.252
 20
41696.321
 30
0.0
 40
120.0
  1
CTX:CTX::B14
100
AcDbText
  0
TEXT
  5
228
330
17
100
AcDbEntity
  8
DEBUG_ENGINEERING_CONTEXT
 62
22
100
AcDbText
 10
16806.581
 20
46090.867
 30
0.0
 40
120.0
  1
CTX:CTX::B15
100
AcDbText
  0
TEXT
  5
229
330
17
100
AcDbEntity
  8
DEBUG_ENGINEERING_CONTEXT
 62
22
100
AcDbText
 10
19155.273
 20
43058.155
 30
0.0
 40
120.0
  1
CTX:CTX::B16
100
AcDbText
  0
TEXT
  5
22A
330
17
100
AcDbEntity
  8
DEBUG_ENGINEERING_CONTEXT
 62
22
100
AcDbText
 10
21562.896
 20
46947.401
 30
0.0
 40
120.0
  1
CTX:CTX::B17
100
AcDbText
  0
TEXT
  5
22B
330
17
100
AcDbEntity
  8
DEBUG_ENGINEERING_CONTEXT
 62
22
100
AcDbText
 10
23819.145
 20
47351.532
 30
0.0
 40
120.0
  1
CTX:CTX::B18
100
AcDbText
  0
TEXT
  5
22C
330
17
100
AcDbEntity
  8
DEBUG_DEPENDENCIES
 62
23
100
AcDbText
 10
-5000.0
 20
0.0
 30
0.0
 40
200.0
  1
DEP:concrete_volume
100
AcDbText
  0
TEXT
  5
22D
330
17
100
AcDbEntity
  8
DEBUG_DEPENDENCIES
 62
23
100
AcDbText
 10
-5000.0
 20
400.0
 30
0.0
 40
200.0
  1
DEP:bottom_steel
100
AcDbText
  0
TEXT
  5
22E
330
17
100
AcDbEntity
  8
DEBUG_DEPENDENCIES
 62
23
100
AcDbText
 10
-5000.0
 20
800.0
 30
0.0
 40
200.0
  1
DEP:top_steel
100
AcDbText
  0
TEXT
  5
22F
330
17
100
AcDbEntity
  8
DEBUG_DEPENDENCIES
 62
23
100
AcDbText
 10
-5000.0
 20
1200.0
 30
0.0
 40
200.0
  1
DEP:stirrups
100
AcDbText
  0
TEXT
  5
230
330
17
100
AcDbEntity
  8
DEBUG_DEPENDENCIES
 62
23
100
AcDbText
 10
-5000.0
 20
1600.0
 30
0.0
 40
200.0
  1
DEP:development_length
100
AcDbText
  0
TEXT
  5
231
330
17
100
AcDbEntity
  8
DEBUG_DEPENDENCIES
 62
23
100
AcDbText
 10
-5000.0
 20
2000.0
 30
0.0
 40
200.0
  1
DEP:beam_quantities
100
AcDbText
  0
TEXT
  5
232
330
17
100
AcDbEntity
  8
DEBUG_DEPENDENCIES
 62
23
100
AcDbText
 10
-5000.0
 20
2400.0
 30
0.0
 40
200.0
  1
DEP:boq_line_items
100
AcDbText
  0
TEXT
  5
233
330
17
100
AcDbEntity
  8
DEBUG_PROJECT_GRAPH
 62
24
100
AcDbText
 10
-5000.0
 20
-2000.0
 30
0.0
 40
300.0
  1
ROOT:PROJECT::SOBHA_GALERA_CLUBHOUSE
100
AcDbText
  0
CIRCLE
  5
234
330
17
100
AcDbEntity
  8
DEBUG_PROJECT_GRAPH
 62
24
100
AcDbCircle
 10
12950.646
 20
45761.611
 30
0.0
 40
60.0
  0
TEXT
  5
235
330
17
100
AcDbEntity
  8
DEBUG_PROJECT_GRAPH
 62
24
100
AcDbText
 10
13030.646
 20
45841.611
 30
0.0
 40
80.0
  1
S0
100
AcDbText
  0
CIRCLE
  5
236
330
17
100
AcDbEntity
  8
DEBUG_PROJECT_GRAPH
 62
24
100
AcDbCircle
 10
13896.309
 20
45157.533
 30
0.0
 40
60.0
  0
TEXT
  5
237
330
17
100
AcDbEntity
  8
DEBUG_PROJECT_GRAPH
 62
24
100
AcDbText
 10
13976.309
 20
45237.533
 30
0.0
 40
80.0
  1
S0
100
AcDbText
  0
CIRCLE
  5
238
330
17
100
AcDbEntity
  8
DEBUG_PROJECT_GRAPH
 62
24
100
AcDbCircle
 10
21062.896
 20
46447.401
 30
0.0
 40
60.0
  0
TEXT
  5
239
330
17
100
AcDbEntity
  8
DEBUG_PROJECT_GRAPH
 62
24
100
AcDbText
 10
21142.896
 20
46527.401
 30
0.0
 40
80.0
  1
S0
100
AcDbText
  0
CIRCLE
  5
23A
330
17
100
AcDbEntity
  8
DEBUG_PROJECT_GRAPH
 62
24
100
AcDbCircle
 10
12950.646
 20
43984.472
 30
0.0
 40
60.0
  0
TEXT
  5
23B
330
17
100
AcDbEntity
  8
DEBUG_PROJECT_GRAPH
 62
24
100
AcDbText
 10
13030.646
 20
44064.472
 30
0.0
 40
80.0
  1
S0
100
AcDbText
  0
CIRCLE
  5
23C
330
17
100
AcDbEntity
  8
DEBUG_PROJECT_GRAPH
 62
24
100
AcDbCircle
 10
12950.646
 20
41284.109
 30
0.0
 40
60.0
  0
TEXT
  5
23D
330
17
100
AcDbEntity
  8
DEBUG_PROJECT_GRAPH
 62
24
100
AcDbText
 10
13030.646
 20
41364.109
 30
0.0
 40
80.0
  1
S0
100
AcDbText
  0
CIRCLE
  5
23E
330
17
100
AcDbEntity
  8
DEBUG_PROJECT_GRAPH
 62
24
100
AcDbCircle
 10
14819.463
 20
41871.066
 30
0.0
 40
60.0
  0
TEXT
  5
23F
330
17
100
AcDbEntity
  8
DEBUG_PROJECT_GRAPH
 62
24
100
AcDbText
 10
14899.463
 20
41951.066
 30
0.0
 40
80.0
  1
S0
100
AcDbText
  0
CIRCLE
  5
240
330
17
100
AcDbEntity
  8
DEBUG_PROJECT_GRAPH
 62
24
100
AcDbCircle
 10
17104.906
 20
42280.721
 30
0.0
 40
60.0
  0
TEXT
  5
241
330
17
100
AcDbEntity
  8
DEBUG_PROJECT_GRAPH
 62
24
100
AcDbText
 10
17184.906
 20
42360.721
 30
0.0
 40
80.0
  1
S0
100
AcDbText
  0
CIRCLE
  5
242
330
17
100
AcDbEntity
  8
DEBUG_PROJECT_GRAPH
 62
24
100
AcDbCircle
 10
7451.529
 20
43657.175
 30
0.0
 40
60.0
  0
TEXT
  5
243
330
17
100
AcDbEntity
  8
DEBUG_PROJECT_GRAPH
 62
24
100
AcDbText
 10
7531.529
 20
43737.175
 30
0.0
 40
80.0
  1
S0
100
AcDbText
  0
CIRCLE
  5
244
330
17
100
AcDbEntity
  8
DEBUG_PROJECT_GRAPH
 62
24
100
AcDbCircle
 10
7870.017
 20
40732.805
 30
0.0
 40
60.0
  0
TEXT
  5
245
330
17
100
AcDbEntity
  8
DEBUG_PROJECT_GRAPH
 62
24
100
AcDbText
 10
7950.017
 20
40812.805
 30
0.0
 40
80.0
  1
S0
100
AcDbText
  0
CIRCLE
  5
246
330
17
100
AcDbEntity
  8
DEBUG_PROJECT_GRAPH
 62
24
100
AcDbCircle
 10
11047.921
 20
39105.604
 30
0.0
 40
60.0
  0
TEXT
  5
247
330
17
100
AcDbEntity
  8
DEBUG_PROJECT_GRAPH
 62
24
100
AcDbText
 10
11127.921
 20
39185.604
 30
0.0
 40
80.0
  1
S0
100
AcDbText
  0
CIRCLE
  5
248
330
17
100
AcDbEntity
  8
DEBUG_PROJECT_GRAPH
 62
24
100
AcDbCircle
 10
11044.701
 20
38905.599
 30
0.0
 40
60.0
  0
TEXT
  5
249
330
17
100
AcDbEntity
  8
DEBUG_PROJECT_GRAPH
 62
24
100
AcDbText
 10
11124.701
 20
38985.599
 30
0.0
 40
80.0
  1
S0
100
AcDbText
  0
CIRCLE
  5
24A
330
17
100
AcDbEntity
  8
DEBUG_PROJECT_GRAPH
 62
24
100
AcDbCircle
 10
9361.051
 20
43784.472
 30
0.0
 40
60.0
  0
TEXT
  5
24B
330
17
100
AcDbEntity
  8
DEBUG_PROJECT_GRAPH
 62
24
100
AcDbText
 10
9441.051
 20
43864.472
 30
0.0
 40
80.0
  1
S0
100
AcDbText
  0
CIRCLE
  5
24C
330
17
100
AcDbEntity
  8
DEBUG_PROJECT_GRAPH
 62
24
100
AcDbCircle
 10
12950.646
 20
43784.472
 30
0.0
 40
60.0
  0
TEXT
  5
24D
330
17
100
AcDbEntity
  8
DEBUG_PROJECT_GRAPH
 62
24
100
AcDbText
 10
13030.646
 20
43864.472
 30
0.0
 40
80.0
  1
S0
100
AcDbText
  0
CIRCLE
  5
24E
330
17
100
AcDbEntity
  8
DEBUG_PROJECT_GRAPH
 62
24
100
AcDbCircle
 10
14585.252
 20
41196.321
 30
0.0
 40
60.0
  0
TEXT
  5
24F
330
17
100
AcDbEntity
  8
DEBUG_PROJECT_GRAPH
 62
24
100
AcDbText
 10
14665.252
 20
41276.321
 30
0.0
 40
80.0
  1
S0
100
AcDbText
  0
CIRCLE
  5
250
330
17
100
AcDbEntity
  8
DEBUG_PROJECT_GRAPH
 62
24
100
AcDbCircle
 10
16306.581
 20
45590.867
 30
0.0
 40
60.0
  0
TEXT
  5
251
330
17
100
AcDbEntity
  8
DEBUG_PROJECT_GRAPH
 62
24
100
AcDbText
 10
16386.581
 20
45670.867
 30
0.0
 40
80.0
  1
S0
100
AcDbText
  0
CIRCLE
  5
252
330
17
100
AcDbEntity
  8
DEBUG_PROJECT_GRAPH
 62
24
100
AcDbCircle
 10
18655.273
 20
42558.155
 30
0.0
 40
60.0
  0
TEXT
  5
253
330
17
100
AcDbEntity
  8
DEBUG_PROJECT_GRAPH
 62
24
100
AcDbText
 10
18735.273
 20
42638.155
 30
0.0
 40
80.0
  1
S0
100
AcDbText
  0
CIRCLE
  5
254
330
17
100
AcDbEntity
  8
DEBUG_PROJECT_GRAPH
 62
24
100
AcDbCircle
 10
21062.896
 20
46447.401
 30
0.0
 40
60.0
  0
TEXT
  5
255
330
17
100
AcDbEntity
  8
DEBUG_PROJECT_GRAPH
 62
24
100
AcDbText
 10
21142.896
 20
46527.401
 30
0.0
 40
80.0
  1
S0
100
AcDbText
  0
CIRCLE
  5
256
330
17
100
AcDbEntity
  8
DEBUG_PROJECT_GRAPH
 62
24
100
AcDbCircle
 10
23319.145
 20
46851.532
 30
0.0
 40
60.0
  0
TEXT
  5
257
330
17
100
AcDbEntity
  8
DEBUG_PROJECT_GRAPH
 62
24
100
AcDbText
 10
23399.145
 20
46931.532
 30
0.0
 40
80.0
  1
S0
100
AcDbText
  0
TEXT
  5
258
330
17
100
AcDbEntity
  8
DEBUG_PROJECT
 62
25
100
AcDbText
 10
-8000.0
 20
-3000.0
 30
0.0
 40
350.0
  1
PROJECT:PROJECT::SOBHA_GALERA_CLUBHOUSE
100
AcDbText
  0
TEXT
  5
259
330
17
100
AcDbEntity
  8
DEBUG_PROJECT
 62
25
100
AcDbText
 10
-8000.0
 20
-3400.0
 30
0.0
 40
250.0
  1
GN:GN-001
100
AcDbText
  0
TEXT
  5
25A
330
17
100
AcDbEntity
  8
DEBUG_FLOORS
 62
26
100
AcDbText
 10
-8000.0
 20
-4000.0
 30
0.0
 40
220.0
  1
FLOOR:FLOOR::SHR_OHT_LVL_TOP
100
AcDbText
  0
TEXT
  5
25B
330
17
100
AcDbEntity
  8
DEBUG_FLOORS
 62
26
100
AcDbText
 10
-8000.0
 20
-4200.0
 30
0.0
 40
180.0
  1
Framing:LOADED Beams:18
100
AcDbText
  0
TEXT
  5
25C
330
17
100
AcDbEntity
  8
DEBUG_WORKSPACE
 62
27
100
AcDbText
 10
-8000.0
 20
-5500.0
 30
0.0
 40
280.0
  1
WS:READY SVC:ENGINEERING_SERVICES
100
AcDbText
  0
ENDSEC
  0
SECTION
  2
OBJECTS
  0
DICTIONARY
  5
A
330
0
100
AcDbDictionary
281
1
  3
ACAD_COLOR
350
B
  3
ACAD_GROUP
350
C
  3
ACAD_LAYOUT
350
D
  3
ACAD_MATERIAL
350
E
  3
ACAD_MLEADERSTYLE
350
F
  3
ACAD_MLINESTYLE
350
10
  3
ACAD_PLOTSETTINGS
350
11
  3
ACAD_PLOTSTYLENAME
350
12
  3
ACAD_SCALELIST
350
14
  3
ACAD_TABLESTYLE
350
15
  3
ACAD_VISUALSTYLE
350
16
  3
EZDXF_META
350
2D
  0
DICTIONARY
  5
B
330
A
100
AcDbDictionary
281
1
  0
DICTIONARY
  5
C
330
A
100
AcDbDictionary
281
1
  0
DICTIONARY
  5
D
330
A
100
AcDbDictionary
281
1
  3
Model
350
1A
  3
Layout1
350
1E
  0
DICTIONARY
  5
E
330
A
100
AcDbDictionary
281
1
  3
ByBlock
350
1F
  3
ByLayer
350
20
  3
Global
350
21
  0
DICTIONARY
  5
F
330
A
100
AcDbDictionary
281
1
  3
Standard
350
2C
  0
DICTIONARY
  5
10
330
A
100
AcDbDictionary
281
1
  3
Standard
350
22
  0
DICTIONARY
  5
11
330
A
100
AcDbDictionary
281
1
  0
ACDBDICTIONARYWDFLT
  5
12
330
A
100
AcDbDictionary
281
1
  3
Normal
350
13
100
AcDbDictionaryWithDefault
340
13
  0
ACDBPLACEHOLDER
  5
13
330
12
  0
DICTIONARY
  5
14
330
A
100
AcDbDictionary
281
1
  0
DICTIONARY
  5
15
330
A
100
AcDbDictionary
281
1
  0
DICTIONARY
  5
16
330
A
100
AcDbDictionary
281
1
  0
LAYOUT
  5
1A
330
D
100
AcDbPlotSettings
  1

  4
A3
  6

 40
7.5
 41
20.0
 42
7.5
 43
20.0
 44
420.0
 45
297.0
 46
0.0
 47
0.0
 48
0.0
 49
0.0
140
0.0
141
0.0
142
1.0
143
1.0
 70
1024
 72
1
 73
0
 74
5
  7

 75
16
 76
0
 77
2
 78
300
147
1.0
148
0.0
149
0.0
100
AcDbLayout
  1
Model
 70
1
 71
0
 10
0.0
 20
0.0
 11
420.0
 21
297.0
 12
0.0
 22
0.0
 32
0.0
 14
1e+20
 24
1e+20
 34
1e+20
 15
-1e+20
 25
-1e+20
 35
-1e+20
146
0.0
 13
0.0
 23
0.0
 33
0.0
 16
1.0
 26
0.0
 36
0.0
 17
0.0
 27
1.0
 37
0.0
 76
1
330
17
  0
LAYOUT
  5
1E
330
D
100
AcDbPlotSettings
  1

  4
A3
  6

 40
7.5
 41
20.0
 42
7.5
 43
20.0
 44
420.0
 45
297.0
 46
0.0
 47
0.0
 48
0.0
 49
0.0
140
0.0
141
0.0
142
1.0
143
1.0
 70
0
 72
1
 73
0
 74
5
  7

 75
16
 76
0
 77
2
 78
300
147
1.0
148
0.0
149
0.0
100
AcDbLayout
  1
Layout1
 70
1
 71
1
 10
0.0
 20
0.0
 11
420.0
 21
297.0
 12
0.0
 22
0.0
 32
0.0
 14
1e+20
 24
1e+20
 34
1e+20
 15
-1e+20
 25
-1e+20
 35
-1e+20
146
0.0
 13
0.0
 23
0.0
 33
0.0
 16
1.0
 26
0.0
 36
0.0
 17
0.0
 27
1.0
 37
0.0
 76
1
330
1B
  0
MATERIAL
  5
1F
102
{ACAD_REACTORS
330
E
102
}
330
E
100
AcDbMaterial
  1
ByBlock
  2

 70
0
 40
1.0
 71
1
 41
1.0
 91
-1023410177
 42
1.0
 72
1
  3

 73
1
 74
1
 75
1
 44
0.5
 73
0
 45
1.0
 46
1.0
 77
1
  4

 78
1
 79
1
170
1
 48
1.0
171
1
  6

172
1
173
1
174
1
140
1.0
141
1.0
175
1
  7

176
1
177
1
178
1
143
1.0
179
1
  8

270
1
271
1
272
1
145
1.0
146
1.0
273
1
  9

274
1
275
1
276
1
 42
1.0
 72
1
  3

 73
1
 74
1
 75
1
 94
63
  0
MATERIAL
  5
20
102
{ACAD_REACTORS
330
E
102
}
330
E
100
AcDbMaterial
  1
ByLayer
  2

 70
0
 40
1.0
 71
1
 41
1.0
 91
-1023410177
 42
1.0
 72
1
  3

 73
1
 74
1
 75
1
 44
0.5
 73
0
 45
1.0
 46
1.0
 77
1
  4

 78
1
 79
1
170
1
 48
1.0
171
1
  6

172
1
173
1
174
1
140
1.0
141
1.0
175
1
  7

176
1
177
1
178
1
143
1.0
179
1
  8

270
1
271
1
272
1
145
1.0
146
1.0
273
1
  9

274
1
275
1
276
1
 42
1.0
 72
1
  3

 73
1
 74
1
 75
1
 94
63
  0
MATERIAL
  5
21
102
{ACAD_REACTORS
330
E
102
}
330
E
100
AcDbMaterial
  1
Global
  2

 70
0
 40
1.0
 71
1
 41
1.0
 91
-1023410177
 42
1.0
 72
1
  3

 73
1
 74
1
 75
1
 44
0.5
 73
0
 45
1.0
 46
1.0
 77
1
  4

 78
1
 79
1
170
1
 48
1.0
171
1
  6

172
1
173
1
174
1
140
1.0
141
1.0
175
1
  7

176
1
177
1
178
1
143
1.0
179
1
  8

270
1
271
1
272
1
145
1.0
146
1.0
273
1
  9

274
1
275
1
276
1
 42
1.0
 72
1
  3

 73
1
 74
1
 75
1
 94
63
  0
MLINESTYLE
  5
22
102
{ACAD_REACTORS
330
10
102
}
330
10
100
AcDbMlineStyle
  2
Standard
 70
0
  3

 62
256
 51
90.0
 52
90.0
 71
2
 49
0.5
 62
256
  6
BYLAYER
 49
-0.5
 62
256
  6
BYLAYER
  0
MLEADERSTYLE
  5
2C
102
{ACAD_REACTORS
330
F
102
}
330
F
100
AcDbMLeaderStyle
179
2
170
2
171
1
172
0
 90
2
 40
0.0
 41
0.0
173
1
 91
-1056964608
 92
-2
290
1
 42
2.0
291
1
 43
8.0
  3
Standard
 44
4.0
300

342
29
174
1
175
1
176
0
178
1
 93
-1056964608
 45
4.0
292
0
297
0
 46
4.0
 94
-1056964608
 47
1.0
 49
1.0
140
1.0
294
1
141
0.0
177
0
142
1.0
295
0
296
0
143
3.75
271
0
272
9
273
9
  0
DICTIONARY
  5
2D
330
A
100
AcDbDictionary
280
1
281
1
  3
CREATED_BY_EZDXF
350
2E
  3
WRITTEN_BY_EZDXF
350
25F
  0
DICTIONARYVAR
  5
2E
330
2D
100
DictionaryVariables
280
0
  1
1.4.4 @ 2026-06-30T09:48:37.884849+00:00
  0
DICTIONARYVAR
  5
25F
330
2D
100
DictionaryVariables
280
0
  1
1.4.4 @ 2026-06-30T09:48:37.909109+00:00
  0
ENDSEC
  0
EOF
