  0
SECTION
  2
HEADER
  9
$ACADVER
  1
AC1024
  9
$ACADMAINTVER
 70
6
  9
$DWGCODEPAGE
  3
ANSI_1252
  9
$LASTSAVEDBY
  1
ezdxf
  9
$INSBASE
 10
0.0
 20
0.0
 30
0.0
  9
$EXTMIN
 10
1e+20
 20
1e+20
 30
1e+20
  9
$EXTMAX
 10
-1e+20
 20
-1e+20
 30
-1e+20
  9
$LIMMIN
 10
0.0
 20
0.0
  9
$LIMMAX
 10
420.0
 20
297.0
  9
$ORTHOMODE
 70
0
  9
$REGENMODE
 70
1
  9
$FILLMODE
 70
1
  9
$QTEXTMODE
 70
0
  9
$MIRRTEXT
 70
1
  9
$LTSCALE
 40
1.0
  9
$ATTMODE
 70
1
  9
$TEXTSIZE
 40
2.5
  9
$TRACEWID
 40
1.0
  9
$TEXTSTYLE
  7
Standard
  9
$CLAYER
  8
0
  9
$CELTYPE
  6
ByLayer
  9
$CECOLOR
 62
256
  9
$CELTSCALE
 40
1.0
  9
$DISPSILH
 70
0
  9
$DIMSCALE
 40
1.0
  9
$DIMASZ
 40
2.5
  9
$DIMEXO
 40
0.625
  9
$DIMDLI
 40
3.75
  9
$DIMRND
 40
0.0
  9
$DIMDLE
 40
0.0
  9
$DIMEXE
 40
1.25
  9
$DIMTP
 40
0.0
  9
$DIMTM
 40
0.0
  9
$DIMTXT
 40
2.5
  9
$DIMCEN
 40
2.5
  9
$DIMTSZ
 40
0.0
  9
$DIMTOL
 70
0
  9
$DIMLIM
 70
0
  9
$DIMTIH
 70
0
  9
$DIMTOH
 70
0
  9
$DIMSE1
 70
0
  9
$DIMSE2
 70
0
  9
$DIMTAD
 70
1
  9
$DIMZIN
 70
8
  9
$DIMBLK
  1

  9
$DIMASO
 70
1
  9
$DIMSHO
 70
1
  9
$DIMPOST
  1

  9
$DIMAPOST
  1

  9
$DIMALT
 70
0
  9
$DIMALTD
 70
3
  9
$DIMALTF
 40
0.03937007874
  9
$DIMLFAC
 40
1.0
  9
$DIMTOFL
 70
1
  9
$DIMTVP
 40
0.0
  9
$DIMTIX
 70
0
  9
$DIMSOXD
 70
0
  9
$DIMSAH
 70
0
  9
$DIMBLK1
  1

  9
$DIMBLK2
  1

  9
$DIMSTYLE
  2
ISO-25
  9
$DIMCLRD
 70
0
  9
$DIMCLRE
 70
0
  9
$DIMCLRT
 70
0
  9
$DIMTFAC
 40
1.0
  9
$DIMGAP
 40
0.625
  9
$DIMJUST
 70
0
  9
$DIMSD1
 70
0
  9
$DIMSD2
 70
0
  9
$DIMTOLJ
 70
0
  9
$DIMTZIN
 70
8
  9
$DIMALTZ
 70
0
  9
$DIMALTTZ
 70
0
  9
$DIMUPT
 70
0
  9
$DIMDEC
 70
2
  9
$DIMTDEC
 70
2
  9
$DIMALTU
 70
2
  9
$DIMALTTD
 70
3
  9
$DIMTXSTY
  7
Standard
  9
$DIMAUNIT
 70
0
  9
$DIMADEC
 70
0
  9
$DIMALTRND
 40
0.0
  9
$DIMAZIN
 70
0
  9
$DIMDSEP
 70
44
  9
$DIMATFIT
 70
3
  9
$DIMFRAC
 70
0
  9
$DIMLDRBLK
  1

  9
$DIMLUNIT
 70
2
  9
$DIMLWD
 70
-2
  9
$DIMLWE
 70
-2
  9
$DIMTMOVE
 70
0
  9
$DIMFXL
 40
1.0
  9
$DIMFXLON
 70
0
  9
$DIMJOGANG
 40
0.785398163397
  9
$DIMTFILL
 70
0
  9
$DIMTFILLCLR
 70
0
  9
$DIMARCSYM
 70
0
  9
$DIMLTYPE
  6

  9
$DIMLTEX1
  6

  9
$DIMLTEX2
  6

  9
$DIMTXTDIRECTION
 70
0
  9
$LUNITS
 70
2
  9
$LUPREC
 70
4
  9
$SKETCHINC
 40
1.0
  9
$FILLETRAD
 40
10.0
  9
$AUNITS
 70
0
  9
$AUPREC
 70
2
  9
$MENU
  1
.
  9
$ELEVATION
 40
0.0
  9
$PELEVATION
 40
0.0
  9
$THICKNESS
 40
0.0
  9
$LIMCHECK
 70
0
  9
$CHAMFERA
 40
0.0
  9
$CHAMFERB
 40
0.0
  9
$CHAMFERC
 40
0.0
  9
$CHAMFERD
 40
0.0
  9
$SKPOLY
 70
0
  9
$TDCREATE
 40
2461218.4278587964
  9
$TDUCREATE
 40
2458532.153996898
  9
$TDUPDATE
 40
2461218.4278587964
  9
$TDUUPDATE
 40
2458532.1544311
  9
$TDINDWG
 40
0.0
  9
$TDUSRTIMER
 40
0.0
  9
$USRTIMER
 70
1
  9
$ANGBASE
 50
0.0
  9
$ANGDIR
 70
0
  9
$PDMODE
 70
0
  9
$PDSIZE
 40
0.0
  9
$PLINEWID
 40
0.0
  9
$SPLFRAME
 70
0
  9
$SPLINETYPE
 70
6
  9
$SPLINESEGS
 70
8
  9
$HANDSEED
  5
E3
  9
$SURFTAB1
 70
6
  9
$SURFTAB2
 70
6
  9
$SURFTYPE
 70
6
  9
$SURFU
 70
6
  9
$SURFV
 70
6
  9
$UCSBASE
  2

  9
$UCSNAME
  2

  9
$UCSORG
 10
0.0
 20
0.0
 30
0.0
  9
$UCSXDIR
 10
1.0
 20
0.0
 30
0.0
  9
$UCSYDIR
 10
0.0
 20
1.0
 30
0.0
  9
$UCSORTHOREF
  2

  9
$UCSORTHOVIEW
 70
0
  9
$UCSORGTOP
 10
0.0
 20
0.0
 30
0.0
  9
$UCSORGBOTTOM
 10
0.0
 20
0.0
 30
0.0
  9
$UCSORGLEFT
 10
0.0
 20
0.0
 30
0.0
  9
$UCSORGRIGHT
 10
0.0
 20
0.0
 30
0.0
  9
$UCSORGFRONT
 10
0.0
 20
0.0
 30
0.0
  9
$UCSORGBACK
 10
0.0
 20
0.0
 30
0.0
  9
$PUCSBASE
  2

  9
$PUCSNAME
  2

  9
$PUCSORG
 10
0.0
 20
0.0
 30
0.0
  9
$PUCSXDIR
 10
1.0
 20
0.0
 30
0.0
  9
$PUCSYDIR
 10
0.0
 20
1.0
 30
0.0
  9
$PUCSORTHOREF
  2

  9
$PUCSORTHOVIEW
 70
0
  9
$PUCSORGTOP
 10
0.0
 20
0.0
 30
0.0
  9
$PUCSORGBOTTOM
 10
0.0
 20
0.0
 30
0.0
  9
$PUCSORGLEFT
 10
0.0
 20
0.0
 30
0.0
  9
$PUCSORGRIGHT
 10
0.0
 20
0.0
 30
0.0
  9
$PUCSORGFRONT
 10
0.0
 20
0.0
 30
0.0
  9
$PUCSORGBACK
 10
0.0
 20
0.0
 30
0.0
  9
$USERI1
 70
0
  9
$USERI2
 70
0
  9
$USERI3
 70
0
  9
$USERI4
 70
0
  9
$USERI5
 70
0
  9
$USERR1
 40
0.0
  9
$USERR2
 40
0.0
  9
$USERR3
 40
0.0
  9
$USERR4
 40
0.0
  9
$USERR5
 40
0.0
  9
$WORLDVIEW
 70
1
  9
$SHADEDGE
 70
3
  9
$SHADEDIF
 70
70
  9
$TILEMODE
 70
1
  9
$MAXACTVP
 70
64
  9
$PINSBASE
 10
0.0
 20
0.0
 30
0.0
  9
$PLIMCHECK
 70
0
  9
$PEXTMIN
 10
1e+20
 20
1e+20
 30
1e+20
  9
$PEXTMAX
 10
-1e+20
 20
-1e+20
 30
-1e+20
  9
$PLIMMIN
 10
0.0
 20
0.0
  9
$PLIMMAX
 10
420.0
 20
297.0
  9
$UNITMODE
 70
0
  9
$VISRETAIN
 70
1
  9
$PLINEGEN
 70
0
  9
$PSLTSCALE
 70
1
  9
$TREEDEPTH
 70
3020
  9
$CMLSTYLE
  2
Standard
  9
$CMLJUST
 70
0
  9
$CMLSCALE
 40
20.0
  9
$PROXYGRAPHICS
 70
1
  9
$MEASUREMENT
 70
1
  9
$CELWEIGHT
370
-1
  9
$ENDCAPS
280
0
  9
$JOINSTYLE
280
0
  9
$LWDISPLAY
290
0
  9
$INSUNITS
 70
6
  9
$HYPERLINKBASE
  1

  9
$STYLESHEET
  1

  9
$XEDIT
290
1
  9
$CEPSNTYPE
380
0
  9
$PSTYLEMODE
290
1
  9
$FINGERPRINTGUID
  2
{BEA00B22-0FF6-4E1C-BBA8-B2FD9FB7ECE2}
  9
$VERSIONGUID
  2
{957199A0-81A7-4C77-A1F6-4F660BE35944}
  9
$EXTNAMES
290
1
  9
$PSVPSCALE
 40
0.0
  9
$OLESTARTUP
290
0
  9
$SORTENTS
280
127
  9
$INDEXCTL
280
0
  9
$HIDETEXT
280
1
  9
$XCLIPFRAME
280
1
  9
$HALOGAP
280
0
  9
$OBSCOLOR
 70
257
  9
$OBSLTYPE
280
0
  9
$INTERSECTIONDISPLAY
280
0
  9
$INTERSECTIONCOLOR
 70
257
  9
$DIMASSOC
280
2
  9
$PROJECTNAME
  1

  9
$CAMERADISPLAY
290
0
  9
$LENSLENGTH
 40
50.0
  9
$CAMERAHEIGHT
 40
0.0
  9
$STEPSPERSEC
 40
24.0
  9
$STEPSIZE
 40
100.0
  9
$3DDWFPREC
 40
2.0
  9
$PSOLWIDTH
 40
0.005
  9
$PSOLHEIGHT
 40
0.08
  9
$LOFTANG1
 40
1.570796326795
  9
$LOFTANG2
 40
1.570796326795
  9
$LOFTMAG1
 40
0.0
  9
$LOFTMAG2
 40
0.0
  9
$LOFTPARAM
 70
7
  9
$LOFTNORMALS
280
1
  9
$LATITUDE
 40
37.795
  9
$LONGITUDE
 40
-122.394
  9
$NORTHDIRECTION
 40
0.0
  9
$TIMEZONE
 70
-8000
  9
$LIGHTGLYPHDISPLAY
280
1
  9
$TILEMODELIGHTSYNCH
280
1
  9
$CMATERIAL
347
20
  9
$SOLIDHIST
280
0
  9
$SHOWHIST
280
1
  9
$DWFFRAME
280
2
  9
$DGNFRAME
280
2
  9
$REALWORLDSCALE
290
1
  9
$INTERFERECOLOR
 62
256
  9
$CSHADOW
280
0
  9
$SHADOWPLANELOCATION
 40
0.0
  0
ENDSEC
  0
SECTION
  2
CLASSES
  0
CLASS
  1
ACDBDICTIONARYWDFLT
  2
AcDbDictionaryWithDefault
  3
ObjectDBX Classes
 90
0
 91
0
280
0
281
0
  0
CLASS
  1
SUN
  2
AcDbSun
  3
SCENEOE
 90
1153
 91
0
280
0
281
0
  0
CLASS
  1
VISUALSTYLE
  2
AcDbVisualStyle
  3
ObjectDBX Classes
 90
4095
 91
0
280
0
281
0
  0
CLASS
  1
MATERIAL
  2
AcDbMaterial
  3
ObjectDBX Classes
 90
1153
 91
0
280
0
281
0
  0
CLASS
  1
SCALE
  2
AcDbScale
  3
ObjectDBX Classes
 90
1153
 91
0
280
0
281
0
  0
CLASS
  1
TABLESTYLE
  2
AcDbTableStyle
  3
ObjectDBX Classes
 90
4095
 91
0
280
0
281
0
  0
CLASS
  1
MLEADERSTYLE
  2
AcDbMLeaderStyle
  3
ACDB_MLEADERSTYLE_CLASS
 90
4095
 91
0
280
0
281
0
  0
CLASS
  1
DICTIONARYVAR
  2
AcDbDictionaryVar
  3
ObjectDBX Classes
 90
0
 91
0
280
0
281
0
  0
CLASS
  1
CELLSTYLEMAP
  2
AcDbCellStyleMap
  3
ObjectDBX Classes
 90
1152
 91
0
280
0
281
0
  0
CLASS
  1
MENTALRAYRENDERSETTINGS
  2
AcDbMentalRayRenderSettings
  3
SCENEOE
 90
1024
 91
0
280
0
281
0
  0
CLASS
  1
ACDBDETAILVIEWSTYLE
  2
AcDbDetailViewStyle
  3
ObjectDBX Classes
 90
1025
 91
0
280
0
281
0
  0
CLASS
  1
ACDBSECTIONVIEWSTYLE
  2
AcDbSectionViewStyle
  3
ObjectDBX Classes
 90
1025
 91
0
280
0
281
0
  0
CLASS
  1
RASTERVARIABLES
  2
AcDbRasterVariables
  3
ISM
 90
0
 91
0
280
0
281
0
  0
CLASS
  1
ACDBPLACEHOLDER
  2
AcDbPlaceHolder
  3
ObjectDBX Classes
 90
0
 91
0
280
0
281
0
  0
CLASS
  1
LAYOUT
  2
AcDbLayout
  3
ObjectDBX Classes
 90
0
 91
0
280
0
281
0
  0
ENDSEC
  0
SECTION
  2
TABLES
  0
TABLE
  2
VPORT
  5
8
330
0
100
AcDbSymbolTable
 70
1
  0
VPORT
  5
23
330
8
100
AcDbSymbolTableRecord
100
AcDbViewportTableRecord
  2
*Active
 70
0
 10
0.0
 20
0.0
 11
1.0
 21
1.0
 12
0.0
 22
0.0
 13
0.0
 23
0.0
 14
0.5
 24
0.5
 15
0.5
 25
0.5
 16
0.0
 26
0.0
 36
1.0
 17
0.0
 27
0.0
 37
0.0
 40
1000.0
 41
1.34
 42
50.0
 43
0.0
 44
0.0
 50
0.0
 51
0.0
 71
0
 72
1000
 73
1
 74
3
 75
0
 76
0
 77
0
 78
0
281
0
 65
0
146
0.0
  0
ENDTAB
  0
TABLE
  2
LTYPE
  5
2
330
0
100
AcDbSymbolTable
 70
3
  0
LTYPE
  5
24
330
2
100
AcDbSymbolTableRecord
100
AcDbLinetypeTableRecord
  2
ByBlock
 70
0
  3

 72
65
 73
0
 40
0.0
  0
LTYPE
  5
25
330
2
100
AcDbSymbolTableRecord
100
AcDbLinetypeTableRecord
  2
ByLayer
 70
0
  3

 72
65
 73
0
 40
0.0
  0
LTYPE
  5
26
330
2
100
AcDbSymbolTableRecord
100
AcDbLinetypeTableRecord
  2
Continuous
 70
0
  3

 72
65
 73
0
 40
0.0
  0
ENDTAB
  0
TABLE
  2
LAYER
  5
1
330
0
100
AcDbSymbolTable
 70
3
  0
LAYER
  5
27
330
1
100
AcDbSymbolTableRecord
100
AcDbLayerTableRecord
  2
0
 70
0
 62
7
  6
Continuous
370
-3
390
13
347
21
  0
LAYER
  5
28
330
1
100
AcDbSymbolTableRecord
100
AcDbLayerTableRecord
  2
Defpoints
 70
0
 62
7
  6
Continuous
290
0
370
-3
390
13
347
21
  0
LAYER
  5
2F
330
1
100
AcDbSymbolTableRecord
100
AcDbLayerTableRecord
  2
DEBUG_ENGINEERING_OBJECTS
 70
0
 62
7
  6
Continuous
370
-3
390
13
347
21
  0
ENDTAB
  0
TABLE
  2
STYLE
  5
5
330
0
100
AcDbSymbolTable
 70
1
  0
STYLE
  5
29
330
5
100
AcDbSymbolTableRecord
100
AcDbTextStyleTableRecord
  2
Standard
 70
0
 40
0.0
 41
1.0
 50
0.0
 71
0
 42
2.5
  3
txt
  4

  0
ENDTAB
  0
TABLE
  2
VIEW
  5
7
330
0
100
AcDbSymbolTable
 70
0
  0
ENDTAB
  0
TABLE
  2
UCS
  5
6
330
0
100
AcDbSymbolTable
 70
0
  0
ENDTAB
  0
TABLE
  2
APPID
  5
3
330
0
100
AcDbSymbolTable
 70
3
  0
APPID
  5
2A
330
3
100
AcDbSymbolTableRecord
100
AcDbRegAppTableRecord
  2
ACAD
 70
0
  0
APPID
  5
E0
330
3
100
AcDbSymbolTableRecord
100
AcDbRegAppTableRecord
  2
HATCHBACKGROUNDCOLOR
 70
0
  0
APPID
  5
E1
330
3
100
AcDbSymbolTableRecord
100
AcDbRegAppTableRecord
  2
EZDXF
 70
0
  0
ENDTAB
  0
TABLE
  2
DIMSTYLE
  5
4
330
0
100
AcDbSymbolTable
 70
1
100
AcDbDimStyleTable
  0
DIMSTYLE
105
2B
330
4
100
AcDbSymbolTableRecord
100
AcDbDimStyleTableRecord
  2
Standard
 70
0
 40
1.0
 41
2.5
 42
0.625
 43
3.75
 44
1.25
 45
0.0
 46
0.0
 47
0.0
 48
0.0
 49
2.5
140
2.5
141
2.5
142
0.0
143
0.03937007874
144
1.0
145
0.0
146
1.0
147
0.625
148
0.0
 69
0
 70
0
 71
0
 72
0
 73
0
 74
0
 75
0
 76
0
 77
1
 78
8
 79
3
170
0
171
3
172
1
173
0
174
0
175
0
176
0
177
0
178
0
179
2
271
2
272
2
273
2
274
3
275
0
276
0
277
2
278
44
279
0
280
0
281
0
282
0
283
0
284
8
285
0
286
0
288
0
289
3
290
0
371
-2
372
-2
  0
ENDTAB
  0
TABLE
  2
BLOCK_RECORD
  5
9
330
0
100
AcDbSymbolTable
 70
2
  0
BLOCK_RECORD
  5
17
330
9
100
AcDbSymbolTableRecord
100
AcDbBlockTableRecord
  2
*Model_Space
340
1A
 70
0
280
1
281
0
  0
BLOCK_RECORD
  5
1B
330
9
100
AcDbSymbolTableRecord
100
AcDbBlockTableRecord
  2
*Paper_Space
340
1E
 70
0
280
1
281
0
  0
ENDTAB
  0
ENDSEC
  0
SECTION
  2
BLOCKS
  0
BLOCK
  5
18
330
17
100
AcDbEntity
  8
0
100
AcDbBlockBegin
  2
*Model_Space
 70
0
 10
0.0
 20
0.0
 30
0.0
  3
*Model_Space
  1

  0
ENDBLK
  5
19
330
17
100
AcDbEntity
  8
0
100
AcDbBlockEnd
  0
BLOCK
  5
1C
330
1B
100
AcDbEntity
  8
0
100
AcDbBlockBegin
  2
*Paper_Space
 70
0
 10
0.0
 20
0.0
 30
0.0
  3
*Paper_Space
  1

  0
ENDBLK
  5
1D
330
1B
100
AcDbEntity
  8
0
100
AcDbBlockEnd
  0
ENDSEC
  0
SECTION
  2
ENTITIES
  0
CIRCLE
  5
30
330
17
100
AcDbEntity
  8
DEBUG_ENGINEERING_OBJECTS
 62
3
100
AcDbCircle
 10
7162.6
 20
18919.1
 30
0.0
 40
120.0
  0
TEXT
  5
31
330
17
100
AcDbEntity
  8
DEBUG_ENGINEERING_OBJECTS
 62
3
100
AcDbText
 10
7162.6
 20
19169.1
 30
0.0
 40
180.0
  1
2d8b4e3d LONGITUDINAL_BAR2-Y12B1
100
AcDbText
  0
CIRCLE
  5
32
330
17
100
AcDbEntity
  8
DEBUG_ENGINEERING_OBJECTS
 62
3
100
AcDbCircle
 10
11596.4
 20
18664.6
 30
0.0
 40
120.0
  0
LINE
  5
33
330
17
100
AcDbEntity
  8
DEBUG_ENGINEERING_OBJECTS
 62
3
100
AcDbLine
 10
11596.4
 20
18664.6
 30
0.0
 11
11217.31901397452
 21
17665.569284207
 31
0.0
  0
TEXT
  5
34
330
17
100
AcDbEntity
  8
DEBUG_ENGINEERING_OBJECTS
 62
3
100
AcDbText
 10
11596.4
 20
18914.6
 30
0.0
 40
180.0
  1
18838997 LONGITUDINAL_BAR2-Y20B6
100
AcDbText
  0
CIRCLE
  5
35
330
17
100
AcDbEntity
  8
DEBUG_ENGINEERING_OBJECTS
 62
3
100
AcDbCircle
 10
11455.7
 20
17379.4
 30
0.0
 40
120.0
  0
LINE
  5
36
330
17
100
AcDbEntity
  8
DEBUG_ENGINEERING_OBJECTS
 62
3
100
AcDbLine
 10
11455.7
 20
17379.4
 30
0.0
 11
11217.31901397452
 21
18265.56928421259
 31
0.0
  0
TEXT
  5
37
330
17
100
AcDbEntity
  8
DEBUG_ENGINEERING_OBJECTS
 62
3
100
AcDbText
 10
11455.7
 20
17629.4
 30
0.0
 40
180.0
  1
a31dd1df LONGITUDINAL_BAR2-Y20B6
100
AcDbText
  0
CIRCLE
  5
38
330
17
100
AcDbEntity
  8
DEBUG_ENGINEERING_OBJECTS
 62
3
100
AcDbCircle
 10
3825.2
 20
18698.3
 30
0.0
 40
120.0
  0
TEXT
  5
39
330
17
100
AcDbEntity
  8
DEBUG_ENGINEERING_OBJECTS
 62
3
100
AcDbText
 10
3825.2
 20
18948.3
 30
0.0
 40
180.0
  1
a0a5184a LONGITUDINAL_BAR2-Y16B1
100
AcDbText
  0
CIRCLE
  5
3A
330
17
100
AcDbEntity
  8
DEBUG_ENGINEERING_OBJECTS
 62
3
100
AcDbCircle
 10
2968.0
 20
17310.5
 30
0.0
 40
120.0
  0
LINE
  5
3B
330
17
100
AcDbEntity
  8
DEBUG_ENGINEERING_OBJECTS
 62
3
100
AcDbLine
 10
2968.0
 20
17310.5
 30
0.0
 11
3487.451632066528
 21
18285.75244483799
 31
0.0
  0
TEXT
  5
3C
330
17
100
AcDbEntity
  8
DEBUG_ENGINEERING_OBJECTS
 62
3
100
AcDbText
 10
2968.0
 20
17560.5
 30
0.0
 40
180.0
  1
fb1e7e2e LONGITUDINAL_BAR2-Y20B5
100
AcDbText
  0
CIRCLE
  5
3D
330
17
100
AcDbEntity
  8
DEBUG_ENGINEERING_OBJECTS
 62
3
100
AcDbCircle
 10
10189.8
 20
22035.9
 30
0.0
 40
120.0
  0
TEXT
  5
3E
330
17
100
AcDbEntity
  8
DEBUG_ENGINEERING_OBJECTS
 62
3
100
AcDbText
 10
10189.8
 20
22285.9
 30
0.0
 40
180.0
  1
e0bb3b73 ANCHORAGELdB1
100
AcDbText
  0
CIRCLE
  5
3F
330
17
100
AcDbEntity
  8
DEBUG_ENGINEERING_OBJECTS
 62
3
100
AcDbCircle
 10
7588.6
 20
20493.1
 30
0.0
 40
120.0
  0
TEXT
  5
40
330
17
100
AcDbEntity
  8
DEBUG_ENGINEERING_OBJECTS
 62
3
100
AcDbText
 10
7588.6
 20
20743.1
 30
0.0
 40
180.0
  1
287f473f LONGITUDINAL_BAR2-Y20B1
100
AcDbText
  0
CIRCLE
  5
41
330
17
100
AcDbEntity
  8
DEBUG_ENGINEERING_OBJECTS
 62
3
100
AcDbCircle
 10
8689.4
 20
20479.4
 30
0.0
 40
120.0
  0
TEXT
  5
42
330
17
100
AcDbEntity
  8
DEBUG_ENGINEERING_OBJECTS
 62
3
100
AcDbText
 10
8689.4
 20
20729.4
 30
0.0
 40
180.0
  1
e291fd95 LONGITUDINAL_BAR2-Y20B1
100
AcDbText
  0
CIRCLE
  5
43
330
17
100
AcDbEntity
  8
DEBUG_ENGINEERING_OBJECTS
 62
3
100
AcDbCircle
 10
6945.3
 20
20147.6
 30
0.0
 40
120.0
  0
TEXT
  5
44
330
17
100
AcDbEntity
  8
DEBUG_ENGINEERING_OBJECTS
 62
3
100
AcDbText
 10
6945.3
 20
20397.6
 30
0.0
 40
180.0
  1
0e6c6594 STIRRUP2L-Y10@100C/CB1
100
AcDbText
  0
CIRCLE
  5
45
330
17
100
AcDbEntity
  8
DEBUG_ENGINEERING_OBJECTS
 62
3
100
AcDbCircle
 10
16546.7
 20
17375.5
 30
0.0
 40
120.0
  0
LINE
  5
46
330
17
100
AcDbEntity
  8
DEBUG_ENGINEERING_OBJECTS
 62
3
100
AcDbLine
 10
16546.7
 20
17375.5
 30
0.0
 11
16947.97032238067
 21
18064.20884590857
 31
0.0
  0
TEXT
  5
47
330
17
100
AcDbEntity
  8
DEBUG_ENGINEERING_OBJECTS
 62
3
100
AcDbText
 10
16546.7
 20
17625.5
 30
0.0
 40
180.0
  1
94ef54a4 LONGITUDINAL_BAR2-Y20B7
100
AcDbText
  0
CIRCLE
  5
48
330
17
100
AcDbEntity
  8
DEBUG_ENGINEERING_OBJECTS
 62
3
100
AcDbCircle
 10
23361.4
 20
20668.6
 30
0.0
 40
120.0
  0
LINE
  5
49
330
17
100
AcDbEntity
  8
DEBUG_ENGINEERING_OBJECTS
 62
3
100
AcDbLine
 10
23361.4
 20
20668.6
 30
0.0
 11
23955.99174033375
 21
21657.45543660485
 31
0.0
  0
TEXT
  5
4A
330
17
100
AcDbEntity
  8
DEBUG_ENGINEERING_OBJECTS
 62
3
100
AcDbText
 10
23361.4
 20
20918.6
 30
0.0
 40
180.0
  1
90b69f20 LONGITUDINAL_BAR2-Y20B3
100
AcDbText
  0
CIRCLE
  5
4B
330
17
100
AcDbEntity
  8
DEBUG_ENGINEERING_OBJECTS
 62
3
100
AcDbCircle
 10
23397.9
 20
20180.3
 30
0.0
 40
120.0
  0
TEXT
  5
4C
330
17
100
AcDbEntity
  8
DEBUG_ENGINEERING_OBJECTS
 62
3
100
AcDbText
 10
23397.9
 20
20430.3
 30
0.0
 40
180.0
  1
e59db1b5 STIRRUP2L-Y8@100C/CB3
100
AcDbText
  0
CIRCLE
  5
4D
330
17
100
AcDbEntity
  8
DEBUG_ENGINEERING_OBJECTS
 62
3
100
AcDbCircle
 10
24738.1
 20
19438.0
 30
0.0
 40
120.0
  0
TEXT
  5
4E
330
17
100
AcDbEntity
  8
DEBUG_ENGINEERING_OBJECTS
 62
3
100
AcDbText
 10
24738.1
 20
19688.0
 30
0.0
 40
180.0
  1
73be0729 SIDE_FACE_REINFORCEMENT4-Y8, SIDE FACE REINB3
100
AcDbText
  0
CIRCLE
  5
4F
330
17
100
AcDbEntity
  8
DEBUG_ENGINEERING_OBJECTS
 62
3
100
AcDbCircle
 10
21864.1
 20
20180.3
 30
0.0
 40
120.0
  0
LINE
  5
50
330
17
100
AcDbEntity
  8
DEBUG_ENGINEERING_OBJECTS
 62
3
100
AcDbLine
 10
21864.1
 20
20180.3
 30
0.0
 11
22255.50958521561
 21
20907.35488834121
 31
0.0
  0
TEXT
  5
51
330
17
100
AcDbEntity
  8
DEBUG_ENGINEERING_OBJECTS
 62
3
100
AcDbText
 10
21864.1
 20
20430.3
 30
0.0
 40
180.0
  1
009ac81a STIRRUP2L-Y8@100C/CB3
100
AcDbText
  0
CIRCLE
  5
52
330
17
100
AcDbEntity
  8
DEBUG_ENGINEERING_OBJECTS
 62
3
100
AcDbCircle
 10
29313.4
 20
20385.1
 30
0.0
 40
120.0
  0
TEXT
  5
53
330
17
100
AcDbEntity
  8
DEBUG_ENGINEERING_OBJECTS
 62
3
100
AcDbText
 10
29313.4
 20
20635.1
 30
0.0
 40
180.0
  1
b2d6bfbf LONGITUDINAL_BAR2-Y16B4
100
AcDbText
  0
CIRCLE
  5
54
330
17
100
AcDbEntity
  8
DEBUG_ENGINEERING_OBJECTS
 62
3
100
AcDbCircle
 10
28691.6
 20
20224.5
 30
0.0
 40
120.0
  0
TEXT
  5
55
330
17
100
AcDbEntity
  8
DEBUG_ENGINEERING_OBJECTS
 62
3
100
AcDbText
 10
28691.6
 20
20474.5
 30
0.0
 40
180.0
  1
d0367cb2 STIRRUP2L-Y8@100/200/100C/CB4
100
AcDbText
  0
CIRCLE
  5
56
330
17
100
AcDbEntity
  8
DEBUG_ENGINEERING_OBJECTS
 62
3
100
AcDbCircle
 10
26385.4
 20
20532.8
 30
0.0
 40
120.0
  0
LINE
  5
57
330
17
100
AcDbEntity
  8
DEBUG_ENGINEERING_OBJECTS
 62
3
100
AcDbLine
 10
26385.4
 20
20532.8
 30
0.0
 11
26904.88680953429
 21
21508.06362478324
 31
0.0
  0
TEXT
  5
58
330
17
100
AcDbEntity
  8
DEBUG_ENGINEERING_OBJECTS
 62
3
100
AcDbText
 10
26385.4
 20
20782.8
 30
0.0
 40
180.0
  1
0f5329a9 LONGITUDINAL_BAR2-Y20B4
100
AcDbText
  0
CIRCLE
  5
59
330
17
100
AcDbEntity
  8
DEBUG_ENGINEERING_OBJECTS
 62
3
100
AcDbCircle
 10
5895.9
 20
17162.8
 30
0.0
 40
120.0
  0
TEXT
  5
5A
330
17
100
AcDbEntity
  8
DEBUG_ENGINEERING_OBJECTS
 62
3
100
AcDbText
 10
5895.9
 20
17412.8
 30
0.0
 40
180.0
  1
e5b90c9b LONGITUDINAL_BAR2-Y16B1
100
AcDbText
  0
CIRCLE
  5
5B
330
17
100
AcDbEntity
  8
DEBUG_ENGINEERING_OBJECTS
 62
3
100
AcDbCircle
 10
5274.2
 20
17002.2
 30
0.0
 40
120.0
  0
TEXT
  5
5C
330
17
100
AcDbEntity
  8
DEBUG_ENGINEERING_OBJECTS
 62
3
100
AcDbText
 10
5274.2
 20
17252.2
 30
0.0
 40
180.0
  1
36a39e18 STIRRUP2L-Y8@100/200/100C/CB5
100
AcDbText
  0
CIRCLE
  5
5D
330
17
100
AcDbEntity
  8
DEBUG_ENGINEERING_OBJECTS
 62
3
100
AcDbCircle
 10
11389.4
 20
16891.7
 30
0.0
 40
120.0
  0
TEXT
  5
5E
330
17
100
AcDbEntity
  8
DEBUG_ENGINEERING_OBJECTS
 62
3
100
AcDbText
 10
11389.4
 20
17141.7
 30
0.0
 40
180.0
  1
a5acee21 STIRRUP2L-Y8@150C/CB6
100
AcDbText
  0
CIRCLE
  5
5F
330
17
100
AcDbEntity
  8
DEBUG_ENGINEERING_OBJECTS
 62
3
100
AcDbCircle
 10
15446.1
 20
17474.0
 30
0.0
 40
120.0
  0
TEXT
  5
60
330
17
100
AcDbEntity
  8
DEBUG_ENGINEERING_OBJECTS
 62
3
100
AcDbText
 10
15446.1
 20
17724.0
 30
0.0
 40
180.0
  1
4852515f ANCHORAGELdB7
100
AcDbText
  0
CIRCLE
  5
61
330
17
100
AcDbEntity
  8
DEBUG_ENGINEERING_OBJECTS
 62
3
100
AcDbCircle
 10
16458.5
 20
16730.6
 30
0.0
 40
120.0
  0
TEXT
  5
62
330
17
100
AcDbEntity
  8
DEBUG_ENGINEERING_OBJECTS
 62
3
100
AcDbText
 10
16458.5
 20
16980.6
 30
0.0
 40
180.0
  1
c2d47089 STIRRUP2L-Y10@100C/CB7
100
AcDbText
  0
CIRCLE
  5
63
330
17
100
AcDbEntity
  8
DEBUG_ENGINEERING_OBJECTS
 62
3
100
AcDbCircle
 10
20636.3
 20
18666.9
 30
0.0
 40
120.0
  0
TEXT
  5
64
330
17
100
AcDbEntity
  8
DEBUG_ENGINEERING_OBJECTS
 62
3
100
AcDbText
 10
20636.3
 20
18916.9
 30
0.0
 40
180.0
  1
0ba16d33 LONGITUDINAL_BAR2-Y16B8
100
AcDbText
  0
CIRCLE
  5
65
330
17
100
AcDbEntity
  8
DEBUG_ENGINEERING_OBJECTS
 62
3
100
AcDbCircle
 10
19326.7
 20
17369.2
 30
0.0
 40
120.0
  0
LINE
  5
66
330
17
100
AcDbEntity
  8
DEBUG_ENGINEERING_OBJECTS
 62
3
100
AcDbLine
 10
19326.7
 20
17369.2
 30
0.0
 11
19634.56985545427
 21
18085.92057583183
 31
0.0
  0
TEXT
  5
67
330
17
100
AcDbEntity
  8
DEBUG_ENGINEERING_OBJECTS
 62
3
100
AcDbText
 10
19326.7
 20
17619.2
 30
0.0
 40
180.0
  1
479e7ea1 ANCHORAGELdB8
100
AcDbText
  0
CIRCLE
  5
68
330
17
100
AcDbEntity
  8
DEBUG_ENGINEERING_OBJECTS
 62
3
100
AcDbCircle
 10
20636.3
 20
17049.1
 30
0.0
 40
120.0
  0
TEXT
  5
69
330
17
100
AcDbEntity
  8
DEBUG_ENGINEERING_OBJECTS
 62
3
100
AcDbText
 10
20636.3
 20
17299.1
 30
0.0
 40
180.0
  1
f3c837f7 LONGITUDINAL_BAR2-Y16B8
100
AcDbText
  0
CIRCLE
  5
6A
330
17
100
AcDbEntity
  8
DEBUG_ENGINEERING_OBJECTS
 62
3
100
AcDbCircle
 10
20572.6
 20
16742.7
 30
0.0
 40
120.0
  0
TEXT
  5
6B
330
17
100
AcDbEntity
  8
DEBUG_ENGINEERING_OBJECTS
 62
3
100
AcDbText
 10
20572.6
 20
16992.7
 30
0.0
 40
180.0
  1
2a489ad4 STIRRUP2L-Y8@100C/CB8
100
AcDbText
  0
CIRCLE
  5
6C
330
17
100
AcDbEntity
  8
DEBUG_ENGINEERING_OBJECTS
 62
3
100
AcDbCircle
 10
22808.3
 20
18814.4
 30
0.0
 40
120.0
  0
TEXT
  5
6D
330
17
100
AcDbEntity
  8
DEBUG_ENGINEERING_OBJECTS
 62
3
100
AcDbText
 10
22808.3
 20
19064.4
 30
0.0
 40
180.0
  1
1e7574ec LONGITUDINAL_BAR2-Y16B3
100
AcDbText
  0
CIRCLE
  5
6E
330
17
100
AcDbEntity
  8
DEBUG_ENGINEERING_OBJECTS
 62
3
100
AcDbCircle
 10
24105.1
 20
18666.9
 30
0.0
 40
120.0
  0
TEXT
  5
6F
330
17
100
AcDbEntity
  8
DEBUG_ENGINEERING_OBJECTS
 62
3
100
AcDbText
 10
24105.1
 20
18916.9
 30
0.0
 40
180.0
  1
db90abbb LONGITUDINAL_BAR2-Y16B9
100
AcDbText
  0
CIRCLE
  5
70
330
17
100
AcDbEntity
  8
DEBUG_ENGINEERING_OBJECTS
 62
3
100
AcDbCircle
 10
23284.8
 20
17112.8
 30
0.0
 40
120.0
  0
TEXT
  5
71
330
17
100
AcDbEntity
  8
DEBUG_ENGINEERING_OBJECTS
 62
3
100
AcDbText
 10
23284.8
 20
17362.8
 30
0.0
 40
180.0
  1
c7d3f2f8 LONGITUDINAL_BAR2-Y16B9
100
AcDbText
  0
CIRCLE
  5
72
330
17
100
AcDbEntity
  8
DEBUG_ENGINEERING_OBJECTS
 62
3
100
AcDbCircle
 10
24105.1
 20
17049.1
 30
0.0
 40
120.0
  0
TEXT
  5
73
330
17
100
AcDbEntity
  8
DEBUG_ENGINEERING_OBJECTS
 62
3
100
AcDbText
 10
24105.1
 20
17299.1
 30
0.0
 40
180.0
  1
4086fec9 LONGITUDINAL_BAR2-Y16B9
100
AcDbText
  0
CIRCLE
  5
74
330
17
100
AcDbEntity
  8
DEBUG_ENGINEERING_OBJECTS
 62
3
100
AcDbCircle
 10
24204.0
 20
16668.7
 30
0.0
 40
120.0
  0
TEXT
  5
75
330
17
100
AcDbEntity
  8
DEBUG_ENGINEERING_OBJECTS
 62
3
100
AcDbText
 10
24204.0
 20
16918.7
 30
0.0
 40
180.0
  1
b2c2602c STIRRUP2L-Y8@100C/CB9
100
AcDbText
  0
CIRCLE
  5
76
330
17
100
AcDbEntity
  8
DEBUG_ENGINEERING_OBJECTS
 62
3
100
AcDbCircle
 10
27681.8
 20
18666.9
 30
0.0
 40
120.0
  0
TEXT
  5
77
330
17
100
AcDbEntity
  8
DEBUG_ENGINEERING_OBJECTS
 62
3
100
AcDbText
 10
27681.8
 20
18916.9
 30
0.0
 40
180.0
  1
3fc8ba15 LONGITUDINAL_BAR2-Y16B10
100
AcDbText
  0
CIRCLE
  5
78
330
17
100
AcDbEntity
  8
DEBUG_ENGINEERING_OBJECTS
 62
3
100
AcDbCircle
 10
30082.4
 20
17369.2
 30
0.0
 40
120.0
  0
LINE
  5
79
330
17
100
AcDbEntity
  8
DEBUG_ENGINEERING_OBJECTS
 62
3
100
AcDbLine
 10
30082.4
 20
17369.2
 30
0.0
 11
29774.56985544683
 21
18085.92057584487
 31
0.0
  0
TEXT
  5
7A
330
17
100
AcDbEntity
  8
DEBUG_ENGINEERING_OBJECTS
 62
3
100
AcDbText
 10
30082.4
 20
17619.2
 30
0.0
 40
180.0
  1
7d7ee5cc ANCHORAGELdB4
100
AcDbText
  0
CIRCLE
  5
7B
330
17
100
AcDbEntity
  8
DEBUG_ENGINEERING_OBJECTS
 62
3
100
AcDbCircle
 10
27681.8
 20
17049.1
 30
0.0
 40
120.0
  0
TEXT
  5
7C
330
17
100
AcDbEntity
  8
DEBUG_ENGINEERING_OBJECTS
 62
3
100
AcDbText
 10
27681.8
 20
17299.1
 30
0.0
 40
180.0
  1
9859c41a LONGITUDINAL_BAR2-Y16B10
100
AcDbText
  0
CIRCLE
  5
7D
330
17
100
AcDbEntity
  8
DEBUG_ENGINEERING_OBJECTS
 62
3
100
AcDbCircle
 10
27819.2
 20
16676.1
 30
0.0
 40
120.0
  0
TEXT
  5
7E
330
17
100
AcDbEntity
  8
DEBUG_ENGINEERING_OBJECTS
 62
3
100
AcDbText
 10
27819.2
 20
16926.1
 30
0.0
 40
180.0
  1
876ff5cb STIRRUP2L-Y8@100C/CB10
100
AcDbText
  0
CIRCLE
  5
7F
330
17
100
AcDbEntity
  8
DEBUG_ENGINEERING_OBJECTS
 62
3
100
AcDbCircle
 10
33657.0
 20
18612.7
 30
0.0
 40
120.0
  0
TEXT
  5
80
330
17
100
AcDbEntity
  8
DEBUG_ENGINEERING_OBJECTS
 62
3
100
AcDbText
 10
33657.0
 20
18862.7
 30
0.0
 40
180.0
  1
688717b1 LONGITUDINAL_BAR2-Y16B11
100
AcDbText
  0
CIRCLE
  5
81
330
17
100
AcDbEntity
  8
DEBUG_ENGINEERING_OBJECTS
 62
3
100
AcDbCircle
 10
33739.4
 20
17059.7
 30
0.0
 40
120.0
  0
TEXT
  5
82
330
17
100
AcDbEntity
  8
DEBUG_ENGINEERING_OBJECTS
 62
3
100
AcDbText
 10
33739.4
 20
17309.7
 30
0.0
 40
180.0
  1
c288e509 LONGITUDINAL_BAR2-Y16B11
100
AcDbText
  0
CIRCLE
  5
83
330
17
100
AcDbEntity
  8
DEBUG_ENGINEERING_OBJECTS
 62
3
100
AcDbCircle
 10
33709.3
 20
16727.9
 30
0.0
 40
120.0
  0
TEXT
  5
84
330
17
100
AcDbEntity
  8
DEBUG_ENGINEERING_OBJECTS
 62
3
100
AcDbText
 10
33709.3
 20
16977.9
 30
0.0
 40
180.0
  1
ace5d9a3 STIRRUP2L-Y8@200C/CB11
100
AcDbText
  0
CIRCLE
  5
85
330
17
100
AcDbEntity
  8
DEBUG_ENGINEERING_OBJECTS
 62
3
100
AcDbCircle
 10
7277.3
 20
15210.1
 30
0.0
 40
120.0
  0
TEXT
  5
86
330
17
100
AcDbEntity
  8
DEBUG_ENGINEERING_OBJECTS
 62
3
100
AcDbText
 10
7277.3
 20
15460.1
 30
0.0
 40
180.0
  1
06ddadfb LONGITUDINAL_BAR2-Y16B6
100
AcDbText
  0
CIRCLE
  5
87
330
17
100
AcDbEntity
  8
DEBUG_ENGINEERING_OBJECTS
 62
3
100
AcDbCircle
 10
7288.1
 20
13657.1
 30
0.0
 40
120.0
  0
TEXT
  5
88
330
17
100
AcDbEntity
  8
DEBUG_ENGINEERING_OBJECTS
 62
3
100
AcDbText
 10
7288.1
 20
13907.1
 30
0.0
 40
180.0
  1
244a698c LONGITUDINAL_BAR2-Y20B12
100
AcDbText
  0
CIRCLE
  5
89
330
17
100
AcDbEntity
  8
DEBUG_ENGINEERING_OBJECTS
 62
3
100
AcDbCircle
 10
8140.7
 20
13325.3
 30
0.0
 40
120.0
  0
TEXT
  5
8A
330
17
100
AcDbEntity
  8
DEBUG_ENGINEERING_OBJECTS
 62
3
100
AcDbText
 10
8140.7
 20
13575.3
 30
0.0
 40
180.0
  1
64ead7eb STIRRUP2L-Y8@100/200/100C/CB12
100
AcDbText
  0
CIRCLE
  5
8B
330
17
100
AcDbEntity
  8
DEBUG_ENGINEERING_OBJECTS
 62
3
100
AcDbCircle
 10
4923.3
 20
15210.1
 30
0.0
 40
120.0
  0
TEXT
  5
8C
330
17
100
AcDbEntity
  8
DEBUG_ENGINEERING_OBJECTS
 62
3
100
AcDbText
 10
4923.3
 20
15460.1
 30
0.0
 40
180.0
  1
18614ad4 LONGITUDINAL_BAR2-Y16B12
100
AcDbText
  0
CIRCLE
  5
8D
330
17
100
AcDbEntity
  8
DEBUG_ENGINEERING_OBJECTS
 62
3
100
AcDbCircle
 10
4934.1
 20
13657.1
 30
0.0
 40
120.0
  0
TEXT
  5
8E
330
17
100
AcDbEntity
  8
DEBUG_ENGINEERING_OBJECTS
 62
3
100
AcDbText
 10
4934.1
 20
13907.1
 30
0.0
 40
180.0
  1
809a8268 LONGITUDINAL_BAR2-Y20B12
100
AcDbText
  0
CIRCLE
  5
8F
330
17
100
AcDbEntity
  8
DEBUG_ENGINEERING_OBJECTS
 62
3
100
AcDbCircle
 10
4651.9
 20
13325.3
 30
0.0
 40
120.0
  0
TEXT
  5
90
330
17
100
AcDbEntity
  8
DEBUG_ENGINEERING_OBJECTS
 62
3
100
AcDbText
 10
4651.9
 20
13575.3
 30
0.0
 40
180.0
  1
7070e105 STIRRUP2L-Y8@100/200/100C/CB12
100
AcDbText
  0
CIRCLE
  5
91
330
17
100
AcDbEntity
  8
DEBUG_ENGINEERING_OBJECTS
 62
3
100
AcDbCircle
 10
12553.0
 20
10074.9
 30
0.0
 40
120.0
  0
TEXT
  5
92
330
17
100
AcDbEntity
  8
DEBUG_ENGINEERING_OBJECTS
 62
3
100
AcDbText
 10
12553.0
 20
10324.9
 30
0.0
 40
180.0
  1
0b19903b LONGITUDINAL_BAR2-Y20B18
100
AcDbText
  0
CIRCLE
  5
93
330
17
100
AcDbEntity
  8
DEBUG_ENGINEERING_OBJECTS
 62
3
100
AcDbCircle
 10
17321.0
 20
15210.1
 30
0.0
 40
120.0
  0
TEXT
  5
94
330
17
100
AcDbEntity
  8
DEBUG_ENGINEERING_OBJECTS
 62
3
100
AcDbText
 10
17321.0
 20
15460.1
 30
0.0
 40
180.0
  1
041adaa3 LONGITUDINAL_BAR2-Y16B7
100
AcDbText
  0
CIRCLE
  5
95
330
17
100
AcDbEntity
  8
DEBUG_ENGINEERING_OBJECTS
 62
3
100
AcDbCircle
 10
17331.8
 20
13657.1
 30
0.0
 40
120.0
  0
TEXT
  5
96
330
17
100
AcDbEntity
  8
DEBUG_ENGINEERING_OBJECTS
 62
3
100
AcDbText
 10
17331.8
 20
13907.1
 30
0.0
 40
180.0
  1
7e755263 LONGITUDINAL_BAR2-Y20B13
100
AcDbText
  0
CIRCLE
  5
97
330
17
100
AcDbEntity
  8
DEBUG_ENGINEERING_OBJECTS
 62
3
100
AcDbCircle
 10
18184.4
 20
13325.3
 30
0.0
 40
120.0
  0
TEXT
  5
98
330
17
100
AcDbEntity
  8
DEBUG_ENGINEERING_OBJECTS
 62
3
100
AcDbText
 10
18184.4
 20
13575.3
 30
0.0
 40
180.0
  1
994bcf3c STIRRUP2L-Y8@100/200/100C/CB13
100
AcDbText
  0
CIRCLE
  5
99
330
17
100
AcDbEntity
  8
DEBUG_ENGINEERING_OBJECTS
 62
3
100
AcDbCircle
 10
14966.9
 20
15210.1
 30
0.0
 40
120.0
  0
TEXT
  5
9A
330
17
100
AcDbEntity
  8
DEBUG_ENGINEERING_OBJECTS
 62
3
100
AcDbText
 10
14966.9
 20
15460.1
 30
0.0
 40
180.0
  1
e9e78371 LONGITUDINAL_BAR2-Y16B13
100
AcDbText
  0
CIRCLE
  5
9B
330
17
100
AcDbEntity
  8
DEBUG_ENGINEERING_OBJECTS
 62
3
100
AcDbCircle
 10
14977.7
 20
13657.1
 30
0.0
 40
120.0
  0
TEXT
  5
9C
330
17
100
AcDbEntity
  8
DEBUG_ENGINEERING_OBJECTS
 62
3
100
AcDbText
 10
14977.7
 20
13907.1
 30
0.0
 40
180.0
  1
293fff78 LONGITUDINAL_BAR2-Y20B13
100
AcDbText
  0
CIRCLE
  5
9D
330
17
100
AcDbEntity
  8
DEBUG_ENGINEERING_OBJECTS
 62
3
100
AcDbCircle
 10
14695.6
 20
13325.3
 30
0.0
 40
120.0
  0
TEXT
  5
9E
330
17
100
AcDbEntity
  8
DEBUG_ENGINEERING_OBJECTS
 62
3
100
AcDbText
 10
14695.6
 20
13575.3
 30
0.0
 40
180.0
  1
8ab5dfd1 STIRRUP2L-Y8@100/200/100C/CB13
100
AcDbText
  0
CIRCLE
  5
9F
330
17
100
AcDbEntity
  8
DEBUG_ENGINEERING_OBJECTS
 62
3
100
AcDbCircle
 10
12738.9
 20
11471.7
 30
0.0
 40
120.0
  0
TEXT
  5
A0
330
17
100
AcDbEntity
  8
DEBUG_ENGINEERING_OBJECTS
 62
3
100
AcDbText
 10
12738.9
 20
11721.7
 30
0.0
 40
180.0
  1
136eb596 LONGITUDINAL_BAR2-Y20B13
100
AcDbText
  0
CIRCLE
  5
A1
330
17
100
AcDbEntity
  8
DEBUG_ENGINEERING_OBJECTS
 62
3
100
AcDbCircle
 10
14721.3
 20
11471.7
 30
0.0
 40
120.0
  0
TEXT
  5
A2
330
17
100
AcDbEntity
  8
DEBUG_ENGINEERING_OBJECTS
 62
3
100
AcDbText
 10
14721.3
 20
11721.7
 30
0.0
 40
180.0
  1
b61a4e86 LONGITUDINAL_BAR2-Y20B18
100
AcDbText
  0
CIRCLE
  5
A3
330
17
100
AcDbEntity
  8
DEBUG_ENGINEERING_OBJECTS
 62
3
100
AcDbCircle
 10
14535.4
 20
10074.9
 30
0.0
 40
120.0
  0
TEXT
  5
A4
330
17
100
AcDbEntity
  8
DEBUG_ENGINEERING_OBJECTS
 62
3
100
AcDbText
 10
14535.4
 20
10324.9
 30
0.0
 40
180.0
  1
d84facb2 LONGITUDINAL_BAR2-Y20B18
100
AcDbText
  0
CIRCLE
  5
A5
330
17
100
AcDbEntity
  8
DEBUG_ENGINEERING_OBJECTS
 62
3
100
AcDbCircle
 10
18895.4
 20
9945.1
 30
0.0
 40
120.0
  0
LINE
  5
A6
330
17
100
AcDbEntity
  8
DEBUG_ENGINEERING_OBJECTS
 62
3
100
AcDbLine
 10
18895.4
 20
9945.1
 30
0.0
 11
18897.21721159191
 21
10850.33598613255
 31
0.0
  0
TEXT
  5
A7
330
17
100
AcDbEntity
  8
DEBUG_ENGINEERING_OBJECTS
 62
3
100
AcDbText
 10
18895.4
 20
10195.1
 30
0.0
 40
180.0
  1
682d531e SIDE_FACE_REINFORCEMENTS.F.R. ON BOTH FACEB18
100
AcDbText
  0
CIRCLE
  5
A8
330
17
100
AcDbEntity
  8
DEBUG_ENGINEERING_OBJECTS
 62
3
100
AcDbCircle
 10
20809.8
 20
15210.1
 30
0.0
 40
120.0
  0
TEXT
  5
A9
330
17
100
AcDbEntity
  8
DEBUG_ENGINEERING_OBJECTS
 62
3
100
AcDbText
 10
20809.8
 20
15460.1
 30
0.0
 40
180.0
  1
1e36cee4 LONGITUDINAL_BAR2-Y16B8
100
AcDbText
  0
CIRCLE
  5
AA
330
17
100
AcDbEntity
  8
DEBUG_ENGINEERING_OBJECTS
 62
3
100
AcDbCircle
 10
20820.6
 20
13657.1
 30
0.0
 40
120.0
  0
TEXT
  5
AB
330
17
100
AcDbEntity
  8
DEBUG_ENGINEERING_OBJECTS
 62
3
100
AcDbText
 10
20820.6
 20
13907.1
 30
0.0
 40
180.0
  1
d6b6c530 LONGITUDINAL_BAR2-Y20B14
100
AcDbText
  0
CIRCLE
  5
AC
330
17
100
AcDbEntity
  8
DEBUG_ENGINEERING_OBJECTS
 62
3
100
AcDbCircle
 10
21673.2
 20
13325.3
 30
0.0
 40
120.0
  0
TEXT
  5
AD
330
17
100
AcDbEntity
  8
DEBUG_ENGINEERING_OBJECTS
 62
3
100
AcDbText
 10
21673.2
 20
13575.3
 30
0.0
 40
180.0
  1
a8bd587f STIRRUP2L-Y8@100/200/100C/CB14
100
AcDbText
  0
CIRCLE
  5
AE
330
17
100
AcDbEntity
  8
DEBUG_ENGINEERING_OBJECTS
 62
3
100
AcDbCircle
 10
27242.6
 20
21920.6
 30
0.0
 40
120.0
  0
TEXT
  5
AF
330
17
100
AcDbEntity
  8
DEBUG_ENGINEERING_OBJECTS
 62
3
100
AcDbText
 10
27242.6
 20
22170.6
 30
0.0
 40
180.0
  1
8948ff95 LONGITUDINAL_BAR2-Y16B4
100
AcDbText
  0
CIRCLE
  5
B0
330
17
100
AcDbEntity
  8
DEBUG_ENGINEERING_OBJECTS
 62
3
100
AcDbCircle
 10
27355.6
 20
15751.1
 30
0.0
 40
120.0
  0
TEXT
  5
B1
330
17
100
AcDbEntity
  8
DEBUG_ENGINEERING_OBJECTS
 62
3
100
AcDbText
 10
27355.6
 20
16001.1
 30
0.0
 40
180.0
  1
5f193edd SIDE_FACE_REINFORCEMENT4-Y8, SIDE FACE REINB10
100
AcDbText
  0
CIRCLE
  5
B2
330
17
100
AcDbEntity
  8
DEBUG_ENGINEERING_OBJECTS
 62
3
100
AcDbCircle
 10
26448.3
 20
15465.0
 30
0.0
 40
120.0
  0
TEXT
  5
B3
330
17
100
AcDbEntity
  8
DEBUG_ENGINEERING_OBJECTS
 62
3
100
AcDbText
 10
26448.3
 20
15715.0
 30
0.0
 40
180.0
  1
8eb3a839 LONGITUDINAL_BAR2-Y16B10
100
AcDbText
  0
CIRCLE
  5
B4
330
17
100
AcDbEntity
  8
DEBUG_ENGINEERING_OBJECTS
 62
3
100
AcDbCircle
 10
26251.2
 20
15259.2
 30
0.0
 40
120.0
  0
TEXT
  5
B5
330
17
100
AcDbEntity
  8
DEBUG_ENGINEERING_OBJECTS
 62
3
100
AcDbText
 10
26251.2
 20
15509.2
 30
0.0
 40
180.0
  1
d8c49c95 LONGITUDINAL_BAR2-Y16B10
100
AcDbText
  0
CIRCLE
  5
B6
330
17
100
AcDbEntity
  8
DEBUG_ENGINEERING_OBJECTS
 62
3
100
AcDbCircle
 10
24696.2
 20
15103.4
 30
0.0
 40
120.0
  0
LINE
  5
B7
330
17
100
AcDbEntity
  8
DEBUG_ENGINEERING_OBJECTS
 62
3
100
AcDbLine
 10
24696.2
 20
15103.4
 30
0.0
 11
25088.41914340378
 21
14446.69713019282
 31
0.0
  0
TEXT
  5
B8
330
17
100
AcDbEntity
  8
DEBUG_ENGINEERING_OBJECTS
 62
3
100
AcDbText
 10
24696.2
 20
15353.4
 30
0.0
 40
180.0
  1
da9915a6 ANCHORAGELdB14
100
AcDbText
  0
CIRCLE
  5
B9
330
17
100
AcDbEntity
  8
DEBUG_ENGINEERING_OBJECTS
 62
3
100
AcDbCircle
 10
26249.5
 20
14021.4
 30
0.0
 40
120.0
  0
TEXT
  5
BA
330
17
100
AcDbEntity
  8
DEBUG_ENGINEERING_OBJECTS
 62
3
100
AcDbText
 10
26249.5
 20
14271.4
 30
0.0
 40
180.0
  1
3251659c LONGITUDINAL_BAR2-Y16B10
100
AcDbText
  0
CIRCLE
  5
BB
330
17
100
AcDbEntity
  8
DEBUG_ENGINEERING_OBJECTS
 62
3
100
AcDbCircle
 10
26265.0
 20
13888.1
 30
0.0
 40
120.0
  0
TEXT
  5
BC
330
17
100
AcDbEntity
  8
DEBUG_ENGINEERING_OBJECTS
 62
3
100
AcDbText
 10
26265.0
 20
14138.1
 30
0.0
 40
180.0
  1
d99ad272 LONGITUDINAL_BAR2-Y16B10
100
AcDbText
  0
CIRCLE
  5
BD
330
17
100
AcDbEntity
  8
DEBUG_ENGINEERING_OBJECTS
 62
3
100
AcDbCircle
 10
26024.9
 20
13446.0
 30
0.0
 40
120.0
  0
TEXT
  5
BE
330
17
100
AcDbEntity
  8
DEBUG_ENGINEERING_OBJECTS
 62
3
100
AcDbText
 10
26024.9
 20
13696.0
 30
0.0
 40
180.0
  1
eda09431 STIRRUP2L-Y8@100C/CB14
100
AcDbText
  0
CIRCLE
  5
BF
330
17
100
AcDbEntity
  8
DEBUG_ENGINEERING_OBJECTS
 62
3
100
AcDbCircle
 10
30550.2
 20
15260.5
 30
0.0
 40
120.0
  0
TEXT
  5
C0
330
17
100
AcDbEntity
  8
DEBUG_ENGINEERING_OBJECTS
 62
3
100
AcDbText
 10
30550.2
 20
15510.5
 30
0.0
 40
180.0
  1
d6e343a2 LONGITUDINAL_BAR2-Y16B15
100
AcDbText
  0
CIRCLE
  5
C1
330
17
100
AcDbEntity
  8
DEBUG_ENGINEERING_OBJECTS
 62
3
100
AcDbCircle
 10
30561.0
 20
13707.5
 30
0.0
 40
120.0
  0
TEXT
  5
C2
330
17
100
AcDbEntity
  8
DEBUG_ENGINEERING_OBJECTS
 62
3
100
AcDbText
 10
30561.0
 20
13957.5
 30
0.0
 40
180.0
  1
7a7d1e67 LONGITUDINAL_BAR2-Y16B15
100
AcDbText
  0
CIRCLE
  5
C3
330
17
100
AcDbEntity
  8
DEBUG_ENGINEERING_OBJECTS
 62
3
100
AcDbCircle
 10
31413.7
 20
13375.7
 30
0.0
 40
120.0
  0
TEXT
  5
C4
330
17
100
AcDbEntity
  8
DEBUG_ENGINEERING_OBJECTS
 62
3
100
AcDbText
 10
31413.7
 20
13625.7
 30
0.0
 40
180.0
  1
ba5687bb STIRRUP2L-Y8@100C/CB15
100
AcDbText
  0
CIRCLE
  5
C5
330
17
100
AcDbEntity
  8
DEBUG_ENGINEERING_OBJECTS
 62
3
100
AcDbCircle
 10
5767.1
 20
11496.9
 30
0.0
 40
120.0
  0
TEXT
  5
C6
330
17
100
AcDbEntity
  8
DEBUG_ENGINEERING_OBJECTS
 62
3
100
AcDbText
 10
5767.1
 20
11746.9
 30
0.0
 40
180.0
  1
1b386e69 LONGITUDINAL_BAR2-Y16B12
100
AcDbText
  0
CIRCLE
  5
C7
330
17
100
AcDbEntity
  8
DEBUG_ENGINEERING_OBJECTS
 62
3
100
AcDbCircle
 10
5760.7
 20
10095.7
 30
0.0
 40
120.0
  0
TEXT
  5
C8
330
17
100
AcDbEntity
  8
DEBUG_ENGINEERING_OBJECTS
 62
3
100
AcDbText
 10
5760.7
 20
10345.7
 30
0.0
 40
180.0
  1
53e58e39 LONGITUDINAL_BAR2-Y16B16
100
AcDbText
  0
CIRCLE
  5
C9
330
17
100
AcDbEntity
  8
DEBUG_ENGINEERING_OBJECTS
 62
3
100
AcDbCircle
 10
5633.0
 20
9600.8
 30
0.0
 40
120.0
  0
TEXT
  5
CA
330
17
100
AcDbEntity
  8
DEBUG_ENGINEERING_OBJECTS
 62
3
100
AcDbText
 10
5633.0
 20
9850.8
 30
0.0
 40
180.0
  1
d0c5ca58 STIRRUP2L-Y8@150C/CB16
100
AcDbText
  0
CIRCLE
  5
CB
330
17
100
AcDbEntity
  8
DEBUG_ENGINEERING_OBJECTS
 62
3
100
AcDbCircle
 10
10766.1
 20
15210.1
 30
0.0
 40
120.0
  0
TEXT
  5
CC
330
17
100
AcDbEntity
  8
DEBUG_ENGINEERING_OBJECTS
 62
3
100
AcDbText
 10
10766.1
 20
15460.1
 30
0.0
 40
180.0
  1
03cbad17 LONGITUDINAL_BAR2-Y16B6
100
AcDbText
  0
CIRCLE
  5
CD
330
17
100
AcDbEntity
  8
DEBUG_ENGINEERING_OBJECTS
 62
3
100
AcDbCircle
 10
10776.9
 20
13657.1
 30
0.0
 40
120.0
  0
TEXT
  5
CE
330
17
100
AcDbEntity
  8
DEBUG_ENGINEERING_OBJECTS
 62
3
100
AcDbText
 10
10776.9
 20
13907.1
 30
0.0
 40
180.0
  1
ff82d053 LONGITUDINAL_BAR2-Y20B13
100
AcDbText
  0
CIRCLE
  5
CF
330
17
100
AcDbEntity
  8
DEBUG_ENGINEERING_OBJECTS
 62
3
100
AcDbCircle
 10
9868.3
 20
11493.4
 30
0.0
 40
120.0
  0
TEXT
  5
D0
330
17
100
AcDbEntity
  8
DEBUG_ENGINEERING_OBJECTS
 62
3
100
AcDbText
 10
9868.3
 20
11743.4
 30
0.0
 40
180.0
  1
3ef0f778 LONGITUDINAL_BAR2-Y20B17
100
AcDbText
  0
CIRCLE
  5
D1
330
17
100
AcDbEntity
  8
DEBUG_ENGINEERING_OBJECTS
 62
3
100
AcDbCircle
 10
9950.6
 20
9940.5
 30
0.0
 40
120.0
  0
TEXT
  5
D2
330
17
100
AcDbEntity
  8
DEBUG_ENGINEERING_OBJECTS
 62
3
100
AcDbText
 10
9950.6
 20
10190.5
 30
0.0
 40
180.0
  1
b2eb8502 LONGITUDINAL_BAR2-Y20B17
100
AcDbText
  0
CIRCLE
  5
D3
330
17
100
AcDbEntity
  8
DEBUG_ENGINEERING_OBJECTS
 62
3
100
AcDbCircle
 10
9920.5
 20
9608.6
 30
0.0
 40
120.0
  0
TEXT
  5
D4
330
17
100
AcDbEntity
  8
DEBUG_ENGINEERING_OBJECTS
 62
3
100
AcDbText
 10
9920.5
 20
9858.6
 30
0.0
 40
180.0
  1
1827be15 STIRRUP2L-Y8@200C/CB17
100
AcDbText
  0
CIRCLE
  5
D5
330
17
100
AcDbEntity
  8
DEBUG_ENGINEERING_OBJECTS
 62
3
100
AcDbCircle
 10
17874.6
 20
11120.0
 30
0.0
 40
120.0
  0
LINE
  5
D6
330
17
100
AcDbEntity
  8
DEBUG_ENGINEERING_OBJECTS
 62
3
100
AcDbLine
 10
17874.6
 20
11120.0
 30
0.0
 11
18274.62524644927
 21
10850.33598613255
 31
0.0
  0
TEXT
  5
D7
330
17
100
AcDbEntity
  8
DEBUG_ENGINEERING_OBJECTS
 62
3
100
AcDbText
 10
17874.6
 20
11370.0
 30
0.0
 40
180.0
  1
63c28f68 ANCHORAGELd+10dbB18
100
AcDbText
  0
CIRCLE
  5
D8
330
17
100
AcDbEntity
  8
DEBUG_ENGINEERING_OBJECTS
 62
3
100
AcDbCircle
 10
14356.6
 20
9586.6
 30
0.0
 40
120.0
  0
TEXT
  5
D9
330
17
100
AcDbEntity
  8
DEBUG_ENGINEERING_OBJECTS
 62
3
100
AcDbText
 10
14356.6
 20
9836.6
 30
0.0
 40
180.0
  1
2b7b1e0d STIRRUP2L-Y8@100C/CB18
100
AcDbText
  0
CIRCLE
  5
DA
330
17
100
AcDbEntity
  8
DEBUG_ENGINEERING_OBJECTS
 62
3
100
AcDbCircle
 10
16679.9
 20
9250.1
 30
0.0
 40
120.0
  0
TEXT
  5
DB
330
17
100
AcDbEntity
  8
DEBUG_ENGINEERING_OBJECTS
 62
3
100
AcDbText
 10
16679.9
 20
9500.1
 30
0.0
 40
180.0
  1
2a7f1f07 SIDE_FACE_REINFORCEMENTSIDE.FACE.REINFORCEMB18
100
AcDbText
  0
CIRCLE
  5
DC
330
17
100
AcDbEntity
  8
DEBUG_ENGINEERING_OBJECTS
 62
3
100
AcDbCircle
 10
18736.3
 20
9007.7
 30
0.0
 40
120.0
  0
TEXT
  5
DD
330
17
100
AcDbEntity
  8
DEBUG_ENGINEERING_OBJECTS
 62
3
100
AcDbText
 10
18736.3
 20
9257.7
 30
0.0
 40
180.0
  1
e8ef82bd SIDE_FACE_REINFORCEMENTS.F.R.- 2-Y10B18
100
AcDbText
  0
CIRCLE
  5
DE
330
17
100
AcDbEntity
  8
DEBUG_ENGINEERING_OBJECTS
 62
3
100
AcDbCircle
 10
12656.1
 20
9586.6
 30
0.0
 40
120.0
  0
TEXT
  5
DF
330
17
100
AcDbEntity
  8
DEBUG_ENGINEERING_OBJECTS
 62
3
100
AcDbText
 10
12656.1
 20
9836.6
 30
0.0
 40
180.0
  1
2bbf26ec STIRRUP2L-Y8@100C/CB18
100
AcDbText
  0
ENDSEC
  0
SECTION
  2
OBJECTS
  0
DICTIONARY
  5
A
330
0
100
AcDbDictionary
281
1
  3
ACAD_COLOR
350
B
  3
ACAD_GROUP
350
C
  3
ACAD_LAYOUT
350
D
  3
ACAD_MATERIAL
350
E
  3
ACAD_MLEADERSTYLE
350
F
  3
ACAD_MLINESTYLE
350
10
  3
ACAD_PLOTSETTINGS
350
11
  3
ACAD_PLOTSTYLENAME
350
12
  3
ACAD_SCALELIST
350
14
  3
ACAD_TABLESTYLE
350
15
  3
ACAD_VISUALSTYLE
350
16
  3
EZDXF_META
350
2D
  0
DICTIONARY
  5
B
330
A
100
AcDbDictionary
281
1
  0
DICTIONARY
  5
C
330
A
100
AcDbDictionary
281
1
  0
DICTIONARY
  5
D
330
A
100
AcDbDictionary
281
1
  3
Model
350
1A
  3
Layout1
350
1E
  0
DICTIONARY
  5
E
330
A
100
AcDbDictionary
281
1
  3
ByBlock
350
1F
  3
ByLayer
350
20
  3
Global
350
21
  0
DICTIONARY
  5
F
330
A
100
AcDbDictionary
281
1
  3
Standard
350
2C
  0
DICTIONARY
  5
10
330
A
100
AcDbDictionary
281
1
  3
Standard
350
22
  0
DICTIONARY
  5
11
330
A
100
AcDbDictionary
281
1
  0
ACDBDICTIONARYWDFLT
  5
12
330
A
100
AcDbDictionary
281
1
  3
Normal
350
13
100
AcDbDictionaryWithDefault
340
13
  0
ACDBPLACEHOLDER
  5
13
330
12
  0
DICTIONARY
  5
14
330
A
100
AcDbDictionary
281
1
  0
DICTIONARY
  5
15
330
A
100
AcDbDictionary
281
1
  0
DICTIONARY
  5
16
330
A
100
AcDbDictionary
281
1
  0
LAYOUT
  5
1A
330
D
100
AcDbPlotSettings
  1

  4
A3
  6

 40
7.5
 41
20.0
 42
7.5
 43
20.0
 44
420.0
 45
297.0
 46
0.0
 47
0.0
 48
0.0
 49
0.0
140
0.0
141
0.0
142
1.0
143
1.0
 70
1024
 72
1
 73
0
 74
5
  7

 75
16
 76
0
 77
2
 78
300
147
1.0
148
0.0
149
0.0
100
AcDbLayout
  1
Model
 70
1
 71
0
 10
0.0
 20
0.0
 11
420.0
 21
297.0
 12
0.0
 22
0.0
 32
0.0
 14
1e+20
 24
1e+20
 34
1e+20
 15
-1e+20
 25
-1e+20
 35
-1e+20
146
0.0
 13
0.0
 23
0.0
 33
0.0
 16
1.0
 26
0.0
 36
0.0
 17
0.0
 27
1.0
 37
0.0
 76
1
330
17
  0
LAYOUT
  5
1E
330
D
100
AcDbPlotSettings
  1

  4
A3
  6

 40
7.5
 41
20.0
 42
7.5
 43
20.0
 44
420.0
 45
297.0
 46
0.0
 47
0.0
 48
0.0
 49
0.0
140
0.0
141
0.0
142
1.0
143
1.0
 70
0
 72
1
 73
0
 74
5
  7

 75
16
 76
0
 77
2
 78
300
147
1.0
148
0.0
149
0.0
100
AcDbLayout
  1
Layout1
 70
1
 71
1
 10
0.0
 20
0.0
 11
420.0
 21
297.0
 12
0.0
 22
0.0
 32
0.0
 14
1e+20
 24
1e+20
 34
1e+20
 15
-1e+20
 25
-1e+20
 35
-1e+20
146
0.0
 13
0.0
 23
0.0
 33
0.0
 16
1.0
 26
0.0
 36
0.0
 17
0.0
 27
1.0
 37
0.0
 76
1
330
1B
  0
MATERIAL
  5
1F
102
{ACAD_REACTORS
330
E
102
}
330
E
100
AcDbMaterial
  1
ByBlock
  2

 70
0
 40
1.0
 71
1
 41
1.0
 91
-1023410177
 42
1.0
 72
1
  3

 73
1
 74
1
 75
1
 44
0.5
 73
0
 45
1.0
 46
1.0
 77
1
  4

 78
1
 79
1
170
1
 48
1.0
171
1
  6

172
1
173
1
174
1
140
1.0
141
1.0
175
1
  7

176
1
177
1
178
1
143
1.0
179
1
  8

270
1
271
1
272
1
145
1.0
146
1.0
273
1
  9

274
1
275
1
276
1
 42
1.0
 72
1
  3

 73
1
 74
1
 75
1
 94
63
  0
MATERIAL
  5
20
102
{ACAD_REACTORS
330
E
102
}
330
E
100
AcDbMaterial
  1
ByLayer
  2

 70
0
 40
1.0
 71
1
 41
1.0
 91
-1023410177
 42
1.0
 72
1
  3

 73
1
 74
1
 75
1
 44
0.5
 73
0
 45
1.0
 46
1.0
 77
1
  4

 78
1
 79
1
170
1
 48
1.0
171
1
  6

172
1
173
1
174
1
140
1.0
141
1.0
175
1
  7

176
1
177
1
178
1
143
1.0
179
1
  8

270
1
271
1
272
1
145
1.0
146
1.0
273
1
  9

274
1
275
1
276
1
 42
1.0
 72
1
  3

 73
1
 74
1
 75
1
 94
63
  0
MATERIAL
  5
21
102
{ACAD_REACTORS
330
E
102
}
330
E
100
AcDbMaterial
  1
Global
  2

 70
0
 40
1.0
 71
1
 41
1.0
 91
-1023410177
 42
1.0
 72
1
  3

 73
1
 74
1
 75
1
 44
0.5
 73
0
 45
1.0
 46
1.0
 77
1
  4

 78
1
 79
1
170
1
 48
1.0
171
1
  6

172
1
173
1
174
1
140
1.0
141
1.0
175
1
  7

176
1
177
1
178
1
143
1.0
179
1
  8

270
1
271
1
272
1
145
1.0
146
1.0
273
1
  9

274
1
275
1
276
1
 42
1.0
 72
1
  3

 73
1
 74
1
 75
1
 94
63
  0
MLINESTYLE
  5
22
102
{ACAD_REACTORS
330
10
102
}
330
10
100
AcDbMlineStyle
  2
Standard
 70
0
  3

 62
256
 51
90.0
 52
90.0
 71
2
 49
0.5
 62
256
  6
BYLAYER
 49
-0.5
 62
256
  6
BYLAYER
  0
MLEADERSTYLE
  5
2C
102
{ACAD_REACTORS
330
F
102
}
330
F
100
AcDbMLeaderStyle
179
2
170
2
171
1
172
0
 90
2
 40
0.0
 41
0.0
173
1
 91
-1056964608
 92
-2
290
1
 42
2.0
291
1
 43
8.0
  3
Standard
 44
4.0
300

342
29
174
1
175
1
176
0
178
1
 93
-1056964608
 45
4.0
292
0
297
0
 46
4.0
 94
-1056964608
 47
1.0
 49
1.0
140
1.0
294
1
141
0.0
177
0
142
1.0
295
0
296
0
143
3.75
271
0
272
9
273
9
  0
DICTIONARY
  5
2D
330
A
100
AcDbDictionary
280
1
281
1
  3
CREATED_BY_EZDXF
350
2E
  3
WRITTEN_BY_EZDXF
350
E2
  0
DICTIONARYVAR
  5
2E
330
2D
100
DictionaryVariables
280
0
  1
1.4.4 @ 2026-06-26T04:46:07.961008+00:00
  0
DICTIONARYVAR
  5
E2
330
2D
100
DictionaryVariables
280
0
  1
1.4.4 @ 2026-06-26T04:46:07.971814+00:00
  0
ENDSEC
  0
EOF
